<?xml version="1.0" encoding="UTF-8" ?>
<!DOCTYPE svg PUBLIC "-//W3C//DTD SVG 1.1//EN" "http://www.w3.org/Graphics/SVG/1.1/DTD/svg11.dtd">
<svg width="123pt" height="123pt" viewBox="0 0 123 123" version="1.1" xmlns="http://www.w3.org/2000/svg">
<path fill="#040f1c" stroke="#040f1c" stroke-width="0.09375" opacity="0.21" d=" M 24.4 12.5 C 34.8 9.6 45.9 10.2 56.4 12.5 C 64.4 14.1 72.5 18.0 77.0 25.0 C 81.2 31.8 82.1 39.8 82.7 47.6 C 83.0 47.6 83.8 47.5 84.1 47.5 C 84.7 44.4 83.5 39.7 87.1 38.1 C 91.1 37.0 95.7 36.8 99.6 38.5 C 102.2 40.9 101.3 45.0 101.9 48.2 C 105.4 48.7 109.9 47.6 112.6 50.4 C 114.2 54.3 114.0 58.9 112.9 62.9 C 111.2 67.3 105.7 66.4 101.9 66.9 C 101.2 70.3 102.5 76.0 98.1 77.2 C 94.1 77.8 89.4 78.4 85.9 76.1 C 84.3 73.2 84.5 69.6 83.3 66.5 C 81.3 66.8 79.3 67.1 77.2 67.3 C 79.9 74.5 83.5 81.4 85.1 89.0 C 86.4 94.3 85.2 100.3 81.4 104.4 C 77.9 107.9 72.7 108.7 68.0 108.7 C 63.8 108.6 59.3 107.8 56.0 105.1 C 53.1 102.7 50.8 99.8 48.5 97.0 C 45.6 101.2 42.7 106.2 37.4 107.5 C 31.1 109.3 23.5 109.0 18.4 104.6 C 13.5 100.2 12.6 93.2 12.5 87.0 C 12.6 69.7 12.6 52.3 12.5 35.0 C 12.5 29.1 13.2 22.7 16.7 17.7 C 18.4 15.1 21.3 13.3 24.4 12.5 M 21.6 17.6 C 16.8 21.1 16.3 27.6 16.4 33.0 C 16.6 52.7 16.4 72.3 16.5 92.0 C 16.3 97.7 20.1 103.9 26.1 104.5 C 31.2 104.9 37.4 105.4 41.2 101.2 C 44.8 96.7 44.8 90.5 46.8 85.2 C 50.5 89.6 52.3 95.0 55.3 99.8 C 59.7 105.5 68.1 106.4 74.7 104.5 C 80.3 102.9 83.1 96.4 82.0 91.0 C 80.3 81.7 75.1 73.5 72.9 64.4 C 77.3 64.5 81.7 64.9 86.1 65.5 C 86.6 68.7 85.3 73.0 87.9 75.3 C 91.2 76.1 94.8 76.0 98.1 75.3 C 100.8 73.1 99.3 69.0 99.7 65.9 C 99.8 65.6 100.0 64.9 100.1 64.6 C 103.7 64.1 108.9 65.8 111.1 62.0 C 111.8 58.7 111.5 55.3 111.5 52.0 C 110.9 51.7 109.8 50.9 109.2 50.6 C 106.1 50.5 102.9 50.4 99.7 50.4 C 99.2 46.9 100.6 42.5 97.9 39.9 C 94.6 39.3 91.2 39.5 87.8 39.5 C 87.8 39.9 87.7 40.8 87.7 41.2 L 86.5 41.2 C 86.2 44.1 85.9 47.1 85.5 50.0 C 83.2 49.5 80.9 49.1 78.5 48.9 C 78.9 40.3 78.1 30.7 71.9 24.1 C 64.2 16.2 52.5 14.6 41.9 14.4 C 35.1 14.5 27.6 13.8 21.6 17.6 Z" />
<path fill="#0b2645" stroke="#0b2645" stroke-width="0.09375" opacity="0.45" d=" M 21.6 17.6 C 27.6 13.8 35.1 14.5 41.9 14.4 C 52.5 14.6 64.2 16.2 71.9 24.1 C 78.1 30.7 78.9 40.3 78.5 48.9 C 80.9 49.1 83.2 49.5 85.5 50.0 C 85.9 47.1 86.2 44.1 86.5 41.2 L 87.7 41.2 C 87.6 44.4 87.4 47.6 86.6 50.7 C 82.6 51.9 78.6 50.3 74.8 49.4 C 75.2 42.5 75.2 35.0 71.1 29.0 C 66.8 22.2 58.6 19.6 51.0 18.5 C 43.7 17.5 36.1 17.0 28.9 18.5 C 25.9 19.2 22.7 20.5 21.4 23.5 C 19.3 28.0 19.5 33.1 19.5 38.0 C 19.7 54.3 19.5 70.7 19.5 87.0 C 19.7 91.8 19.9 97.9 24.6 100.4 C 29.4 102.5 36.5 102.3 39.5 97.4 C 42.1 92.2 40.8 85.9 42.7 80.5 C 43.3 77.4 47.5 77.9 49.2 79.7 C 54.2 85.1 54.4 93.3 59.3 98.7 C 61.7 101.4 65.6 101.8 69.0 101.7 C 72.0 101.6 75.5 100.9 77.2 98.2 C 79.0 95.5 78.7 92.1 78.0 89.1 C 76.4 82.0 72.6 75.7 70.3 68.9 C 69.0 65.2 69.7 61.3 70.1 57.5 C 70.6 57.5 71.5 57.5 72.0 57.5 C 73.4 59.2 74.7 61.1 76.6 62.4 C 78.9 63.2 81.5 63.3 84.0 63.8 C 84.9 64.1 86.4 63.7 86.7 65.0 C 87.8 67.9 88.0 71.1 88.6 74.1 C 91.4 74.1 94.3 74.1 97.1 74.1 C 97.9 71.3 98.9 68.7 99.7 65.9 C 99.3 69.0 100.8 73.1 98.1 75.3 C 94.8 76.0 91.2 76.1 87.9 75.3 C 85.3 73.0 86.6 68.7 86.1 65.5 C 81.7 64.9 77.3 64.5 72.9 64.4 C 75.1 73.5 80.3 81.7 82.0 91.0 C 83.1 96.4 80.3 102.9 74.7 104.5 C 68.1 106.4 59.7 105.5 55.3 99.8 C 52.3 95.0 50.5 89.6 46.8 85.2 C 44.8 90.5 44.8 96.7 41.2 101.2 C 37.4 105.4 31.2 104.9 26.1 104.5 C 20.1 103.9 16.3 97.7 16.5 92.0 C 16.4 72.3 16.6 52.7 16.4 33.0 C 16.3 27.6 16.8 21.1 21.6 17.6 Z" />
<path fill="#0e2f57" stroke="#0e2f57" stroke-width="0.09375" opacity="0.56" d=" M 28.9 18.5 C 36.1 17.0 43.7 17.5 51.0 18.5 C 58.6 19.6 66.8 22.2 71.1 29.0 C 75.2 35.0 75.2 42.5 74.8 49.4 C 78.6 50.3 82.6 51.9 86.6 50.7 C 87.4 47.6 87.6 44.4 87.7 41.2 C 87.7 40.8 87.8 39.9 87.8 39.5 C 91.2 39.5 94.6 39.3 97.9 39.9 C 100.6 42.5 99.2 46.9 99.7 50.4 C 102.9 50.4 106.1 50.5 109.2 50.6 C 109.8 50.9 110.9 51.7 111.5 52.0 C 111.5 55.3 111.8 58.7 111.1 62.0 C 108.9 65.8 103.7 64.1 100.1 64.6 C 100.0 64.9 99.8 65.6 99.7 65.9 C 98.9 68.7 97.9 71.3 97.1 74.1 C 94.3 74.1 91.4 74.1 88.6 74.1 C 88.0 71.1 87.8 67.9 86.7 65.0 C 86.4 63.7 84.9 64.1 84.0 63.8 C 81.5 63.3 78.9 63.2 76.6 62.4 C 74.7 61.1 73.4 59.2 72.0 57.5 C 71.5 57.5 70.6 57.5 70.1 57.5 C 69.7 61.3 69.0 65.2 70.3 68.9 C 72.6 75.7 76.4 82.0 78.0 89.1 C 78.7 92.1 79.0 95.5 77.2 98.2 C 75.5 100.9 72.0 101.6 69.0 101.7 C 65.6 101.8 61.7 101.4 59.3 98.7 C 54.4 93.3 54.2 85.1 49.2 79.7 C 47.5 77.9 43.3 77.4 42.7 80.5 C 40.8 85.9 42.1 92.2 39.5 97.4 C 36.5 102.3 29.4 102.5 24.6 100.4 C 19.9 97.9 19.7 91.8 19.5 87.0 C 19.5 70.7 19.7 54.3 19.5 38.0 C 19.5 33.1 19.3 28.0 21.4 23.5 C 22.7 20.5 25.9 19.2 28.9 18.5 M 24.4 24.3 C 22.1 28.1 22.3 32.8 22.2 37.0 C 22.4 54.0 22.2 71.0 22.2 87.9 C 22.1 90.8 23.1 93.5 24.8 95.8 C 28.2 97.6 32.7 97.5 36.1 95.8 C 37.0 94.3 38.1 92.8 38.1 91.0 C 38.9 83.6 37.9 75.9 39.8 68.6 C 43.2 67.2 47.1 68.9 49.3 71.7 C 54.5 78.3 56.0 86.9 59.9 94.2 C 62.4 99.2 69.9 100.8 74.1 97.2 C 76.7 94.9 75.6 91.1 74.8 88.3 C 72.3 81.1 69.3 74.0 65.9 67.1 C 65.1 64.9 63.3 62.3 65.1 60.2 C 67.8 56.0 71.4 52.1 71.9 47.0 C 72.8 39.2 70.6 29.8 63.4 25.7 C 54.6 20.4 43.9 20.7 34.0 20.9 C 30.7 21.2 26.5 21.2 24.4 24.3 M 89.8 42.8 C 89.9 46.5 89.8 50.3 89.8 54.0 L 88.9 54.0 C 88.9 53.7 88.9 53.3 88.9 53.0 C 84.2 53.6 79.6 52.3 75.1 51.4 C 73.0 54.7 74.7 59.5 78.5 60.7 C 82.3 60.8 86.1 60.8 89.8 60.7 C 89.9 64.4 89.8 68.2 89.9 71.9 C 92.1 72.0 94.2 72.0 96.4 72.1 C 96.6 68.3 96.5 64.5 96.5 60.8 C 100.3 60.7 104.1 60.8 107.8 60.6 C 107.9 58.5 107.8 56.3 107.8 54.2 C 104.0 53.9 100.3 54.0 96.5 54.0 C 96.5 50.2 96.5 46.5 96.4 42.8 C 94.2 42.7 92.0 42.8 89.8 42.8 Z" />
<path fill="#0e315a" stroke="#0e315a" stroke-width="0.09375" opacity="0.65" d=" M 24.4 24.3 C 26.5 21.2 30.7 21.2 34.0 20.9 C 43.9 20.7 54.6 20.4 63.4 25.7 C 70.6 29.8 72.8 39.2 71.9 47.0 C 71.4 52.1 67.8 56.0 65.1 60.2 C 63.3 62.3 65.1 64.9 65.9 67.1 C 69.3 74.0 72.3 81.1 74.8 88.3 C 75.6 91.1 76.7 94.9 74.1 97.2 C 69.9 100.8 62.4 99.2 59.9 94.2 C 56.0 86.9 54.5 78.3 49.3 71.7 C 47.1 68.9 43.2 67.2 39.8 68.6 C 37.9 75.9 38.9 83.6 38.1 91.0 C 38.1 92.8 37.0 94.3 36.1 95.8 C 36.2 85.4 36.1 75.0 36.2 64.6 C 39.8 64.9 43.7 64.6 47.1 66.1 C 50.5 67.5 52.4 70.8 54.0 73.9 C 57.2 80.7 59.3 87.9 62.4 94.7 C 63.2 97.0 65.9 97.0 68.0 97.1 C 70.2 97.0 72.9 97.2 74.4 95.1 C 73.9 91.1 71.9 87.4 70.5 83.6 C 67.1 75.7 64.6 66.9 57.9 61.1 C 62.4 58.8 67.0 55.6 68.7 50.6 C 71.0 44.2 70.4 36.4 66.0 31.0 C 62.3 26.5 56.5 24.3 50.9 23.7 C 44.6 23.0 38.3 23.3 32.0 23.2 C 29.7 23.3 26.7 23.1 25.4 25.4 C 24.3 28.1 24.7 31.2 24.6 34.0 C 24.8 54.6 24.3 75.2 24.8 95.8 C 23.1 93.5 22.1 90.8 22.2 87.9 C 22.2 71.0 22.4 54.0 22.2 37.0 C 22.3 32.8 22.1 28.1 24.4 24.3 Z" />
<path fill="#ffffff" stroke="#ffffff" stroke-width="0.09375" opacity="1.00" d=" M 25.4 25.4 C 26.7 23.1 29.7 23.3 32.0 23.2 C 38.3 23.3 44.6 23.0 50.9 23.7 C 56.5 24.3 62.3 26.5 66.0 31.0 C 70.4 36.4 71.0 44.2 68.7 50.6 C 67.0 55.6 62.4 58.8 57.9 61.1 C 64.6 66.9 67.1 75.7 70.5 83.6 C 71.9 87.4 73.9 91.1 74.4 95.1 C 72.9 97.2 70.2 97.0 68.0 97.1 C 65.9 97.0 63.2 97.0 62.4 94.7 C 59.3 87.9 57.2 80.7 54.0 73.9 C 52.4 70.8 50.5 67.5 47.1 66.1 C 43.7 64.6 39.8 64.9 36.2 64.6 C 36.1 75.0 36.2 85.4 36.1 95.8 C 32.7 97.5 28.2 97.6 24.8 95.8 C 24.3 75.2 24.8 54.6 24.6 34.0 C 24.7 31.2 24.3 28.1 25.4 25.4 M 36.1 33.0 C 36.1 40.4 36.1 47.8 36.1 55.3 C 41.4 55.1 46.9 55.8 51.9 53.9 C 59.4 51.0 60.2 38.7 53.1 35.0 C 47.9 32.4 41.8 33.3 36.1 33.0 Z" />
<path fill="#0e315a" stroke="#0e315a" stroke-width="0.09375" opacity="0.62" d=" M 36.1 33.0 C 41.8 33.3 47.9 32.4 53.1 35.0 C 60.2 38.7 59.4 51.0 51.9 53.9 C 46.9 55.8 41.4 55.1 36.1 55.3 C 36.1 47.8 36.1 40.4 36.1 33.0 M 43.3 38.3 C 40.0 40.3 40.0 45.3 41.8 48.3 C 44.6 52.3 51.4 49.3 52.3 45.1 C 53.4 40.3 47.4 36.5 43.3 38.3 Z" />
<path fill="#0d2c52" stroke="#0d2c52" stroke-width="0.09375" opacity="0.53" d=" M 43.3 38.3 C 47.4 36.5 53.4 40.3 52.3 45.1 C 51.4 49.3 44.6 52.3 41.8 48.3 C 40.0 45.3 40.0 40.3 43.3 38.3 Z" />
<path fill="#ffffff" stroke="#ffffff" stroke-width="0.09375" opacity="1.00" d=" M 89.8 42.8 C 92.0 42.8 94.2 42.7 96.4 42.8 C 96.5 46.5 96.5 50.2 96.5 54.0 C 100.3 54.0 104.0 53.9 107.8 54.2 C 107.8 56.3 107.9 58.5 107.8 60.6 C 104.1 60.8 100.3 60.7 96.5 60.8 C 96.5 64.5 96.6 68.3 96.4 72.1 C 94.2 72.0 92.1 72.0 89.9 71.9 C 89.8 68.2 89.9 64.4 89.8 60.7 C 86.1 60.8 82.3 60.8 78.5 60.7 C 78.5 58.5 78.5 56.3 78.7 54.1 C 82.1 54.0 85.5 54.0 88.9 54.0 L 89.8 54.0 C 89.8 50.3 89.9 46.5 89.8 42.8 Z" />
<path fill="#103969" stroke="#103969" stroke-width="0.09375" opacity="0.68" d=" M 75.1 51.4 C 79.6 52.3 84.2 53.6 88.9 53.0 C 88.9 53.3 88.9 53.7 88.9 54.0 C 85.5 54.0 82.1 54.0 78.7 54.1 C 78.5 56.3 78.5 58.5 78.5 60.7 C 74.7 59.5 73.0 54.7 75.1 51.4 Z" />
</svg>
