<?xml version="1.0" encoding="UTF-8" ?>
<!DOCTYPE svg PUBLIC "-//W3C//DTD SVG 1.1//EN" "http://www.w3.org/Graphics/SVG/1.1/DTD/svg11.dtd">
<svg width="116pt" height="116pt" viewBox="0 0 116 116" version="1.1" xmlns="http://www.w3.org/2000/svg">
<path fill="#030c16" stroke="#030c16" stroke-width="0.09375" opacity="0.18" d=" M 25.6 10.5 C 33.1 10.1 40.6 10.4 48.0 10.3 C 56.9 10.4 66.1 9.6 74.7 12.5 C 79.1 14.4 82.6 18.5 83.6 23.3 C 85.4 29.3 83.5 35.9 79.7 40.8 C 76.1 45.1 69.8 44.2 65.0 46.0 C 62.5 46.8 62.8 49.9 62.6 52.0 C 62.7 64.3 62.7 76.6 62.6 89.0 C 62.4 95.3 61.0 102.6 55.6 106.6 C 49.2 109.8 41.3 110.0 34.7 107.3 C 29.9 105.2 28.0 99.7 27.0 95.0 C 25.6 86.7 26.6 78.3 26.3 70.0 C 26.0 62.2 27.0 54.2 25.6 46.5 C 20.8 44.7 15.2 45.0 10.8 42.2 C 3.1 35.4 2.9 22.4 10.2 15.3 C 14.5 11.7 20.3 11.1 25.6 10.5 M 19.3 14.4 C 16.2 15.0 13.0 16.3 10.9 18.8 C 6.4 24.9 6.7 34.4 12.4 39.6 C 16.8 42.6 22.6 41.5 27.3 43.8 C 29.6 45.4 29.6 48.5 29.6 51.1 C 29.5 64.4 29.6 77.7 29.6 91.0 C 29.7 96.3 31.4 103.1 37.1 104.9 C 42.5 106.6 48.8 106.6 54.0 104.0 C 58.3 100.8 59.5 95.0 59.5 90.0 C 59.4 77.0 59.5 64.0 59.4 51.0 C 59.4 48.5 59.4 45.4 61.7 43.7 C 66.6 41.4 72.8 42.8 77.1 39.1 C 82.9 33.1 82.5 22.2 76.2 16.8 C 68.7 12.2 59.4 13.9 51.0 13.6 C 40.5 13.9 29.8 12.8 19.3 14.4 Z" />
<path fill="#081d37" stroke="#081d37" stroke-width="0.09375" opacity="0.36" d=" M 19.3 14.4 C 29.8 12.8 40.5 13.9 51.0 13.6 C 59.4 13.9 68.7 12.2 76.2 16.8 C 82.5 22.2 82.9 33.1 77.1 39.1 C 72.8 42.8 66.6 41.4 61.7 43.7 C 59.4 45.4 59.4 48.5 59.4 51.0 C 59.5 64.0 59.4 77.0 59.5 90.0 C 59.5 95.0 58.3 100.8 54.0 104.0 C 48.8 106.6 42.5 106.6 37.1 104.9 C 31.4 103.1 29.7 96.3 29.6 91.0 C 29.6 77.7 29.5 64.4 29.6 51.1 C 29.6 48.5 29.6 45.4 27.3 43.8 C 22.6 41.5 16.8 42.6 12.4 39.6 C 6.7 34.4 6.4 24.9 10.9 18.8 C 13.0 16.3 16.2 15.0 19.3 14.4 M 23.4 16.6 C 20.3 17.0 17.0 17.6 14.5 19.5 C 12.0 21.6 11.1 24.9 11.2 27.9 C 11.1 31.1 11.5 34.8 14.1 36.9 C 17.8 39.5 22.6 39.2 26.9 40.0 C 30.4 40.9 32.6 44.4 32.4 47.9 C 32.6 62.6 32.3 77.3 32.5 92.0 C 32.8 96.2 34.6 101.6 39.4 102.4 C 43.0 103.0 46.7 103.0 50.3 102.3 C 55.0 100.9 56.5 95.4 56.6 91.1 C 56.5 77.4 56.6 63.6 56.5 49.9 C 56.6 47.1 56.6 43.8 58.9 41.9 C 62.8 38.3 68.6 40.3 73.0 38.0 C 76.0 37.0 77.6 33.9 77.7 31.0 C 78.0 26.8 78.3 21.5 74.2 18.9 C 69.5 16.5 64.1 16.4 59.0 16.4 C 47.2 16.6 35.3 16.2 23.4 16.6 Z" />
<path fill="#0d2f57" stroke="#0d2f57" stroke-width="0.09375" opacity="0.57" d=" M 23.4 16.6 C 35.3 16.2 47.2 16.6 59.0 16.4 C 64.1 16.4 69.5 16.5 74.2 18.9 C 78.3 21.5 78.0 26.8 77.7 31.0 C 77.6 33.9 76.0 37.0 73.0 38.0 C 68.6 40.3 62.8 38.3 58.9 41.9 C 56.6 43.8 56.6 47.1 56.5 49.9 C 56.6 63.6 56.5 77.4 56.6 91.1 C 56.5 95.4 55.0 100.9 50.3 102.3 C 46.7 103.0 43.0 103.0 39.4 102.4 C 34.6 101.6 32.8 96.2 32.5 92.0 C 32.3 77.3 32.6 62.6 32.4 47.9 C 32.6 44.4 30.4 40.9 26.9 40.0 C 22.6 39.2 17.8 39.5 14.1 36.9 C 11.5 34.8 11.1 31.1 11.2 27.9 C 11.1 24.9 12.0 21.6 14.5 19.5 C 17.0 17.6 20.3 17.0 23.4 16.6 M 17.5 25.4 C 16.7 27.9 16.7 30.7 18.0 33.1 C 24.9 34.1 31.9 33.2 38.8 33.5 C 38.9 53.7 38.8 73.9 38.9 94.0 C 38.7 97.3 42.7 97.3 45.0 97.3 C 47.1 97.3 50.7 97.0 50.4 94.1 C 50.4 73.9 50.4 53.7 50.4 33.5 C 57.2 33.4 64.1 33.8 70.9 33.3 C 72.8 31.1 72.6 27.8 71.8 25.2 C 71.1 23.2 68.7 23.6 67.0 23.5 C 52.0 23.5 37.0 23.5 22.0 23.5 C 20.3 23.5 18.0 23.4 17.5 25.4 Z" />
<path fill="#ffffff" stroke="#ffffff" stroke-width="0.09375" opacity="1.00" d=" M 17.5 25.4 C 18.0 23.4 20.3 23.5 22.0 23.5 C 37.0 23.5 52.0 23.5 67.0 23.5 C 68.7 23.6 71.1 23.2 71.8 25.2 C 72.6 27.8 72.8 31.1 70.9 33.3 C 64.1 33.8 57.2 33.4 50.4 33.5 C 50.4 53.7 50.4 73.9 50.4 94.1 C 50.7 97.0 47.1 97.3 45.0 97.3 C 42.7 97.3 38.7 97.3 38.9 94.0 C 38.8 73.9 38.9 53.7 38.8 33.5 C 31.9 33.2 24.9 34.1 18.0 33.1 C 16.7 30.7 16.7 27.9 17.5 25.4 Z" />
<path fill="#091e39" stroke="#091e39" stroke-width="0.09375" opacity="0.37" d=" M 81.8 43.8 C 85.9 43.0 90.2 43.1 94.2 43.8 C 96.6 46.1 94.9 50.0 96.2 52.8 C 98.6 56.1 104.7 52.4 106.4 56.4 C 106.8 60.5 106.8 64.6 106.4 68.6 C 104.5 72.2 99.5 69.5 96.6 71.6 C 94.6 74.4 96.9 78.9 94.1 81.2 C 90.1 82.2 85.8 81.5 81.6 81.4 C 81.0 80.8 80.3 80.1 79.6 79.4 C 79.4 76.8 79.7 74.0 78.4 71.6 C 76.1 70.2 73.2 70.6 70.6 70.4 C 69.9 69.7 69.2 69.0 68.6 68.3 C 68.5 64.2 67.9 59.9 68.8 55.8 C 71.2 53.4 75.5 54.8 78.7 53.7 C 79.6 50.5 78.4 45.7 81.8 43.8 M 83.3 46.1 C 80.3 48.3 82.7 52.9 80.5 55.6 C 77.8 57.8 73.1 55.0 70.8 58.0 C 70.4 61.1 69.8 64.7 71.6 67.4 C 74.0 69.1 77.3 67.9 80.0 69.0 C 83.3 71.5 79.6 77.7 84.1 79.2 C 87.0 79.4 91.1 80.6 93.2 78.0 C 93.6 75.4 93.2 72.6 94.1 70.0 C 96.4 66.7 101.9 70.2 104.2 67.0 C 104.8 64.0 104.7 60.9 104.2 58.0 C 101.9 55.1 97.3 57.8 94.5 55.6 C 93.2 52.6 93.6 49.3 93.5 46.2 C 90.2 45.6 86.6 44.8 83.3 46.1 Z" />
<path fill="#0e3159" stroke="#0e3159" stroke-width="0.09375" opacity="0.60" d=" M 83.3 46.1 C 86.6 44.8 90.2 45.6 93.5 46.2 C 93.6 49.3 93.2 52.6 94.5 55.6 C 97.3 57.8 101.9 55.1 104.2 58.0 C 104.7 60.9 104.8 64.0 104.2 67.0 C 101.9 70.2 96.4 66.7 94.1 70.0 C 93.2 72.6 93.6 75.4 93.2 78.0 C 91.1 80.6 87.0 79.4 84.1 79.2 C 79.6 77.7 83.3 71.5 80.0 69.0 C 77.3 67.9 74.0 69.1 71.6 67.4 C 69.8 64.7 70.4 61.1 70.8 58.0 C 73.1 55.0 77.8 57.8 80.5 55.6 C 82.7 52.9 80.3 48.3 83.3 46.1 M 84.7 47.8 C 84.4 51.5 84.5 55.2 84.5 59.0 C 80.8 59.2 77.0 58.5 73.4 59.5 C 72.9 61.4 72.9 63.6 73.5 65.5 C 77.1 66.0 80.8 65.7 84.5 65.7 C 84.5 69.5 84.4 73.3 84.7 77.0 C 86.8 77.0 88.9 77.0 91.1 76.9 C 91.2 73.2 91.1 69.5 91.1 65.7 C 95.0 65.8 98.8 65.9 102.6 65.5 C 102.5 63.4 102.5 61.2 102.3 59.1 C 98.6 59.0 94.9 59.0 91.1 59.0 C 91.1 55.3 91.2 51.5 91.1 47.8 C 88.9 47.8 86.8 47.7 84.7 47.8 Z" />
<path fill="#ffffff" stroke="#ffffff" stroke-width="0.09375" opacity="1.00" d=" M 84.7 47.8 C 86.8 47.7 88.9 47.8 91.1 47.8 C 91.2 51.5 91.1 55.3 91.1 59.0 C 94.9 59.0 98.6 59.0 102.3 59.1 C 102.5 61.2 102.5 63.4 102.6 65.5 C 98.8 65.9 95.0 65.8 91.1 65.7 C 91.1 69.5 91.2 73.2 91.1 76.9 C 88.9 77.0 86.8 77.0 84.7 77.0 C 84.4 73.3 84.5 69.5 84.5 65.7 C 80.8 65.7 77.1 66.0 73.5 65.5 C 72.9 63.6 72.9 61.4 73.4 59.5 C 77.0 58.5 80.8 59.2 84.5 59.0 C 84.5 55.2 84.4 51.5 84.7 47.8 Z" />
</svg>
