<?xml version="1.0" encoding="UTF-8" ?>
<!DOCTYPE svg PUBLIC "-//W3C//DTD SVG 1.1//EN" "http://www.w3.org/Graphics/SVG/1.1/DTD/svg11.dtd">
<svg width="80pt" height="80pt" viewBox="0 0 80 80" version="1.1" xmlns="http://www.w3.org/2000/svg">
<path fill="#032752" stroke="#032752" stroke-width="0.09375" opacity="0.33" d=" M 27.1 9.4 C 29.2 7.9 32.7 8.8 33.2 11.4 C 34.2 15.5 35.0 19.8 37.9 23.1 C 41.4 19.5 45.5 16.6 50.2 14.9 C 54.9 14.3 60.5 14.0 63.9 18.1 C 67.3 22.2 70.4 28.1 68.4 33.5 C 65.3 34.3 61.7 34.1 59.1 36.2 C 56.9 37.8 53.5 39.2 54.4 42.6 C 59.1 45.8 65.0 46.2 70.5 47.5 C 71.1 49.2 71.8 51.1 70.7 52.8 C 68.1 58.0 65.5 64.2 59.8 66.7 C 55.7 67.8 51.0 67.9 47.2 65.7 C 44.2 64.2 41.5 62.1 38.8 60.0 C 36.2 63.2 33.9 66.9 29.9 68.7 C 23.6 72.4 15.1 69.9 10.9 64.2 C 8.7 61.3 6.7 58.2 5.1 55.0 C 4.1 53.5 5.2 51.9 5.5 50.5 C 8.9 49.2 12.9 50.4 15.8 48.0 C 18.0 46.3 21.6 44.3 20.5 40.9 C 18.0 37.3 14.6 33.7 14.7 29.0 C 14.7 25.9 14.2 22.4 15.8 19.6 C 18.2 15.0 22.7 12.0 27.1 9.4 M 17.7 25.0 C 17.0 32.2 22.5 37.6 26.9 42.5 C 23.6 46.0 20.5 49.9 16.1 52.0 C 13.6 53.3 10.8 52.9 8.1 53.0 C 11.6 59.1 15.9 67.6 24.1 67.3 C 30.9 66.0 34.7 59.4 38.5 54.2 C 43.3 58.5 48.1 64.0 54.9 64.5 C 62.2 63.7 65.2 55.8 68.2 50.1 C 60.7 50.0 53.4 47.0 47.6 42.2 C 51.1 38.2 55.1 34.5 59.6 31.8 C 61.7 30.4 64.1 30.8 66.4 30.8 C 64.8 26.6 63.5 21.8 59.5 19.3 C 57.1 17.5 53.8 17.6 51.1 18.6 C 45.4 20.6 41.0 25.0 37.4 29.6 C 33.4 24.4 30.9 18.3 29.9 11.9 C 25.2 15.4 19.1 18.8 17.7 25.0 Z" />
<path fill="#dbe2ec" stroke="#dbe2ec" stroke-width="0.09375" opacity="0.96" d=" M 17.7 25.0 C 19.1 18.8 25.2 15.4 29.9 11.9 C 30.9 18.3 33.4 24.4 37.4 29.6 C 41.0 25.0 45.4 20.6 51.1 18.6 C 53.8 17.6 57.1 17.5 59.5 19.3 C 63.5 21.8 64.8 26.6 66.4 30.8 C 64.1 30.8 61.7 30.4 59.6 31.8 C 55.1 34.5 51.1 38.2 47.6 42.2 C 53.4 47.0 60.7 50.0 68.2 50.1 C 65.2 55.8 62.2 63.7 54.9 64.5 C 48.1 64.0 43.3 58.5 38.5 54.2 C 34.7 59.4 30.9 66.0 24.1 67.3 C 15.9 67.6 11.6 59.1 8.1 53.0 C 10.8 52.9 13.6 53.3 16.1 52.0 C 20.5 49.9 23.6 46.0 26.9 42.5 C 22.5 37.6 17.0 32.2 17.7 25.0 M 19.8 26.0 C 19.9 32.8 25.5 37.5 29.4 42.3 L 30.1 42.3 C 24.9 47.7 19.9 54.8 11.7 55.2 C 14.3 59.2 17.0 64.1 22.0 65.1 C 25.6 65.9 28.5 63.1 30.7 60.8 C 33.5 57.7 36.5 54.6 37.5 50.4 C 42.9 54.9 47.6 61.5 55.1 62.4 C 60.3 61.5 62.6 56.1 64.9 52.0 C 57.2 51.4 50.5 47.3 44.4 42.8 C 49.6 36.8 55.3 30.3 63.2 28.2 C 61.8 24.0 58.1 18.7 52.9 20.3 C 46.1 22.5 39.9 27.9 37.5 34.7 C 34.4 28.4 29.8 22.8 28.4 15.7 C 24.8 18.3 20.4 21.3 19.8 26.0 Z" />
<path fill="#457cc8" stroke="#457cc8" stroke-width="0.09375" opacity="1.00" d=" M 19.8 26.0 C 20.4 21.3 24.8 18.3 28.4 15.7 C 29.8 22.8 34.4 28.4 37.5 34.7 C 39.9 27.9 46.1 22.5 52.9 20.3 C 58.1 18.7 61.8 24.0 63.2 28.2 C 55.3 30.3 49.6 36.8 44.4 42.8 C 39.8 41.4 34.9 42.0 30.1 42.3 L 29.4 42.3 C 25.5 37.5 19.9 32.8 19.8 26.0 Z" />
<path fill="#346cb5" stroke="#346cb5" stroke-width="0.09375" opacity="1.00" d=" M 30.1 42.3 C 34.9 42.0 39.8 41.4 44.4 42.8 C 50.5 47.3 57.2 51.4 64.9 52.0 C 62.6 56.1 60.3 61.5 55.1 62.4 C 47.6 61.5 42.9 54.9 37.5 50.4 C 36.5 54.6 33.5 57.7 30.7 60.8 C 28.5 63.1 25.6 65.9 22.0 65.1 C 17.0 64.1 14.3 59.2 11.7 55.2 C 19.9 54.8 24.9 47.7 30.1 42.3 Z" />
</svg>
