<?xml version="1.0" encoding="UTF-8" ?>
<!DOCTYPE svg PUBLIC "-//W3C//DTD SVG 1.1//EN" "http://www.w3.org/Graphics/SVG/1.1/DTD/svg11.dtd">
<svg width="112pt" height="112pt" viewBox="0 0 112 112" version="1.1" xmlns="http://www.w3.org/2000/svg">
<path fill="#032752" stroke="#032752" stroke-width="0.09375" opacity="0.33" d=" M 89.1 12.7 C 92.1 12.8 94.4 10.3 97.1 9.4 C 99.2 9.0 101.4 9.4 103.6 9.5 C 105.8 12.3 108.8 16.2 106.6 19.9 C 105.5 22.6 100.9 22.6 101.3 26.0 C 101.3 50.0 101.3 74.0 101.3 98.1 C 101.5 99.6 101.0 101.0 100.4 102.4 C 97.8 103.8 94.8 103.2 92.0 103.3 C 67.6 103.3 43.3 103.3 19.0 103.3 C 16.2 103.3 13.2 103.8 10.6 102.4 C 9.2 99.8 9.8 96.8 9.7 94.0 C 9.7 68.6 9.7 43.3 9.7 17.9 C 9.5 16.4 10.0 15.0 10.6 13.7 C 13.2 12.2 16.2 12.8 19.0 12.7 C 42.4 12.7 65.7 12.7 89.1 12.7 M 92.2 16.2 C 65.9 16.4 39.6 16.2 13.4 16.3 C 13.4 44.3 13.4 72.4 13.4 100.5 C 41.5 100.5 69.6 100.5 97.7 100.5 C 97.8 74.7 97.7 48.8 97.7 22.9 C 100.0 21.0 102.2 19.1 104.4 17.2 C 103.1 15.4 101.9 13.5 100.6 11.6 C 97.8 13.1 95.1 14.8 92.2 16.2 Z" />
<path fill="#f4f6f9" stroke="#f4f6f9" stroke-width="0.09375" opacity="1.00" d=" M 92.2 16.2 C 95.1 14.8 97.8 13.1 100.6 11.6 C 101.9 13.5 103.1 15.4 104.4 17.2 C 102.2 19.1 100.0 21.0 97.7 22.9 C 97.7 48.8 97.8 74.7 97.7 100.5 C 69.6 100.5 41.5 100.5 13.4 100.5 C 13.4 72.4 13.4 44.3 13.4 16.3 C 39.6 16.2 65.9 16.4 92.2 16.2 M 92.0 18.2 C 66.5 18.3 40.9 18.2 15.4 18.3 C 15.5 31.3 15.0 44.3 15.5 57.2 C 15.2 60.1 15.4 63.0 15.4 65.9 C 15.4 69.6 15.4 73.2 15.4 76.9 C 15.4 80.6 15.4 84.4 15.4 88.1 C 15.4 91.6 15.4 95.0 15.4 98.5 C 42.2 98.5 69.0 98.5 95.8 98.5 C 95.8 89.8 95.8 81.0 95.7 72.3 C 95.7 64.1 95.9 55.9 95.5 47.8 C 96.1 39.2 95.5 30.6 95.8 22.0 C 97.7 20.3 99.7 18.6 101.7 16.9 C 101.2 16.2 100.3 14.9 99.9 14.3 C 97.3 15.5 94.9 17.7 92.0 18.2 Z" />
<path fill="#578edf" stroke="#578edf" stroke-width="0.09375" opacity="1.00" d=" M 92.0 18.2 C 94.9 17.7 97.3 15.5 99.9 14.3 C 100.3 14.9 101.2 16.2 101.7 16.9 C 99.7 18.6 97.7 20.3 95.8 22.0 C 95.3 24.3 94.8 26.5 94.3 28.8 C 92.0 28.7 89.7 28.6 87.5 28.4 C 85.0 31.4 82.9 34.5 80.6 37.6 C 78.3 36.4 75.8 35.6 73.2 35.6 C 76.6 31.5 80.7 28.2 85.8 26.5 C 65.1 26.5 44.4 26.5 23.7 26.5 C 23.7 27.0 23.7 28.1 23.6 28.6 C 21.2 28.8 18.8 29.0 16.4 29.3 C 16.0 33.1 15.9 37.0 16.1 40.8 C 16.1 45.2 16.1 49.5 15.9 53.8 C 15.8 54.7 15.6 56.4 15.5 57.2 C 15.0 44.3 15.5 31.3 15.4 18.3 C 40.9 18.2 66.5 18.3 92.0 18.2 Z" />
<path fill="#4f86d5" stroke="#4f86d5" stroke-width="0.09375" opacity="1.00" d=" M 94.3 28.8 C 94.8 26.5 95.3 24.3 95.8 22.0 C 95.5 30.6 96.1 39.2 95.5 47.8 L 95.1 46.4 C 94.9 44.7 94.7 43.0 94.6 41.2 C 92.2 41.0 89.9 40.8 87.5 40.7 C 87.5 36.6 87.6 32.5 87.5 28.4 C 89.7 28.6 92.0 28.7 94.3 28.8 Z" />
<path fill="#f4f6f9" stroke="#f4f6f9" stroke-width="0.09375" opacity="1.00" d=" M 23.7 26.5 C 44.4 26.5 65.1 26.5 85.8 26.5 C 80.7 28.2 76.6 31.5 73.2 35.6 C 67.0 42.1 61.0 48.9 55.8 56.2 C 53.3 59.7 51.0 63.5 48.9 67.2 C 48.1 64.8 47.3 62.3 46.2 59.9 C 44.3 56.4 42.4 51.6 37.9 50.8 C 33.7 51.1 30.7 54.5 27.8 57.2 C 29.5 58.3 31.1 59.4 32.5 60.8 C 38.2 67.7 40.8 76.4 44.2 84.6 C 47.8 82.0 51.6 79.8 55.1 76.9 C 58.8 69.9 62.8 63.0 67.4 56.4 C 71.7 50.1 76.1 43.8 80.6 37.6 C 82.9 34.5 85.0 31.4 87.5 28.4 C 87.6 32.5 87.5 36.6 87.5 40.7 C 87.5 45.2 87.5 49.7 87.5 54.2 C 87.5 58.2 87.5 62.1 87.5 66.1 C 87.5 73.3 87.5 80.5 87.5 87.6 C 87.5 88.3 87.5 89.6 87.5 90.3 C 66.2 90.3 44.9 90.3 23.6 90.3 C 23.6 89.7 23.6 88.6 23.6 88.1 C 23.6 84.4 23.6 80.6 23.6 76.9 C 23.6 73.3 23.6 69.7 23.6 66.1 C 23.6 62.0 23.6 58.0 23.6 53.9 C 23.7 49.6 23.6 45.2 23.6 40.9 C 23.7 36.8 23.6 32.7 23.6 28.6 C 23.7 28.1 23.7 27.0 23.7 26.5 M 25.6 28.5 C 25.6 37.9 25.6 47.4 25.6 56.8 C 29.0 53.2 32.8 49.0 38.1 48.8 C 44.6 49.9 46.9 57.2 49.5 62.3 C 56.9 49.6 67.1 38.9 77.4 28.5 C 60.1 28.5 42.9 28.5 25.6 28.5 M 56.6 78.4 C 52.2 81.6 47.7 84.6 43.2 87.6 C 40.7 80.7 37.9 73.9 34.5 67.3 C 32.7 63.4 29.5 60.2 25.6 58.4 C 25.6 68.3 25.6 78.3 25.6 88.3 C 45.6 88.3 65.5 88.2 85.5 88.3 C 85.5 70.2 85.5 52.2 85.5 34.2 C 75.2 48.5 64.6 62.7 56.6 78.4 Z" />
<path fill="#032855" stroke="#032855" stroke-width="0.09375" opacity="0.33" d=" M 25.6 28.5 C 42.9 28.5 60.1 28.5 77.4 28.5 C 67.1 38.9 56.9 49.6 49.5 62.3 C 46.9 57.2 44.6 49.9 38.1 48.8 C 32.8 49.0 29.0 53.2 25.6 56.8 C 25.6 47.4 25.6 37.9 25.6 28.5 M 29.3 31.3 C 29.3 36.5 29.3 41.7 29.3 46.8 C 33.9 46.1 38.6 46.2 43.2 46.4 C 45.5 48.6 47.5 51.1 49.6 53.6 C 49.8 53.6 50.2 53.6 50.4 53.6 C 54.5 48.6 58.1 43.2 62.7 38.6 C 64.8 36.4 66.6 34.0 68.3 31.4 C 55.3 31.1 42.3 31.3 29.3 31.3 Z" />
<path fill="#4f86d5" stroke="#4f86d5" stroke-width="0.09375" opacity="1.00" d=" M 16.4 29.3 C 18.8 29.0 21.2 28.8 23.6 28.6 C 23.6 32.7 23.7 36.8 23.6 40.9 C 21.1 40.8 18.6 40.8 16.1 40.8 C 15.9 37.0 16.0 33.1 16.4 29.3 Z" />
<path fill="#032955" stroke="#032955" stroke-width="0.09375" opacity="0.33" d=" M 56.6 78.4 C 64.6 62.7 75.2 48.5 85.5 34.2 C 85.5 52.2 85.5 70.2 85.5 88.3 C 65.5 88.2 45.6 88.3 25.6 88.3 C 25.6 78.3 25.6 68.3 25.6 58.4 C 29.5 60.2 32.7 63.4 34.5 67.3 C 37.9 73.9 40.7 80.7 43.2 87.6 C 47.7 84.6 52.2 81.6 56.6 78.4 M 75.4 54.4 C 70.5 61.9 65.2 69.2 61.4 77.3 C 60.0 80.5 56.8 82.2 54.5 84.5 C 63.5 84.9 72.6 84.6 81.7 84.7 C 81.6 72.0 81.9 59.3 81.5 46.6 C 79.0 48.8 77.3 51.7 75.4 54.4 M 29.5 66.7 C 29.4 72.7 28.4 78.6 29.4 84.5 C 32.1 85.6 35.1 85.6 37.8 84.4 C 37.7 80.9 35.2 78.2 34.2 75.0 C 32.9 72.1 32.2 68.6 29.5 66.7 Z" />
<path fill="#467dca" stroke="#467dca" stroke-width="0.09375" opacity="1.00" d=" M 73.2 35.6 C 75.8 35.6 78.3 36.4 80.6 37.6 C 76.1 43.8 71.7 50.1 67.4 56.4 C 63.5 56.5 59.6 56.4 55.8 56.2 C 61.0 48.9 67.0 42.1 73.2 35.6 Z" />
<path fill="#457cc9" stroke="#457cc9" stroke-width="0.09375" opacity="1.00" d=" M 16.1 40.8 C 18.6 40.8 21.1 40.8 23.6 40.9 C 23.6 45.2 23.7 49.6 23.6 53.9 C 21.1 53.9 18.5 53.9 15.9 53.8 C 16.1 49.5 16.1 45.2 16.1 40.8 Z" />
<path fill="#457cc9" stroke="#457cc9" stroke-width="0.09375" opacity="1.00" d=" M 87.5 40.7 C 89.9 40.8 92.2 41.0 94.6 41.2 C 94.7 43.0 94.9 44.7 95.1 46.4 C 95.0 48.8 94.8 51.2 94.6 53.7 C 92.2 53.9 89.9 54.0 87.5 54.2 C 87.5 49.7 87.5 45.2 87.5 40.7 Z" />
<path fill="#3d74be" stroke="#3d74be" stroke-width="0.09375" opacity="1.00" d=" M 95.1 46.4 L 95.5 47.8 C 95.9 55.9 95.7 64.1 95.7 72.3 C 95.4 70.3 94.9 68.4 94.4 66.5 C 92.1 66.4 89.8 66.3 87.5 66.1 C 87.5 62.1 87.5 58.2 87.5 54.2 C 89.9 54.0 92.2 53.9 94.6 53.7 C 94.8 51.2 95.0 48.8 95.1 46.4 Z" />
<path fill="#3f76c1" stroke="#3f76c1" stroke-width="0.09375" opacity="1.00" d=" M 27.8 57.2 C 30.7 54.5 33.7 51.1 37.9 50.8 C 42.4 51.6 44.3 56.4 46.2 59.9 C 41.6 60.0 37.1 60.4 32.5 60.8 C 31.1 59.4 29.5 58.3 27.8 57.2 Z" />
<path fill="#3d74be" stroke="#3d74be" stroke-width="0.09375" opacity="1.00" d=" M 15.9 53.8 C 18.5 53.9 21.1 53.9 23.6 53.9 C 23.6 58.0 23.6 62.0 23.6 66.1 C 20.9 66.0 18.1 66.0 15.4 65.9 C 15.4 63.0 15.2 60.1 15.5 57.2 C 15.6 56.4 15.8 54.7 15.9 53.8 Z" />
<path fill="#366db6" stroke="#366db6" stroke-width="0.09375" opacity="1.00" d=" M 55.8 56.2 C 59.6 56.4 63.5 56.5 67.4 56.4 C 62.8 63.0 58.8 69.9 55.1 76.9 C 51.6 79.8 47.8 82.0 44.2 84.6 C 40.8 76.4 38.2 67.7 32.5 60.8 C 37.1 60.4 41.6 60.0 46.2 59.9 C 47.3 62.3 48.1 64.8 48.9 67.2 C 51.0 63.5 53.3 59.7 55.8 56.2 Z" />
<path fill="#346bb4" stroke="#346bb4" stroke-width="0.09375" opacity="1.00" d=" M 15.4 65.9 C 18.1 66.0 20.9 66.0 23.6 66.1 C 23.6 69.7 23.6 73.3 23.6 76.9 C 20.9 76.9 18.1 76.9 15.4 76.9 C 15.4 73.2 15.4 69.6 15.4 65.9 Z" />
<path fill="#2f67ae" stroke="#2f67ae" stroke-width="0.09375" opacity="1.00" d=" M 87.5 66.1 C 89.8 66.3 92.1 66.4 94.4 66.5 C 94.9 68.4 95.4 70.3 95.7 72.3 C 95.8 81.0 95.8 89.8 95.8 98.5 C 95.5 95.0 95.0 91.5 94.6 88.1 C 92.2 87.9 89.9 87.7 87.5 87.6 C 87.5 80.5 87.5 73.3 87.5 66.1 Z" />
<path fill="#2c64aa" stroke="#2c64aa" stroke-width="0.09375" opacity="1.00" d=" M 15.4 76.9 C 18.1 76.9 20.9 76.9 23.6 76.9 C 23.6 80.6 23.6 84.4 23.6 88.1 C 20.9 88.1 18.1 88.1 15.4 88.1 C 15.4 84.4 15.4 80.6 15.4 76.9 Z" />
<path fill="#245ca0" stroke="#245ca0" stroke-width="0.09375" opacity="1.00" d=" M 15.4 88.1 C 18.1 88.1 20.9 88.1 23.6 88.1 C 23.6 88.6 23.6 89.7 23.6 90.3 C 44.9 90.3 66.2 90.3 87.5 90.3 C 87.5 89.6 87.5 88.3 87.5 87.6 C 89.9 87.7 92.2 87.9 94.6 88.1 C 95.0 91.5 95.5 95.0 95.8 98.5 C 69.0 98.5 42.2 98.5 15.4 98.5 C 15.4 95.0 15.4 91.6 15.4 88.1 Z" />
</svg>
