<?xml version="1.0" encoding="UTF-8" ?>
<!DOCTYPE svg PUBLIC "-//W3C//DTD SVG 1.1//EN" "http://www.w3.org/Graphics/SVG/1.1/DTD/svg11.dtd">
<svg width="112pt" height="112pt" viewBox="0 0 112 112" version="1.1" xmlns="http://www.w3.org/2000/svg">
<path fill="#040e1b" stroke="#040e1b" stroke-width="0.09375" opacity="0.21" d=" M 45.1 14.2 C 50.0 7.8 60.9 7.8 65.9 14.1 C 70.7 20.5 70.9 29.1 75.7 35.5 C 83.0 35.6 90.6 35.0 97.7 37.4 C 101.9 38.7 105.5 42.6 105.6 47.2 C 106.1 51.7 105.3 56.6 101.8 59.8 C 97.3 64.1 91.8 67.2 87.3 71.6 C 87.4 79.8 92.1 87.2 91.6 95.4 C 91.1 101.6 85.3 106.8 79.0 106.6 C 72.0 106.7 66.3 102.0 60.9 98.0 C 58.7 96.4 55.9 94.4 53.2 96.1 C 47.1 99.5 42.2 105.1 35.1 106.3 C 29.2 107.7 22.3 104.6 20.3 98.7 C 17.8 91.8 20.9 84.6 22.8 77.9 C 23.4 75.5 24.4 72.5 22.4 70.6 C 17.4 65.3 9.5 62.7 6.4 55.6 C 3.5 50.2 5.0 42.7 10.0 39.0 C 16.9 34.9 25.3 35.8 32.9 35.5 C 35.3 35.7 36.8 33.6 37.7 31.7 C 40.3 25.9 41.2 19.3 45.1 14.2 M 52.2 13.4 C 50.5 14.0 48.7 15.0 47.6 16.5 C 43.1 22.6 43.1 30.8 38.8 36.8 C 35.2 40.3 29.6 39.3 25.1 39.4 C 19.9 39.3 13.3 39.1 10.0 44.0 C 6.6 49.0 9.0 56.0 13.6 59.4 C 18.1 63.6 25.0 65.8 27.4 71.9 C 27.2 79.5 22.5 86.3 22.6 94.0 C 22.9 97.3 24.7 100.7 27.7 102.2 C 30.5 102.9 33.5 102.9 36.4 102.4 C 42.9 100.7 47.0 94.5 53.3 92.4 C 59.8 90.9 64.3 96.7 69.2 99.8 C 73.1 102.9 78.5 103.2 83.3 102.2 C 86.0 100.9 87.7 98.0 88.3 95.1 C 88.5 87.1 83.8 79.8 83.6 71.8 C 87.1 63.8 97.6 62.2 101.4 54.4 C 103.8 49.9 102.5 43.7 98.0 41.2 C 93.1 38.6 87.3 39.6 82.0 39.5 C 78.5 39.4 74.0 39.6 71.7 36.4 C 68.0 30.2 67.7 22.5 63.5 16.6 C 60.8 13.5 56.1 11.8 52.2 13.4 Z" />
<path fill="#0a2544" stroke="#0a2544" stroke-width="0.09375" opacity="0.43" d=" M 52.2 13.4 C 56.1 11.8 60.8 13.5 63.5 16.6 C 67.7 22.5 68.0 30.2 71.7 36.4 C 74.0 39.6 78.5 39.4 82.0 39.5 C 87.3 39.6 93.1 38.6 98.0 41.2 C 102.5 43.7 103.8 49.9 101.4 54.4 C 97.6 62.2 87.1 63.8 83.6 71.8 C 83.8 79.8 88.5 87.1 88.3 95.1 C 87.7 98.0 86.0 100.9 83.3 102.2 C 78.5 103.2 73.1 102.9 69.2 99.8 C 64.3 96.7 59.8 90.9 53.3 92.4 C 47.0 94.5 42.9 100.7 36.4 102.4 C 33.5 102.9 30.5 102.9 27.7 102.2 C 24.7 100.7 22.9 97.3 22.6 94.0 C 22.5 86.3 27.2 79.5 27.4 71.9 C 25.0 65.8 18.1 63.6 13.6 59.4 C 9.0 56.0 6.6 49.0 10.0 44.0 C 13.3 39.1 19.9 39.3 25.1 39.4 C 29.6 39.3 35.2 40.3 38.8 36.8 C 43.1 30.8 43.1 22.6 47.6 16.5 C 48.7 15.0 50.5 14.0 52.2 13.4 M 52.3 17.2 C 50.7 18.0 49.7 19.4 48.9 20.9 C 46.2 26.3 45.4 32.4 42.6 37.7 C 41.6 39.9 39.5 41.5 37.1 42.0 C 29.9 43.5 22.1 41.0 15.3 44.1 C 11.4 45.8 11.4 51.3 13.6 54.4 C 17.0 58.7 22.3 61.1 26.4 64.6 C 28.4 66.2 30.6 68.2 30.6 71.0 C 31.4 79.4 25.1 86.8 26.5 95.3 C 27.2 98.6 30.9 100.3 34.1 99.6 C 41.8 98.0 46.3 90.0 54.0 88.5 C 64.1 87.2 69.1 99.8 79.0 99.6 C 81.7 99.7 84.2 97.6 84.6 95.0 C 85.4 86.0 78.5 77.8 80.9 68.7 C 84.8 62.4 92.7 60.1 97.4 54.3 C 99.5 51.3 99.6 45.9 95.8 44.2 C 88.9 41.0 81.1 43.4 73.9 42.1 C 71.7 41.7 69.7 40.5 68.6 38.5 C 65.4 32.5 64.9 25.5 61.3 19.7 C 59.5 16.6 55.3 15.4 52.3 17.2 Z" />
<path fill="#0e2f57" stroke="#0e2f57" stroke-width="0.09375" opacity="0.56" d=" M 52.3 17.2 C 55.3 15.4 59.5 16.6 61.3 19.7 C 64.9 25.5 65.4 32.5 68.6 38.5 C 69.7 40.5 71.7 41.7 73.9 42.1 C 81.1 43.4 88.9 41.0 95.8 44.2 C 99.6 45.9 99.5 51.3 97.4 54.3 C 92.7 60.1 84.8 62.4 80.9 68.7 C 78.5 77.8 85.4 86.0 84.6 95.0 C 84.2 97.6 81.7 99.7 79.0 99.6 C 69.1 99.8 64.1 87.2 54.0 88.5 C 46.3 90.0 41.8 98.0 34.1 99.6 C 30.9 100.3 27.2 98.6 26.5 95.3 C 25.1 86.8 31.4 79.4 30.6 71.0 C 30.6 68.2 28.4 66.2 26.4 64.6 C 22.3 61.1 17.0 58.7 13.6 54.4 C 11.4 51.3 11.4 45.8 15.3 44.1 C 22.1 41.0 29.9 43.5 37.1 42.0 C 39.5 41.5 41.6 39.9 42.6 37.7 C 45.4 32.4 46.2 26.3 48.9 20.9 C 49.7 19.4 50.7 18.0 52.3 17.2 M 54.6 20.7 C 53.5 21.5 51.9 22.0 51.5 23.4 C 48.4 30.2 47.7 38.1 43.3 44.3 C 34.7 48.4 23.9 42.8 15.7 48.3 C 15.7 49.5 16.2 50.4 17.2 51.0 L 15.9 50.1 C 17.7 55.7 23.5 57.9 27.7 61.3 C 30.4 63.6 34.0 65.4 35.1 69.0 C 35.8 77.9 28.2 85.6 30.6 94.6 C 31.0 94.8 31.9 95.3 32.3 95.6 C 33.8 95.4 35.5 95.6 36.9 94.8 C 43.1 91.3 48.1 85.3 55.1 83.3 C 62.9 84.7 67.9 91.8 74.8 95.2 C 76.1 95.5 77.4 95.4 78.7 95.5 C 79.2 95.6 80.3 95.7 80.8 95.8 C 80.6 95.3 80.3 94.2 80.2 93.7 C 80.6 91.9 81.3 90.0 80.7 88.2 C 79.3 82.0 76.2 76.3 75.7 69.9 C 75.4 68.2 76.7 67.0 77.8 65.9 C 82.3 61.6 87.7 58.4 92.6 54.5 C 94.1 53.5 94.4 51.7 94.8 50.0 C 95.8 49.1 95.7 48.5 94.5 48.3 C 93.6 47.6 92.8 47.0 91.8 46.4 C 84.2 44.6 75.9 47.4 68.4 44.6 C 63.2 38.8 63.0 30.2 59.5 23.4 C 58.9 22.1 57.5 21.6 56.4 20.8 C 56.1 20.5 55.4 19.8 55.1 19.4 C 55.0 19.7 54.7 20.4 54.6 20.7 Z" />
<path fill="#ffffff" stroke="#ffffff" stroke-width="0.09375" opacity="1.00" d=" M 54.6 20.7 C 54.7 20.4 55.0 19.7 55.1 19.4 C 55.4 19.8 56.1 20.5 56.4 20.8 C 59.6 29.9 62.4 39.1 65.4 48.3 C 75.1 48.3 84.8 48.2 94.5 48.3 C 95.7 48.5 95.8 49.1 94.8 50.0 C 87.1 55.8 79.3 61.4 71.5 67.1 C 74.4 76.0 77.4 84.8 80.2 93.7 C 80.3 94.2 80.6 95.3 80.8 95.8 C 80.3 95.7 79.2 95.6 78.7 95.5 C 70.9 90.0 63.3 84.3 55.6 78.7 C 47.8 84.3 40.0 90.0 32.3 95.6 C 31.9 95.3 31.0 94.8 30.6 94.6 C 33.5 85.4 36.6 76.3 39.5 67.1 C 32.1 61.8 24.8 56.2 17.2 51.0 C 16.2 50.4 15.7 49.5 15.7 48.3 C 25.7 48.2 35.7 48.3 45.7 48.3 C 48.7 39.1 51.6 29.9 54.6 20.7 Z" />
<path fill="#0e315b" stroke="#0e315b" stroke-width="0.09375" opacity="0.65" d=" M 51.5 23.4 C 51.9 22.0 53.5 21.5 54.6 20.7 C 51.6 29.9 48.7 39.1 45.7 48.3 C 35.7 48.3 25.7 48.2 15.7 48.3 C 23.9 42.8 34.7 48.4 43.3 44.3 C 47.7 38.1 48.4 30.2 51.5 23.4 Z" />
<path fill="#0e315b" stroke="#0e315b" stroke-width="0.09375" opacity="0.65" d=" M 56.4 20.8 C 57.5 21.6 58.9 22.1 59.5 23.4 C 63.0 30.2 63.2 38.8 68.4 44.6 C 75.9 47.4 84.2 44.6 91.8 46.4 C 92.8 47.0 93.6 47.6 94.5 48.3 C 84.8 48.2 75.1 48.3 65.4 48.3 C 62.4 39.1 59.6 29.9 56.4 20.8 Z" />
<path fill="#0e315b" stroke="#0e315b" stroke-width="0.09375" opacity="0.65" d=" M 15.9 50.1 L 17.2 51.0 C 24.8 56.2 32.1 61.8 39.5 67.1 C 36.6 76.3 33.5 85.4 30.6 94.6 C 28.2 85.6 35.8 77.9 35.1 69.0 C 34.0 65.4 30.4 63.6 27.7 61.3 C 23.5 57.9 17.7 55.7 15.9 50.1 Z" />
<path fill="#0e315b" stroke="#0e315b" stroke-width="0.09375" opacity="0.65" d=" M 71.5 67.1 C 79.3 61.4 87.1 55.8 94.8 50.0 C 94.4 51.7 94.1 53.5 92.6 54.5 C 87.7 58.4 82.3 61.6 77.8 65.9 C 76.7 67.0 75.4 68.2 75.7 69.9 C 76.2 76.3 79.3 82.0 80.7 88.2 C 81.3 90.0 80.6 91.9 80.2 93.7 C 77.4 84.8 74.4 76.0 71.5 67.1 Z" />
<path fill="#0d315b" stroke="#0d315b" stroke-width="0.09375" opacity="0.65" d=" M 32.3 95.6 C 40.0 90.0 47.8 84.3 55.6 78.7 C 63.3 84.3 70.9 90.0 78.7 95.5 C 77.4 95.4 76.1 95.5 74.8 95.2 C 67.9 91.8 62.9 84.7 55.1 83.3 C 48.1 85.3 43.1 91.3 36.9 94.8 C 35.5 95.6 33.8 95.4 32.3 95.6 Z" />
</svg>
