<?xml version="1.0" encoding="UTF-8" ?>
<!DOCTYPE svg PUBLIC "-//W3C//DTD SVG 1.1//EN" "http://www.w3.org/Graphics/SVG/1.1/DTD/svg11.dtd">
<svg width="112pt" height="112pt" viewBox="0 0 112 112" version="1.1" xmlns="http://www.w3.org/2000/svg">
<path fill="#032751" stroke="#032751" stroke-width="0.09375" opacity="0.32" d=" M 52.6 11.5 C 54.8 10.5 57.2 10.5 59.4 11.5 C 62.6 20.6 65.6 29.7 69.2 38.6 C 77.8 38.8 86.4 38.7 95.0 38.6 C 97.0 38.6 98.9 39.1 100.7 39.6 C 100.7 41.4 100.7 43.3 100.6 45.2 C 93.7 50.4 87.1 56.0 80.2 61.1 C 79.1 62.2 76.8 63.1 77.6 64.9 C 79.5 72.4 82.2 79.7 84.6 87.0 C 85.4 89.5 86.2 92.9 83.7 94.6 C 81.1 96.6 78.1 94.1 75.9 92.8 C 70.4 88.5 64.5 85.0 59.0 80.8 C 57.9 80.1 56.4 78.7 55.1 79.8 C 48.5 83.7 42.4 88.4 36.1 92.8 C 34.1 94.2 31.8 95.1 29.5 95.7 C 28.5 94.6 27.5 93.6 26.4 92.5 C 27.9 82.6 32.7 73.6 34.7 63.8 C 30.1 59.2 24.5 55.6 19.6 51.4 C 16.8 48.8 12.9 47.3 10.9 44.0 C 9.7 41.8 11.7 40.1 13.1 38.6 C 23.1 38.7 33.2 38.8 43.2 38.6 C 46.0 29.4 49.6 20.6 52.6 11.5 M 45.6 42.5 C 35.1 42.5 24.6 42.5 14.1 42.5 C 22.5 49.1 30.9 55.8 39.2 62.4 C 36.0 72.6 32.8 82.7 29.6 92.9 C 38.4 86.8 47.2 80.6 56.1 74.5 C 64.9 80.6 73.8 86.8 82.6 92.9 C 79.4 82.7 76.2 72.6 73.0 62.5 C 81.3 55.8 89.7 49.1 98.1 42.5 C 87.6 42.5 77.1 42.5 66.6 42.5 C 63.1 32.6 59.6 22.7 56.1 12.8 C 52.6 22.7 49.1 32.6 45.6 42.5 Z" />
<path fill="#f4f6f9" stroke="#f4f6f9" stroke-width="0.09375" opacity="1.00" d=" M 45.6 42.5 C 49.1 32.6 52.6 22.7 56.1 12.8 C 59.6 22.7 63.1 32.6 66.6 42.5 C 77.1 42.5 87.6 42.5 98.1 42.5 C 89.7 49.1 81.3 55.8 73.0 62.5 C 76.2 72.6 79.4 82.7 82.6 92.9 C 73.8 86.8 64.9 80.6 56.1 74.5 C 47.2 80.6 38.4 86.8 29.6 92.9 C 32.8 82.7 36.0 72.6 39.2 62.4 C 30.9 55.8 22.5 49.1 14.1 42.5 C 24.6 42.5 35.1 42.5 45.6 42.5 M 48.8 39.3 C 48.3 41.1 47.5 42.8 46.9 44.6 C 37.9 44.4 28.9 44.6 19.9 44.5 C 26.8 50.1 33.7 55.6 40.7 61.0 L 41.5 60.8 C 41.0 63.3 40.4 65.7 39.6 68.0 C 37.5 74.7 35.3 81.3 33.3 87.9 C 40.9 82.7 48.5 77.3 56.1 72.1 C 63.7 77.3 71.3 82.7 78.9 87.9 C 76.9 81.3 74.8 74.7 72.6 68.1 C 71.8 65.7 71.2 63.3 70.8 60.8 L 71.6 61.0 C 78.5 55.5 85.4 50.0 92.2 44.5 C 83.2 44.5 74.2 44.5 65.2 44.5 C 64.6 42.8 63.9 41.0 63.3 39.3 C 61.0 32.4 58.4 25.7 56.1 18.8 C 53.7 25.7 51.2 32.4 48.8 39.3 Z" />
<path fill="#4f85d4" stroke="#4f85d4" stroke-width="0.09375" opacity="1.00" d=" M 48.8 39.3 C 51.2 32.4 53.7 25.7 56.1 18.8 C 58.4 25.7 61.0 32.4 63.3 39.3 C 58.5 39.4 53.7 39.4 48.8 39.3 Z" />
<path fill="#4279c5" stroke="#4279c5" stroke-width="0.09375" opacity="1.00" d=" M 48.8 39.3 C 53.7 39.4 58.5 39.4 63.3 39.3 C 63.9 41.0 64.6 42.8 65.2 44.5 C 74.2 44.5 83.2 44.5 92.2 44.5 C 85.4 50.0 78.5 55.5 71.6 61.0 L 70.8 60.8 C 64.4 59.0 57.6 59.8 51.0 59.6 C 47.8 59.5 44.6 60.0 41.5 60.8 L 40.7 61.0 C 33.7 55.6 26.8 50.1 19.9 44.5 C 28.9 44.6 37.9 44.4 46.9 44.6 C 47.5 42.8 48.3 41.1 48.8 39.3 Z" />
<path fill="#386fb8" stroke="#386fb8" stroke-width="0.09375" opacity="1.00" d=" M 41.5 60.8 C 44.6 60.0 47.8 59.5 51.0 59.6 C 57.6 59.8 64.4 59.0 70.8 60.8 C 71.2 63.3 71.8 65.7 72.6 68.1 C 61.6 67.9 50.6 68.1 39.6 68.0 C 40.4 65.7 41.0 63.3 41.5 60.8 Z" />
<path fill="#3169b1" stroke="#3169b1" stroke-width="0.09375" opacity="1.00" d=" M 39.6 68.0 C 50.6 68.1 61.6 67.9 72.6 68.1 C 74.8 74.7 76.9 81.3 78.9 87.9 C 71.3 82.7 63.7 77.3 56.1 72.1 C 48.5 77.3 40.9 82.7 33.3 87.9 C 35.3 81.3 37.5 74.7 39.6 68.0 Z" />
</svg>
