<?xml version="1.0" encoding="UTF-8" ?>
<!DOCTYPE svg PUBLIC "-//W3C//DTD SVG 1.1//EN" "http://www.w3.org/Graphics/SVG/1.1/DTD/svg11.dtd">
<svg width="112pt" height="112pt" viewBox="0 0 112 112" version="1.1" xmlns="http://www.w3.org/2000/svg">
<path fill="#020a14" stroke="#020a14" stroke-width="0.09375" opacity="0.16" d=" M 11.9 9.9 C 15.9 7.0 21.1 6.4 25.9 6.4 C 41.0 6.5 56.0 6.4 71.1 6.4 C 75.8 6.5 80.9 7.3 84.5 10.5 C 91.2 17.5 91.3 29.6 84.7 36.6 C 80.9 40.8 74.6 40.3 70.3 43.7 C 79.1 53.8 89.2 62.7 98.5 72.5 C 101.9 76.1 104.2 80.9 104.5 86.0 C 104.0 93.8 98.8 102.1 90.6 103.4 C 85.6 103.8 80.1 104.2 75.8 101.1 C 70.9 97.6 67.0 92.7 62.5 88.6 C 55.8 82.2 49.8 75.2 42.7 69.4 C 39.6 75.0 40.4 82.6 35.0 87.0 C 29.2 91.0 21.3 91.4 14.7 89.0 C 8.3 86.8 5.3 79.4 5.4 73.0 C 5.4 57.0 5.4 41.0 5.4 25.0 C 5.3 19.4 7.3 13.4 11.9 9.9 M 15.1 12.2 C 10.1 15.2 8.6 21.5 8.5 27.0 C 8.5 41.3 8.6 55.7 8.5 70.0 C 8.3 74.7 9.5 79.7 12.5 83.5 C 16.6 87.5 22.9 86.8 28.1 86.3 C 34.0 85.4 36.6 79.2 37.3 74.0 C 37.9 70.0 36.5 65.4 39.3 62.1 C 41.6 63.3 43.7 64.6 45.5 66.5 C 55.3 76.3 65.1 86.2 75.0 96.0 C 79.4 100.4 86.5 101.8 92.2 99.3 C 97.7 97.1 101.0 90.8 100.6 85.0 C 100.4 80.7 97.9 77.0 95.0 74.0 C 84.9 63.8 74.6 53.7 64.5 43.4 C 64.5 42.0 64.4 40.6 64.3 39.1 C 68.5 38.3 72.8 38.2 76.8 37.1 C 81.0 36.1 84.3 32.5 85.4 28.4 C 86.1 23.0 86.2 16.3 81.5 12.6 C 77.4 10.2 72.6 9.6 68.0 9.5 C 55.0 9.5 42.0 9.6 29.0 9.5 C 24.2 9.5 19.4 10.1 15.1 12.2 Z" />
<path fill="#09213e" stroke="#09213e" stroke-width="0.09375" opacity="0.40" d=" M 15.1 12.2 C 19.4 10.1 24.2 9.5 29.0 9.5 C 42.0 9.6 55.0 9.5 68.0 9.5 C 72.6 9.6 77.4 10.2 81.5 12.6 C 86.2 16.3 86.1 23.0 85.4 28.4 C 84.3 32.5 81.0 36.1 76.8 37.1 C 72.8 38.2 68.5 38.3 64.3 39.1 C 64.4 40.6 64.5 42.0 64.5 43.4 C 74.6 53.7 84.9 63.8 95.0 74.0 C 97.9 77.0 100.4 80.7 100.6 85.0 C 101.0 90.8 97.7 97.1 92.2 99.3 C 86.5 101.8 79.4 100.4 75.0 96.0 C 65.1 86.2 55.3 76.3 45.5 66.5 C 43.7 64.6 41.6 63.3 39.3 62.1 C 36.5 65.4 37.9 70.0 37.3 74.0 C 36.6 79.2 34.0 85.4 28.1 86.3 C 22.9 86.8 16.6 87.5 12.5 83.5 C 9.5 79.7 8.3 74.7 8.5 70.0 C 8.6 55.7 8.5 41.3 8.5 27.0 C 8.6 21.5 10.1 15.2 15.1 12.2 M 22.4 13.5 C 16.9 13.5 12.1 18.4 12.4 24.0 C 12.4 40.3 12.4 56.7 12.4 73.0 C 12.1 77.0 14.2 81.4 18.2 82.7 C 22.7 84.3 28.7 83.8 31.7 79.8 C 34.3 76.4 33.4 71.9 33.6 68.0 C 33.7 64.2 34.4 59.6 37.9 57.4 C 41.6 57.8 44.3 60.6 46.9 63.0 C 56.6 72.7 66.3 82.4 76.0 92.1 C 78.0 93.9 80.2 96.3 83.1 96.5 C 86.8 96.8 91.3 97.1 93.9 93.9 C 97.2 91.0 97.0 86.3 96.4 82.3 C 95.7 79.6 93.4 77.5 91.5 75.5 C 82.3 66.3 73.2 57.1 64.0 48.0 C 61.7 45.4 58.7 42.6 58.5 38.9 C 63.3 31.5 73.8 37.3 79.6 31.6 C 83.5 27.6 83.7 20.3 79.8 16.1 C 77.0 13.3 72.7 13.4 69.0 13.4 C 53.5 13.5 37.9 13.2 22.4 13.5 Z" />
<path fill="#0e3058" stroke="#0e3058" stroke-width="0.09375" opacity="0.58" d=" M 22.4 13.5 C 37.9 13.2 53.5 13.5 69.0 13.4 C 72.7 13.4 77.0 13.3 79.8 16.1 C 83.7 20.3 83.5 27.6 79.6 31.6 C 73.8 37.3 63.3 31.5 58.5 38.9 C 58.7 42.6 61.7 45.4 64.0 48.0 C 73.2 57.1 82.3 66.3 91.5 75.5 C 93.4 77.5 95.7 79.6 96.4 82.3 C 97.0 86.3 97.2 91.0 93.9 93.9 C 91.3 97.1 86.8 96.8 83.1 96.5 C 80.2 96.3 78.0 93.9 76.0 92.1 C 66.3 82.4 56.6 72.7 46.9 63.0 C 44.3 60.6 41.6 57.8 37.9 57.4 C 34.4 59.6 33.7 64.2 33.6 68.0 C 33.4 71.9 34.3 76.4 31.7 79.8 C 28.7 83.8 22.7 84.3 18.2 82.7 C 14.2 81.4 12.1 77.0 12.4 73.0 C 12.4 56.7 12.4 40.3 12.4 24.0 C 12.1 18.4 16.9 13.5 22.4 13.5 M 19.1 20.0 C 17.4 21.5 17.7 23.9 17.6 26.0 C 17.7 42.3 17.5 58.7 17.6 75.1 C 17.4 77.9 20.9 78.5 23.0 78.3 C 25.2 78.5 28.6 77.9 28.3 75.0 C 28.4 61.8 28.0 48.7 27.6 35.5 C 46.1 54.0 64.7 72.3 83.1 90.9 C 84.5 92.9 87.4 92.5 88.9 90.8 C 90.8 89.3 93.6 86.1 91.1 83.9 C 74.2 66.8 57.1 49.9 40.1 32.9 C 38.3 31.0 36.6 28.9 34.2 27.7 C 47.5 28.5 60.8 28.6 74.1 28.5 C 77.0 28.7 77.3 25.1 77.2 23.0 C 77.4 21.0 76.5 18.1 74.0 18.5 C 57.6 18.4 41.3 18.5 25.0 18.5 C 22.9 18.5 20.5 18.3 19.1 20.0 Z" />
<path fill="#ffffff" stroke="#ffffff" stroke-width="0.09375" opacity="1.00" d=" M 19.1 20.0 C 20.5 18.3 22.9 18.5 25.0 18.5 C 41.3 18.5 57.6 18.4 74.0 18.5 C 76.5 18.1 77.4 21.0 77.2 23.0 C 77.3 25.1 77.0 28.7 74.1 28.5 C 60.8 28.6 47.5 28.5 34.2 27.7 C 36.6 28.9 38.3 31.0 40.1 32.9 C 57.1 49.9 74.2 66.8 91.1 83.9 C 93.6 86.1 90.8 89.3 88.9 90.8 C 87.4 92.5 84.5 92.9 83.1 90.9 C 64.7 72.3 46.1 54.0 27.6 35.5 C 28.0 48.7 28.4 61.8 28.3 75.0 C 28.6 77.9 25.2 78.5 23.0 78.3 C 20.9 78.5 17.4 77.9 17.6 75.1 C 17.5 58.7 17.7 42.3 17.6 26.0 C 17.7 23.9 17.4 21.5 19.1 20.0 Z" />
</svg>
