<?xml version="1.0" encoding="UTF-8" ?>
<!DOCTYPE svg PUBLIC "-//W3C//DTD SVG 1.1//EN" "http://www.w3.org/Graphics/SVG/1.1/DTD/svg11.dtd">
<svg width="450pt" height="450pt" viewBox="0 0 450 450" version="1.1" xmlns="http://www.w3.org/2000/svg">
<path fill="#000408" stroke="#000408" stroke-width="0.09375" opacity="0.08" d=" M 145.4 57.5 C 167.3 56.5 189.7 57.0 210.6 64.4 C 215.0 65.9 219.0 68.3 223.3 69.7 C 227.8 71.2 232.1 68.7 236.2 67.2 C 249.4 61.5 263.6 58.7 277.9 57.7 C 306.7 55.8 335.8 59.1 363.8 66.3 C 371.3 68.3 378.9 71.0 384.4 76.7 C 389.6 81.1 392.4 89.0 399.8 90.3 C 408.8 91.6 418.9 92.5 425.7 99.2 C 433.5 105.7 437.1 116.1 436.8 126.0 C 436.5 138.7 437.5 151.3 436.8 164.0 C 437.2 172.3 437.2 180.7 437.2 189.0 C 437.1 195.3 436.5 201.7 436.9 208.1 C 437.4 215.0 436.8 222.0 437.0 229.0 C 436.7 236.0 437.5 243.0 436.9 250.0 C 436.2 263.0 437.8 276.0 436.9 289.0 C 436.5 296.0 437.7 303.0 436.9 310.0 C 436.6 324.4 436.9 338.7 436.8 353.0 C 437.0 361.9 433.4 370.9 427.2 377.2 C 420.6 382.9 411.7 386.0 403.0 385.8 C 386.3 385.9 369.7 383.7 353.0 382.7 C 328.4 380.9 303.7 379.0 279.0 377.1 C 264.5 374.7 251.4 383.6 237.0 383.7 C 227.6 383.6 218.0 384.6 208.8 382.1 C 199.3 380.2 189.9 376.3 180.0 376.7 C 140.0 380.0 100.0 382.7 60.0 385.7 C 52.4 385.6 44.5 386.6 37.3 383.8 C 28.4 380.5 20.8 373.1 18.1 363.9 C 15.1 354.6 15.9 344.6 16.3 335.0 C 15.5 321.0 16.8 307.0 16.0 293.0 C 15.5 286.3 16.4 279.7 16.3 273.0 C 15.6 257.3 16.8 241.7 15.9 226.0 C 15.6 220.3 16.5 214.7 16.0 209.0 C 15.6 204.3 15.8 199.6 16.1 194.9 C 16.6 188.6 15.6 182.3 16.0 176.0 C 16.2 160.0 16.3 144.0 16.2 128.0 C 16.0 120.4 18.0 112.7 22.4 106.3 C 26.0 100.9 31.8 97.1 37.9 94.9 C 43.9 92.7 50.6 93.5 56.3 90.4 C 61.2 87.6 63.2 81.9 66.9 78.0 C 71.6 73.2 77.5 69.8 83.9 67.9 C 103.8 61.6 124.6 59.2 145.4 57.5 M 151.4 62.6 C 138.2 63.6 124.9 64.4 111.8 66.9 C 98.9 69.3 85.2 71.2 74.4 79.3 C 68.7 83.4 66.0 90.3 60.7 94.7 C 57.6 97.3 53.4 97.7 49.6 98.4 C 44.6 99.2 39.5 100.3 34.9 102.8 C 27.7 106.4 23.9 114.4 22.2 121.9 C 20.2 133.5 22.1 145.3 21.0 157.0 C 20.4 162.7 21.5 168.3 21.4 174.0 C 21.3 180.0 21.6 186.0 21.1 192.0 C 20.6 201.3 21.7 210.7 20.8 220.0 C 21.7 237.9 21.2 256.0 21.4 274.0 C 21.6 279.7 20.5 285.3 21.0 291.0 C 21.4 294.6 20.7 298.3 20.7 302.0 C 22.1 318.7 20.7 335.6 21.6 352.4 C 22.2 360.9 25.1 370.4 32.8 375.3 C 42.0 381.2 53.5 381.2 64.0 380.0 C 95.3 377.6 126.7 375.4 158.0 373.0 C 171.4 372.2 185.1 369.6 198.1 373.8 C 212.3 378.2 227.3 380.0 242.0 377.8 C 251.8 376.2 261.0 371.9 271.0 371.6 C 278.0 371.1 284.9 372.5 292.0 372.6 C 327.0 375.4 362.0 377.9 397.0 380.6 C 407.2 380.8 419.0 379.2 425.6 370.6 C 432.5 361.6 431.7 349.7 431.7 338.9 C 431.9 318.3 431.1 297.6 432.2 277.0 C 431.6 269.7 431.3 262.3 431.9 255.0 C 432.5 248.3 431.3 241.7 431.6 235.0 C 432.1 216.3 431.2 197.7 432.0 179.0 C 431.2 161.7 432.1 144.4 431.4 127.2 C 430.2 120.2 429.7 112.6 425.2 106.9 C 420.5 101.0 413.1 98.1 405.9 97.0 C 401.1 96.1 395.8 96.1 391.6 93.3 C 386.8 89.8 384.3 84.1 379.7 80.4 C 372.9 74.9 364.6 71.5 356.1 69.9 C 324.0 62.7 290.4 59.5 257.9 65.9 C 248.6 67.6 240.4 72.3 231.6 75.3 C 222.1 77.8 214.0 71.5 205.6 68.4 C 188.1 63.0 169.6 61.8 151.4 62.6 Z" />
<path fill="#030d18" stroke="#030d18" stroke-width="0.09375" opacity="0.19" d=" M 151.4 62.6 C 169.6 61.8 188.1 63.0 205.6 68.4 C 214.0 71.5 222.1 77.8 231.6 75.3 C 240.4 72.3 248.6 67.6 257.9 65.9 C 290.4 59.5 324.0 62.7 356.1 69.9 C 364.6 71.5 372.9 74.9 379.7 80.4 C 384.3 84.1 386.8 89.8 391.6 93.3 C 395.8 96.1 401.1 96.1 405.9 97.0 C 413.1 98.1 420.5 101.0 425.2 106.9 C 429.7 112.6 430.2 120.2 431.4 127.2 C 432.1 144.4 431.2 161.7 432.0 179.0 C 431.2 197.7 432.1 216.3 431.6 235.0 C 431.3 241.7 432.5 248.3 431.9 255.0 C 431.3 262.3 431.6 269.7 432.2 277.0 C 431.1 297.6 431.9 318.3 431.7 338.9 C 431.7 349.7 432.5 361.6 425.6 370.6 C 419.0 379.2 407.2 380.8 397.0 380.6 C 362.0 377.9 327.0 375.4 292.0 372.6 C 284.9 372.5 278.0 371.1 271.0 371.6 C 261.0 371.9 251.8 376.2 242.0 377.8 C 227.3 380.0 212.3 378.2 198.1 373.8 C 185.1 369.6 171.4 372.2 158.0 373.0 C 126.7 375.4 95.3 377.6 64.0 380.0 C 53.5 381.2 42.0 381.2 32.8 375.3 C 25.1 370.4 22.2 360.9 21.6 352.4 C 20.7 335.6 22.1 318.7 20.7 302.0 C 20.7 298.3 21.4 294.6 21.0 291.0 C 20.5 285.3 21.6 279.7 21.4 274.0 C 21.2 256.0 21.7 237.9 20.8 220.0 C 21.7 210.7 20.6 201.3 21.1 192.0 C 21.6 186.0 21.3 180.0 21.4 174.0 C 21.5 168.3 20.4 162.7 21.0 157.0 C 22.1 145.3 20.2 133.5 22.2 121.9 C 23.9 114.4 27.7 106.4 34.9 102.8 C 39.5 100.3 44.6 99.2 49.6 98.4 C 53.4 97.7 57.6 97.3 60.7 94.7 C 66.0 90.3 68.7 83.4 74.4 79.3 C 85.2 71.2 98.9 69.3 111.8 66.9 C 124.9 64.4 138.2 63.6 151.4 62.6 M 152.3 66.4 C 131.3 67.6 110.2 70.1 89.9 75.8 C 83.3 77.8 76.7 80.9 72.4 86.4 C 68.5 91.1 65.9 97.3 59.9 99.7 C 51.8 102.9 42.3 101.8 35.0 106.9 C 27.8 111.7 25.7 120.9 25.2 129.0 C 24.0 136.3 25.8 143.7 24.9 151.0 C 25.4 158.3 24.2 165.7 25.1 173.0 C 25.9 181.0 23.9 189.0 24.9 197.0 C 26.0 204.3 24.0 211.7 25.1 219.0 C 25.4 229.3 25.3 239.7 25.3 250.0 C 24.2 259.3 26.0 268.7 25.0 278.0 C 24.2 288.7 25.8 299.3 24.8 310.0 C 24.7 319.7 24.5 329.4 24.8 339.1 C 25.8 348.1 24.2 357.8 29.1 366.0 C 32.5 372.6 40.1 375.4 47.0 376.2 C 57.7 377.3 68.4 375.7 79.0 375.0 C 112.3 372.6 145.7 370.2 179.0 367.6 C 190.7 366.7 201.7 371.2 213.0 373.2 C 220.2 374.9 227.6 374.7 235.0 374.5 C 245.3 374.0 254.9 369.8 265.0 368.0 C 273.6 366.5 282.3 368.4 291.0 368.6 C 323.3 371.2 355.6 373.5 388.0 375.9 C 398.0 377.0 409.0 377.4 418.1 372.1 C 425.3 367.4 427.4 358.1 427.7 350.1 C 428.8 342.0 427.3 334.0 428.3 326.0 C 428.2 317.0 428.7 308.0 427.9 299.0 C 427.5 294.3 428.5 289.7 428.0 285.0 C 427.5 280.0 428.3 275.0 428.3 270.0 C 428.6 259.3 426.9 248.7 428.0 238.0 C 428.6 233.0 427.7 228.0 428.0 223.0 C 428.7 215.7 426.9 208.4 428.1 201.0 C 428.0 188.3 428.0 175.6 427.9 162.9 C 429.1 153.3 427.2 143.6 427.7 134.0 C 428.0 124.7 427.5 114.3 420.7 107.3 C 413.9 100.5 403.8 100.8 395.0 98.9 C 388.3 97.6 384.7 91.2 380.6 86.4 C 375.5 80.1 367.7 76.9 360.0 74.9 C 341.2 70.3 322.0 67.3 302.6 66.4 C 282.4 65.9 261.7 67.3 242.7 74.6 C 237.5 76.5 232.7 79.9 227.0 79.8 C 223.6 79.9 220.3 79.1 217.4 77.6 C 197.4 67.5 174.4 65.7 152.3 66.4 Z" />
<path fill="#06172a" stroke="#06172a" stroke-width="0.09375" opacity="0.30" d=" M 152.3 66.4 C 174.4 65.7 197.4 67.5 217.4 77.6 C 220.3 79.1 223.6 79.9 227.0 79.8 C 232.7 79.9 237.5 76.5 242.7 74.6 C 261.7 67.3 282.4 65.9 302.6 66.4 C 322.0 67.3 341.2 70.3 360.0 74.9 C 367.7 76.9 375.5 80.1 380.6 86.4 C 384.7 91.2 388.3 97.6 395.0 98.9 C 403.8 100.8 413.9 100.5 420.7 107.3 C 427.5 114.3 428.0 124.7 427.7 134.0 C 427.2 143.6 429.1 153.3 427.9 162.9 C 428.0 175.6 428.0 188.3 428.1 201.0 C 426.9 208.4 428.7 215.7 428.0 223.0 C 427.7 228.0 428.6 233.0 428.0 238.0 C 426.9 248.7 428.6 259.3 428.3 270.0 C 428.3 275.0 427.5 280.0 428.0 285.0 C 428.5 289.7 427.5 294.3 427.9 299.0 C 428.7 308.0 428.2 317.0 428.3 326.0 C 427.3 334.0 428.8 342.0 427.7 350.1 C 427.4 358.1 425.3 367.4 418.1 372.1 C 409.0 377.4 398.0 377.0 388.0 375.9 C 355.6 373.5 323.3 371.2 291.0 368.6 C 282.3 368.4 273.6 366.5 265.0 368.0 C 254.9 369.8 245.3 374.0 235.0 374.5 C 227.6 374.7 220.2 374.9 213.0 373.2 C 201.7 371.2 190.7 366.7 179.0 367.6 C 145.7 370.2 112.3 372.6 79.0 375.0 C 68.4 375.7 57.7 377.3 47.0 376.2 C 40.1 375.4 32.5 372.6 29.1 366.0 C 24.2 357.8 25.8 348.1 24.8 339.1 C 24.5 329.4 24.7 319.7 24.8 310.0 C 25.8 299.3 24.2 288.7 25.0 278.0 C 26.0 268.7 24.2 259.3 25.3 250.0 C 25.3 239.7 25.4 229.3 25.1 219.0 C 24.0 211.7 26.0 204.3 24.9 197.0 C 23.9 189.0 25.9 181.0 25.1 173.0 C 24.2 165.7 25.4 158.3 24.9 151.0 C 25.8 143.7 24.0 136.3 25.2 129.0 C 25.7 120.9 27.8 111.7 35.0 106.9 C 42.3 101.8 51.8 102.9 59.9 99.7 C 65.9 97.3 68.5 91.1 72.4 86.4 C 76.7 80.9 83.3 77.8 89.9 75.8 C 110.2 70.1 131.3 67.6 152.3 66.4 M 143.4 70.5 C 134.1 71.3 124.8 72.0 115.6 73.7 C 104.6 75.7 93.3 77.4 83.0 82.1 C 75.4 85.7 72.1 93.8 66.6 99.6 C 58.3 107.5 45.1 103.4 36.3 110.3 C 30.3 115.3 28.6 123.5 28.5 131.0 C 28.5 203.3 28.5 275.7 28.5 348.1 C 28.5 354.4 29.9 361.0 33.8 366.2 C 38.5 372.2 46.9 372.9 54.0 373.4 C 85.5 371.2 116.9 368.6 148.3 366.4 C 160.2 365.7 172.1 364.1 184.0 364.3 C 192.9 363.9 201.3 367.3 209.9 369.3 C 219.4 371.3 229.3 372.2 239.0 370.6 C 248.2 369.8 256.7 365.7 265.9 364.6 C 280.3 363.6 294.7 365.7 309.0 366.6 C 339.0 368.9 369.0 371.1 399.0 373.3 C 405.9 373.1 413.9 372.3 418.8 366.9 C 423.1 362.0 424.4 355.3 424.5 349.1 C 424.5 275.4 424.5 201.7 424.5 128.0 C 424.2 120.3 422.1 111.2 414.7 107.3 C 407.2 102.8 397.9 104.4 390.0 100.9 C 382.8 97.7 380.3 89.4 374.1 84.9 C 370.2 82.1 365.7 80.2 361.1 78.9 C 340.6 73.2 319.3 70.6 298.0 69.6 C 291.6 69.3 285.3 69.8 279.0 70.5 C 265.6 71.4 252.0 73.9 239.7 79.7 C 235.7 81.5 231.6 83.8 227.0 83.7 C 221.9 83.9 217.4 81.2 212.9 79.2 C 201.4 73.7 188.5 71.6 175.9 70.4 C 165.1 69.0 154.2 69.4 143.4 70.5 Z" />
<path fill="#0a2240" stroke="#0a2240" stroke-width="0.09375" opacity="0.42" d=" M 143.4 70.5 C 154.2 69.4 165.1 69.0 175.9 70.4 C 188.5 71.6 201.4 73.7 212.9 79.2 C 217.4 81.2 221.9 83.9 227.0 83.7 C 231.6 83.8 235.7 81.5 239.7 79.7 C 252.0 73.9 265.6 71.4 279.0 70.5 C 285.3 69.8 291.6 69.3 298.0 69.6 C 319.3 70.6 340.6 73.2 361.1 78.9 C 365.7 80.2 370.2 82.1 374.1 84.9 C 380.3 89.4 382.8 97.7 390.0 100.9 C 397.9 104.4 407.2 102.8 414.7 107.3 C 422.1 111.2 424.2 120.3 424.5 128.0 C 424.5 201.7 424.5 275.4 424.5 349.1 C 424.4 355.3 423.1 362.0 418.8 366.9 C 413.9 372.3 405.9 373.1 399.0 373.3 C 369.0 371.1 339.0 368.9 309.0 366.6 C 294.7 365.7 280.3 363.6 265.9 364.6 C 256.7 365.7 248.2 369.8 239.0 370.6 C 229.3 372.2 219.4 371.3 209.9 369.3 C 201.3 367.3 192.9 363.9 184.0 364.3 C 172.1 364.1 160.2 365.7 148.3 366.4 C 116.9 368.6 85.5 371.2 54.0 373.4 C 46.9 372.9 38.5 372.2 33.8 366.2 C 29.9 361.0 28.5 354.4 28.5 348.1 C 28.5 275.7 28.5 203.3 28.5 131.0 C 28.6 123.5 30.3 115.3 36.3 110.3 C 45.1 103.4 58.3 107.5 66.6 99.6 C 72.1 93.8 75.4 85.7 83.0 82.1 C 93.3 77.4 104.6 75.7 115.6 73.7 C 124.8 72.0 134.1 71.3 143.4 70.5 M 150.4 74.5 C 138.4 75.8 126.2 76.2 114.4 78.6 C 104.6 80.5 94.3 81.8 85.3 86.3 C 77.0 90.6 74.0 100.4 66.6 105.7 C 59.1 110.5 49.5 108.7 41.7 112.6 C 35.7 115.7 33.5 122.7 33.4 129.0 C 33.4 166.0 33.4 203.0 33.5 240.0 C 33.8 245.7 32.3 251.3 33.1 257.0 C 34.1 268.3 32.7 279.6 33.4 290.9 C 33.4 310.6 33.4 330.3 33.4 350.0 C 33.6 356.2 35.6 363.5 41.7 366.3 C 50.9 370.5 61.3 367.9 71.0 367.5 C 106.3 364.8 141.7 362.4 177.0 359.5 C 183.0 359.4 189.1 359.1 195.0 360.9 C 206.3 364.2 218.0 367.2 230.0 366.6 C 241.5 367.3 252.3 362.4 263.4 360.3 C 273.9 358.2 284.4 360.5 295.0 360.9 C 326.3 363.4 357.7 365.6 389.0 368.0 C 394.3 368.6 399.7 368.9 405.1 368.3 C 410.2 367.5 415.9 365.1 417.8 359.9 C 421.6 350.3 418.6 339.9 420.1 330.0 C 419.8 325.0 419.5 320.0 420.3 315.0 C 419.0 300.4 419.8 285.7 419.6 271.1 C 419.8 263.7 419.1 256.3 420.1 249.0 C 420.8 244.3 419.1 239.6 420.0 235.0 C 421.0 229.7 418.9 224.4 419.9 219.1 C 420.6 214.7 419.6 210.4 419.5 206.0 C 419.3 200.3 421.0 194.7 420.0 189.0 C 418.9 183.0 420.4 177.0 419.8 171.0 C 419.3 166.7 420.2 162.3 419.9 158.0 C 419.3 152.6 420.5 147.3 419.8 142.0 C 418.9 132.6 421.8 121.7 415.3 113.7 C 408.0 106.4 396.5 109.4 387.9 105.1 C 379.7 101.2 376.5 91.7 368.9 87.1 C 364.2 84.3 358.7 82.9 353.4 81.6 C 343.7 79.3 333.8 77.6 324.0 76.3 C 300.0 73.6 275.2 72.9 251.9 79.9 C 244.1 82.1 237.2 87.1 229.2 88.5 C 220.6 89.7 213.3 84.1 205.7 81.2 C 188.0 74.6 168.9 74.0 150.4 74.5 Z" />
<path fill="#0d2e55" stroke="#0d2e55" stroke-width="0.09375" opacity="0.55" d=" M 150.4 74.5 C 168.9 74.0 188.0 74.6 205.7 81.2 C 213.3 84.1 220.6 89.7 229.2 88.5 C 237.2 87.1 244.1 82.1 251.9 79.9 C 275.2 72.9 300.0 73.6 324.0 76.3 C 333.8 77.6 343.7 79.3 353.4 81.6 C 358.7 82.9 364.2 84.3 368.9 87.1 C 376.5 91.7 379.7 101.2 387.9 105.1 C 396.5 109.4 408.0 106.4 415.3 113.7 C 421.8 121.7 418.9 132.6 419.8 142.0 C 420.5 147.3 419.3 152.6 419.9 158.0 C 420.2 162.3 419.3 166.7 419.8 171.0 C 420.4 177.0 418.9 183.0 420.0 189.0 C 421.0 194.7 419.3 200.3 419.5 206.0 C 419.6 210.4 420.6 214.7 419.9 219.1 C 418.9 224.4 421.0 229.7 420.0 235.0 C 419.1 239.6 420.8 244.3 420.1 249.0 C 419.1 256.3 419.8 263.7 419.6 271.1 C 419.8 285.7 419.0 300.4 420.3 315.0 C 419.5 320.0 419.8 325.0 420.1 330.0 C 418.6 339.9 421.6 350.3 417.8 359.9 C 415.9 365.1 410.2 367.5 405.1 368.3 C 399.7 368.9 394.3 368.6 389.0 368.0 C 357.7 365.6 326.3 363.4 295.0 360.9 C 284.4 360.5 273.9 358.2 263.4 360.3 C 252.3 362.4 241.5 367.3 230.0 366.6 C 218.0 367.2 206.3 364.2 195.0 360.9 C 189.1 359.1 183.0 359.4 177.0 359.5 C 141.7 362.4 106.3 364.8 71.0 367.5 C 61.3 367.9 50.9 370.5 41.7 366.3 C 35.6 363.5 33.6 356.2 33.4 350.0 C 33.4 330.3 33.4 310.6 33.4 290.9 C 32.7 279.6 34.1 268.3 33.1 257.0 C 32.3 251.3 33.8 245.7 33.5 240.0 C 33.4 203.0 33.4 166.0 33.4 129.0 C 33.5 122.7 35.7 115.7 41.7 112.6 C 49.5 108.7 59.1 110.5 66.6 105.7 C 74.0 100.4 77.0 90.6 85.3 86.3 C 94.3 81.8 104.6 80.5 114.4 78.6 C 126.2 76.2 138.4 75.8 150.4 74.5 M 96.8 90.5 C 92.5 91.8 88.1 93.7 85.0 97.1 C 80.7 101.7 78.7 107.9 74.5 112.5 C 70.1 116.5 63.8 116.4 58.3 117.1 C 53.9 117.7 48.6 117.6 45.6 121.5 C 45.3 121.5 44.8 121.6 44.5 121.6 C 43.4 122.4 42.1 123.2 41.6 124.6 C 39.0 131.1 39.7 138.2 39.7 145.0 C 39.7 211.0 39.7 277.0 39.7 343.0 C 40.0 347.8 40.0 353.1 42.7 357.3 C 45.9 360.4 50.6 362.0 55.0 362.0 C 96.0 359.1 136.9 355.9 177.9 352.9 C 185.2 352.2 192.8 351.7 199.8 354.2 C 209.0 357.3 218.4 359.8 228.0 360.3 C 238.8 360.2 249.0 356.5 259.2 353.4 C 267.7 351.1 276.4 353.3 285.0 353.5 C 315.7 355.8 346.3 358.1 377.0 360.4 C 385.2 360.7 393.3 362.2 401.4 361.6 C 404.5 361.2 407.9 360.5 410.0 358.0 C 412.6 354.6 413.3 350.2 413.4 346.0 C 413.4 274.6 413.4 203.3 413.4 132.0 C 413.4 127.6 412.5 122.9 409.2 119.8 C 408.8 119.7 407.8 119.7 407.3 119.6 C 406.1 118.0 404.6 116.6 402.5 116.2 C 394.6 114.5 385.6 115.9 378.5 111.4 C 373.3 106.5 371.2 99.0 365.4 94.7 C 360.0 90.9 353.5 89.8 347.2 88.4 C 332.5 85.4 317.5 82.5 302.4 82.2 C 294.6 80.6 286.8 82.4 279.0 82.7 C 264.0 84.1 248.4 87.7 236.4 97.3 C 232.9 99.6 229.2 103.7 224.6 102.2 C 219.0 99.9 215.0 95.1 209.7 92.2 C 202.3 88.2 194.2 85.6 185.9 84.0 C 178.1 82.4 170.0 82.4 162.0 81.5 C 140.1 82.5 118.1 84.9 96.8 90.5 Z" />
<path fill="#0e315a" stroke="#0e315a" stroke-width="0.09375" opacity="0.65" d=" M 96.8 90.5 C 118.1 84.9 140.1 82.5 162.0 81.5 C 170.0 82.4 178.1 82.4 185.9 84.0 C 194.2 85.6 202.3 88.2 209.7 92.2 C 215.0 95.1 219.0 99.9 224.6 102.2 C 229.2 103.7 232.9 99.6 236.4 97.3 C 248.4 87.7 264.0 84.1 279.0 82.7 C 286.8 82.4 294.6 80.6 302.4 82.2 C 317.5 82.5 332.5 85.4 347.2 88.4 C 353.5 89.8 360.0 90.9 365.4 94.7 C 371.2 99.0 373.3 106.5 378.5 111.4 C 385.6 115.9 394.6 114.5 402.5 116.2 C 404.6 116.6 406.1 118.0 407.3 119.6 C 396.8 119.1 386.3 118.4 375.9 117.9 C 371.8 110.8 368.6 103.0 364.0 96.2 C 337.1 89.0 309.1 83.9 281.0 86.0 C 268.8 87.1 256.1 89.0 245.3 95.4 C 237.4 100.0 231.0 107.0 226.7 115.1 C 220.2 102.8 208.6 93.4 195.2 89.7 C 172.9 83.5 149.5 85.2 126.9 88.1 C 114.0 90.3 101.1 92.5 88.6 96.4 C 84.3 104.0 80.5 111.9 76.5 119.7 C 66.2 120.4 55.9 121.0 45.6 121.5 C 48.6 117.6 53.9 117.7 58.3 117.1 C 63.8 116.4 70.1 116.5 74.5 112.5 C 78.7 107.9 80.7 101.7 85.0 97.1 C 88.1 93.7 92.5 91.8 96.8 90.5 Z" />
<path fill="#ffffff" stroke="#ffffff" stroke-width="0.09375" opacity="1.00" d=" M 126.9 88.1 C 149.5 85.2 172.9 83.5 195.2 89.7 C 208.6 93.4 220.2 102.8 226.7 115.1 C 231.0 107.0 237.4 100.0 245.3 95.4 C 256.1 89.0 268.8 87.1 281.0 86.0 C 309.1 83.9 337.1 89.0 364.0 96.2 C 368.6 103.0 371.8 110.8 375.9 117.9 C 386.3 118.4 396.8 119.1 407.3 119.6 C 407.8 119.7 408.8 119.7 409.2 119.8 C 409.2 199.3 409.3 278.8 409.2 358.3 C 359.8 355.0 310.4 350.9 261.1 347.4 C 253.7 349.6 246.9 353.9 239.2 355.1 C 225.0 358.1 210.6 354.0 197.6 348.5 C 193.6 346.4 189.1 347.9 184.9 348.0 C 138.1 351.4 91.4 355.1 44.6 358.3 C 44.4 279.4 44.5 200.5 44.5 121.6 C 44.8 121.6 45.3 121.5 45.6 121.5 C 55.9 121.0 66.2 120.4 76.5 119.7 C 80.5 111.9 84.3 104.0 88.6 96.4 C 101.1 92.5 114.0 90.3 126.9 88.1 M 100.5 104.0 C 100.5 164.0 100.5 223.9 100.5 283.9 C 123.8 280.0 147.4 276.1 171.0 277.5 C 189.2 278.9 208.5 283.5 221.8 296.8 C 221.7 247.5 221.8 198.3 221.7 149.0 C 221.8 141.2 221.9 133.2 219.6 125.6 C 216.9 116.4 210.6 108.4 202.2 103.8 C 191.0 97.4 177.7 95.9 165.0 95.7 C 143.2 95.6 121.6 98.9 100.5 104.0 M 242.9 109.8 C 234.5 117.7 232.2 129.9 232.0 141.0 C 232.0 189.6 232.0 238.1 232.0 286.7 C 232.0 290.3 232.0 293.9 232.0 297.5 C 234.0 295.4 236.1 293.5 238.4 291.7 C 242.8 288.3 247.7 285.2 252.9 283.0 C 262.9 278.8 273.9 277.9 284.6 277.4 C 307.6 276.5 330.6 279.2 353.0 284.2 C 353.0 224.0 353.0 163.8 353.0 103.6 C 330.3 99.0 307.3 95.0 284.0 95.9 C 269.5 96.8 254.0 99.8 242.9 109.8 M 76.3 141.3 C 75.2 143.0 75.6 145.1 75.5 147.1 C 75.6 203.0 75.3 258.9 75.7 314.8 C 75.9 314.0 76.2 313.3 76.3 312.6 C 78.8 308.6 80.7 304.4 82.9 300.3 C 85.2 295.2 88.8 290.5 90.2 285.1 C 90.3 228.7 90.2 172.3 90.3 115.9 C 85.6 124.4 80.9 132.8 76.3 141.3 M 363.2 116.4 C 363.3 172.3 363.2 228.1 363.2 284.0 C 363.2 285.3 363.6 286.6 364.2 287.7 C 366.4 291.8 368.7 296.0 370.9 300.2 C 373.2 304.6 375.6 309.1 378.0 313.6 C 378.0 308.5 378.0 303.4 378.0 298.3 C 378.0 247.9 378.0 197.4 378.0 146.9 C 378.1 145.5 377.9 144.1 377.2 142.8 C 372.5 134.0 367.8 125.2 363.2 116.4 M 380.8 128.0 C 383.2 132.4 386.5 136.3 388.2 141.0 C 388.3 205.8 388.3 270.7 388.2 335.5 C 342.9 333.0 297.6 329.8 252.2 327.2 C 244.6 333.3 234.6 335.7 225.0 335.2 C 217.4 335.1 209.7 332.9 203.5 328.4 C 201.8 326.7 199.3 327.4 197.1 327.4 C 153.3 330.2 109.4 332.9 65.6 335.6 C 65.0 331.1 65.3 326.5 65.3 322.0 C 65.2 263.0 65.3 204.0 65.2 145.0 C 64.5 139.2 68.6 134.6 70.8 129.7 C 65.5 130.0 60.1 130.3 54.7 130.6 C 54.7 202.8 54.8 275.1 54.7 347.4 C 102.4 343.9 150.1 340.3 197.8 336.8 C 206.2 341.2 215.3 344.9 224.9 345.7 C 236.3 346.9 247.4 342.5 257.1 336.8 C 304.4 340.4 351.7 343.9 399.0 347.4 C 399.0 274.6 399.0 201.8 399.0 129.1 C 392.9 128.7 386.9 128.4 380.8 128.0 M 266.9 289.5 C 257.2 291.5 247.2 295.0 240.4 302.5 C 234.7 308.4 232.3 316.8 232.0 324.9 C 237.9 323.8 243.8 321.4 247.9 316.8 C 249.6 314.4 252.7 315.5 255.1 315.6 C 294.1 318.8 333.2 321.9 372.2 325.0 C 367.2 315.2 362.1 305.5 357.1 295.6 C 343.5 292.8 329.8 290.3 315.9 288.9 C 299.6 287.3 283.0 286.4 266.9 289.5 M 98.0 295.1 C 92.8 305.0 87.9 315.1 82.8 325.0 C 123.6 321.9 164.3 318.4 205.1 315.5 C 209.3 320.4 215.3 323.3 221.6 324.8 C 220.4 317.5 218.3 310.1 213.8 304.2 C 209.6 298.5 203.5 294.5 196.8 292.3 C 184.1 287.9 170.4 287.2 157.1 287.6 C 137.2 288.0 117.5 291.1 98.0 295.1 Z" />
<path fill="#0e3059" stroke="#0e3059" stroke-width="0.09375" opacity="0.63" d=" M 100.5 104.0 C 121.6 98.9 143.2 95.6 165.0 95.7 C 177.7 95.9 191.0 97.4 202.2 103.8 C 210.6 108.4 216.9 116.4 219.6 125.6 C 221.9 133.2 221.8 141.2 221.7 149.0 C 221.8 198.3 221.7 247.5 221.8 296.8 C 208.5 283.5 189.2 278.9 171.0 277.5 C 147.4 276.1 123.8 280.0 100.5 283.9 C 100.5 223.9 100.5 164.0 100.5 104.0 M 119.1 107.2 C 114.7 108.3 109.9 110.7 108.5 115.4 C 106.3 123.4 106.3 131.8 106.4 140.1 C 106.4 175.0 106.4 210.0 106.4 245.0 C 106.3 251.3 106.9 257.7 108.1 264.0 C 108.7 267.3 110.5 271.0 114.0 272.0 C 125.3 274.6 136.8 271.9 148.1 271.3 C 164.5 269.3 180.9 271.9 197.0 275.0 C 201.4 275.9 206.0 275.6 210.5 275.5 C 214.4 268.3 215.6 260.1 215.6 252.0 C 215.6 217.0 215.6 182.0 215.6 147.0 C 215.7 140.4 214.7 133.7 212.5 127.4 C 209.2 118.5 202.2 111.1 193.4 107.6 C 184.1 103.8 174.0 102.2 164.0 102.4 C 148.9 102.1 133.7 103.4 119.1 107.2 Z" />
<path fill="#0e3059" stroke="#0e3059" stroke-width="0.09375" opacity="0.63" d=" M 242.9 109.8 C 254.0 99.8 269.5 96.8 284.0 95.9 C 307.3 95.0 330.3 99.0 353.0 103.6 C 353.0 163.8 353.0 224.0 353.0 284.2 C 330.6 279.2 307.6 276.5 284.6 277.4 C 273.9 277.9 262.9 278.8 252.9 283.0 C 247.7 285.2 242.8 288.3 238.4 291.7 C 236.2 290.1 234.1 288.4 232.0 286.7 C 232.0 238.1 232.0 189.6 232.0 141.0 C 232.2 129.9 234.5 117.7 242.9 109.8 M 283.3 102.3 C 275.8 103.1 268.4 104.6 261.3 107.2 C 253.0 110.4 245.1 116.2 241.9 124.9 C 235.7 140.5 238.3 157.6 237.9 174.0 C 238.5 181.7 237.2 189.3 238.0 197.0 C 238.7 203.7 237.1 210.4 238.0 217.0 C 239.0 224.4 237.3 231.7 238.0 239.0 C 238.7 248.4 237.3 258.0 239.9 267.2 C 240.7 270.0 241.5 273.1 243.7 275.3 C 246.8 276.1 250.0 275.4 253.1 275.0 C 261.8 273.6 270.5 272.1 279.4 271.5 C 286.6 271.2 293.8 271.4 301.0 271.3 C 311.1 271.0 321.0 273.1 331.0 273.4 C 334.9 273.1 339.3 273.0 342.5 270.5 C 346.0 266.1 346.0 260.2 346.8 254.9 C 348.0 247.3 346.6 239.6 346.7 232.0 C 346.6 225.0 347.8 218.0 347.0 211.0 C 345.9 199.3 348.0 187.6 346.8 176.0 C 346.5 165.0 347.9 154.0 347.2 143.0 C 346.2 133.5 348.1 123.5 344.6 114.4 C 343.1 110.3 338.8 108.3 334.8 107.1 C 324.9 104.4 314.6 103.3 304.3 102.5 C 297.3 102.5 290.3 101.2 283.3 102.3 Z" />
<path fill="#0c2b4f" stroke="#0c2b4f" stroke-width="0.09375" opacity="0.51" d=" M 119.1 107.2 C 133.7 103.4 148.9 102.1 164.0 102.4 C 174.0 102.2 184.1 103.8 193.4 107.6 C 202.2 111.1 209.2 118.5 212.5 127.4 C 214.7 133.7 215.7 140.4 215.6 147.0 C 215.6 182.0 215.6 217.0 215.6 252.0 C 215.6 260.1 214.4 268.3 210.5 275.5 C 206.0 275.6 201.4 275.9 197.0 275.0 C 180.9 271.9 164.5 269.3 148.1 271.3 C 136.8 271.9 125.3 274.6 114.0 272.0 C 110.5 271.0 108.7 267.3 108.1 264.0 C 106.9 257.7 106.3 251.3 106.4 245.0 C 106.4 210.0 106.4 175.0 106.4 140.1 C 106.3 131.8 106.3 123.4 108.5 115.4 C 109.9 110.7 114.7 108.3 119.1 107.2 M 146.4 109.6 C 138.5 110.5 130.3 111.0 122.7 113.7 C 118.0 115.4 114.6 119.8 113.8 124.7 C 113.2 128.7 112.8 132.9 112.6 137.0 C 112.5 168.6 112.7 200.3 112.6 232.0 C 112.1 239.3 113.7 246.6 113.5 253.9 C 113.3 259.4 117.7 265.0 123.3 265.5 C 131.2 265.9 139.2 265.5 147.0 264.5 C 159.3 264.6 171.8 263.7 184.0 265.9 C 190.6 266.5 198.1 269.4 204.1 265.1 C 209.3 261.4 208.5 254.5 209.3 248.9 C 210.0 243.9 208.4 239.0 209.1 234.0 C 209.7 228.7 209.3 223.3 209.4 218.0 C 209.7 211.0 208.3 204.0 209.4 197.0 C 209.1 177.7 210.3 158.2 208.3 138.9 C 206.9 127.2 198.3 116.8 187.3 112.8 C 179.2 109.6 170.5 109.5 162.0 108.6 C 156.8 108.9 151.6 109.7 146.4 109.6 Z" />
<path fill="#0d2b52" stroke="#0d2b52" stroke-width="0.09375" opacity="0.53" d=" M 283.3 102.3 C 290.3 101.2 297.3 102.5 304.3 102.5 C 314.6 103.3 324.9 104.4 334.8 107.1 C 338.8 108.3 343.1 110.3 344.6 114.4 C 348.1 123.5 346.2 133.5 347.2 143.0 C 347.9 154.0 346.5 165.0 346.8 176.0 C 348.0 187.6 345.9 199.3 347.0 211.0 C 347.8 218.0 346.6 225.0 346.7 232.0 C 346.6 239.6 348.0 247.3 346.8 254.9 C 346.0 260.2 346.0 266.1 342.5 270.5 C 339.3 273.0 334.9 273.1 331.0 273.4 C 321.0 273.1 311.1 271.0 301.0 271.3 C 293.8 271.4 286.6 271.2 279.4 271.5 C 270.5 272.1 261.8 273.6 253.1 275.0 C 250.0 275.4 246.8 276.1 243.7 275.3 C 241.5 273.1 240.7 270.0 239.9 267.2 C 237.3 258.0 238.7 248.4 238.0 239.0 C 237.3 231.7 239.0 224.4 238.0 217.0 C 237.1 210.4 238.7 203.7 238.0 197.0 C 237.2 189.3 238.5 181.7 237.9 174.0 C 238.3 157.6 235.7 140.5 241.9 124.9 C 245.1 116.2 253.0 110.4 261.3 107.2 C 268.4 104.6 275.8 103.1 283.3 102.3 M 281.4 108.6 C 270.3 109.8 258.4 113.1 251.0 122.1 C 244.8 129.9 243.5 140.3 243.6 150.0 C 243.6 182.7 243.6 215.4 243.6 248.0 C 243.9 253.3 244.2 259.1 247.4 263.6 C 251.0 268.0 257.2 267.9 262.4 267.4 C 271.5 266.5 280.7 265.2 290.0 265.4 C 298.3 265.5 306.7 265.1 315.0 266.2 C 319.4 266.6 323.9 266.8 328.4 266.5 C 333.1 266.1 338.1 263.3 339.5 258.4 C 341.6 250.5 341.5 242.2 341.4 234.0 C 341.4 203.0 341.4 172.0 341.4 141.0 C 341.5 134.2 341.7 127.2 339.2 120.8 C 337.3 116.2 332.8 113.2 328.2 111.9 C 318.7 109.2 308.8 109.0 299.0 107.9 C 293.1 107.0 287.3 108.4 281.4 108.6 Z" />
<path fill="#09203c" stroke="#09203c" stroke-width="0.09375" opacity="0.40" d=" M 281.4 108.6 C 287.3 108.4 293.1 107.0 299.0 107.9 C 308.8 109.0 318.7 109.2 328.2 111.9 C 332.8 113.2 337.3 116.2 339.2 120.8 C 341.7 127.2 341.5 134.2 341.4 141.0 C 341.4 172.0 341.4 203.0 341.4 234.0 C 341.5 242.2 341.6 250.5 339.5 258.4 C 338.1 263.3 333.1 266.1 328.4 266.5 C 323.9 266.8 319.4 266.6 315.0 266.2 C 306.7 265.1 298.3 265.5 290.0 265.4 C 280.7 265.2 271.5 266.5 262.4 267.4 C 257.2 267.9 251.0 268.0 247.4 263.6 C 244.2 259.1 243.9 253.3 243.6 248.0 C 243.6 215.4 243.6 182.7 243.6 150.0 C 243.5 140.3 244.8 129.9 251.0 122.1 C 258.4 113.1 270.3 109.8 281.4 108.6 M 280.3 113.3 C 273.6 114.6 266.7 116.0 260.9 119.9 C 252.5 125.1 248.3 135.3 248.5 145.0 C 248.5 179.3 248.5 213.7 248.4 248.0 C 248.3 252.4 249.1 257.3 252.5 260.4 C 255.4 263.2 259.7 262.6 263.4 262.5 C 273.2 261.5 283.1 260.1 293.0 260.5 C 303.3 260.1 313.6 261.6 323.9 262.1 C 326.9 261.9 329.9 261.1 332.3 259.3 C 335.0 256.6 336.6 252.8 336.5 249.0 C 336.6 210.0 336.5 171.0 336.5 132.0 C 336.6 127.6 335.3 123.0 332.3 119.7 C 328.2 116.1 322.6 115.4 317.4 114.5 C 305.1 113.0 292.6 111.4 280.3 113.3 Z" />
<path fill="#081c35" stroke="#081c35" stroke-width="0.09375" opacity="0.36" d=" M 146.4 109.6 C 151.6 109.7 156.8 108.9 162.0 108.6 C 170.5 109.5 179.2 109.6 187.3 112.8 C 198.3 116.8 206.9 127.2 208.3 138.9 C 210.3 158.2 209.1 177.7 209.4 197.0 C 208.3 204.0 209.7 211.0 209.4 218.0 C 209.3 223.3 209.7 228.7 209.1 234.0 C 208.4 239.0 210.0 243.9 209.3 248.9 C 208.5 254.5 209.3 261.4 204.1 265.1 C 198.1 269.4 190.6 266.5 184.0 265.9 C 171.8 263.7 159.3 264.6 147.0 264.5 C 139.2 265.5 131.2 265.9 123.3 265.5 C 117.7 265.0 113.3 259.4 113.5 253.9 C 113.7 246.6 112.1 239.3 112.6 232.0 C 112.7 200.3 112.5 168.6 112.6 137.0 C 112.8 132.9 113.2 128.7 113.8 124.7 C 114.6 119.8 118.0 115.4 122.7 113.7 C 130.3 111.0 138.5 110.5 146.4 109.6 M 155.4 114.5 C 148.9 114.4 142.5 115.5 136.1 116.3 C 131.3 117.1 126.0 117.8 122.1 121.2 C 119.4 124.1 118.4 128.2 118.4 132.0 C 118.4 170.7 118.4 209.3 118.4 247.9 C 118.5 252.1 119.6 257.3 123.9 259.1 C 129.7 262.1 136.2 259.4 142.3 259.5 C 147.6 259.6 152.8 258.5 158.0 258.5 C 163.7 258.3 169.3 259.5 175.0 259.5 C 181.7 259.6 188.3 261.4 195.0 261.5 C 200.5 261.4 203.8 255.6 203.5 250.6 C 203.6 218.4 203.5 186.2 203.6 154.0 C 203.5 147.7 204.1 141.2 201.9 135.2 C 199.4 127.2 192.8 120.8 185.1 117.9 C 175.6 114.3 165.4 114.3 155.4 114.5 Z" />
<path fill="#051324" stroke="#051324" stroke-width="0.09375" opacity="0.26" d=" M 280.3 113.3 C 292.6 111.4 305.1 113.0 317.4 114.5 C 322.6 115.4 328.2 116.1 332.3 119.7 C 335.3 123.0 336.6 127.6 336.5 132.0 C 336.5 171.0 336.6 210.0 336.5 249.0 C 336.6 252.8 335.0 256.6 332.3 259.3 C 329.9 261.1 326.9 261.9 323.9 262.1 C 313.6 261.6 303.3 260.1 293.0 260.5 C 283.1 260.1 273.2 261.5 263.4 262.5 C 259.7 262.6 255.4 263.2 252.5 260.4 C 249.1 257.3 248.3 252.4 248.4 248.0 C 248.5 213.7 248.5 179.3 248.5 145.0 C 248.3 135.3 252.5 125.1 260.9 119.9 C 266.7 116.0 273.6 114.6 280.3 113.3 M 283.3 117.5 C 277.6 118.0 272.0 119.5 266.7 121.7 C 260.0 124.5 255.2 130.9 253.8 137.9 C 252.1 145.5 252.7 153.3 252.6 161.0 C 252.6 188.0 252.6 215.0 252.6 242.1 C 252.7 245.5 252.9 249.0 253.8 252.3 C 254.8 255.8 258.4 258.0 261.9 258.1 C 268.6 257.9 275.3 256.7 282.0 256.5 C 290.3 256.5 298.7 256.4 307.0 256.5 C 313.7 256.6 320.7 259.1 327.1 256.1 C 331.6 254.0 332.1 248.3 332.4 244.0 C 332.5 210.3 332.4 176.6 332.4 143.0 C 332.4 137.2 332.8 131.0 330.4 125.6 C 329.1 122.6 326.0 120.8 322.9 120.1 C 314.7 118.0 306.3 117.5 298.0 117.2 C 293.1 116.4 288.2 116.9 283.3 117.5 Z" />
<path fill="#030c16" stroke="#030c16" stroke-width="0.09375" opacity="0.18" d=" M 155.4 114.5 C 165.4 114.3 175.6 114.3 185.1 117.9 C 192.8 120.8 199.4 127.2 201.9 135.2 C 204.1 141.2 203.5 147.7 203.6 154.0 C 203.5 186.2 203.6 218.4 203.5 250.6 C 203.8 255.6 200.5 261.4 195.0 261.5 C 188.3 261.4 181.7 259.6 175.0 259.5 C 169.3 259.5 163.7 258.3 158.0 258.5 C 152.8 258.5 147.6 259.6 142.3 259.5 C 136.2 259.4 129.7 262.1 123.9 259.1 C 119.6 257.3 118.5 252.1 118.4 247.9 C 118.4 209.3 118.4 170.7 118.4 132.0 C 118.4 128.2 119.4 124.1 122.1 121.2 C 126.0 117.8 131.3 117.1 136.1 116.3 C 142.5 115.5 148.9 114.4 155.4 114.5 M 152.3 120.7 C 145.3 121.7 138.1 121.3 131.4 123.6 C 127.0 124.9 124.3 129.6 124.5 134.0 C 124.5 169.0 124.5 204.0 124.5 239.0 C 124.5 242.1 124.2 245.1 124.8 248.2 C 125.4 250.8 127.4 253.6 130.4 253.5 C 137.3 253.7 144.2 253.7 151.1 252.6 C 159.2 252.3 167.3 252.2 175.4 253.3 C 181.1 253.4 186.7 255.1 192.4 254.4 C 196.3 253.9 197.6 249.3 197.5 245.9 C 197.5 212.6 197.5 179.3 197.5 146.0 C 197.4 138.2 194.2 129.9 187.1 125.8 C 176.7 119.7 164.0 120.3 152.3 120.7 Z" />
<path fill="#0e315b" stroke="#0e315b" stroke-width="0.09375" opacity="0.64" d=" M 76.3 141.3 C 80.9 132.8 85.6 124.4 90.3 115.9 C 90.2 172.3 90.3 228.7 90.2 285.1 C 88.8 290.5 85.2 295.2 82.9 300.3 C 80.6 300.1 78.4 300.0 76.1 299.7 C 75.9 304.0 76.1 308.3 76.3 312.6 C 76.2 313.3 75.9 314.0 75.7 314.8 C 75.3 258.9 75.6 203.0 75.5 147.1 C 75.6 145.1 75.2 143.0 76.3 141.3 Z" />
<path fill="#01070d" stroke="#01070d" stroke-width="0.09375" opacity="0.12" d=" M 283.3 117.5 C 288.2 116.9 293.1 116.4 298.0 117.2 C 306.3 117.5 314.7 118.0 322.9 120.1 C 326.0 120.8 329.1 122.6 330.4 125.6 C 332.8 131.0 332.4 137.2 332.4 143.0 C 332.4 176.6 332.5 210.3 332.4 244.0 C 332.1 248.3 331.6 254.0 327.1 256.1 C 320.7 259.1 313.7 256.6 307.0 256.5 C 298.7 256.4 290.3 256.5 282.0 256.5 C 275.3 256.7 268.6 257.9 261.9 258.1 C 258.4 258.0 254.8 255.8 253.8 252.3 C 252.9 249.0 252.7 245.5 252.6 242.1 C 252.6 215.0 252.6 188.0 252.6 161.0 C 252.7 153.3 252.1 145.5 253.8 137.9 C 255.2 130.9 260.0 124.5 266.7 121.7 C 272.0 119.5 277.6 118.0 283.3 117.5 M 266.7 127.7 C 260.3 131.3 258.1 139.1 258.4 146.0 C 258.4 177.0 258.4 208.0 258.4 239.0 C 258.5 243.2 257.6 247.9 260.6 251.4 C 271.1 251.8 281.6 251.7 292.0 250.5 C 302.4 250.7 312.9 252.4 323.4 251.3 C 325.9 249.8 326.6 246.7 326.6 244.0 C 326.6 207.6 326.6 171.3 326.6 134.9 C 326.6 132.5 326.4 129.9 324.9 127.9 C 323.5 125.8 320.7 125.3 318.4 124.6 C 310.1 123.0 301.5 122.2 293.0 122.4 C 284.0 122.1 274.7 123.3 266.7 127.7 Z" />
<path fill="#0e315b" stroke="#0e315b" stroke-width="0.09375" opacity="0.64" d=" M 363.2 116.4 C 367.8 125.2 372.5 134.0 377.2 142.8 C 377.9 144.1 378.1 145.5 378.0 146.9 C 378.0 197.4 378.0 247.9 378.0 298.3 C 375.6 298.9 373.2 299.5 370.9 300.2 C 368.7 296.0 366.4 291.8 364.2 287.7 C 363.6 286.6 363.2 285.3 363.2 284.0 C 363.2 228.1 363.3 172.3 363.2 116.4 Z" />
<path fill="#0e305a" stroke="#0e305a" stroke-width="0.09375" opacity="0.65" d=" M 409.2 119.8 C 412.5 122.9 413.4 127.6 413.4 132.0 C 413.4 203.3 413.4 274.6 413.4 346.0 C 413.3 350.2 412.6 354.6 410.0 358.0 C 407.9 360.5 404.5 361.2 401.4 361.6 C 393.3 362.2 385.2 360.7 377.0 360.4 C 346.3 358.1 315.7 355.8 285.0 353.5 C 276.4 353.3 267.7 351.1 259.2 353.4 C 249.0 356.5 238.8 360.2 228.0 360.3 C 218.4 359.8 209.0 357.3 199.8 354.2 C 192.8 351.7 185.2 352.2 177.9 352.9 C 136.9 355.9 96.0 359.1 55.0 362.0 C 50.6 362.0 45.9 360.4 42.7 357.3 C 40.0 353.1 40.0 347.8 39.7 343.0 C 39.7 277.0 39.7 211.0 39.7 145.0 C 39.7 138.2 39.0 131.1 41.6 124.6 C 42.1 123.2 43.4 122.4 44.5 121.6 C 44.5 200.5 44.4 279.4 44.6 358.3 C 91.4 355.1 138.1 351.4 184.9 348.0 C 189.1 347.9 193.6 346.4 197.6 348.5 C 210.6 354.0 225.0 358.1 239.2 355.1 C 246.9 353.9 253.7 349.6 261.1 347.4 C 310.4 350.9 359.8 355.0 409.2 358.3 C 409.3 278.8 409.2 199.3 409.2 119.8 Z" />
<path fill="#0e315b" stroke="#0e315b" stroke-width="0.09375" opacity="0.67" d=" M 380.8 128.0 C 386.9 128.4 392.9 128.7 399.0 129.1 C 399.0 201.8 399.0 274.6 399.0 347.4 C 351.7 343.9 304.4 340.4 257.1 336.8 C 247.4 342.5 236.3 346.9 224.9 345.7 C 215.3 344.9 206.2 341.2 197.8 336.8 C 150.1 340.3 102.4 343.9 54.7 347.4 C 54.8 275.1 54.7 202.8 54.7 130.6 C 60.1 130.3 65.5 130.0 70.8 129.7 C 68.6 134.6 64.5 139.2 65.2 145.0 C 65.3 204.0 65.2 263.0 65.3 322.0 C 65.3 326.5 65.0 331.1 65.6 335.6 C 109.4 332.9 153.3 330.2 197.1 327.4 C 199.3 327.4 201.8 326.7 203.5 328.4 C 209.7 332.9 217.4 335.1 225.0 335.2 C 234.6 335.7 244.6 333.3 252.2 327.2 C 297.6 329.8 342.9 333.0 388.2 335.5 C 388.3 270.7 388.3 205.8 388.2 141.0 C 386.5 136.3 383.2 132.4 380.8 128.0 Z" />
<path fill="#0e315a" stroke="#0e315a" stroke-width="0.09375" opacity="0.73" d=" M 232.0 286.7 C 234.1 288.4 236.2 290.1 238.4 291.7 C 236.1 293.5 234.0 295.4 232.0 297.5 C 232.0 293.9 232.0 290.3 232.0 286.7 Z" />
<path fill="#0e315b" stroke="#0e315b" stroke-width="0.09375" opacity="0.63" d=" M 266.9 289.5 C 283.0 286.4 299.6 287.3 315.9 288.9 C 329.8 290.3 343.5 292.8 357.1 295.6 C 362.1 305.5 367.2 315.2 372.2 325.0 C 333.2 321.9 294.1 318.8 255.1 315.6 C 252.7 315.5 249.6 314.4 247.9 316.8 C 243.8 321.4 237.9 323.8 232.0 324.9 C 232.3 316.8 234.7 308.4 240.4 302.5 C 247.2 295.0 257.2 291.5 266.9 289.5 M 256.4 301.3 C 254.2 302.2 252.5 304.0 251.3 306.0 C 254.9 308.8 259.6 308.1 263.9 308.5 C 289.9 310.7 316.0 312.7 342.0 314.9 C 346.1 315.1 350.5 316.2 354.4 314.3 C 357.0 312.5 355.3 309.2 353.9 307.1 C 350.3 302.0 343.7 300.9 338.0 299.9 C 327.4 298.2 316.7 296.6 306.0 295.8 C 300.7 295.9 295.4 295.2 290.1 295.2 C 278.7 295.9 266.8 296.1 256.4 301.3 Z" />
<path fill="#0e315b" stroke="#0e315b" stroke-width="0.09375" opacity="0.64" d=" M 98.0 295.1 C 117.5 291.1 137.2 288.0 157.1 287.6 C 170.4 287.2 184.1 287.9 196.8 292.3 C 203.5 294.5 209.6 298.5 213.8 304.2 C 218.3 310.1 220.4 317.5 221.6 324.8 C 215.3 323.3 209.3 320.4 205.1 315.5 C 164.3 318.4 123.6 321.9 82.8 325.0 C 87.9 315.1 92.8 305.0 98.0 295.1 M 147.6 294.4 C 135.4 295.3 123.2 296.8 111.1 299.2 C 106.0 300.2 101.0 303.0 98.9 307.9 C 97.9 310.3 95.4 313.8 98.4 315.7 C 101.6 317.9 105.7 317.0 109.4 316.7 C 134.9 314.5 160.5 312.6 186.0 310.4 C 192.4 310.2 198.8 310.0 205.1 308.7 C 204.9 307.3 205.2 305.8 204.2 304.8 C 199.9 299.6 192.9 297.9 186.6 296.3 C 173.8 293.5 160.6 293.2 147.6 294.4 Z" />
<path fill="#0e315b" stroke="#0e315b" stroke-width="0.09375" opacity="0.57" d=" M 147.6 294.4 C 160.6 293.2 173.8 293.5 186.6 296.3 C 192.9 297.9 199.9 299.6 204.2 304.8 C 205.2 305.8 204.9 307.3 205.1 308.7 C 198.8 310.0 192.4 310.2 186.0 310.4 C 160.5 312.6 134.9 314.5 109.4 316.7 C 105.7 317.0 101.6 317.9 98.4 315.7 C 95.4 313.8 97.9 310.3 98.9 307.9 C 101.0 303.0 106.0 300.2 111.1 299.2 C 123.2 296.8 135.4 295.3 147.6 294.4 Z" />
<path fill="#0e315b" stroke="#0e315b" stroke-width="0.09375" opacity="0.57" d=" M 256.4 301.3 C 266.8 296.1 278.7 295.9 290.1 295.2 C 295.4 295.2 300.7 295.9 306.0 295.8 C 316.7 296.6 327.4 298.2 338.0 299.9 C 343.7 300.9 350.3 302.0 353.9 307.1 C 355.3 309.2 357.0 312.5 354.4 314.3 C 350.5 316.2 346.1 315.1 342.0 314.9 C 316.0 312.7 289.9 310.7 263.9 308.5 C 259.6 308.1 254.9 308.8 251.3 306.0 C 252.5 304.0 254.2 302.2 256.4 301.3 Z" />
<path fill="#0e315b" stroke="#0e315b" stroke-width="0.09375" opacity="0.73" d=" M 370.9 300.2 C 373.2 299.5 375.6 298.9 378.0 298.3 C 378.0 303.4 378.0 308.5 378.0 313.6 C 375.6 309.1 373.2 304.6 370.9 300.2 Z" />
<path fill="#0e315b" stroke="#0e315b" stroke-width="0.09375" opacity="0.73" d=" M 76.1 299.7 C 78.4 300.0 80.6 300.1 82.9 300.3 C 80.7 304.4 78.8 308.6 76.3 312.6 C 76.1 308.3 75.9 304.0 76.1 299.7 Z" />
</svg>
