<?xml version="1.0" encoding="UTF-8" ?>
<!DOCTYPE svg PUBLIC "-//W3C//DTD SVG 1.1//EN" "http://www.w3.org/Graphics/SVG/1.1/DTD/svg11.dtd">
<svg width="112pt" height="112pt" viewBox="0 0 112 112" version="1.1" xmlns="http://www.w3.org/2000/svg">
<path fill="#051221" stroke="#051221" stroke-width="0.09375" opacity="0.25" d=" M 54.3 7.3 C 56.8 7.4 59.3 7.1 61.6 8.1 C 65.5 10.3 68.3 14.0 70.5 17.8 C 81.4 36.3 92.0 54.9 102.8 73.5 C 105.1 78.0 107.9 82.8 107.6 88.1 C 107.8 92.9 104.2 97.3 99.9 99.1 C 95.2 100.0 90.0 100.0 85.7 97.5 C 76.6 92.7 67.9 87.2 58.8 82.4 C 56.5 81.0 53.7 81.3 51.5 82.6 C 44.4 86.5 37.4 90.6 30.5 94.7 C 25.8 97.4 20.7 100.2 15.0 99.6 C 10.0 100.0 5.6 96.1 3.9 91.6 C 2.9 87.6 3.5 83.2 5.2 79.4 C 8.6 71.8 13.1 64.7 17.3 57.5 C 25.1 44.0 33.0 30.5 40.7 16.9 C 43.4 11.8 48.1 6.8 54.3 7.3 M 53.3 10.5 C 48.4 11.0 45.4 15.4 43.1 19.3 C 32.8 37.5 22.2 55.5 11.8 73.7 C 9.3 78.1 6.7 82.8 6.6 88.0 C 7.1 91.3 8.8 94.8 12.1 95.8 C 17.5 97.9 23.0 95.1 27.6 92.5 C 34.7 88.3 41.9 84.2 49.0 80.1 C 52.6 77.8 57.4 77.7 61.1 79.8 C 69.5 84.4 77.7 89.4 86.1 94.0 C 90.6 96.6 96.9 97.9 101.4 94.4 C 103.7 92.0 105.1 88.3 104.0 85.0 C 102.4 78.6 98.7 73.1 95.4 67.5 C 85.7 50.6 76.1 33.7 66.1 16.9 C 63.6 12.3 58.5 9.4 53.3 10.5 Z" />
<path fill="#0b2544" stroke="#0b2544" stroke-width="0.09375" opacity="0.44" d=" M 53.3 10.5 C 58.5 9.4 63.6 12.3 66.1 16.9 C 76.1 33.7 85.7 50.6 95.4 67.5 C 98.7 73.1 102.4 78.6 104.0 85.0 C 105.1 88.3 103.7 92.0 101.4 94.4 C 96.9 97.9 90.6 96.6 86.1 94.0 C 77.7 89.4 69.5 84.4 61.1 79.8 C 57.4 77.7 52.6 77.8 49.0 80.1 C 41.9 84.2 34.7 88.3 27.6 92.5 C 23.0 95.1 17.5 97.9 12.1 95.8 C 8.8 94.8 7.1 91.3 6.6 88.0 C 6.7 82.8 9.3 78.1 11.8 73.7 C 22.2 55.5 32.8 37.5 43.1 19.3 C 45.4 15.4 48.4 11.0 53.3 10.5 M 55.1 13.4 C 50.8 13.7 47.9 17.4 45.9 20.9 C 35.1 40.0 23.9 58.9 13.0 78.0 C 11.0 81.3 9.9 85.1 10.4 88.9 C 10.3 91.4 12.9 92.8 15.0 93.4 C 18.9 93.8 22.5 91.6 25.8 89.9 C 32.8 85.8 39.7 81.7 46.7 77.7 C 50.6 75.6 55.3 73.2 59.6 75.5 C 69.0 80.1 77.8 85.9 87.1 90.9 C 89.8 92.3 92.9 93.8 96.0 93.4 C 99.7 92.8 102.1 88.6 100.8 85.2 C 98.9 78.7 94.9 73.2 91.6 67.4 C 82.8 51.7 73.6 36.1 64.6 20.4 C 62.6 17.0 59.5 13.2 55.1 13.4 Z" />
<path fill="#0e3058" stroke="#0e3058" stroke-width="0.09375" opacity="0.58" d=" M 55.1 13.4 C 59.5 13.2 62.6 17.0 64.6 20.4 C 73.6 36.1 82.8 51.7 91.6 67.4 C 94.9 73.2 98.9 78.7 100.8 85.2 C 102.1 88.6 99.7 92.8 96.0 93.4 C 92.9 93.8 89.8 92.3 87.1 90.9 C 77.8 85.9 69.0 80.1 59.6 75.5 C 55.3 73.2 50.6 75.6 46.7 77.7 C 39.7 81.7 32.8 85.8 25.8 89.9 C 22.5 91.6 18.9 93.8 15.0 93.4 C 12.9 92.8 10.3 91.4 10.4 88.9 C 9.9 85.1 11.0 81.3 13.0 78.0 C 23.9 58.9 35.1 40.0 45.9 20.9 C 47.9 17.4 50.8 13.7 55.1 13.4 M 52.7 20.8 C 39.7 43.7 26.2 66.3 13.3 89.4 C 14.5 89.5 15.7 89.5 16.7 88.8 C 29.6 81.3 42.5 73.8 55.5 66.4 C 68.4 73.9 81.4 81.3 94.3 88.8 C 95.3 89.4 96.5 90.3 97.3 88.9 C 96.3 86.6 95.0 84.4 93.7 82.3 C 81.1 60.5 68.5 38.5 55.8 16.7 C 54.6 17.9 53.5 19.2 52.7 20.8 Z" />
<path fill="#ffffff" stroke="#ffffff" stroke-width="0.09375" opacity="1.00" d=" M 52.7 20.8 C 53.5 19.2 54.6 17.9 55.8 16.7 C 68.5 38.5 81.1 60.5 93.7 82.3 C 95.0 84.4 96.3 86.6 97.3 88.9 C 96.5 90.3 95.3 89.4 94.3 88.8 C 81.4 81.3 68.4 73.9 55.5 66.4 C 42.5 73.8 29.6 81.3 16.7 88.8 C 15.7 89.5 14.5 89.5 13.3 89.4 C 26.2 66.3 39.7 43.7 52.7 20.8 Z" />
</svg>
