<?xml version="1.0" encoding="UTF-8" ?>
<!DOCTYPE svg PUBLIC "-//W3C//DTD SVG 1.1//EN" "http://www.w3.org/Graphics/SVG/1.1/DTD/svg11.dtd">
<svg width="112pt" height="112pt" viewBox="0 0 112 112" version="1.1" xmlns="http://www.w3.org/2000/svg">
<path fill="#032752" stroke="#032752" stroke-width="0.09375" opacity="0.33" d=" M 44.6 13.6 C 45.9 12.2 48.0 11.6 49.9 11.7 C 55.6 11.7 61.4 11.6 67.1 11.7 C 67.7 12.0 68.7 12.4 69.3 12.7 C 69.6 13.3 70.2 14.4 70.5 15.0 C 70.0 16.5 69.6 18.3 68.3 19.4 C 60.3 27.1 52.7 35.1 44.7 42.8 C 43.8 43.5 43.4 44.5 43.0 45.6 C 60.3 45.8 77.7 45.6 95.0 45.7 C 97.8 45.8 100.8 45.1 103.3 46.7 C 103.6 47.2 104.0 48.3 104.3 48.9 C 104.3 53.9 104.4 59.0 104.2 64.1 C 104.0 64.7 103.6 65.8 103.3 66.3 C 100.8 67.9 97.8 67.2 95.0 67.3 C 77.7 67.4 60.3 67.1 42.9 67.4 C 43.7 69.4 45.5 70.7 46.9 72.1 C 54.2 79.4 61.5 86.8 68.9 94.1 C 70.1 95.4 71.6 96.9 71.4 98.9 C 71.4 101.0 69.0 102.5 67.1 102.3 C 61.0 102.3 55.0 102.3 49.0 102.3 C 47.1 102.4 45.4 101.2 44.1 99.9 C 34.1 89.8 24.1 79.9 14.1 69.8 C 12.1 67.8 10.7 65.4 8.6 63.4 C 6.9 61.6 4.7 59.9 3.7 57.5 C 3.2 55.4 4.7 53.6 6.1 52.1 C 18.9 39.3 31.8 26.5 44.6 13.6 M 6.7 56.6 C 20.7 70.7 34.6 84.7 48.4 98.7 C 55.0 98.8 61.5 98.7 68.0 98.7 C 56.5 87.3 45.0 75.7 33.5 64.3 C 56.1 64.2 78.8 64.3 101.4 64.3 C 101.4 59.3 101.4 54.2 101.4 49.2 C 78.7 49.3 56.0 49.3 33.3 49.2 C 44.8 37.7 56.4 26.1 68.0 14.5 C 61.5 14.5 55.1 14.5 48.6 14.5 C 34.6 28.5 20.7 42.6 6.7 56.6 Z" />
<path fill="#f4f6f9" stroke="#f4f6f9" stroke-width="0.09375" opacity="1.00" d=" M 6.7 56.6 C 20.7 42.6 34.6 28.5 48.6 14.5 C 55.1 14.5 61.5 14.5 68.0 14.5 C 56.4 26.1 44.8 37.7 33.3 49.2 C 56.0 49.3 78.7 49.3 101.4 49.2 C 101.4 54.2 101.4 59.3 101.4 64.3 C 78.8 64.3 56.1 64.2 33.5 64.3 C 45.0 75.7 56.5 87.3 68.0 98.7 C 61.5 98.7 55.0 98.8 48.4 98.7 C 34.6 84.7 20.7 70.7 6.7 56.6 M 49.4 16.5 C 40.4 25.5 31.5 34.5 22.6 43.5 C 18.2 47.9 13.9 52.3 9.5 56.6 C 14.5 61.7 19.7 66.7 24.7 71.8 C 32.8 80.2 41.1 88.4 49.4 96.7 C 53.9 96.7 58.5 96.7 63.1 96.7 C 54.6 88.3 46.2 79.8 37.8 71.3 L 37.6 71.3 C 34.6 68.3 31.6 65.3 28.6 62.2 C 52.2 62.2 75.8 62.3 99.3 62.2 C 99.4 58.6 99.4 54.9 99.4 51.2 C 75.7 51.2 52.1 51.2 28.5 51.2 C 30.7 48.9 33.1 46.7 35.3 44.3 C 44.5 35.0 53.9 25.8 63.1 16.5 C 58.5 16.5 54.0 16.5 49.4 16.5 Z" />
<path fill="#2a61a7" stroke="#2a61a7" stroke-width="0.09375" opacity="1.00" d=" M 49.4 16.5 C 54.0 16.5 58.5 16.5 63.1 16.5 C 53.9 25.8 44.5 35.0 35.3 44.3 C 31.1 43.7 26.8 43.4 22.6 43.5 C 31.5 34.5 40.4 25.5 49.4 16.5 Z" />
<path fill="#3d74bf" stroke="#3d74bf" stroke-width="0.09375" opacity="1.00" d=" M 9.5 56.6 C 13.9 52.3 18.2 47.9 22.6 43.5 C 26.8 43.4 31.1 43.7 35.3 44.3 C 33.1 46.7 30.7 48.9 28.5 51.2 C 52.1 51.2 75.7 51.2 99.4 51.2 C 99.4 54.9 99.4 58.6 99.3 62.2 C 75.8 62.3 52.2 62.2 28.6 62.2 C 31.6 65.3 34.6 68.3 37.6 71.3 C 33.3 71.6 29.0 71.6 24.7 71.8 C 19.7 66.7 14.5 61.7 9.5 56.6 Z" />
<path fill="#5288d8" stroke="#5288d8" stroke-width="0.09375" opacity="1.00" d=" M 37.6 71.3 L 37.8 71.3 C 46.2 79.8 54.6 88.3 63.1 96.7 C 58.5 96.7 53.9 96.7 49.4 96.7 C 41.1 88.4 32.8 80.2 24.7 71.8 C 29.0 71.6 33.3 71.6 37.6 71.3 Z" />
</svg>
