<?xml version="1.0" encoding="UTF-8" ?>
<!DOCTYPE svg PUBLIC "-//W3C//DTD SVG 1.1//EN" "http://www.w3.org/Graphics/SVG/1.1/DTD/svg11.dtd">
<svg width="112pt" height="112pt" viewBox="0 0 112 112" version="1.1" xmlns="http://www.w3.org/2000/svg">
<path fill="#030d19" stroke="#030d19" stroke-width="0.09375" opacity="0.19" d=" M 18.9 9.8 C 25.6 6.8 34.0 8.7 39.0 14.0 C 47.4 22.3 55.7 30.6 64.1 39.0 C 66.1 41.0 68.1 43.7 71.3 43.7 C 71.6 37.7 72.3 31.1 76.4 26.4 C 81.2 21.4 88.8 22.1 95.0 22.8 C 102.6 24.3 106.2 32.4 106.5 39.4 C 106.5 54.6 106.4 69.8 106.5 85.0 C 106.5 90.0 105.2 95.2 102.4 99.4 C 98.6 104.2 92.0 104.8 86.4 105.4 C 72.3 105.6 58.1 105.4 44.0 105.5 C 39.6 105.4 35.0 104.9 30.8 103.1 C 25.5 100.5 23.5 94.4 22.6 89.0 C 22.8 84.7 24.4 80.4 26.7 76.7 C 30.6 71.6 37.5 71.8 43.0 69.7 C 40.8 65.5 37.1 62.5 33.8 59.2 C 27.2 52.4 20.4 45.9 14.0 39.0 C 10.9 35.7 8.4 31.5 8.4 26.8 C 7.9 19.7 12.3 12.6 18.9 9.8 M 11.4 26.0 C 11.4 31.4 15.0 35.8 18.6 39.4 C 27.4 48.3 36.2 57.1 45.0 65.9 C 46.6 67.4 47.7 69.2 48.9 71.0 C 48.4 71.6 47.5 72.6 47.0 73.2 C 41.5 74.5 35.1 73.8 30.4 77.5 C 25.4 82.7 24.8 91.9 29.3 97.6 C 32.5 101.8 38.3 101.5 43.1 102.2 C 51.7 102.6 60.4 102.3 69.0 102.4 C 77.9 102.3 87.0 103.1 95.6 100.3 C 101.6 97.9 102.8 90.7 103.3 85.0 C 103.5 71.3 103.3 57.7 103.4 44.0 C 103.5 39.7 102.9 35.2 101.0 31.3 C 99.3 27.9 95.7 25.7 92.0 25.5 C 87.2 25.1 81.5 25.3 78.3 29.4 C 74.5 34.3 74.7 40.9 74.4 46.7 C 74.4 48.2 72.9 49.0 72.1 50.0 C 70.3 48.8 68.5 47.6 67.0 46.1 C 57.5 36.6 48.0 27.0 38.4 17.6 C 35.4 14.5 31.5 12.1 27.1 11.7 C 19.0 10.9 11.5 17.9 11.4 26.0 Z" />
<path fill="#09213e" stroke="#09213e" stroke-width="0.09375" opacity="0.40" d=" M 11.4 26.0 C 11.5 17.9 19.0 10.9 27.1 11.7 C 31.5 12.1 35.4 14.5 38.4 17.6 C 48.0 27.0 57.5 36.6 67.0 46.1 C 68.5 47.6 70.3 48.8 72.1 50.0 C 72.9 49.0 74.4 48.2 74.4 46.7 C 74.7 40.9 74.5 34.3 78.3 29.4 C 81.5 25.3 87.2 25.1 92.0 25.5 C 95.7 25.7 99.3 27.9 101.0 31.3 C 102.9 35.2 103.5 39.7 103.4 44.0 C 103.3 57.7 103.5 71.3 103.3 85.0 C 102.8 90.7 101.6 97.9 95.6 100.3 C 87.0 103.1 77.9 102.3 69.0 102.4 C 60.4 102.3 51.7 102.6 43.1 102.2 C 38.3 101.5 32.5 101.8 29.3 97.6 C 24.8 91.9 25.4 82.7 30.4 77.5 C 35.1 73.8 41.5 74.5 47.0 73.2 C 47.5 72.6 48.4 71.6 48.9 71.0 C 47.7 69.2 46.6 67.4 45.0 65.9 C 36.2 57.1 27.4 48.3 18.6 39.4 C 15.0 35.8 11.4 31.4 11.4 26.0 M 15.1 23.0 C 13.3 27.3 16.0 31.9 19.0 35.0 C 29.2 45.5 39.8 55.6 49.9 66.2 C 52.2 68.3 52.9 71.3 52.7 74.4 C 48.0 78.3 41.6 76.8 36.0 78.1 C 29.3 80.3 27.5 89.5 31.2 94.9 C 33.3 98.1 37.5 98.6 41.0 98.6 C 57.0 98.6 73.0 98.7 88.9 98.6 C 94.3 98.9 99.6 94.5 99.5 89.0 C 99.7 72.3 99.6 55.6 99.6 39.0 C 99.7 35.9 98.9 32.6 96.5 30.6 C 93.0 28.0 88.2 28.0 84.2 29.2 C 80.4 30.3 78.2 34.3 78.5 38.0 C 78.2 43.7 79.1 50.8 74.1 54.8 C 70.9 53.5 67.9 51.8 65.5 49.4 C 55.0 39.0 44.6 28.4 34.0 18.0 C 31.3 14.7 26.8 15.3 23.0 15.5 C 19.0 15.7 16.3 19.5 15.1 23.0 Z" />
<path fill="#0e3058" stroke="#0e3058" stroke-width="0.09375" opacity="0.58" d=" M 15.1 23.0 C 16.3 19.5 19.0 15.7 23.0 15.5 C 26.8 15.3 31.3 14.7 34.0 18.0 C 44.6 28.4 55.0 39.0 65.5 49.4 C 67.9 51.8 70.9 53.5 74.1 54.8 C 79.1 50.8 78.2 43.7 78.5 38.0 C 78.2 34.3 80.4 30.3 84.2 29.2 C 88.2 28.0 93.0 28.0 96.5 30.6 C 98.9 32.6 99.7 35.9 99.6 39.0 C 99.6 55.6 99.7 72.3 99.5 89.0 C 99.6 94.5 94.3 98.9 88.9 98.6 C 73.0 98.7 57.0 98.6 41.0 98.6 C 37.5 98.6 33.3 98.1 31.2 94.9 C 27.5 89.5 29.3 80.3 36.0 78.1 C 41.6 76.8 48.0 78.3 52.7 74.4 C 52.9 71.3 52.2 68.3 49.9 66.2 C 39.8 55.6 29.2 45.5 19.0 35.0 C 16.0 31.9 13.3 27.3 15.1 23.0 M 24.3 20.3 C 22.2 21.8 19.6 24.0 19.9 26.9 C 21.4 28.8 23.2 30.4 24.9 32.1 C 40.5 47.8 56.2 63.5 71.9 79.1 C 73.7 80.9 75.4 83.1 77.8 84.2 C 64.6 83.6 51.3 83.4 38.1 83.5 C 35.6 83.2 34.7 85.9 34.8 87.9 C 34.6 90.1 35.0 93.9 38.0 93.5 C 55.0 93.5 72.0 93.5 89.0 93.5 C 92.0 93.8 94.7 91.0 94.4 88.0 C 94.4 71.0 94.4 53.9 94.4 36.9 C 94.5 34.1 91.1 33.5 89.0 33.7 C 86.8 33.5 83.4 34.1 83.6 37.0 C 83.6 50.2 84.0 63.3 84.4 76.5 C 65.9 58.0 47.3 39.7 28.9 21.1 C 27.8 19.7 25.8 19.1 24.3 20.3 Z" />
<path fill="#ffffff" stroke="#ffffff" stroke-width="0.09375" opacity="1.00" d=" M 24.3 20.3 C 25.8 19.1 27.8 19.7 28.9 21.1 C 47.3 39.7 65.9 58.0 84.4 76.5 C 84.0 63.3 83.6 50.2 83.6 37.0 C 83.4 34.1 86.8 33.5 89.0 33.7 C 91.1 33.5 94.5 34.1 94.4 36.9 C 94.4 53.9 94.4 71.0 94.4 88.0 C 94.7 91.0 92.0 93.8 89.0 93.5 C 72.0 93.5 55.0 93.5 38.0 93.5 C 35.0 93.9 34.6 90.1 34.8 87.9 C 34.7 85.9 35.6 83.2 38.1 83.5 C 51.3 83.4 64.6 83.6 77.8 84.2 C 75.4 83.1 73.7 80.9 71.9 79.1 C 56.2 63.5 40.5 47.8 24.9 32.1 C 23.2 30.4 21.4 28.8 19.9 26.9 C 19.6 24.0 22.2 21.8 24.3 20.3 Z" />
</svg>
