<?xml version="1.0" encoding="UTF-8" ?>
<!DOCTYPE svg PUBLIC "-//W3C//DTD SVG 1.1//EN" "http://www.w3.org/Graphics/SVG/1.1/DTD/svg11.dtd">
<svg width="324pt" height="324pt" viewBox="0 0 324 324" version="1.1" xmlns="http://www.w3.org/2000/svg">
<path fill="#020911" stroke="#020911" stroke-width="0.09375" opacity="0.15" d=" M 76.4 10.7 C 77.9 10.5 79.4 10.5 80.9 10.5 C 115.6 10.5 150.3 10.5 185.0 10.5 C 198.5 10.3 211.5 16.6 221.0 26.0 C 237.0 42.0 252.9 58.0 269.0 74.0 C 278.6 83.3 284.5 96.5 284.5 110.0 C 284.5 167.0 284.5 224.0 284.5 281.0 C 284.4 289.0 282.7 297.3 277.7 303.7 C 271.6 311.3 261.5 314.6 252.0 314.5 C 195.0 314.5 138.0 314.5 81.0 314.5 C 71.9 314.7 62.5 311.6 56.2 304.8 C 50.5 298.4 48.6 289.4 48.5 281.0 C 48.5 202.0 48.5 123.0 48.5 44.0 C 48.5 36.9 50.0 29.7 53.7 23.6 C 58.5 15.8 67.5 11.6 76.4 10.7 M 76.3 17.4 C 70.0 18.5 63.3 21.1 59.8 26.8 C 54.9 34.2 54.8 43.4 54.5 52.0 C 54.6 122.6 54.5 193.3 54.6 264.0 C 54.5 272.6 54.3 281.4 56.2 289.8 C 57.6 295.3 60.4 300.7 65.3 303.7 C 71.4 307.5 78.9 308.2 86.0 308.5 C 139.7 308.4 193.3 308.5 247.0 308.4 C 255.6 308.1 265.3 307.1 271.5 300.5 C 277.0 294.0 278.1 285.2 278.5 277.0 C 278.4 224.0 278.4 171.0 278.5 118.0 C 278.3 113.4 277.8 108.9 277.4 104.4 C 276.6 95.8 272.4 87.7 266.6 81.4 C 257.7 71.3 247.8 62.2 238.4 52.6 C 228.8 43.2 219.8 33.1 209.1 24.9 C 200.5 18.5 189.5 16.6 179.0 16.5 C 151.4 16.6 123.7 16.5 96.0 16.6 C 89.4 16.6 82.8 16.1 76.3 17.4 Z" />
<path fill="#071930" stroke="#071930" stroke-width="0.09375" opacity="0.33" d=" M 76.3 17.4 C 82.8 16.1 89.4 16.6 96.0 16.6 C 123.7 16.5 151.4 16.6 179.0 16.5 C 189.5 16.6 200.5 18.5 209.1 24.9 C 219.8 33.1 228.8 43.2 238.4 52.6 C 247.8 62.2 257.7 71.3 266.6 81.4 C 272.4 87.7 276.6 95.8 277.4 104.4 C 277.8 108.9 278.3 113.4 278.5 118.0 C 278.4 171.0 278.4 224.0 278.5 277.0 C 278.1 285.2 277.0 294.0 271.5 300.5 C 265.3 307.1 255.6 308.1 247.0 308.4 C 193.3 308.5 139.7 308.4 86.0 308.5 C 78.9 308.2 71.4 307.5 65.3 303.7 C 60.4 300.7 57.6 295.3 56.2 289.8 C 54.3 281.4 54.5 272.6 54.6 264.0 C 54.5 193.3 54.6 122.6 54.5 52.0 C 54.8 43.4 54.9 34.2 59.8 26.8 C 63.3 21.1 70.0 18.5 76.3 17.4 M 78.5 22.0 C 72.9 23.1 66.5 25.1 63.6 30.4 C 60.4 35.3 60.5 41.4 60.0 47.0 C 59.2 54.3 59.6 61.7 59.6 69.0 C 59.6 136.7 59.6 204.4 59.5 272.1 C 59.8 278.0 60.0 284.0 61.4 289.8 C 62.9 295.5 67.5 300.3 73.2 301.7 C 81.7 303.7 90.4 303.5 99.0 303.4 C 147.0 303.4 195.0 303.4 243.0 303.4 C 248.6 303.2 254.3 303.0 259.8 301.7 C 265.9 300.2 270.5 295.0 271.8 288.9 C 274.1 277.1 273.3 265.0 273.4 253.1 C 273.4 208.0 273.4 163.0 273.4 118.0 C 273.0 108.9 272.7 99.2 267.7 91.2 C 263.6 84.8 258.2 79.4 252.9 74.1 C 244.4 65.6 235.9 57.1 227.4 48.6 C 220.4 41.6 213.6 34.2 205.5 28.6 C 198.1 23.5 188.9 21.6 180.0 21.5 C 151.3 21.6 122.7 21.6 94.0 21.6 C 88.8 21.6 83.6 21.3 78.5 22.0 Z" />
<path fill="#0c284a" stroke="#0c284a" stroke-width="0.09375" opacity="0.47" d=" M 78.5 22.0 C 83.6 21.3 88.8 21.6 94.0 21.6 C 122.7 21.6 151.3 21.6 180.0 21.5 C 188.9 21.6 198.1 23.5 205.5 28.6 C 213.6 34.2 220.4 41.6 227.4 48.6 C 235.9 57.1 244.4 65.6 252.9 74.1 C 258.2 79.4 263.6 84.8 267.7 91.2 C 272.7 99.2 273.0 108.9 273.4 118.0 C 273.4 163.0 273.4 208.0 273.4 253.1 C 273.3 265.0 274.1 277.1 271.8 288.9 C 270.5 295.0 265.9 300.2 259.8 301.7 C 254.3 303.0 248.6 303.2 243.0 303.4 C 195.0 303.4 147.0 303.4 99.0 303.4 C 90.4 303.5 81.7 303.7 73.2 301.7 C 67.5 300.3 62.9 295.5 61.4 289.8 C 60.0 284.0 59.8 278.0 59.5 272.1 C 59.6 204.4 59.6 136.7 59.6 69.0 C 59.6 61.7 59.2 54.3 60.0 47.0 C 60.5 41.4 60.4 35.3 63.6 30.4 C 66.5 25.1 72.9 23.1 78.5 22.0 M 90.4 28.2 C 84.1 28.9 76.9 27.1 71.6 31.6 C 66.4 36.1 66.0 43.6 65.5 50.0 C 65.5 121.7 65.6 193.3 65.5 265.0 C 65.5 273.2 64.9 281.8 68.5 289.5 C 70.3 293.5 74.5 296.2 78.9 296.4 C 87.6 296.8 96.3 298.1 105.0 297.3 C 110.7 296.7 116.4 297.2 122.0 297.5 C 160.0 297.4 198.0 297.4 236.0 297.5 C 241.7 297.3 247.4 296.6 253.0 296.5 C 257.8 296.5 262.6 293.9 264.6 289.5 C 268.0 281.8 267.5 273.2 267.5 265.0 C 267.5 215.7 267.4 166.3 267.5 117.0 C 267.3 111.4 266.7 105.7 264.9 100.3 C 263.0 94.4 258.7 89.8 254.5 85.5 C 239.8 70.9 225.2 56.2 210.5 41.5 C 205.7 36.7 200.3 32.3 193.9 30.0 C 187.2 27.3 179.9 29.1 173.0 27.9 C 167.4 27.0 161.7 28.6 156.0 28.2 C 143.4 26.9 130.7 27.8 118.0 27.6 C 108.8 27.7 99.6 27.1 90.4 28.2 Z" />
<path fill="#0e3058" stroke="#0e3058" stroke-width="0.09375" opacity="0.61" d=" M 90.4 28.2 C 99.6 27.1 108.8 27.7 118.0 27.6 C 130.7 27.8 143.4 26.9 156.0 28.2 C 161.7 28.6 167.4 27.0 173.0 27.9 C 179.9 29.1 187.2 27.3 193.9 30.0 C 200.3 32.3 205.7 36.7 210.5 41.5 C 225.2 56.2 239.8 70.9 254.5 85.5 C 258.7 89.8 263.0 94.4 264.9 100.3 C 266.7 105.7 267.3 111.4 267.5 117.0 C 267.4 166.3 267.5 215.7 267.5 265.0 C 267.5 273.2 268.0 281.8 264.6 289.5 C 262.6 293.9 257.8 296.5 253.0 296.5 C 247.4 296.6 241.7 297.3 236.0 297.5 C 198.0 297.4 160.0 297.4 122.0 297.5 C 116.4 297.2 110.7 296.7 105.0 297.3 C 96.3 298.1 87.6 296.8 78.9 296.4 C 74.5 296.2 70.3 293.5 68.5 289.5 C 64.9 281.8 65.5 273.2 65.5 265.0 C 65.6 193.3 65.5 121.7 65.5 50.0 C 66.0 43.6 66.4 36.1 71.6 31.6 C 76.9 27.1 84.1 28.9 90.4 28.2 M 73.8 36.7 C 73.6 70.1 73.8 103.6 73.7 137.0 C 73.8 187.5 73.6 238.1 73.9 288.6 C 81.9 288.9 90.0 288.7 98.0 288.8 C 151.7 288.7 205.5 288.9 259.2 288.7 C 259.4 227.8 259.2 166.8 259.3 105.9 C 259.7 103.6 257.6 102.2 256.3 100.7 C 235.4 80.0 214.5 59.1 193.7 38.2 C 192.1 36.1 189.4 36.5 187.0 36.5 C 149.3 36.7 111.6 36.2 73.8 36.7 Z" />
<path fill="#ffffff" stroke="#ffffff" stroke-width="0.09375" opacity="1.00" d=" M 73.8 36.7 C 111.6 36.2 149.3 36.7 187.0 36.5 C 189.4 36.5 192.1 36.1 193.7 38.2 C 214.5 59.1 235.4 80.0 256.3 100.7 C 257.6 102.2 259.7 103.6 259.3 105.9 C 259.2 166.8 259.4 227.8 259.2 288.7 C 205.5 288.9 151.7 288.7 98.0 288.8 C 90.0 288.7 81.9 288.9 73.9 288.6 C 73.6 238.1 73.8 187.5 73.7 137.0 C 73.8 103.6 73.6 70.1 73.8 36.7 M 84.1 47.0 C 84.1 124.2 84.1 201.3 84.1 278.5 C 139.1 278.5 194.0 278.5 249.0 278.5 C 249.0 223.5 249.0 168.5 249.0 113.5 C 226.8 113.4 204.7 113.8 182.6 113.3 C 182.1 110.9 182.3 108.4 182.2 105.9 C 182.3 86.3 182.2 66.7 182.3 47.0 C 149.5 47.0 116.8 47.0 84.1 47.0 M 192.5 51.6 C 192.5 68.8 192.5 86.0 192.5 103.3 C 209.8 103.3 227.0 103.3 244.2 103.2 C 227.1 86.0 209.7 68.9 192.5 51.6 Z" />
<path fill="#0e315b" stroke="#0e315b" stroke-width="0.09375" opacity="0.59" d=" M 84.1 47.0 C 116.8 47.0 149.5 47.0 182.3 47.0 C 182.2 66.7 182.3 86.3 182.2 105.9 C 182.3 108.4 182.1 110.9 182.6 113.3 C 204.7 113.8 226.8 113.4 249.0 113.5 C 249.0 168.5 249.0 223.5 249.0 278.5 C 194.0 278.5 139.1 278.5 84.1 278.5 C 84.1 201.3 84.1 124.2 84.1 47.0 M 107.2 70.1 C 107.1 73.4 107.1 76.8 107.2 80.1 C 124.5 80.3 141.8 80.3 159.0 80.1 C 159.1 76.8 159.2 73.5 159.1 70.1 C 141.8 69.9 124.5 69.9 107.2 70.1 M 107.2 103.3 C 107.1 106.7 107.1 110.0 107.2 113.4 C 124.5 113.6 141.8 113.6 159.1 113.4 C 159.1 110.0 159.1 106.7 159.1 103.3 C 141.8 103.2 124.5 103.2 107.2 103.3 M 107.2 136.8 C 107.1 140.2 107.0 143.6 107.4 147.0 C 107.9 147.0 108.9 147.0 109.4 147.0 C 114.5 149.7 120.3 150.6 125.9 150.5 C 153.3 150.5 180.6 150.5 208.0 150.5 C 213.1 150.6 218.2 149.6 222.6 147.0 C 223.6 147.0 224.6 146.9 225.6 146.9 C 225.8 143.6 225.9 140.3 225.6 137.1 C 224.1 136.7 222.5 136.8 221.0 136.7 C 183.1 136.8 145.1 136.6 107.2 136.8 M 108.4 170.0 L 107.4 170.0 C 107.0 173.4 107.1 176.8 107.2 180.2 C 146.7 180.3 186.2 180.3 225.7 180.2 C 225.8 176.8 225.8 173.5 225.6 170.1 C 225.4 170.1 224.8 170.1 224.5 170.1 C 221.2 167.6 217.2 166.3 213.0 166.5 C 182.0 166.5 151.0 166.5 120.0 166.5 C 115.8 166.3 111.9 167.7 108.4 170.0 M 107.2 203.5 C 107.2 206.9 106.8 210.2 107.4 213.5 C 110.6 213.9 113.8 213.7 116.9 213.8 C 150.3 213.8 183.6 213.7 217.0 213.8 C 219.8 213.7 222.7 213.9 225.5 213.5 C 225.9 210.2 225.9 206.8 225.5 203.5 C 221.4 203.0 217.2 203.3 213.0 203.3 C 179.3 203.2 145.6 203.3 112.0 203.2 C 110.4 203.3 108.8 203.4 107.2 203.5 M 107.2 236.8 C 107.2 240.1 106.9 243.4 107.3 246.7 C 107.9 246.8 108.9 246.9 109.4 247.0 C 114.2 249.5 119.6 250.6 125.0 250.5 C 150.0 250.5 175.0 250.5 200.0 250.5 C 207.6 250.5 215.9 251.4 222.6 247.0 C 223.4 247.0 224.8 247.0 225.6 247.0 C 225.8 243.7 225.9 240.4 225.6 237.2 C 224.2 236.5 222.5 236.8 221.0 236.7 C 183.1 236.8 145.1 236.6 107.2 236.8 Z" />
<path fill="#0e315b" stroke="#0e315b" stroke-width="0.09375" opacity="0.62" d=" M 192.5 51.6 C 209.7 68.9 227.1 86.0 244.2 103.2 C 227.0 103.3 209.8 103.3 192.5 103.3 C 192.5 86.0 192.5 68.8 192.5 51.6 Z" />
<path fill="#ffffff" stroke="#ffffff" stroke-width="0.09375" opacity="1.00" d=" M 107.2 70.1 C 124.5 69.9 141.8 69.9 159.1 70.1 C 159.2 73.5 159.1 76.8 159.0 80.1 C 141.8 80.3 124.5 80.3 107.2 80.1 C 107.1 76.8 107.1 73.4 107.2 70.1 Z" />
<path fill="#ffffff" stroke="#ffffff" stroke-width="0.09375" opacity="1.00" d=" M 107.2 103.3 C 124.5 103.2 141.8 103.2 159.1 103.3 C 159.1 106.7 159.1 110.0 159.1 113.4 C 141.8 113.6 124.5 113.6 107.2 113.4 C 107.1 110.0 107.1 106.7 107.2 103.3 Z" />
<path fill="#ffffff" stroke="#ffffff" stroke-width="0.09375" opacity="1.00" d=" M 107.2 136.8 C 145.1 136.6 183.1 136.8 221.0 136.7 C 222.5 136.8 224.1 136.7 225.6 137.1 C 225.9 140.3 225.8 143.6 225.6 146.9 C 224.6 146.9 223.6 147.0 222.6 147.0 C 184.9 147.0 147.2 147.0 109.4 147.0 C 108.9 147.0 107.9 147.0 107.4 147.0 C 107.0 143.6 107.1 140.2 107.2 136.8 Z" />
<path fill="#0e315a" stroke="#0e315a" stroke-width="0.09375" opacity="0.66" d=" M 109.4 147.0 C 147.2 147.0 184.9 147.0 222.6 147.0 C 218.2 149.6 213.1 150.6 208.0 150.5 C 180.6 150.5 153.3 150.5 125.9 150.5 C 120.3 150.6 114.5 149.7 109.4 147.0 Z" />
<path fill="#0e315a" stroke="#0e315a" stroke-width="0.09375" opacity="0.66" d=" M 108.4 170.0 C 111.9 167.7 115.8 166.3 120.0 166.5 C 151.0 166.5 182.0 166.5 213.0 166.5 C 217.2 166.3 221.2 167.6 224.5 170.1 C 185.8 169.9 147.1 170.1 108.4 170.0 Z" />
<path fill="#ffffff" stroke="#ffffff" stroke-width="0.09375" opacity="1.00" d=" M 107.4 170.0 L 108.4 170.0 C 147.1 170.1 185.8 169.9 224.5 170.1 C 224.8 170.1 225.4 170.1 225.6 170.1 C 225.8 173.5 225.8 176.8 225.7 180.2 C 186.2 180.3 146.7 180.3 107.2 180.2 C 107.1 176.8 107.0 173.4 107.4 170.0 Z" />
<path fill="#ffffff" stroke="#ffffff" stroke-width="0.09375" opacity="1.00" d=" M 107.2 203.5 C 108.8 203.4 110.4 203.3 112.0 203.2 C 145.6 203.3 179.3 203.2 213.0 203.3 C 217.2 203.3 221.4 203.0 225.5 203.5 C 225.9 206.8 225.9 210.2 225.5 213.5 C 222.7 213.9 219.8 213.7 217.0 213.8 C 183.6 213.7 150.3 213.8 116.9 213.8 C 113.8 213.7 110.6 213.9 107.4 213.5 C 106.8 210.2 107.2 206.9 107.2 203.5 Z" />
<path fill="#ffffff" stroke="#ffffff" stroke-width="0.09375" opacity="1.00" d=" M 107.2 236.8 C 145.1 236.6 183.1 236.8 221.0 236.7 C 222.5 236.8 224.2 236.5 225.6 237.2 C 225.9 240.4 225.8 243.7 225.6 247.0 C 224.8 247.0 223.4 247.0 222.6 247.0 C 184.9 247.0 147.2 247.0 109.4 247.0 C 108.9 246.9 107.9 246.8 107.3 246.7 C 106.9 243.4 107.2 240.1 107.2 236.8 Z" />
<path fill="#0e315a" stroke="#0e315a" stroke-width="0.09375" opacity="0.66" d=" M 109.4 247.0 C 147.2 247.0 184.9 247.0 222.6 247.0 C 215.9 251.4 207.6 250.5 200.0 250.5 C 175.0 250.5 150.0 250.5 125.0 250.5 C 119.6 250.6 114.2 249.5 109.4 247.0 Z" />
</svg>
