<?xml version="1.0" encoding="UTF-8" ?>
<!DOCTYPE svg PUBLIC "-//W3C//DTD SVG 1.1//EN" "http://www.w3.org/Graphics/SVG/1.1/DTD/svg11.dtd">
<svg width="317pt" height="296pt" viewBox="0 0 317 296" version="1.1" xmlns="http://www.w3.org/2000/svg">
<path fill="#030912" stroke="#030912" stroke-width="0.09375" opacity="0.15" d=" M 120.4 77.7 C 124.7 77.2 129.6 76.9 133.1 79.9 C 136.9 82.5 137.4 87.5 140.3 90.8 C 147.5 93.3 155.5 91.7 162.8 93.4 C 180.7 95.9 196.3 111.0 198.9 128.9 C 201.7 140.4 199.4 152.7 193.9 163.0 C 187.1 173.3 176.6 182.1 164.0 184.1 C 151.4 185.5 138.7 186.1 126.0 184.5 C 121.6 184.2 116.7 182.8 114.2 178.8 C 110.8 174.1 111.1 167.9 111.7 162.4 C 112.7 157.2 116.0 151.9 121.4 150.5 C 130.7 148.1 140.4 148.4 150.0 148.9 C 154.7 149.1 160.1 147.8 162.2 143.1 C 165.5 138.5 161.9 132.7 157.7 130.2 C 153.9 127.8 149.3 128.4 145.0 128.3 C 143.1 128.5 140.3 128.1 139.5 130.4 C 137.4 135.0 135.9 140.6 130.7 142.6 C 125.4 144.4 118.9 144.2 114.5 140.4 C 109.4 136.2 105.0 131.2 100.3 126.6 C 96.9 123.0 92.7 119.3 92.5 114.0 C 92.3 109.5 91.8 104.4 94.8 100.7 C 98.8 95.4 103.8 91.1 108.4 86.3 C 111.9 82.9 115.4 78.8 120.4 77.7 M 123.4 80.4 C 117.7 80.7 113.8 85.4 110.0 89.0 C 105.8 93.5 101.0 97.4 97.5 102.4 C 94.8 106.1 95.1 110.9 95.8 115.2 C 97.8 120.6 102.6 124.3 106.5 128.4 C 110.8 132.5 114.6 137.5 120.1 140.0 C 124.0 141.1 128.9 141.0 132.0 138.0 C 135.5 134.8 134.8 129.3 138.0 125.9 C 143.4 123.9 149.5 124.4 155.1 125.8 C 160.2 127.0 164.7 130.7 166.3 135.8 C 168.0 143.0 162.4 151.0 155.0 151.8 C 144.8 153.3 134.4 151.3 124.2 153.0 C 119.5 153.7 116.1 157.6 115.0 162.1 C 113.7 167.6 114.0 174.4 118.5 178.6 C 122.5 181.9 128.0 181.6 133.0 181.7 C 142.0 181.6 151.1 181.9 160.2 181.5 C 172.2 180.7 182.7 173.0 189.7 163.6 C 193.4 158.5 195.1 152.3 196.3 146.2 C 197.7 134.4 195.8 121.4 188.1 111.9 C 181.6 103.2 171.4 97.5 160.6 96.3 C 153.9 94.7 146.9 96.0 140.1 94.8 C 136.1 94.3 135.8 89.5 134.3 86.6 C 132.9 82.1 127.9 79.8 123.4 80.4 Z" />
<path fill="#081c33" stroke="#081c33" stroke-width="0.09375" opacity="0.34" d=" M 123.4 80.4 C 127.9 79.8 132.9 82.1 134.3 86.6 C 135.8 89.5 136.1 94.3 140.1 94.8 C 146.9 96.0 153.9 94.7 160.6 96.3 C 171.4 97.5 181.6 103.2 188.1 111.9 C 195.8 121.4 197.7 134.4 196.3 146.2 C 195.1 152.3 193.4 158.5 189.7 163.6 C 182.7 173.0 172.2 180.7 160.2 181.5 C 151.1 181.9 142.0 181.6 133.0 181.7 C 128.0 181.6 122.5 181.9 118.5 178.6 C 114.0 174.4 113.7 167.6 115.0 162.1 C 116.1 157.6 119.5 153.7 124.2 153.0 C 134.4 151.3 144.8 153.3 155.0 151.8 C 162.4 151.0 168.0 143.0 166.3 135.8 C 164.7 130.7 160.2 127.0 155.1 125.8 C 149.5 124.4 143.4 123.9 138.0 125.9 C 134.8 129.3 135.5 134.8 132.0 138.0 C 128.9 141.0 124.0 141.1 120.1 140.0 C 114.6 137.5 110.8 132.5 106.5 128.4 C 102.6 124.3 97.8 120.6 95.8 115.2 C 95.1 110.9 94.8 106.1 97.5 102.4 C 101.0 97.4 105.8 93.5 110.0 89.0 C 113.8 85.4 117.7 80.7 123.4 80.4 M 120.3 84.3 C 115.4 87.3 111.8 91.8 107.7 95.7 C 104.5 98.9 101.0 102.0 98.9 106.1 C 98.1 108.9 98.1 112.1 98.9 115.0 C 101.5 119.9 105.9 123.4 109.7 127.3 C 113.3 130.8 116.6 134.8 121.1 137.1 C 123.9 138.0 127.5 138.0 129.6 135.7 C 133.2 132.5 132.3 126.8 135.5 123.5 C 140.9 120.9 147.2 121.5 153.0 122.3 C 160.2 122.9 167.0 127.9 169.3 134.8 C 170.3 139.3 169.3 144.0 166.7 147.7 C 163.6 153.3 156.9 155.1 151.0 155.4 C 143.2 155.5 135.4 155.2 127.6 155.5 C 123.5 155.7 119.4 158.1 118.0 162.1 C 117.1 165.0 117.3 168.2 117.6 171.2 C 118.5 175.7 122.9 178.7 127.3 178.6 C 136.6 178.7 145.8 178.6 155.0 178.6 C 172.7 179.6 189.3 165.8 192.8 148.7 C 194.8 138.7 193.8 127.9 189.1 118.8 C 185.8 113.0 181.0 108.1 175.5 104.5 C 169.3 100.4 161.7 99.3 154.4 98.5 C 147.9 97.9 140.8 99.8 135.0 96.1 C 132.6 92.8 132.6 88.2 129.6 85.3 C 127.3 82.8 123.2 82.9 120.3 84.3 Z" />
<path fill="#0d2e55" stroke="#0d2e55" stroke-width="0.09375" opacity="0.53" d=" M 120.3 84.3 C 123.2 82.9 127.3 82.8 129.6 85.3 C 132.6 88.2 132.6 92.8 135.0 96.1 C 140.8 99.8 147.9 97.9 154.4 98.5 C 161.7 99.3 169.3 100.4 175.5 104.5 C 181.0 108.1 185.8 113.0 189.1 118.8 C 193.8 127.9 194.8 138.7 192.8 148.7 C 189.3 165.8 172.7 179.6 155.0 178.6 C 145.8 178.6 136.6 178.7 127.3 178.6 C 122.9 178.7 118.5 175.7 117.6 171.2 C 117.3 168.2 117.1 165.0 118.0 162.1 C 119.4 158.1 123.5 155.7 127.6 155.5 C 135.4 155.2 143.2 155.5 151.0 155.4 C 156.9 155.1 163.6 153.3 166.7 147.7 C 169.3 144.0 170.3 139.3 169.3 134.8 C 167.0 127.9 160.2 122.9 153.0 122.3 C 147.2 121.5 140.9 120.9 135.5 123.5 C 132.3 126.8 133.2 132.5 129.6 135.7 C 127.5 138.0 123.9 138.0 121.1 137.1 C 116.6 134.8 113.3 130.8 109.7 127.3 C 105.9 123.4 101.5 119.9 98.9 115.0 C 98.1 112.1 98.1 108.9 98.9 106.1 C 101.0 102.0 104.5 98.9 107.7 95.7 C 111.8 91.8 115.4 87.3 120.3 84.3 M 120.8 92.7 C 115.3 98.3 109.7 103.8 104.3 109.4 C 102.7 110.5 104.6 111.8 105.4 112.7 C 111.2 118.5 117.1 124.3 122.9 130.2 C 123.7 131.2 124.8 131.6 126.0 131.9 C 129.2 128.6 128.3 123.7 129.9 119.8 C 132.3 117.6 136.0 118.7 139.0 118.3 C 145.7 118.6 152.5 117.8 159.1 119.0 C 167.5 121.6 174.5 129.8 174.5 138.8 C 174.2 148.6 166.6 158.2 156.6 159.4 C 146.9 160.2 137.0 158.6 127.3 160.2 C 121.1 161.1 119.9 169.3 123.8 173.4 L 123.9 172.4 L 124.6 172.4 C 127.1 175.6 131.4 175.2 135.0 175.4 C 143.3 175.3 151.8 175.9 160.0 174.3 C 169.5 172.9 178.1 167.2 183.5 159.4 C 193.4 145.3 191.3 124.1 178.4 112.6 C 172.8 107.2 165.4 104.1 157.7 103.1 C 148.5 101.4 138.9 103.9 129.8 101.2 C 128.7 97.1 129.4 92.0 126.0 88.8 C 123.8 89.3 122.4 91.2 120.8 92.7 Z" />
<path fill="#ffffff" stroke="#ffffff" stroke-width="0.09375" opacity="1.00" d=" M 120.8 92.7 C 122.4 91.2 123.8 89.3 126.0 88.8 C 126.0 94.3 126.0 99.8 126.0 105.3 C 136.0 105.4 146.0 104.9 156.0 105.5 C 164.9 106.0 173.3 110.2 179.0 117.0 C 190.0 128.9 190.0 149.1 179.0 161.0 C 173.0 168.0 164.1 172.4 154.8 172.5 C 144.7 172.5 134.7 172.6 124.6 172.4 L 123.9 172.4 C 124.1 169.1 124.0 165.9 124.1 162.7 C 134.5 162.2 144.9 162.8 155.3 162.4 C 167.2 161.9 177.4 150.9 177.1 139.0 C 177.4 127.0 167.0 116.0 155.0 115.6 C 145.3 115.3 135.7 115.6 126.0 115.5 C 126.0 121.0 126.0 126.4 126.0 131.9 C 124.8 131.6 123.7 131.2 122.9 130.2 C 117.1 124.3 111.2 118.5 105.4 112.7 C 104.6 111.8 102.7 110.5 104.3 109.4 C 109.7 103.8 115.3 98.3 120.8 92.7 Z" />
<path fill="#0e315b" stroke="#0e315b" stroke-width="0.09375" opacity="0.64" d=" M 126.0 88.8 C 129.4 92.0 128.7 97.1 129.8 101.2 C 138.9 103.9 148.5 101.4 157.7 103.1 C 165.4 104.1 172.8 107.2 178.4 112.6 C 191.3 124.1 193.4 145.3 183.5 159.4 C 178.1 167.2 169.5 172.9 160.0 174.3 C 151.8 175.9 143.3 175.3 135.0 175.4 C 131.4 175.2 127.1 175.6 124.6 172.4 C 134.7 172.6 144.7 172.5 154.8 172.5 C 164.1 172.4 173.0 168.0 179.0 161.0 C 190.0 149.1 190.0 128.9 179.0 117.0 C 173.3 110.2 164.9 106.0 156.0 105.5 C 146.0 104.9 136.0 105.4 126.0 105.3 C 126.0 99.8 126.0 94.3 126.0 88.8 Z" />
<path fill="#0d315b" stroke="#0d315b" stroke-width="0.09375" opacity="0.65" d=" M 126.0 115.5 C 135.7 115.6 145.3 115.3 155.0 115.6 C 167.0 116.0 177.4 127.0 177.1 139.0 C 177.4 150.9 167.2 161.9 155.3 162.4 C 144.9 162.8 134.5 162.2 124.1 162.7 C 124.0 165.9 124.1 169.1 123.9 172.4 L 123.8 173.4 C 119.9 169.3 121.1 161.1 127.3 160.2 C 137.0 158.6 146.9 160.2 156.6 159.4 C 166.6 158.2 174.2 148.6 174.5 138.8 C 174.5 129.8 167.5 121.6 159.1 119.0 C 152.5 117.8 145.7 118.6 139.0 118.3 C 136.0 118.7 132.3 117.6 129.9 119.8 C 128.3 123.7 129.2 128.6 126.0 131.9 C 126.0 126.4 126.0 121.0 126.0 115.5 Z" />
</svg>
