<?xml version="1.0" encoding="UTF-8" ?>
<!DOCTYPE svg PUBLIC "-//W3C//DTD SVG 1.1//EN" "http://www.w3.org/Graphics/SVG/1.1/DTD/svg11.dtd">
<svg width="345pt" height="345pt" viewBox="0 0 345 345" version="1.1" xmlns="http://www.w3.org/2000/svg">
<path fill="#01060c" stroke="#01060c" stroke-width="0.09375" opacity="0.11" d=" M 126.4 13.6 C 129.9 13.3 133.5 13.3 137.0 13.3 C 179.7 13.3 222.3 13.3 265.0 13.3 C 274.1 13.5 284.2 14.3 291.2 20.8 C 298.0 26.8 300.8 36.1 300.7 45.0 C 300.7 110.3 300.7 175.7 300.7 241.0 C 300.7 249.8 298.1 259.2 291.2 265.2 C 286.7 269.5 280.0 270.2 275.6 274.5 C 272.6 277.4 271.9 281.7 270.2 285.2 C 267.3 291.3 261.9 296.2 255.3 298.2 C 250.7 299.7 246.1 302.5 244.5 307.4 C 242.6 313.4 239.4 319.3 234.0 323.0 C 226.8 328.1 217.5 328.5 209.0 328.7 C 166.3 328.7 123.6 328.7 81.0 328.7 C 72.2 328.8 62.8 328.5 55.0 323.9 C 45.3 318.4 41.1 306.6 41.3 296.0 C 41.3 231.3 41.3 166.7 41.3 102.0 C 41.1 93.6 43.8 84.8 49.5 78.4 C 53.7 73.8 59.9 72.2 65.2 69.2 C 68.8 67.2 70.4 63.1 71.7 59.4 C 74.0 52.9 79.0 47.2 85.5 44.7 C 89.3 43.1 93.8 41.9 96.4 38.4 C 99.8 33.8 100.7 27.8 104.5 23.5 C 110.0 17.1 118.3 14.2 126.4 13.6 M 131.3 19.1 C 123.9 19.7 115.9 20.9 110.3 26.2 C 104.3 31.2 105.1 40.3 99.6 45.5 C 94.2 48.7 87.3 49.1 82.6 53.6 C 77.6 58.1 76.7 65.2 73.7 70.9 C 71.9 74.6 67.6 75.6 64.0 76.8 C 58.7 78.5 53.3 81.6 50.7 86.8 C 46.3 96.2 46.3 106.8 46.5 117.0 C 46.5 171.7 46.5 226.4 46.5 281.0 C 46.5 288.3 46.1 295.8 47.9 302.9 C 49.2 308.0 50.9 313.5 55.4 316.7 C 62.8 322.8 72.9 322.7 82.0 323.5 C 122.7 323.6 163.3 323.4 204.0 323.5 C 210.5 323.5 217.1 322.5 223.5 320.8 C 228.8 319.4 233.6 315.8 236.1 310.9 C 238.5 306.7 239.2 301.7 241.8 297.7 C 244.0 294.9 247.8 294.3 250.9 293.1 C 255.4 291.8 259.8 289.3 262.5 285.4 C 265.9 280.9 266.7 275.0 269.4 270.1 C 271.0 267.3 274.5 266.6 277.2 265.5 C 282.2 263.9 287.1 261.3 289.9 256.9 C 294.1 250.4 295.3 242.6 295.5 235.0 C 295.5 176.7 295.5 118.3 295.5 60.0 C 295.6 51.5 295.8 42.7 292.7 34.5 C 290.6 28.7 286.1 23.5 280.0 21.6 C 271.3 19.0 262.1 18.2 253.0 18.5 C 218.7 18.5 184.4 18.5 150.0 18.5 C 143.8 18.5 137.5 18.3 131.3 19.1 Z" />
<path fill="#051323" stroke="#051323" stroke-width="0.09375" opacity="0.25" d=" M 131.3 19.1 C 137.5 18.3 143.8 18.5 150.0 18.5 C 184.4 18.5 218.7 18.5 253.0 18.5 C 262.1 18.2 271.3 19.0 280.0 21.6 C 286.1 23.5 290.6 28.7 292.7 34.5 C 295.8 42.7 295.6 51.5 295.5 60.0 C 295.5 118.3 295.5 176.7 295.5 235.0 C 295.3 242.6 294.1 250.4 289.9 256.9 C 287.1 261.3 282.2 263.9 277.2 265.5 C 274.5 266.6 271.0 267.3 269.4 270.1 C 266.7 275.0 265.9 280.9 262.5 285.4 C 259.8 289.3 255.4 291.8 250.9 293.1 C 247.8 294.3 244.0 294.9 241.8 297.7 C 239.2 301.7 238.5 306.7 236.1 310.9 C 233.6 315.8 228.8 319.4 223.5 320.8 C 217.1 322.5 210.5 323.5 204.0 323.5 C 163.3 323.4 122.7 323.6 82.0 323.5 C 72.9 322.7 62.8 322.8 55.4 316.7 C 50.9 313.5 49.2 308.0 47.9 302.9 C 46.1 295.8 46.5 288.3 46.5 281.0 C 46.5 226.4 46.5 171.7 46.5 117.0 C 46.3 106.8 46.3 96.2 50.7 86.8 C 53.3 81.6 58.7 78.5 64.0 76.8 C 67.6 75.6 71.9 74.6 73.7 70.9 C 76.7 65.2 77.6 58.1 82.6 53.6 C 87.3 49.1 94.2 48.7 99.6 45.5 C 105.1 40.3 104.3 31.2 110.3 26.2 C 115.9 20.9 123.9 19.7 131.3 19.1 M 130.4 22.7 C 124.1 23.5 117.0 24.5 112.5 29.4 C 107.4 34.8 107.8 43.3 102.3 48.3 C 97.1 52.2 89.5 51.7 84.8 56.7 C 79.1 62.0 80.1 71.1 74.3 76.4 C 69.0 80.5 61.0 80.0 56.4 85.5 C 52.3 90.6 50.5 97.4 50.4 104.0 C 50.5 167.7 50.4 231.4 50.5 295.0 C 50.8 302.7 53.3 311.6 60.4 315.7 C 68.0 319.4 76.7 319.7 85.0 319.5 C 126.7 319.5 168.3 319.6 210.0 319.5 C 217.0 319.1 224.9 318.3 230.2 313.2 C 235.5 308.2 235.0 300.0 239.7 294.6 C 244.9 289.1 254.1 290.9 259.1 285.1 C 263.8 280.3 263.6 273.0 267.5 267.7 C 272.4 262.1 281.3 262.9 286.1 257.1 C 290.2 252.1 291.3 245.3 291.5 239.0 C 291.5 178.3 291.5 117.6 291.5 56.9 C 291.5 50.3 292.1 43.5 289.9 37.1 C 288.5 32.2 285.4 27.6 280.6 25.5 C 272.5 22.1 263.6 22.4 255.0 22.5 C 215.3 22.5 175.6 22.5 136.0 22.5 C 134.1 22.5 132.3 22.5 130.4 22.7 Z" />
<path fill="#0a203d" stroke="#0a203d" stroke-width="0.09375" opacity="0.39" d=" M 130.4 22.7 C 132.3 22.5 134.1 22.5 136.0 22.5 C 175.6 22.5 215.3 22.5 255.0 22.5 C 263.6 22.4 272.5 22.1 280.6 25.5 C 285.4 27.6 288.5 32.2 289.9 37.1 C 292.1 43.5 291.5 50.3 291.5 56.9 C 291.5 117.6 291.5 178.3 291.5 239.0 C 291.3 245.3 290.2 252.1 286.1 257.1 C 281.3 262.9 272.4 262.1 267.5 267.7 C 263.6 273.0 263.8 280.3 259.1 285.1 C 254.1 290.9 244.9 289.1 239.7 294.6 C 235.0 300.0 235.5 308.2 230.2 313.2 C 224.9 318.3 217.0 319.1 210.0 319.5 C 168.3 319.6 126.7 319.5 85.0 319.5 C 76.7 319.7 68.0 319.4 60.4 315.7 C 53.3 311.6 50.8 302.7 50.5 295.0 C 50.4 231.4 50.5 167.7 50.4 104.0 C 50.5 97.4 52.3 90.6 56.4 85.5 C 61.0 80.0 69.0 80.5 74.3 76.4 C 80.1 71.1 79.1 62.0 84.8 56.7 C 89.5 51.7 97.1 52.2 102.3 48.3 C 107.8 43.3 107.4 34.8 112.5 29.4 C 117.0 24.5 124.1 23.5 130.4 22.7 M 130.4 26.8 C 125.2 27.5 119.4 28.5 115.7 32.7 C 110.9 37.7 111.4 45.6 106.8 50.8 C 101.7 56.0 93.1 54.7 87.9 59.9 C 82.9 64.9 83.4 72.8 79.3 78.3 C 75.5 82.8 69.2 82.9 64.2 85.3 C 59.8 87.2 57.5 91.9 56.4 96.3 C 53.6 107.7 54.9 119.5 54.6 131.0 C 54.8 148.7 54.1 166.4 55.1 184.0 C 55.0 188.7 54.4 193.3 54.6 198.0 C 54.9 216.7 54.1 235.3 55.1 254.0 C 54.3 265.3 54.6 276.7 54.6 288.0 C 55.1 295.5 55.6 303.6 60.1 309.9 C 66.0 314.5 73.9 314.5 81.0 314.9 C 96.3 315.2 111.6 315.8 127.0 315.2 C 132.6 315.0 138.3 315.8 144.0 315.1 C 149.7 314.2 155.4 315.3 161.0 315.4 C 178.8 315.4 196.5 315.4 214.2 314.4 C 218.5 313.9 223.2 313.5 226.6 310.6 C 232.4 305.3 231.3 296.2 236.7 290.7 C 241.5 285.9 249.2 286.6 254.3 282.3 C 259.8 277.4 259.1 269.1 263.5 263.5 C 268.4 257.8 277.4 259.0 282.3 253.3 C 286.8 248.1 287.1 240.6 287.2 234.0 C 286.4 226.7 287.7 219.4 287.4 212.0 C 287.2 187.3 287.7 162.7 287.2 138.0 C 288.0 127.3 286.7 116.7 287.4 106.0 C 287.5 89.3 287.3 72.6 287.4 55.9 C 287.3 49.8 287.2 43.5 285.3 37.7 C 283.5 33.5 280.5 29.4 276.0 28.2 C 268.9 26.1 261.4 26.6 254.0 26.6 C 218.0 26.6 182.0 26.6 146.0 26.6 C 140.8 26.6 135.6 26.3 130.4 26.8 Z" />
<path fill="#0d2e55" stroke="#0d2e55" stroke-width="0.09375" opacity="0.54" d=" M 130.4 26.8 C 135.6 26.3 140.8 26.6 146.0 26.6 C 182.0 26.6 218.0 26.6 254.0 26.6 C 261.4 26.6 268.9 26.1 276.0 28.2 C 280.5 29.4 283.5 33.5 285.3 37.7 C 287.2 43.5 287.3 49.8 287.4 55.9 C 287.3 72.6 287.5 89.3 287.4 106.0 C 286.7 116.7 288.0 127.3 287.2 138.0 C 287.7 162.7 287.2 187.3 287.4 212.0 C 287.7 219.4 286.4 226.7 287.2 234.0 C 287.1 240.6 286.8 248.1 282.3 253.3 C 277.4 259.0 268.4 257.8 263.5 263.5 C 259.1 269.1 259.8 277.4 254.3 282.3 C 249.2 286.6 241.5 285.9 236.7 290.7 C 231.3 296.2 232.4 305.3 226.6 310.6 C 223.2 313.5 218.5 313.9 214.2 314.4 C 196.5 315.4 178.8 315.4 161.0 315.4 C 155.4 315.3 149.7 314.2 144.0 315.1 C 138.3 315.8 132.6 315.0 127.0 315.2 C 111.6 315.8 96.3 315.2 81.0 314.9 C 73.9 314.5 66.0 314.5 60.1 309.9 C 55.6 303.6 55.1 295.5 54.6 288.0 C 54.6 276.7 54.3 265.3 55.1 254.0 C 54.1 235.3 54.9 216.7 54.6 198.0 C 54.4 193.3 55.0 188.7 55.1 184.0 C 54.1 166.4 54.8 148.7 54.6 131.0 C 54.9 119.5 53.6 107.7 56.4 96.3 C 57.5 91.9 59.8 87.2 64.2 85.3 C 69.2 82.9 75.5 82.8 79.3 78.3 C 83.4 72.8 82.9 64.9 87.9 59.9 C 93.1 54.7 101.7 56.0 106.8 50.8 C 111.4 45.6 110.9 37.7 115.7 32.7 C 119.4 28.5 125.2 27.5 130.4 26.8 M 122.7 38.5 C 122.5 38.6 122.1 38.6 121.9 38.6 L 121.9 39.3 C 116.6 44.7 119.4 53.0 116.2 59.3 C 113.8 62.9 108.8 62.2 105.0 62.6 C 101.2 62.5 97.4 63.6 94.6 66.3 C 94.5 66.5 94.3 66.9 94.1 67.1 L 94.1 65.4 C 89.7 69.4 89.9 75.7 89.2 81.1 C 88.7 83.7 88.3 87.2 85.4 88.1 C 79.5 89.9 72.8 89.1 67.3 92.2 C 64.4 93.6 63.2 96.8 62.6 99.8 C 61.3 105.4 61.7 111.2 61.7 117.0 C 61.7 171.6 61.7 226.3 61.7 281.0 C 61.8 287.6 61.1 294.4 63.3 300.7 C 63.7 302.3 65.2 303.2 66.4 304.1 L 66.4 304.2 C 70.7 308.0 76.6 308.4 82.0 308.4 C 120.4 308.3 158.7 308.4 197.1 308.4 C 203.4 308.3 209.9 308.9 216.1 307.3 C 218.0 307.0 219.4 305.5 220.7 304.2 C 220.8 304.1 221.0 303.8 221.1 303.6 C 227.0 297.8 222.6 287.9 227.9 281.9 C 234.3 278.8 242.7 281.4 248.5 276.3 L 248.8 276.3 L 248.8 275.6 C 253.9 270.4 251.5 262.7 253.7 256.5 C 255.4 252.4 260.3 252.5 264.0 252.3 C 268.1 252.2 272.3 251.1 275.6 248.5 C 275.8 248.5 276.3 248.5 276.5 248.5 L 276.5 248.4 C 277.6 247.3 279.3 246.4 279.6 244.7 C 281.5 237.0 281.3 228.9 281.2 221.0 C 281.2 169.7 281.3 118.3 281.2 67.0 C 281.2 58.7 281.5 50.4 279.7 42.3 C 279.4 40.5 277.6 39.8 276.4 38.7 C 276.2 38.7 275.8 38.6 275.6 38.5 C 274.4 37.2 273.2 35.6 271.2 35.3 C 265.2 34.0 259.0 34.6 253.0 34.5 C 214.6 34.5 176.3 34.6 138.0 34.5 C 132.8 34.7 126.3 34.0 122.7 38.5 Z" />
<path fill="#0e315a" stroke="#0e315a" stroke-width="0.09375" opacity="0.64" d=" M 122.7 38.5 C 126.3 34.0 132.8 34.7 138.0 34.5 C 176.3 34.6 214.6 34.5 253.0 34.5 C 259.0 34.6 265.2 34.0 271.2 35.3 C 273.2 35.6 274.4 37.2 275.6 38.5 C 224.6 38.5 173.7 38.4 122.7 38.5 Z" />
<path fill="#ffffff" stroke="#ffffff" stroke-width="0.09375" opacity="1.00" d=" M 122.7 38.5 C 173.7 38.4 224.6 38.5 275.6 38.5 C 275.8 38.6 276.2 38.7 276.4 38.7 C 276.6 108.6 276.4 178.5 276.5 248.4 L 276.5 248.5 C 276.3 248.5 275.8 248.5 275.6 248.5 C 266.6 248.5 257.7 248.5 248.7 248.5 C 248.8 257.5 248.7 266.6 248.8 275.6 L 248.8 276.3 L 248.5 276.3 C 239.4 276.2 230.3 276.3 221.1 276.3 C 221.1 285.4 221.2 294.5 221.1 303.6 C 221.0 303.8 220.8 304.1 220.7 304.2 C 169.3 304.3 117.9 304.2 66.4 304.2 L 66.4 304.1 C 66.3 237.4 66.4 170.7 66.4 104.0 C 66.4 100.8 66.2 97.6 66.6 94.4 C 75.7 93.4 85.0 94.3 94.1 94.0 C 94.2 85.0 94.1 76.1 94.1 67.1 C 94.3 66.9 94.5 66.5 94.6 66.3 C 103.7 66.2 112.8 66.3 121.9 66.3 C 121.9 57.3 121.9 48.3 121.9 39.3 L 121.9 38.6 C 122.1 38.6 122.5 38.6 122.7 38.5 M 130.9 47.5 C 130.9 53.8 130.9 60.0 130.9 66.3 C 170.1 66.3 209.4 66.1 248.7 66.4 C 248.9 124.1 248.7 181.9 248.7 239.7 C 255.0 239.7 261.3 239.7 267.6 239.7 C 267.6 175.7 267.6 111.6 267.6 47.5 C 222.0 47.5 176.5 47.5 130.9 47.5 M 103.0 75.0 C 103.0 81.3 103.0 87.7 103.0 94.0 C 139.3 94.0 175.6 94.0 212.0 94.0 C 214.9 94.0 217.9 93.8 220.8 94.2 C 221.3 97.4 221.1 100.7 221.1 104.0 C 221.1 158.5 221.1 213.0 221.1 267.5 C 227.4 267.5 233.6 267.5 239.9 267.5 C 239.9 203.3 239.9 139.2 239.9 75.0 C 194.2 75.0 148.6 75.0 103.0 75.0 M 75.3 103.0 C 75.3 167.1 75.3 231.2 75.3 295.3 C 120.9 295.3 166.6 295.3 212.3 295.3 C 212.3 231.2 212.3 167.1 212.3 103.0 C 166.6 103.0 120.9 103.0 75.3 103.0 Z" />
<path fill="#0e315a" stroke="#0e315a" stroke-width="0.09375" opacity="0.64" d=" M 276.4 38.7 C 277.6 39.8 279.4 40.5 279.7 42.3 C 281.5 50.4 281.2 58.7 281.2 67.0 C 281.3 118.3 281.2 169.7 281.2 221.0 C 281.3 228.9 281.5 237.0 279.6 244.7 C 279.3 246.4 277.6 247.3 276.5 248.4 C 276.4 178.5 276.6 108.6 276.4 38.7 Z" />
<path fill="#0e315b" stroke="#0e315b" stroke-width="0.09375" opacity="0.66" d=" M 116.2 59.3 C 119.4 53.0 116.6 44.7 121.9 39.3 C 121.9 48.3 121.9 57.3 121.9 66.3 C 112.8 66.3 103.7 66.2 94.6 66.3 C 97.4 63.6 101.2 62.5 105.0 62.6 C 108.8 62.2 113.8 62.9 116.2 59.3 Z" />
<path fill="#0e315b" stroke="#0e315b" stroke-width="0.09375" opacity="0.61" d=" M 130.9 47.5 C 176.5 47.5 222.0 47.5 267.6 47.5 C 267.6 111.6 267.6 175.7 267.6 239.7 C 261.3 239.7 255.0 239.7 248.7 239.7 C 248.7 181.9 248.9 124.1 248.7 66.4 C 209.4 66.1 170.1 66.3 130.9 66.3 C 130.9 60.0 130.9 53.8 130.9 47.5 Z" />
<path fill="#0e315a" stroke="#0e315a" stroke-width="0.09375" opacity="0.64" d=" M 89.2 81.1 C 89.9 75.7 89.7 69.4 94.1 65.4 L 94.1 67.1 C 94.1 76.1 94.2 85.0 94.1 94.0 C 85.0 94.3 75.7 93.4 66.6 94.4 C 66.2 97.6 66.4 100.8 66.4 104.0 C 66.4 170.7 66.3 237.4 66.4 304.1 C 65.2 303.2 63.7 302.3 63.3 300.7 C 61.1 294.4 61.8 287.6 61.7 281.0 C 61.7 226.3 61.7 171.6 61.7 117.0 C 61.7 111.2 61.3 105.4 62.6 99.8 C 63.2 96.8 64.4 93.6 67.3 92.2 C 72.8 89.1 79.5 89.9 85.4 88.1 C 88.3 87.2 88.7 83.7 89.2 81.1 Z" />
<path fill="#0e315b" stroke="#0e315b" stroke-width="0.09375" opacity="0.60" d=" M 103.0 75.0 C 148.6 75.0 194.2 75.0 239.9 75.0 C 239.9 139.2 239.9 203.3 239.9 267.5 C 233.6 267.5 227.4 267.5 221.1 267.5 C 221.1 213.0 221.1 158.5 221.1 104.0 C 221.1 100.7 221.3 97.4 220.8 94.2 C 217.9 93.8 214.9 94.0 212.0 94.0 C 175.6 94.0 139.3 94.0 103.0 94.0 C 103.0 87.7 103.0 81.3 103.0 75.0 Z" />
<path fill="#0e315b" stroke="#0e315b" stroke-width="0.09375" opacity="0.60" d=" M 75.3 103.0 C 120.9 103.0 166.6 103.0 212.3 103.0 C 212.3 167.1 212.3 231.2 212.3 295.3 C 166.6 295.3 120.9 295.3 75.3 295.3 C 75.3 231.2 75.3 167.1 75.3 103.0 M 94.2 121.8 C 94.2 124.7 93.9 127.7 94.4 130.5 C 96.2 130.8 98.1 130.8 100.0 130.8 C 131.0 130.7 162.1 130.9 193.2 130.7 C 193.3 127.7 193.3 124.8 193.2 121.8 C 160.2 121.7 127.2 121.7 94.2 121.8 M 94.2 149.7 C 94.1 152.5 94.1 155.3 94.2 158.2 C 127.2 158.3 160.2 158.3 193.2 158.2 C 193.3 155.3 193.3 152.5 193.2 149.6 C 160.2 149.5 127.2 149.3 94.2 149.7 M 94.4 177.5 C 93.9 180.3 94.2 183.3 94.2 186.1 C 127.2 186.3 160.2 186.3 193.2 186.2 C 193.2 183.2 193.5 180.3 193.0 177.4 C 165.0 177.0 137.0 177.4 109.0 177.3 C 104.1 177.4 99.2 177.0 94.4 177.5 M 94.2 205.1 C 94.1 208.0 93.9 210.9 94.3 213.7 C 96.5 214.1 98.8 214.0 101.0 214.0 C 131.7 213.9 162.5 214.2 193.2 213.9 C 193.3 211.0 193.3 208.0 193.2 205.1 C 160.2 204.9 127.2 204.9 94.2 205.1 M 94.3 232.9 C 94.1 235.8 94.1 238.7 94.2 241.6 C 127.2 241.8 160.2 241.8 193.2 241.7 C 193.3 238.7 193.3 235.8 193.2 232.9 C 160.2 232.6 127.2 232.7 94.3 232.9 M 94.3 261.1 C 94.0 263.8 93.8 266.7 94.5 269.4 C 96.4 269.6 98.2 269.5 100.1 269.5 C 131.1 269.4 162.2 269.7 193.2 269.4 C 193.3 266.5 193.3 263.5 193.2 260.6 C 161.4 260.3 129.7 260.6 97.9 260.5 C 96.7 260.7 95.2 260.1 94.3 261.1 Z" />
<path fill="#ffffff" stroke="#ffffff" stroke-width="0.09375" opacity="1.00" d=" M 94.2 121.8 C 127.2 121.7 160.2 121.7 193.2 121.8 C 193.3 124.8 193.3 127.7 193.2 130.7 C 162.1 130.9 131.0 130.7 100.0 130.8 C 98.1 130.8 96.2 130.8 94.4 130.5 C 93.9 127.7 94.2 124.7 94.2 121.8 Z" />
<path fill="#ffffff" stroke="#ffffff" stroke-width="0.09375" opacity="1.00" d=" M 94.2 149.7 C 127.2 149.3 160.2 149.5 193.2 149.6 C 193.3 152.5 193.3 155.3 193.2 158.2 C 160.2 158.3 127.2 158.3 94.2 158.2 C 94.1 155.3 94.1 152.5 94.2 149.7 Z" />
<path fill="#ffffff" stroke="#ffffff" stroke-width="0.09375" opacity="1.00" d=" M 94.4 177.5 C 99.2 177.0 104.1 177.4 109.0 177.3 C 137.0 177.4 165.0 177.0 193.0 177.4 C 193.5 180.3 193.2 183.2 193.2 186.2 C 160.2 186.3 127.2 186.3 94.2 186.1 C 94.2 183.3 93.9 180.3 94.4 177.5 Z" />
<path fill="#ffffff" stroke="#ffffff" stroke-width="0.09375" opacity="1.00" d=" M 94.2 205.1 C 127.2 204.9 160.2 204.9 193.2 205.1 C 193.3 208.0 193.3 211.0 193.2 213.9 C 162.5 214.2 131.7 213.9 101.0 214.0 C 98.8 214.0 96.5 214.1 94.3 213.7 C 93.9 210.9 94.1 208.0 94.2 205.1 Z" />
<path fill="#ffffff" stroke="#ffffff" stroke-width="0.09375" opacity="1.00" d=" M 94.3 232.9 C 127.2 232.7 160.2 232.6 193.2 232.9 C 193.3 235.8 193.3 238.7 193.2 241.7 C 160.2 241.8 127.2 241.8 94.2 241.6 C 94.1 238.7 94.1 235.8 94.3 232.9 Z" />
<path fill="#0e315b" stroke="#0e315b" stroke-width="0.09375" opacity="0.65" d=" M 248.7 248.5 C 257.7 248.5 266.6 248.5 275.6 248.5 C 272.3 251.1 268.1 252.2 264.0 252.3 C 260.3 252.5 255.4 252.4 253.7 256.5 C 251.5 262.7 253.9 270.4 248.8 275.6 C 248.7 266.6 248.8 257.5 248.7 248.5 Z" />
<path fill="#ffffff" stroke="#ffffff" stroke-width="0.09375" opacity="1.00" d=" M 94.3 261.1 C 95.2 260.1 96.7 260.7 97.9 260.5 C 129.7 260.6 161.4 260.3 193.2 260.6 C 193.3 263.5 193.3 266.5 193.2 269.4 C 162.2 269.7 131.1 269.4 100.1 269.5 C 98.2 269.5 96.4 269.6 94.5 269.4 C 93.8 266.7 94.0 263.8 94.3 261.1 Z" />
<path fill="#0e315b" stroke="#0e315b" stroke-width="0.09375" opacity="0.66" d=" M 221.1 276.3 C 230.3 276.3 239.4 276.2 248.5 276.3 C 242.7 281.4 234.3 278.8 227.9 281.9 C 222.6 287.9 227.0 297.8 221.1 303.6 C 221.2 294.5 221.1 285.4 221.1 276.3 Z" />
<path fill="#0e315a" stroke="#0e315a" stroke-width="0.09375" opacity="0.65" d=" M 66.4 304.2 C 117.9 304.2 169.3 304.3 220.7 304.2 C 219.4 305.5 218.0 307.0 216.1 307.3 C 209.9 308.9 203.4 308.3 197.1 308.4 C 158.7 308.4 120.4 308.3 82.0 308.4 C 76.6 308.4 70.7 308.0 66.4 304.2 Z" />
</svg>
