<?xml version="1.0" encoding="UTF-8" ?>
<!DOCTYPE svg PUBLIC "-//W3C//DTD SVG 1.1//EN" "http://www.w3.org/Graphics/SVG/1.1/DTD/svg11.dtd">
<svg width="139pt" height="139pt" viewBox="0 0 139 139" version="1.1" xmlns="http://www.w3.org/2000/svg">
<path fill="#051425" stroke="#051425" stroke-width="0.09375" opacity="0.27" d=" M 14.9 8.8 C 25.2 7.0 35.8 7.2 46.1 8.8 C 51.0 10.0 54.3 13.9 57.8 17.3 C 62.6 21.8 67.4 27.0 67.8 34.0 C 69.1 38.3 67.0 43.5 69.7 47.3 C 76.7 48.1 84.0 46.7 90.7 49.3 C 93.4 50.7 95.4 53.0 98.0 54.6 C 101.1 53.4 102.9 50.0 106.1 49.0 C 113.0 47.1 120.7 46.8 127.4 49.7 C 132.4 52.5 133.1 58.9 133.4 64.0 C 133.4 80.1 133.4 96.1 133.4 112.1 C 133.1 117.1 132.8 123.0 128.6 126.5 C 125.2 128.8 120.9 129.3 117.0 129.4 C 94.0 129.4 71.0 129.4 48.0 129.4 C 43.9 129.1 39.1 129.0 36.1 125.8 C 33.0 122.7 33.2 118.0 32.7 114.0 C 32.4 104.2 32.7 94.3 32.5 84.5 C 26.4 82.2 19.5 84.2 13.4 81.6 C 11.0 80.3 9.4 77.8 8.8 75.2 C 6.3 62.9 8.5 50.4 7.6 38.1 C 7.7 30.4 7.1 22.6 9.0 15.1 C 9.9 12.2 12.0 9.6 14.9 8.8 M 13.7 12.8 C 10.9 15.3 10.9 19.5 10.6 23.0 C 10.6 38.0 10.6 53.0 10.6 67.9 C 10.9 71.5 10.9 75.7 13.8 78.3 C 18.5 81.5 24.6 80.0 30.0 80.4 C 32.7 80.1 35.7 82.1 35.5 84.9 C 35.8 94.6 35.5 104.3 35.7 114.0 C 35.9 117.1 36.1 120.5 38.0 123.0 C 40.4 125.9 44.5 126.4 48.0 126.4 C 71.0 126.3 94.0 126.4 117.0 126.4 C 121.0 126.1 125.8 125.8 128.3 122.2 C 130.1 118.8 130.3 114.8 130.4 111.0 C 130.3 98.7 130.4 86.4 130.4 74.1 C 130.3 68.5 130.7 62.8 129.4 57.3 C 128.7 54.3 126.0 51.8 122.8 51.3 C 117.4 50.2 111.5 50.1 106.3 52.3 C 103.4 54.2 101.3 57.4 97.9 58.7 C 95.0 56.9 92.8 54.1 89.9 52.2 C 83.7 49.8 76.9 51.0 70.4 50.5 C 67.7 50.4 65.7 47.9 65.5 45.4 C 65.2 40.9 65.8 36.4 64.7 32.1 C 63.7 26.7 59.4 22.9 55.7 19.2 C 52.5 16.1 49.4 12.3 44.9 11.4 C 39.0 10.0 32.9 10.8 26.9 10.6 C 22.5 10.7 17.6 10.1 13.7 12.8 Z" />
<path fill="#0c294d" stroke="#0c294d" stroke-width="0.09375" opacity="0.48" d=" M 13.7 12.8 C 17.6 10.1 22.5 10.7 26.9 10.6 C 32.9 10.8 39.0 10.0 44.9 11.4 C 49.4 12.3 52.5 16.1 55.7 19.2 C 59.4 22.9 63.7 26.7 64.7 32.1 C 65.8 36.4 65.2 40.9 65.5 45.4 C 65.7 47.9 67.7 50.4 70.4 50.5 C 76.9 51.0 83.7 49.8 89.9 52.2 C 92.8 54.1 95.0 56.9 97.9 58.7 C 101.3 57.4 103.4 54.2 106.3 52.3 C 111.5 50.1 117.4 50.2 122.8 51.3 C 126.0 51.8 128.7 54.3 129.4 57.3 C 130.7 62.8 130.3 68.5 130.4 74.1 C 130.4 86.4 130.3 98.7 130.4 111.0 C 130.3 114.8 130.1 118.8 128.3 122.2 C 125.8 125.8 121.0 126.1 117.0 126.4 C 94.0 126.4 71.0 126.3 48.0 126.4 C 44.5 126.4 40.4 125.9 38.0 123.0 C 36.1 120.5 35.9 117.1 35.7 114.0 C 35.5 104.3 35.8 94.6 35.5 84.9 C 35.7 82.1 32.7 80.1 30.0 80.4 C 24.6 80.0 18.5 81.5 13.8 78.3 C 10.9 75.7 10.9 71.5 10.6 67.9 C 10.6 53.0 10.6 38.0 10.6 23.0 C 10.9 19.5 10.9 15.3 13.7 12.8 M 18.3 14.3 C 14.5 15.2 13.7 19.7 13.7 23.0 C 13.7 38.3 13.7 53.7 13.7 69.0 C 13.6 71.9 14.3 75.4 17.4 76.6 C 21.9 78.1 26.8 76.5 31.3 77.7 C 34.3 79.5 37.4 82.0 38.5 85.4 C 39.2 95.2 38.5 105.2 38.8 115.0 C 39.0 117.6 39.3 120.9 41.9 122.1 C 45.4 123.7 49.3 123.0 52.9 123.1 C 73.6 123.3 94.3 122.9 115.0 123.2 C 118.3 123.0 122.3 123.5 124.8 120.8 C 127.2 118.5 127.0 115.0 127.2 112.0 C 127.2 96.7 127.1 81.4 127.2 66.0 C 127.1 62.9 127.3 59.3 125.3 56.6 C 123.6 54.4 120.6 54.1 118.0 53.9 C 114.7 53.7 111.3 53.8 108.2 55.2 C 105.0 57.2 103.4 62.0 99.0 61.7 C 93.3 62.6 91.3 55.6 86.4 54.5 C 80.8 53.0 74.9 55.1 69.4 53.5 C 66.8 51.5 64.5 49.0 62.8 46.1 C 61.5 41.4 63.2 36.3 61.4 31.7 C 59.8 27.3 55.9 24.5 52.8 21.2 C 50.0 18.4 47.1 15.1 42.9 14.2 C 38.6 13.4 34.3 13.9 30.0 13.8 C 26.1 13.9 22.2 13.4 18.3 14.3 Z" />
<path fill="#0e3159" stroke="#0e3159" stroke-width="0.09375" opacity="0.62" d=" M 18.3 14.3 C 22.2 13.4 26.1 13.9 30.0 13.8 C 34.3 13.9 38.6 13.4 42.9 14.2 C 47.1 15.1 50.0 18.4 52.8 21.2 C 55.9 24.5 59.8 27.3 61.4 31.7 C 63.2 36.3 61.5 41.4 62.8 46.1 C 64.5 49.0 66.8 51.5 69.4 53.5 C 74.9 55.1 80.8 53.0 86.4 54.5 C 91.3 55.6 93.3 62.6 99.0 61.7 C 103.4 62.0 105.0 57.2 108.2 55.2 C 111.3 53.8 114.7 53.7 118.0 53.9 C 120.6 54.1 123.6 54.4 125.3 56.6 C 127.3 59.3 127.1 62.9 127.2 66.0 C 127.1 81.4 127.2 96.7 127.2 112.0 C 127.0 115.0 127.2 118.5 124.8 120.8 C 122.3 123.5 118.3 123.0 115.0 123.2 C 94.3 122.9 73.6 123.3 52.9 123.1 C 49.3 123.0 45.4 123.7 41.9 122.1 C 39.3 120.9 39.0 117.6 38.8 115.0 C 38.5 105.2 39.2 95.2 38.5 85.4 C 37.4 82.0 34.3 79.5 31.3 77.7 C 26.8 76.5 21.9 78.1 17.4 76.6 C 14.3 75.4 13.6 71.9 13.7 69.0 C 13.7 53.7 13.7 38.3 13.7 23.0 C 13.7 19.7 14.5 15.2 18.3 14.3 M 16.8 17.6 C 16.7 36.4 16.7 55.2 16.9 73.9 C 22.8 74.1 28.7 74.0 34.7 74.0 C 35.4 77.9 38.6 80.3 41.8 82.1 C 41.8 82.8 41.7 84.2 41.7 84.9 C 41.8 96.5 41.6 108.1 41.9 119.7 C 69.2 119.7 96.4 119.8 123.7 119.7 C 123.7 99.0 124.0 78.2 123.5 57.5 C 118.7 57.5 113.9 57.4 109.0 57.6 C 107.7 60.1 106.5 62.7 105.2 65.3 C 100.7 65.2 96.2 65.2 91.7 65.3 C 90.4 62.7 89.1 60.2 87.9 57.6 C 81.4 57.4 74.9 57.6 68.4 57.5 L 66.9 57.5 C 67.1 57.3 67.5 57.0 67.6 56.8 C 66.0 53.3 63.2 50.6 60.3 48.1 C 59.9 49.2 59.6 50.2 59.3 51.2 C 59.3 45.1 59.2 38.9 59.3 32.8 C 54.3 27.6 49.2 22.5 44.0 17.5 C 35.0 17.6 25.9 17.3 16.8 17.6 Z" />
<path fill="#ffffff" stroke="#ffffff" stroke-width="0.09375" opacity="1.00" d=" M 16.8 17.6 C 25.9 17.3 35.0 17.6 44.0 17.5 C 49.2 22.5 54.3 27.6 59.3 32.8 C 59.2 38.9 59.3 45.1 59.3 51.2 C 59.2 53.3 59.2 55.4 59.2 57.5 C 59.2 59.3 59.2 61.1 59.2 62.9 C 59.2 65.7 59.3 68.5 59.1 71.3 C 59.1 71.9 59.1 73.3 59.0 73.9 C 58.3 73.9 56.7 74.0 56.0 74.0 C 53.1 74.0 50.2 74.0 47.2 74.0 C 45.4 74.0 43.6 74.0 41.7 74.0 C 39.4 74.0 37.0 74.0 34.7 74.0 C 28.7 74.0 22.8 74.1 16.9 73.9 C 16.7 55.2 16.7 36.4 16.8 17.6 M 22.0 22.7 C 22.0 38.1 22.0 53.4 22.0 68.7 C 28.3 68.7 34.7 68.9 41.0 68.7 C 45.3 69.1 49.7 68.7 54.0 68.7 C 54.0 66.6 54.0 64.5 54.0 62.4 C 54.0 60.9 54.1 59.3 53.9 57.8 C 53.9 50.8 54.0 43.8 54.0 36.7 C 49.3 36.7 44.7 36.8 40.0 36.7 C 39.7 32.1 39.9 27.4 39.9 22.7 C 33.9 22.7 28.0 22.7 22.0 22.7 M 45.1 24.9 C 45.1 27.2 45.1 29.5 45.1 31.8 C 47.4 31.8 49.7 31.7 52.0 31.7 C 49.7 29.5 47.4 27.2 45.1 24.9 Z" />
<path fill="#0e315c" stroke="#0e315c" stroke-width="0.09375" opacity="0.68" d=" M 22.0 22.7 C 28.0 22.7 33.9 22.7 39.9 22.7 C 39.9 27.4 39.7 32.1 40.0 36.7 C 44.7 36.8 49.3 36.7 54.0 36.7 C 54.0 43.8 53.9 50.8 53.9 57.8 C 53.3 56.4 52.7 55.0 52.0 53.7 L 51.7 53.2 C 42.5 52.6 33.2 53.1 23.9 53.1 C 23.9 54.8 23.9 56.5 23.9 58.1 L 25.0 58.2 C 30.9 58.7 36.9 58.1 42.6 59.9 C 36.4 60.0 30.2 59.9 24.0 60.1 C 23.9 61.8 23.9 63.5 23.9 65.2 C 30.0 65.3 36.2 65.3 42.3 65.3 L 41.1 66.6 L 40.0 65.6 C 38.4 66.0 34.7 65.1 35.1 67.7 C 37.0 68.4 39.0 68.3 40.9 68.3 C 41.0 68.4 41.0 68.6 41.0 68.7 C 34.7 68.9 28.3 68.7 22.0 68.7 C 22.0 53.4 22.0 38.1 22.0 22.7 M 23.9 24.8 C 23.9 26.4 24.0 28.1 24.1 29.7 C 28.5 29.7 33.0 29.9 37.5 29.6 C 38.5 28.3 37.8 26.4 38.0 24.8 C 33.3 24.3 28.6 24.4 23.9 24.8 M 23.9 31.8 C 23.9 33.5 24.0 35.1 24.0 36.7 C 28.7 36.8 33.3 36.8 37.9 36.7 C 37.9 35.1 38.0 33.5 38.0 31.8 C 33.3 31.7 28.6 31.7 23.9 31.8 M 23.9 38.9 C 23.9 40.6 23.9 42.2 24.0 43.9 C 33.3 44.1 42.7 44.1 52.1 43.9 C 52.1 42.2 52.1 40.5 52.1 38.8 C 42.7 38.7 33.3 38.6 23.9 38.9 M 23.9 46.1 C 23.9 47.7 23.9 49.3 23.9 50.9 C 33.3 51.0 42.8 51.2 52.2 50.9 C 52.1 49.3 52.1 47.7 52.1 46.1 C 42.7 45.9 33.3 45.9 23.9 46.1 Z" />
<path fill="#ffffff" stroke="#ffffff" stroke-width="0.09375" opacity="1.00" d=" M 23.9 24.8 C 28.6 24.4 33.3 24.3 38.0 24.8 C 37.8 26.4 38.5 28.3 37.5 29.6 C 33.0 29.9 28.5 29.7 24.1 29.7 C 24.0 28.1 23.9 26.4 23.9 24.8 Z" />
<path fill="#0e315b" stroke="#0e315b" stroke-width="0.09375" opacity="0.70" d=" M 45.1 24.9 C 47.4 27.2 49.7 29.5 52.0 31.7 C 49.7 31.7 47.4 31.8 45.1 31.8 C 45.1 29.5 45.1 27.2 45.1 24.9 Z" />
<path fill="#ffffff" stroke="#ffffff" stroke-width="0.09375" opacity="1.00" d=" M 23.9 31.8 C 28.6 31.7 33.3 31.7 38.0 31.8 C 38.0 33.5 37.9 35.1 37.9 36.7 C 33.3 36.8 28.7 36.8 24.0 36.7 C 24.0 35.1 23.9 33.5 23.9 31.8 Z" />
<path fill="#ffffff" stroke="#ffffff" stroke-width="0.09375" opacity="1.00" d=" M 23.9 38.9 C 33.3 38.6 42.7 38.7 52.1 38.8 C 52.1 40.5 52.1 42.2 52.1 43.9 C 42.7 44.1 33.3 44.1 24.0 43.9 C 23.9 42.2 23.9 40.6 23.9 38.9 Z" />
<path fill="#ffffff" stroke="#ffffff" stroke-width="0.09375" opacity="1.00" d=" M 23.9 46.1 C 33.3 45.9 42.7 45.9 52.1 46.1 C 52.1 47.7 52.1 49.3 52.2 50.9 C 42.8 51.2 33.3 51.0 23.9 50.9 C 23.9 49.3 23.9 47.7 23.9 46.1 Z" />
<path fill="#13427a" stroke="#13427a" stroke-width="0.09375" opacity="0.80" d=" M 60.3 48.1 C 63.2 50.6 66.0 53.3 67.6 56.8 C 67.5 57.0 67.1 57.3 66.9 57.5 C 66.3 57.5 65.1 57.5 64.5 57.5 C 62.7 57.5 60.9 57.5 59.2 57.5 C 59.2 55.4 59.2 53.3 59.3 51.2 C 59.6 50.2 59.9 49.2 60.3 48.1 Z" />
<path fill="#ffffff" stroke="#ffffff" stroke-width="0.09375" opacity="1.00" d=" M 23.9 53.1 C 33.2 53.1 42.5 52.6 51.7 53.2 L 52.0 53.7 C 52.0 55.2 52.0 56.7 52.0 58.2 C 43.0 58.2 34.0 57.9 25.0 58.2 L 23.9 58.1 C 23.9 56.5 23.9 54.8 23.9 53.1 Z" />
<path fill="#58779d" stroke="#58779d" stroke-width="0.09375" opacity="0.95" d=" M 52.0 53.7 C 52.7 55.0 53.3 56.4 53.9 57.8 C 54.1 59.3 54.0 60.9 54.0 62.4 C 53.5 62.6 52.7 63.1 52.3 63.3 C 52.2 62.5 52.2 60.9 52.1 60.1 C 49.0 60.0 45.8 60.0 42.6 59.9 C 36.9 58.1 30.9 58.7 25.0 58.2 C 34.0 57.9 43.0 58.2 52.0 58.2 C 52.0 56.7 52.0 55.2 52.0 53.7 Z" />
<path fill="#799bc3" stroke="#799bc3" stroke-width="0.09375" opacity="1.00" d=" M 59.2 57.5 C 60.9 57.5 62.7 57.5 64.5 57.5 C 64.5 59.4 64.5 61.2 64.5 63.0 C 62.7 63.0 61.0 63.0 59.2 62.9 C 59.2 61.1 59.2 59.3 59.2 57.5 Z" />
<path fill="#c1d0e1" stroke="#c1d0e1" stroke-width="0.09375" opacity="1.00" d=" M 64.5 57.5 C 65.1 57.5 66.3 57.5 66.9 57.5 L 68.4 57.5 C 68.4 59.3 68.4 61.2 68.3 63.0 C 67.5 63.0 65.9 63.0 65.0 63.0 L 64.5 63.0 C 64.5 61.2 64.5 59.4 64.5 57.5 Z" />
<path fill="#ffffff" stroke="#ffffff" stroke-width="0.09375" opacity="1.00" d=" M 68.4 57.5 C 74.9 57.6 81.4 57.4 87.9 57.6 C 89.1 60.2 90.4 62.7 91.7 65.3 C 96.2 65.2 100.7 65.2 105.2 65.3 C 106.5 62.7 107.7 60.1 109.0 57.6 C 113.9 57.4 118.7 57.5 123.5 57.5 C 124.0 78.2 123.7 99.0 123.7 119.7 C 96.4 119.8 69.2 119.7 41.9 119.7 C 41.6 108.1 41.8 96.5 41.7 84.9 C 43.6 84.9 45.4 84.9 47.3 84.9 C 47.2 94.6 47.3 104.4 47.2 114.2 C 48.7 114.2 50.1 114.2 51.5 114.3 C 51.5 110.4 51.5 106.5 51.6 102.6 C 72.4 102.4 93.2 102.3 113.9 102.7 C 114.0 106.5 114.0 110.4 114.0 114.3 C 115.4 114.3 116.8 114.2 118.1 114.2 C 118.1 97.2 118.1 80.1 118.1 63.0 C 116.5 63.0 114.9 63.0 113.3 63.0 C 112.0 65.6 110.9 68.2 109.3 70.6 C 102.4 70.9 95.3 70.8 88.4 70.6 C 86.7 68.3 85.7 65.7 84.5 63.1 C 79.1 62.9 73.7 63.0 68.3 63.0 C 68.4 61.2 68.4 59.3 68.4 57.5 M 57.1 108.0 C 57.1 110.1 57.1 112.2 57.1 114.3 C 74.2 114.2 91.3 114.3 108.4 114.3 C 108.4 112.2 108.4 110.1 108.4 108.0 C 91.3 108.0 74.2 108.0 57.1 108.0 Z" />
<path fill="#ffffff" stroke="#ffffff" stroke-width="0.09375" opacity="1.00" d=" M 24.0 60.1 C 30.2 59.9 36.4 60.0 42.6 59.9 C 45.8 60.0 49.0 60.0 52.1 60.1 C 52.2 60.9 52.2 62.5 52.3 63.3 C 52.1 63.7 51.8 64.5 51.7 64.9 L 51.2 65.1 C 48.2 65.2 45.3 65.1 42.3 65.3 C 36.2 65.3 30.0 65.3 23.9 65.2 C 23.9 63.5 23.9 61.8 24.0 60.1 Z" />
<path fill="#134177" stroke="#134177" stroke-width="0.09375" opacity="0.87" d=" M 52.3 63.3 C 52.7 63.1 53.5 62.6 54.0 62.4 C 54.0 64.5 54.0 66.6 54.0 68.7 C 49.7 68.7 45.3 69.1 41.0 68.7 C 41.0 68.6 41.0 68.4 40.9 68.3 C 39.0 68.3 37.0 68.4 35.1 67.7 C 34.7 65.1 38.4 66.0 40.0 65.6 L 41.1 66.6 C 43.1 69.3 46.9 68.4 48.7 65.9 C 49.5 65.6 50.3 65.3 51.2 65.1 L 51.7 64.9 C 51.8 64.5 52.1 63.7 52.3 63.3 Z" />
<path fill="#13447d" stroke="#13447d" stroke-width="0.09375" opacity="0.84" d=" M 59.2 62.9 C 61.0 63.0 62.7 63.0 64.5 63.0 L 65.0 63.0 C 64.9 65.1 64.8 67.2 64.7 69.4 C 64.5 69.4 63.9 69.6 63.6 69.7 C 62.1 70.2 60.6 70.7 59.1 71.3 C 59.3 68.5 59.2 65.7 59.2 62.9 Z" />
<path fill="#0e315b" stroke="#0e315b" stroke-width="0.09375" opacity="0.60" d=" M 65.0 63.0 C 65.9 63.0 67.5 63.0 68.3 63.0 C 73.7 63.0 79.1 62.9 84.5 63.1 C 85.7 65.7 86.7 68.3 88.4 70.6 C 95.3 70.8 102.4 70.9 109.3 70.6 C 110.9 68.2 112.0 65.6 113.3 63.0 C 114.9 63.0 116.5 63.0 118.1 63.0 C 118.1 80.1 118.1 97.2 118.1 114.2 C 116.8 114.2 115.4 114.3 114.0 114.3 C 114.0 110.4 114.0 106.5 113.9 102.7 C 93.2 102.3 72.4 102.4 51.6 102.6 C 51.5 106.5 51.5 110.4 51.5 114.3 C 50.1 114.2 48.7 114.2 47.2 114.2 C 47.3 104.4 47.2 94.6 47.3 84.9 C 47.3 83.7 47.2 82.6 47.2 81.5 C 48.8 81.6 50.4 81.7 51.9 81.8 L 51.6 83.6 C 50.9 91.4 56.9 99.3 64.8 100.1 C 73.7 101.7 82.9 94.1 82.6 85.0 C 82.9 77.9 77.7 71.5 71.1 69.6 C 69.0 69.3 66.8 69.2 64.7 69.4 C 64.8 67.2 64.9 65.1 65.0 63.0 M 95.5 73.5 C 90.4 74.8 86.6 79.7 86.9 84.9 C 86.7 90.9 92.0 96.4 98.0 96.3 C 104.2 96.9 110.3 91.3 110.0 85.0 C 110.6 77.5 102.6 71.4 95.5 73.5 Z" />
<path fill="#6285af" stroke="#6285af" stroke-width="0.09375" opacity="1.00" d=" M 42.3 65.3 C 45.3 65.1 48.2 65.2 51.2 65.1 C 50.3 65.3 49.5 65.6 48.7 65.9 C 46.9 68.4 43.1 69.3 41.1 66.6 L 42.3 65.3 Z" />
<path fill="#bccde0" stroke="#bccde0" stroke-width="0.09375" opacity="1.00" d=" M 63.6 69.7 C 63.9 69.6 64.5 69.4 64.7 69.4 C 66.8 69.2 69.0 69.3 71.1 69.6 C 70.3 69.8 68.9 70.2 68.2 70.5 C 67.3 73.8 67.1 77.8 64.3 80.2 C 60.7 83.0 55.9 83.1 51.6 83.6 L 51.9 81.8 C 52.1 81.0 52.3 80.2 52.5 79.4 C 55.4 79.4 58.6 79.8 61.1 78.1 C 63.8 76.3 65.0 72.6 63.6 69.7 Z" />
<path fill="#81a3ca" stroke="#81a3ca" stroke-width="0.09375" opacity="1.00" d=" M 59.1 71.3 C 60.6 70.7 62.1 70.2 63.6 69.7 C 65.0 72.6 63.8 76.3 61.1 78.1 C 58.6 79.8 55.4 79.4 52.5 79.4 C 53.4 77.4 54.7 75.7 56.0 74.0 C 56.7 74.0 58.3 73.9 59.0 73.9 C 59.1 73.3 59.1 71.9 59.1 71.3 Z" />
<path fill="#ffffff" stroke="#ffffff" stroke-width="0.09375" opacity="1.00" d=" M 68.2 70.5 C 68.9 70.2 70.3 69.8 71.1 69.6 C 77.7 71.5 82.9 77.9 82.6 85.0 C 82.9 94.1 73.7 101.7 64.8 100.1 C 56.9 99.3 50.9 91.4 51.6 83.6 C 55.9 83.1 60.7 83.0 64.3 80.2 C 67.1 77.8 67.3 73.8 68.2 70.5 M 66.5 81.7 C 62.6 82.3 64.0 88.9 67.8 87.7 C 71.6 87.0 70.2 80.9 66.5 81.7 Z" />
<path fill="#ffffff" stroke="#ffffff" stroke-width="0.09375" opacity="1.00" d=" M 95.5 73.5 C 102.6 71.4 110.6 77.5 110.0 85.0 C 110.3 91.3 104.2 96.9 98.0 96.3 C 92.0 96.4 86.7 90.9 86.9 84.9 C 86.6 79.7 90.4 74.8 95.5 73.5 M 96.8 87.3 C 99.2 89.2 103.0 85.7 101.0 83.2 C 100.2 81.6 98.3 81.9 96.9 81.6 C 95.7 83.2 94.5 86.0 96.8 87.3 Z" />
<path fill="#13437b" stroke="#13437b" stroke-width="0.09375" opacity="0.81" d=" M 34.7 74.0 C 37.0 74.0 39.4 74.0 41.7 74.0 C 41.7 74.8 41.7 76.5 41.7 77.3 C 41.8 78.7 41.8 80.1 41.8 81.5 L 41.8 82.1 C 38.6 80.3 35.4 77.9 34.7 74.0 Z" />
<path fill="#7194bd" stroke="#7194bd" stroke-width="0.09375" opacity="1.00" d=" M 41.7 74.0 C 43.6 74.0 45.4 74.0 47.2 74.0 C 47.2 74.8 47.2 76.5 47.2 77.3 C 45.4 77.3 43.6 77.3 41.7 77.3 C 41.7 76.5 41.7 74.8 41.7 74.0 Z" />
<path fill="#13437d" stroke="#13437d" stroke-width="0.09375" opacity="0.84" d=" M 47.2 74.0 C 50.2 74.0 53.1 74.0 56.0 74.0 C 54.7 75.7 53.4 77.4 52.5 79.4 C 52.3 80.2 52.1 81.0 51.9 81.8 C 50.4 81.7 48.8 81.6 47.2 81.5 C 47.2 80.1 47.2 78.7 47.2 77.3 C 47.2 76.5 47.2 74.8 47.2 74.0 Z" />
<path fill="#9cb6d6" stroke="#9cb6d6" stroke-width="0.09375" opacity="1.00" d=" M 41.7 77.3 C 43.6 77.3 45.4 77.3 47.2 77.3 C 47.2 78.7 47.2 80.1 47.2 81.5 C 45.4 81.5 43.6 81.5 41.8 81.5 C 41.8 80.1 41.8 78.7 41.7 77.3 Z" />
<path fill="#e6ebf1" stroke="#e6ebf1" stroke-width="0.09375" opacity="1.00" d=" M 41.8 81.5 C 43.6 81.5 45.4 81.5 47.2 81.5 C 47.2 82.6 47.3 83.7 47.3 84.9 C 45.4 84.9 43.6 84.9 41.7 84.9 C 41.7 84.2 41.8 82.8 41.8 82.1 L 41.8 81.5 Z" />
<path fill="#0e315b" stroke="#0e315b" stroke-width="0.09375" opacity="0.69" d=" M 66.5 81.7 C 70.2 80.9 71.6 87.0 67.8 87.7 C 64.0 88.9 62.6 82.3 66.5 81.7 Z" />
<path fill="#0e315b" stroke="#0e315b" stroke-width="0.09375" opacity="0.68" d=" M 96.8 87.3 C 94.5 86.0 95.7 83.2 96.9 81.6 C 98.3 81.9 100.2 81.6 101.0 83.2 C 103.0 85.7 99.2 89.2 96.8 87.3 Z" />
<path fill="#0e315b" stroke="#0e315b" stroke-width="0.09375" opacity="0.63" d=" M 57.1 108.0 C 74.2 108.0 91.3 108.0 108.4 108.0 C 108.4 110.1 108.4 112.2 108.4 114.3 C 91.3 114.3 74.2 114.2 57.1 114.3 C 57.1 112.2 57.1 110.1 57.1 108.0 Z" />
</svg>
