<?xml version="1.0" encoding="UTF-8" ?>
<!DOCTYPE svg PUBLIC "-//W3C//DTD SVG 1.1//EN" "http://www.w3.org/Graphics/SVG/1.1/DTD/svg11.dtd">
<svg width="139pt" height="139pt" viewBox="0 0 139 139" version="1.1" xmlns="http://www.w3.org/2000/svg">
<path fill="#030c16" stroke="#030c16" stroke-width="0.09375" opacity="0.18" d=" M 22.4 7.4 C 24.9 4.9 28.5 4.3 31.9 4.3 C 43.6 4.3 55.3 4.3 67.0 4.3 C 70.5 4.3 74.3 4.6 77.1 6.9 C 79.6 8.8 80.0 12.1 80.4 15.0 C 81.0 26.7 79.9 38.5 80.9 50.2 C 83.5 52.3 87.2 52.0 90.1 53.7 C 92.2 55.2 94.1 57.1 96.0 58.9 C 98.5 56.6 100.8 54.0 104.0 52.7 C 108.1 51.0 112.6 51.4 117.0 51.5 C 121.7 51.4 126.6 53.9 128.8 58.3 C 130.4 61.2 130.6 64.6 130.6 67.9 C 130.4 86.0 130.7 104.0 130.4 122.0 C 130.4 128.5 124.4 133.9 118.0 133.5 C 92.7 133.5 67.3 133.5 42.0 133.5 C 36.0 133.8 30.2 129.1 29.7 123.0 C 29.1 114.4 29.8 105.8 29.4 97.1 C 29.5 95.8 28.3 94.7 27.0 94.6 C 22.0 94.1 16.8 95.4 12.1 93.1 C 6.8 90.7 4.4 84.5 4.5 79.0 C 4.5 63.7 4.5 48.3 4.5 33.0 C 4.6 29.1 4.8 24.7 7.9 21.9 C 12.8 17.1 17.5 12.1 22.4 7.4 M 27.4 8.1 C 24.1 9.3 22.5 12.6 19.9 14.7 C 17.8 16.4 16.0 18.3 14.3 20.4 C 12.5 22.6 9.1 23.3 8.3 26.3 C 6.0 33.7 6.8 41.5 6.7 49.0 C 6.9 60.9 5.9 72.8 7.6 84.6 C 8.0 88.0 10.7 91.0 14.1 91.5 C 18.3 92.2 22.6 92.3 26.9 92.4 C 28.7 92.3 30.1 93.6 31.5 94.5 C 32.1 105.0 30.7 115.7 33.0 126.1 C 34.7 131.7 41.5 130.7 46.0 131.3 C 68.7 131.4 91.3 131.4 114.0 131.3 C 118.1 130.5 123.7 131.7 126.3 127.6 C 128.1 123.7 127.9 119.2 128.3 115.0 C 128.4 102.0 128.3 89.0 128.4 76.0 C 128.5 70.9 128.2 65.7 127.2 60.7 C 126.7 58.1 124.7 55.9 122.3 54.9 C 116.6 53.3 110.4 53.4 104.7 54.9 C 101.6 56.2 100.1 59.9 96.8 60.7 C 93.5 61.4 91.7 58.1 89.5 56.4 C 86.8 53.8 82.6 54.5 79.7 52.3 C 78.2 51.0 78.4 48.8 78.3 47.0 C 78.3 38.6 78.4 30.3 78.3 22.0 C 78.1 18.4 78.0 14.7 76.7 11.4 C 74.1 7.7 69.2 6.9 65.0 6.7 C 56.7 6.6 48.4 6.7 40.1 6.6 C 35.8 6.6 31.4 6.6 27.4 8.1 Z" />
<path fill="#0a2342" stroke="#0a2342" stroke-width="0.09375" opacity="0.42" d=" M 27.4 8.1 C 31.4 6.6 35.8 6.6 40.1 6.6 C 48.4 6.7 56.7 6.6 65.0 6.7 C 69.2 6.9 74.1 7.7 76.7 11.4 C 78.0 14.7 78.1 18.4 78.3 22.0 C 78.4 30.3 78.3 38.6 78.3 47.0 C 78.4 48.8 78.2 51.0 79.7 52.3 C 82.6 54.5 86.8 53.8 89.5 56.4 C 91.7 58.1 93.5 61.4 96.8 60.7 C 100.1 59.9 101.6 56.2 104.7 54.9 C 110.4 53.4 116.6 53.3 122.3 54.9 C 124.7 55.9 126.7 58.1 127.2 60.7 C 128.2 65.7 128.5 70.9 128.4 76.0 C 128.3 89.0 128.4 102.0 128.3 115.0 C 127.9 119.2 128.1 123.7 126.3 127.6 C 123.7 131.7 118.1 130.5 114.0 131.3 C 91.3 131.4 68.7 131.4 46.0 131.3 C 41.5 130.7 34.7 131.7 33.0 126.1 C 30.7 115.7 32.1 105.0 31.5 94.5 C 30.1 93.6 28.7 92.3 26.9 92.4 C 22.6 92.3 18.3 92.2 14.1 91.5 C 10.7 91.0 8.0 88.0 7.6 84.6 C 5.9 72.8 6.9 60.9 6.7 49.0 C 6.8 41.5 6.0 33.7 8.3 26.3 C 9.1 23.3 12.5 22.6 14.3 20.4 C 16.0 18.3 17.8 16.4 19.9 14.7 C 22.5 12.6 24.1 9.3 27.4 8.1 M 28.3 10.4 C 25.6 11.4 24.3 14.4 22.1 16.2 C 18.7 19.1 16.0 22.7 12.5 25.5 C 9.8 27.4 10.1 31.1 9.8 34.0 C 9.6 48.3 9.8 62.6 9.7 77.0 C 9.7 80.8 9.7 85.4 13.0 88.0 C 17.8 90.2 23.2 88.7 28.2 89.7 C 30.8 90.8 33.2 92.8 34.5 95.4 C 35.2 102.6 34.8 109.8 34.8 117.0 C 35.1 120.3 35.2 124.0 37.5 126.6 C 40.3 128.2 43.8 128.1 47.0 128.3 C 69.0 128.3 91.0 128.3 113.0 128.3 C 116.2 128.1 119.7 128.2 122.5 126.5 C 125.2 123.8 125.2 119.6 125.3 116.0 C 125.2 100.4 125.3 84.7 125.3 69.0 C 125.0 65.5 125.2 61.2 122.2 58.7 C 117.8 56.3 112.4 56.4 107.6 57.5 C 102.8 58.3 101.2 65.0 96.0 64.7 C 91.2 64.9 89.5 59.0 85.1 57.9 C 80.4 56.4 75.1 52.5 75.3 47.0 C 75.2 38.0 75.4 29.0 75.3 20.0 C 75.1 16.8 75.1 12.9 72.2 10.7 C 70.4 9.6 68.1 9.7 66.0 9.7 C 55.7 9.7 45.4 9.7 35.0 9.7 C 32.8 9.7 30.5 9.7 28.3 10.4 Z" />
<path fill="#0e3059" stroke="#0e3059" stroke-width="0.09375" opacity="0.60" d=" M 28.3 10.4 C 30.5 9.7 32.8 9.7 35.0 9.7 C 45.4 9.7 55.7 9.7 66.0 9.7 C 68.1 9.7 70.4 9.6 72.2 10.7 C 75.1 12.9 75.1 16.8 75.3 20.0 C 75.4 29.0 75.2 38.0 75.3 47.0 C 75.1 52.5 80.4 56.4 85.1 57.9 C 89.5 59.0 91.2 64.9 96.0 64.7 C 101.2 65.0 102.8 58.3 107.6 57.5 C 112.4 56.4 117.8 56.3 122.2 58.7 C 125.2 61.2 125.0 65.5 125.3 69.0 C 125.3 84.7 125.2 100.4 125.3 116.0 C 125.2 119.6 125.2 123.8 122.5 126.5 C 119.7 128.2 116.2 128.1 113.0 128.3 C 91.0 128.3 69.0 128.3 47.0 128.3 C 43.8 128.1 40.3 128.2 37.5 126.6 C 35.2 124.0 35.1 120.3 34.8 117.0 C 34.8 109.8 35.2 102.6 34.5 95.4 C 33.2 92.8 30.8 90.8 28.2 89.7 C 23.2 88.7 17.8 90.2 13.0 88.0 C 9.7 85.4 9.7 80.8 9.7 77.0 C 9.8 62.6 9.6 48.3 9.8 34.0 C 10.1 31.1 9.8 27.4 12.5 25.5 C 16.0 22.7 18.7 19.1 22.1 16.2 C 24.3 14.4 25.6 11.4 28.3 10.4 M 28.7 14.1 C 28.5 16.4 28.5 18.6 28.5 20.9 C 26.3 21.0 24.1 20.9 22.0 21.2 C 20.7 23.2 21.6 25.9 21.4 28.2 C 19.1 28.4 16.8 27.9 14.6 28.6 C 13.9 30.3 14.3 32.2 14.2 33.9 C 14.5 50.8 13.9 67.7 14.5 84.5 C 20.3 85.1 26.1 84.6 31.9 84.7 C 32.6 88.5 35.6 91.2 39.2 92.2 C 39.2 102.5 39.0 112.9 39.3 123.2 C 39.7 124.6 42.0 123.7 43.0 124.0 C 69.1 123.9 95.1 124.1 121.2 123.9 C 121.4 103.2 121.2 82.5 121.2 61.7 C 116.5 61.4 111.8 61.4 107.0 61.6 C 105.0 63.9 104.1 66.9 102.7 69.5 C 98.2 69.5 93.8 69.5 89.3 69.5 C 87.3 66.4 86.7 60.5 81.8 61.4 C 80.8 61.4 79.7 61.5 78.7 61.5 C 77.3 57.9 74.8 54.6 70.9 53.9 C 70.9 40.6 71.0 27.4 70.8 14.2 C 56.8 13.8 42.7 14.0 28.7 14.1 Z" />
<path fill="#ffffff" stroke="#ffffff" stroke-width="0.09375" opacity="1.00" d=" M 28.7 14.1 C 42.7 14.0 56.8 13.8 70.8 14.2 C 71.0 27.4 70.9 40.6 70.9 53.9 C 70.7 59.4 71.9 64.9 70.8 70.4 C 68.5 70.5 66.2 70.5 63.9 70.5 C 63.9 71.5 63.9 72.4 63.8 73.4 C 63.8 74.8 63.8 76.2 63.7 77.6 C 61.4 77.7 59.1 77.7 56.7 77.7 C 56.7 80.0 56.7 82.3 56.6 84.7 C 54.2 84.7 51.8 84.6 49.5 84.7 C 43.6 85.7 37.8 84.8 31.9 84.7 C 26.1 84.6 20.3 85.1 14.5 84.5 C 13.9 67.7 14.5 50.8 14.2 33.9 C 14.3 32.2 13.9 30.3 14.6 28.6 C 16.8 27.9 19.1 28.4 21.4 28.2 C 21.6 25.9 20.7 23.2 22.0 21.2 C 24.1 20.9 26.3 21.0 28.5 20.9 C 28.5 18.6 28.5 16.4 28.7 14.1 M 33.9 20.9 C 42.6 21.2 51.3 20.9 60.0 21.0 C 61.1 21.3 63.6 20.4 63.7 22.1 C 64.2 32.3 63.6 42.4 64.0 52.5 C 63.9 57.1 63.4 61.9 65.1 66.2 C 65.4 64.6 65.6 62.9 65.6 61.2 C 65.6 47.2 65.6 33.2 65.6 19.2 C 56.1 19.2 46.5 19.3 37.0 19.2 C 36.0 19.5 32.1 18.7 33.9 20.9 M 26.4 28.2 C 36.5 28.3 46.6 28.1 56.6 28.3 C 57.0 36.7 56.4 45.1 56.9 53.4 C 56.1 58.3 57.9 63.0 56.9 67.8 C 57.1 69.6 55.5 72.8 58.5 73.0 C 58.7 69.0 58.4 65.1 58.6 61.2 C 58.7 49.5 58.6 37.9 58.6 26.2 C 49.1 26.2 39.6 26.3 30.0 26.2 C 28.6 26.5 25.7 25.6 26.4 28.2 M 19.5 33.5 C 19.5 48.8 19.5 64.2 19.5 79.5 C 23.6 79.5 27.7 79.5 31.8 79.5 C 34.3 79.5 36.8 79.5 39.3 79.5 C 41.1 79.5 42.9 79.5 44.7 79.5 C 47.0 79.5 49.2 79.5 51.5 79.5 C 51.4 70.5 51.5 61.6 51.4 52.6 C 51.7 46.3 51.4 39.9 51.5 33.5 C 40.8 33.5 30.2 33.5 19.5 33.5 Z" />
<path fill="#0e325c" stroke="#0e325c" stroke-width="0.09375" opacity="0.71" d=" M 33.9 20.9 C 32.1 18.7 36.0 19.5 37.0 19.2 C 46.5 19.3 56.1 19.2 65.6 19.2 C 65.6 33.2 65.6 47.2 65.6 61.2 C 65.3 58.3 64.6 55.4 64.0 52.5 C 63.6 42.4 64.2 32.3 63.7 22.1 C 63.6 20.4 61.1 21.3 60.0 21.0 C 51.3 20.9 42.6 21.2 33.9 20.9 Z" />
<path fill="#0e325c" stroke="#0e325c" stroke-width="0.09375" opacity="0.71" d=" M 26.4 28.2 C 25.7 25.6 28.6 26.5 30.0 26.2 C 39.6 26.3 49.1 26.2 58.6 26.2 C 58.6 37.9 58.7 49.5 58.6 61.2 C 58.3 58.5 57.6 56.0 56.9 53.4 C 56.4 45.1 57.0 36.7 56.6 28.3 C 46.6 28.1 36.5 28.3 26.4 28.2 Z" />
<path fill="#0e325c" stroke="#0e325c" stroke-width="0.09375" opacity="0.68" d=" M 19.5 33.5 C 30.2 33.5 40.8 33.5 51.5 33.5 C 51.4 39.9 51.7 46.3 51.4 52.6 L 49.9 53.9 C 49.8 52.5 49.6 51.1 49.3 49.7 C 40.0 49.3 30.7 49.5 21.4 49.6 C 21.4 51.3 21.4 53.0 21.4 54.6 C 26.0 54.8 30.6 54.8 35.2 54.7 L 35.2 56.5 C 30.6 56.5 26.0 56.5 21.4 56.6 C 21.4 58.2 21.4 59.8 21.5 61.5 C 27.4 62.2 33.3 61.5 39.1 61.9 L 38.3 62.9 C 32.8 63.5 27.2 63.2 21.7 63.8 C 21.4 65.4 21.4 67.0 21.3 68.6 C 24.3 68.7 27.4 68.7 30.5 68.8 C 33.4 69.7 36.3 70.6 39.3 70.7 C 33.3 70.8 27.4 70.6 21.4 70.9 C 21.4 72.5 21.4 74.2 21.4 75.8 C 24.9 76.0 28.3 76.0 31.8 76.0 C 31.8 76.9 31.8 78.6 31.8 79.5 C 27.7 79.5 23.6 79.5 19.5 79.5 C 19.5 64.2 19.5 48.8 19.5 33.5 M 21.4 35.4 C 21.4 37.1 21.3 38.7 21.6 40.3 C 30.9 40.6 40.2 40.7 49.4 40.3 C 49.6 38.7 49.7 37.1 49.6 35.4 C 40.2 35.1 30.8 35.1 21.4 35.4 M 21.7 42.7 C 21.1 44.2 21.3 45.8 21.6 47.3 C 30.9 47.7 40.2 47.4 49.5 47.5 C 49.5 45.8 49.6 44.1 49.6 42.5 C 42.1 42.0 34.6 42.4 27.1 42.2 C 25.3 42.3 23.4 42.0 21.7 42.7 Z" />
<path fill="#ffffff" stroke="#ffffff" stroke-width="0.09375" opacity="1.00" d=" M 21.4 35.4 C 30.8 35.1 40.2 35.1 49.6 35.4 C 49.7 37.1 49.6 38.7 49.4 40.3 C 40.2 40.7 30.9 40.6 21.6 40.3 C 21.3 38.7 21.4 37.1 21.4 35.4 Z" />
<path fill="#ffffff" stroke="#ffffff" stroke-width="0.09375" opacity="1.00" d=" M 21.7 42.7 C 23.4 42.0 25.3 42.3 27.1 42.2 C 34.6 42.4 42.1 42.0 49.6 42.5 C 49.6 44.1 49.5 45.8 49.5 47.5 C 40.2 47.4 30.9 47.7 21.6 47.3 C 21.3 45.8 21.1 44.2 21.7 42.7 Z" />
<path fill="#ffffff" stroke="#ffffff" stroke-width="0.09375" opacity="1.00" d=" M 21.4 49.6 C 30.7 49.5 40.0 49.3 49.3 49.7 C 49.6 51.1 49.8 52.5 49.9 53.9 C 49.6 54.1 49.0 54.5 48.7 54.7 C 44.2 54.7 39.7 54.7 35.2 54.7 C 30.6 54.8 26.0 54.8 21.4 54.6 C 21.4 53.0 21.4 51.3 21.4 49.6 Z" />
<path fill="#134179" stroke="#134179" stroke-width="0.09375" opacity="0.87" d=" M 49.9 53.9 L 51.4 52.6 C 51.5 61.6 51.4 70.5 51.5 79.5 C 49.2 79.5 47.0 79.5 44.7 79.5 C 44.7 78.6 44.7 76.9 44.7 76.0 C 46.3 76.0 47.9 75.9 49.5 75.9 C 49.6 74.2 49.6 72.6 49.6 71.0 C 46.2 70.7 42.8 70.5 39.3 70.7 C 36.3 70.6 33.4 69.7 30.5 68.8 C 36.8 68.5 43.1 69.8 49.4 68.6 C 49.9 66.9 50.2 65.2 50.7 63.5 L 49.7 63.5 C 46.0 62.9 42.1 62.6 38.3 62.9 L 39.1 61.9 C 42.7 62.2 46.2 62.0 49.7 61.7 C 49.7 60.0 49.5 58.4 49.3 56.7 C 44.7 56.3 39.9 56.6 35.2 56.5 L 35.2 54.7 C 39.7 54.7 44.2 54.7 48.7 54.7 C 49.0 54.5 49.6 54.1 49.9 53.9 Z" />
<path fill="#134179" stroke="#134179" stroke-width="0.09375" opacity="0.87" d=" M 64.0 52.5 C 64.6 55.4 65.3 58.3 65.6 61.2 C 65.6 62.9 65.4 64.6 65.1 66.2 C 63.4 61.9 63.9 57.1 64.0 52.5 Z" />
<path fill="#134179" stroke="#134179" stroke-width="0.09375" opacity="0.87" d=" M 56.9 53.4 C 57.6 56.0 58.3 58.5 58.6 61.2 C 58.4 65.1 58.7 69.0 58.5 73.0 C 55.5 72.8 57.1 69.6 56.9 67.8 C 57.9 63.0 56.1 58.3 56.9 53.4 Z" />
<path fill="#13437d" stroke="#13437d" stroke-width="0.09375" opacity="0.82" d=" M 70.9 53.9 C 74.8 54.6 77.3 57.9 78.7 61.5 C 76.5 61.5 74.4 61.5 72.2 61.5 C 72.2 63.5 72.2 65.4 72.2 67.3 C 74.3 67.2 76.3 67.2 78.3 67.2 C 79.5 67.2 80.7 67.2 81.8 67.2 L 81.8 67.2 C 77.7 68.9 76.6 73.5 74.7 77.1 C 73.8 76.4 72.9 75.8 71.9 75.2 C 70.7 74.7 69.5 74.3 68.3 73.9 C 66.8 73.7 65.3 73.5 63.8 73.4 C 63.9 72.4 63.9 71.5 63.9 70.5 C 66.2 70.5 68.5 70.5 70.8 70.4 C 71.9 64.9 70.7 59.4 70.9 53.9 Z" />
<path fill="#ffffff" stroke="#ffffff" stroke-width="0.09375" opacity="1.00" d=" M 21.4 56.6 C 26.0 56.5 30.6 56.5 35.2 56.5 C 39.9 56.6 44.7 56.3 49.3 56.7 C 49.5 58.4 49.7 60.0 49.7 61.7 C 46.2 62.0 42.7 62.2 39.1 61.9 C 33.3 61.5 27.4 62.2 21.5 61.5 C 21.4 59.8 21.4 58.2 21.4 56.6 Z" />
<path fill="#8fadd1" stroke="#8fadd1" stroke-width="0.09375" opacity="1.00" d=" M 72.2 61.5 C 74.4 61.5 76.5 61.5 78.7 61.5 C 78.5 63.4 78.4 65.3 78.3 67.2 C 76.3 67.2 74.3 67.2 72.2 67.3 C 72.2 65.4 72.2 63.5 72.2 61.5 Z" />
<path fill="#e6ebf1" stroke="#e6ebf1" stroke-width="0.09375" opacity="1.00" d=" M 78.7 61.5 C 79.7 61.5 80.8 61.4 81.8 61.4 C 81.8 63.3 81.8 65.3 81.8 67.2 C 80.7 67.2 79.5 67.2 78.3 67.2 C 78.4 65.3 78.5 63.4 78.7 61.5 Z" />
<path fill="#ffffff" stroke="#ffffff" stroke-width="0.09375" opacity="1.00" d=" M 81.8 61.4 C 86.7 60.5 87.3 66.4 89.3 69.5 C 93.8 69.5 98.2 69.5 102.7 69.5 C 104.1 66.9 105.0 63.9 107.0 61.6 C 111.8 61.4 116.5 61.4 121.2 61.7 C 121.2 82.5 121.4 103.2 121.2 123.9 C 95.1 124.1 69.1 123.9 43.0 124.0 C 42.0 123.7 39.7 124.6 39.3 123.2 C 39.7 113.3 38.9 103.3 39.9 93.4 C 41.3 93.4 42.7 93.4 44.1 93.4 C 45.0 101.8 44.4 110.3 44.5 118.7 C 46.0 118.7 47.5 118.6 49.0 118.5 C 49.0 114.6 49.0 110.7 49.2 106.8 C 69.9 106.7 90.7 106.7 111.4 106.8 C 111.5 110.7 111.5 114.6 111.5 118.5 C 112.9 118.5 114.2 118.5 115.6 118.5 C 115.6 101.4 115.6 84.3 115.6 67.2 C 114.0 67.3 112.4 67.3 110.8 67.3 C 109.5 69.8 108.2 72.4 107.0 74.9 C 99.9 75.1 92.9 75.0 85.8 75.0 C 84.4 72.5 83.1 69.9 81.8 67.2 L 81.8 67.2 C 81.8 65.3 81.8 63.3 81.8 61.4 M 54.6 112.3 C 54.6 114.4 54.6 116.4 54.6 118.5 C 71.7 118.5 88.8 118.5 105.9 118.5 C 105.9 116.4 105.9 114.3 105.9 112.3 C 88.8 112.3 71.7 112.2 54.6 112.3 Z" />
<path fill="#5e799b" stroke="#5e799b" stroke-width="0.09375" opacity="0.90" d=" M 21.7 63.8 C 27.2 63.2 32.8 63.5 38.3 62.9 C 42.1 62.6 46.0 62.9 49.7 63.5 C 40.4 64.1 31.0 64.1 21.7 63.8 Z" />
<path fill="#ffffff" stroke="#ffffff" stroke-width="0.09375" opacity="1.00" d=" M 21.3 68.6 C 21.4 67.0 21.4 65.4 21.7 63.8 C 31.0 64.1 40.4 64.1 49.7 63.5 L 50.7 63.5 C 50.2 65.2 49.9 66.9 49.4 68.6 C 43.1 69.8 36.8 68.5 30.5 68.8 C 27.4 68.7 24.3 68.7 21.3 68.6 Z" />
<path fill="#0e315b" stroke="#0e315b" stroke-width="0.09375" opacity="0.61" d=" M 110.8 67.3 C 112.4 67.3 114.0 67.3 115.6 67.2 C 115.6 84.3 115.6 101.4 115.6 118.5 C 114.2 118.5 112.9 118.5 111.5 118.5 C 111.5 114.6 111.5 110.7 111.4 106.8 C 90.7 106.7 69.9 106.7 49.2 106.8 C 49.0 110.7 49.0 114.6 49.0 118.5 C 47.6 118.5 46.2 118.4 44.9 118.3 C 44.8 109.8 44.9 101.2 44.8 92.7 C 46.3 92.6 47.8 92.5 49.3 92.5 C 49.4 92.9 49.8 93.8 49.9 94.2 C 50.3 95.0 50.6 95.8 51.0 96.6 C 53.7 101.1 58.6 104.5 64.0 104.4 C 72.1 105.0 79.8 98.2 80.1 90.1 C 80.5 85.2 78.4 80.4 74.9 77.2 L 74.7 77.1 C 76.6 73.5 77.7 68.9 81.8 67.2 C 83.1 69.9 84.4 72.5 85.8 75.0 C 92.9 75.0 99.9 75.1 107.0 74.9 C 108.2 72.4 109.5 69.8 110.8 67.3 M 93.5 77.6 C 90.1 78.2 87.1 80.6 85.6 83.6 C 82.2 89.8 85.8 98.7 92.9 100.1 C 99.9 102.2 107.9 96.4 107.5 89.0 C 107.9 81.8 100.5 75.8 93.5 77.6 Z" />
<path fill="#ffffff" stroke="#ffffff" stroke-width="0.09375" opacity="1.00" d=" M 39.3 70.7 C 42.8 70.5 46.2 70.7 49.6 71.0 C 49.6 72.6 49.6 74.2 49.5 75.9 C 47.9 75.9 46.3 76.0 44.7 76.0 C 42.9 76.0 41.1 76.0 39.3 76.0 C 36.8 76.0 34.3 76.0 31.8 76.0 C 28.3 76.0 24.9 76.0 21.4 75.8 C 21.4 74.2 21.4 72.5 21.4 70.9 C 27.4 70.6 33.3 70.8 39.3 70.7 Z" />
<path fill="#7396bf" stroke="#7396bf" stroke-width="0.09375" opacity="1.00" d=" M 63.8 73.4 C 65.3 73.5 66.8 73.7 68.3 73.9 C 66.3 78.8 61.8 81.7 58.5 85.5 C 56.3 88.1 52.7 88.0 49.7 88.8 C 49.7 89.5 49.8 91.1 49.8 91.8 C 49.8 92.4 49.9 93.6 49.9 94.2 C 49.8 93.8 49.4 92.9 49.3 92.5 C 49.0 89.9 49.3 87.3 49.5 84.7 C 51.8 84.6 54.2 84.7 56.6 84.7 C 56.7 82.3 56.7 80.0 56.7 77.7 C 59.1 77.7 61.4 77.7 63.7 77.6 C 63.8 76.2 63.8 74.8 63.8 73.4 Z" />
<path fill="#96b2d4" stroke="#96b2d4" stroke-width="0.09375" opacity="1.00" d=" M 68.3 73.9 C 69.5 74.3 70.7 74.7 71.9 75.2 C 68.9 79.0 65.1 82.2 62.5 86.3 C 62.2 87.4 61.8 88.5 61.7 89.6 C 57.9 91.3 53.9 91.8 49.8 91.8 C 49.8 91.1 49.7 89.5 49.7 88.8 C 52.7 88.0 56.3 88.1 58.5 85.5 C 61.8 81.7 66.3 78.8 68.3 73.9 Z" />
<path fill="#113d75" stroke="#113d75" stroke-width="0.09375" opacity="0.84" d=" M 31.8 76.0 C 34.3 76.0 36.8 76.0 39.3 76.0 C 39.3 76.9 39.3 78.6 39.3 79.5 C 36.8 79.5 34.3 79.5 31.8 79.5 C 31.8 78.6 31.8 76.9 31.8 76.0 Z" />
<path fill="#6386b0" stroke="#6386b0" stroke-width="0.09375" opacity="1.00" d=" M 39.3 76.0 C 41.1 76.0 42.9 76.0 44.7 76.0 C 44.7 76.9 44.7 78.6 44.7 79.5 C 42.9 79.5 41.1 79.5 39.3 79.5 C 39.3 78.6 39.3 76.9 39.3 76.0 Z" />
<path fill="#b9cadf" stroke="#b9cadf" stroke-width="0.09375" opacity="1.00" d=" M 62.5 86.3 C 65.1 82.2 68.9 79.0 71.9 75.2 C 72.9 75.8 73.8 76.4 74.7 77.1 L 74.9 77.2 C 72.0 80.0 69.3 83.1 66.6 86.1 C 65.2 86.1 63.9 86.2 62.5 86.3 Z" />
<path fill="#ffffff" stroke="#ffffff" stroke-width="0.09375" opacity="1.00" d=" M 93.5 77.6 C 100.5 75.8 107.9 81.8 107.5 89.0 C 107.9 96.4 99.9 102.2 92.9 100.1 C 85.8 98.7 82.2 89.8 85.6 83.6 C 87.1 80.6 90.1 78.2 93.5 77.6 M 94.3 86.4 C 91.0 88.4 94.3 93.9 97.7 91.5 C 101.0 89.6 97.5 84.0 94.3 86.4 Z" />
<path fill="#ffffff" stroke="#ffffff" stroke-width="0.09375" opacity="1.00" d=" M 66.6 86.1 C 69.3 83.1 72.0 80.0 74.9 77.2 C 78.4 80.4 80.5 85.2 80.1 90.1 C 79.8 98.2 72.1 105.0 64.0 104.4 C 58.6 104.5 53.7 101.1 51.0 96.6 C 55.2 95.2 59.5 93.9 63.7 92.4 C 65.1 91.7 67.2 91.5 67.5 89.6 C 67.7 88.4 66.9 87.3 66.6 86.1 Z" />
<path fill="#13447d" stroke="#13447d" stroke-width="0.09375" opacity="0.84" d=" M 31.9 84.7 C 37.8 84.8 43.6 85.7 49.5 84.7 C 49.3 87.3 49.0 89.9 49.3 92.5 C 47.8 92.5 46.3 92.6 44.8 92.7 C 44.8 90.5 44.7 88.4 44.6 86.3 C 42.9 86.3 41.1 86.3 39.4 86.3 C 39.3 88.2 39.2 90.2 39.2 92.2 C 35.6 91.2 32.6 88.5 31.9 84.7 Z" />
<path fill="#0e325c" stroke="#0e325c" stroke-width="0.09375" opacity="0.71" d=" M 62.5 86.3 C 63.9 86.2 65.2 86.1 66.6 86.1 C 66.9 87.3 67.7 88.4 67.5 89.6 C 67.2 91.5 65.1 91.7 63.7 92.4 C 63.2 91.7 62.2 90.3 61.7 89.6 C 61.8 88.5 62.2 87.4 62.5 86.3 Z" />
<path fill="#0d315b" stroke="#0d315b" stroke-width="0.09375" opacity="0.69" d=" M 94.3 86.4 C 97.5 84.0 101.0 89.6 97.7 91.5 C 94.3 93.9 91.0 88.4 94.3 86.4 Z" />
<path fill="#9cb6d6" stroke="#9cb6d6" stroke-width="0.09375" opacity="1.00" d=" M 39.4 86.3 C 41.1 86.3 42.9 86.3 44.6 86.3 C 44.7 88.4 44.8 90.5 44.8 92.7 C 44.9 101.2 44.8 109.8 44.9 118.3 C 46.2 118.4 47.6 118.5 49.0 118.5 C 47.5 118.6 46.0 118.7 44.5 118.7 C 44.4 110.3 45.0 101.8 44.1 93.4 C 42.7 93.4 41.3 93.4 39.9 93.4 C 38.9 103.3 39.7 113.3 39.3 123.2 C 39.0 112.9 39.2 102.5 39.2 92.2 C 39.2 90.2 39.3 88.2 39.4 86.3 Z" />
<path fill="#d9e1eb" stroke="#d9e1eb" stroke-width="0.09375" opacity="1.00" d=" M 49.8 91.8 C 53.9 91.8 57.9 91.3 61.7 89.6 C 62.2 90.3 63.2 91.7 63.7 92.4 C 59.5 93.9 55.2 95.2 51.0 96.6 C 50.6 95.8 50.3 95.0 49.9 94.2 C 49.9 93.6 49.8 92.4 49.8 91.8 Z" />
<path fill="#0e315b" stroke="#0e315b" stroke-width="0.09375" opacity="0.62" d=" M 54.6 112.3 C 71.7 112.2 88.8 112.3 105.9 112.3 C 105.9 114.3 105.9 116.4 105.9 118.5 C 88.8 118.5 71.7 118.5 54.6 118.5 C 54.6 116.4 54.6 114.4 54.6 112.3 Z" />
</svg>
