<?xml version="1.0" encoding="UTF-8" ?>
<!DOCTYPE svg PUBLIC "-//W3C//DTD SVG 1.1//EN" "http://www.w3.org/Graphics/SVG/1.1/DTD/svg11.dtd">
<svg width="205pt" height="205pt" viewBox="0 0 205 205" version="1.1" xmlns="http://www.w3.org/2000/svg">
<path fill="#040f1c" stroke="#040f1c" stroke-width="0.09375" opacity="0.21" d=" M 54.3 12.2 C 57.8 9.9 62.1 10.3 66.1 10.7 C 72.4 12.3 75.7 18.6 80.9 22.0 C 84.9 24.2 89.6 23.2 94.0 23.4 C 99.0 23.4 104.6 25.9 106.3 30.9 C 109.2 36.9 105.8 44.1 109.0 50.0 C 112.0 53.6 115.9 56.5 118.3 60.7 C 120.5 64.1 120.3 68.4 121.8 72.2 C 126.6 73.1 131.5 73.1 136.2 74.6 C 140.6 75.8 143.5 79.5 146.6 82.5 C 147.9 82.5 149.1 82.5 150.4 82.5 C 153.5 79.4 156.5 75.9 160.8 74.6 C 170.3 71.9 180.6 71.7 190.0 74.9 C 196.5 77.7 199.3 85.3 199.5 91.9 C 199.5 118.6 199.5 145.3 199.5 172.0 C 199.5 178.6 197.3 185.9 191.3 189.4 C 186.9 191.7 181.8 191.9 177.0 192.5 C 142.3 192.5 107.6 192.5 72.9 192.5 C 67.1 191.7 60.2 191.7 55.8 187.2 C 51.7 183.0 50.4 176.7 50.5 171.0 C 50.6 156.6 50.5 142.3 50.5 128.0 C 50.8 122.6 47.2 118.0 43.1 115.1 C 37.5 111.9 30.6 115.2 24.9 112.3 C 20.0 110.5 17.4 105.0 17.5 100.1 C 17.3 96.0 18.1 91.6 16.0 88.0 C 12.6 82.7 6.3 79.4 4.7 73.1 C 4.3 70.0 4.3 67.0 4.7 63.9 C 6.5 55.8 16.9 52.7 17.4 44.0 C 17.5 38.1 16.7 31.0 21.7 26.6 C 26.9 22.3 33.9 23.8 40.0 23.2 C 46.1 21.6 49.1 15.3 54.3 12.2 M 58.5 13.8 C 52.1 16.1 48.8 22.6 43.2 26.2 C 36.7 27.3 29.0 24.9 23.4 29.5 C 19.0 34.9 21.2 42.2 20.3 48.6 C 18.1 53.3 13.7 56.5 10.3 60.4 C 6.4 64.8 6.4 72.1 10.3 76.5 C 13.7 80.5 18.3 83.7 20.3 88.7 C 21.0 93.1 20.0 97.5 20.8 101.9 C 21.6 104.8 22.8 108.2 26.0 109.1 C 31.3 111.8 37.5 109.5 43.1 110.9 C 48.8 114.1 52.1 120.3 54.4 126.2 C 54.8 141.5 54.3 156.8 54.6 172.1 C 55.2 175.8 55.1 180.1 57.8 183.1 C 60.3 185.9 64.1 188.2 67.9 187.3 L 67.2 188.3 C 69.4 189.0 71.7 189.5 74.0 189.4 C 108.0 189.4 142.0 189.5 176.0 189.4 C 180.8 188.9 186.0 188.8 190.3 186.3 C 194.9 183.2 196.3 177.2 196.4 171.9 C 196.4 145.6 196.4 119.3 196.4 93.0 C 196.3 87.1 194.4 79.8 188.2 77.6 C 179.3 75.0 169.7 75.0 160.9 77.8 C 156.1 79.4 154.1 85.2 149.0 86.3 C 144.9 86.5 142.6 82.5 139.8 80.2 C 135.5 76.2 129.4 76.5 124.0 75.7 C 122.3 75.4 120.1 75.7 119.0 74.0 C 118.3 71.3 118.1 68.4 117.5 65.7 L 116.5 66.6 C 116.5 65.9 116.4 64.6 116.4 63.9 C 113.2 58.6 107.3 55.3 104.7 49.5 C 104.0 44.8 105.0 39.9 104.2 35.2 C 103.4 32.5 102.5 29.3 99.6 28.2 C 93.7 25.2 87.0 27.3 80.8 26.2 C 75.8 23.0 72.7 17.5 67.5 14.7 C 64.8 13.1 61.5 13.3 58.5 13.8 Z" />
<path fill="#0c2b4e" stroke="#0c2b4e" stroke-width="0.09375" opacity="0.49" d=" M 58.5 13.8 C 61.5 13.3 64.8 13.1 67.5 14.7 C 72.7 17.5 75.8 23.0 80.8 26.2 C 87.0 27.3 93.7 25.2 99.6 28.2 C 102.5 29.3 103.4 32.5 104.2 35.2 C 105.0 39.9 104.0 44.8 104.7 49.5 C 107.3 55.3 113.2 58.6 116.4 63.9 C 116.4 64.6 116.5 65.9 116.5 66.6 C 116.5 70.1 115.8 74.8 119.1 77.0 C 124.3 78.5 129.7 77.9 134.8 79.5 C 140.4 81.2 142.7 88.8 149.0 88.6 C 154.9 87.7 157.1 80.6 162.9 79.3 C 171.0 77.4 179.6 77.1 187.6 79.6 C 191.8 81.1 194.0 85.7 193.6 90.0 C 193.7 117.7 193.6 145.3 193.7 173.0 C 193.6 176.5 193.8 180.5 191.0 183.1 C 187.7 186.7 182.5 186.6 178.0 186.6 C 146.7 186.7 115.4 186.6 84.0 186.7 C 78.7 186.7 73.2 186.2 67.9 187.3 C 64.1 188.2 60.3 185.9 57.8 183.1 C 55.1 180.1 55.2 175.8 54.6 172.1 C 54.3 156.8 54.8 141.5 54.4 126.2 C 52.1 120.3 48.8 114.1 43.1 110.9 C 37.5 109.5 31.3 111.8 26.0 109.1 C 22.8 108.2 21.6 104.8 20.8 101.9 C 20.0 97.5 21.0 93.1 20.3 88.7 C 18.3 83.7 13.7 80.5 10.3 76.5 C 6.4 72.1 6.4 64.8 10.3 60.4 C 13.7 56.5 18.1 53.3 20.3 48.6 C 21.2 42.2 19.0 34.9 23.4 29.5 C 29.0 24.9 36.7 27.3 43.2 26.2 C 48.8 22.6 52.1 16.1 58.5 13.8 M 59.3 18.4 C 54.3 21.1 51.2 26.2 46.6 29.4 C 40.4 32.4 32.5 28.4 26.7 32.7 C 22.0 38.7 27.0 47.4 22.5 53.6 C 19.0 58.4 12.9 61.7 11.6 67.9 C 11.6 76.7 22.7 79.4 24.3 87.6 C 24.9 91.7 24.2 95.9 24.8 100.0 C 25.2 102.8 27.0 105.8 29.9 106.3 C 35.5 107.1 41.6 105.5 46.7 108.2 C 50.9 112.1 52.5 117.8 55.6 122.4 C 57.1 125.1 59.7 127.6 59.6 131.0 C 59.6 144.6 59.5 158.3 59.5 172.0 C 59.5 175.9 61.0 180.7 65.1 181.9 C 71.3 183.5 77.7 183.5 84.0 183.4 C 111.3 183.4 138.7 183.4 166.0 183.4 C 172.3 183.5 178.7 183.4 184.9 181.9 C 188.9 180.7 190.5 175.9 190.4 172.0 C 190.4 145.7 190.5 119.3 190.4 93.0 C 190.5 88.8 188.7 83.8 184.2 82.6 C 178.0 80.9 171.2 81.1 165.1 82.9 C 160.0 84.2 158.8 90.4 154.1 92.2 C 150.7 92.9 147.1 92.8 143.6 92.3 C 138.8 90.9 137.5 84.8 132.7 83.2 C 127.7 81.0 122.1 82.1 117.0 81.1 C 112.9 75.8 115.1 67.7 110.3 62.7 C 107.7 59.7 104.4 57.3 102.1 54.0 C 98.1 47.5 103.0 38.9 98.3 32.7 C 92.5 28.4 84.7 32.2 78.3 29.6 C 73.4 27.1 70.6 21.9 66.0 19.0 C 64.0 17.8 61.4 16.9 59.3 18.4 Z" />
<path fill="#0e315a" stroke="#0e315a" stroke-width="0.09375" opacity="0.63" d=" M 59.3 18.4 C 61.4 16.9 64.0 17.8 66.0 19.0 C 70.6 21.9 73.4 27.1 78.3 29.6 C 84.7 32.2 92.5 28.4 98.3 32.7 C 103.0 38.9 98.1 47.5 102.1 54.0 C 104.4 57.3 107.7 59.7 110.3 62.7 C 115.1 67.7 112.9 75.8 117.0 81.1 C 122.1 82.1 127.7 81.0 132.7 83.2 C 137.5 84.8 138.8 90.9 143.6 92.3 C 147.1 92.8 150.7 92.9 154.1 92.2 C 158.8 90.4 160.0 84.2 165.1 82.9 C 171.2 81.1 178.0 80.9 184.2 82.6 C 188.7 83.8 190.5 88.8 190.4 93.0 C 190.5 119.3 190.4 145.7 190.4 172.0 C 190.5 175.9 188.9 180.7 184.9 181.9 C 178.7 183.4 172.3 183.5 166.0 183.4 C 138.7 183.4 111.3 183.4 84.0 183.4 C 77.7 183.5 71.3 183.5 65.1 181.9 C 61.0 180.7 59.5 175.9 59.5 172.0 C 59.5 158.3 59.6 144.6 59.6 131.0 C 59.7 127.6 57.1 125.1 55.6 122.4 C 52.5 117.8 50.9 112.1 46.7 108.2 C 41.6 105.5 35.5 107.1 29.9 106.3 C 27.0 105.8 25.2 102.8 24.8 100.0 C 24.2 95.9 24.9 91.7 24.3 87.6 C 22.7 79.4 11.6 76.7 11.6 67.9 C 12.9 61.7 19.0 58.4 22.5 53.6 C 27.0 47.4 22.0 38.7 26.7 32.7 C 32.5 28.4 40.4 32.4 46.6 29.4 C 51.2 26.2 54.3 21.1 59.3 18.4 M 61.6 20.6 C 57.0 25.0 52.6 29.6 48.1 34.0 C 41.4 34.1 34.7 33.8 28.0 34.1 C 27.5 40.9 27.9 47.7 27.7 54.4 C 23.0 59.3 18.0 63.8 13.6 68.9 C 18.2 73.7 23.1 78.4 27.8 83.2 C 27.8 89.9 27.7 96.6 27.8 103.2 C 34.6 103.8 41.4 103.4 48.1 103.5 C 49.5 104.9 50.9 106.3 52.3 107.7 C 53.3 112.1 54.1 116.7 56.5 120.6 C 58.1 123.2 61.0 124.4 63.6 125.6 C 63.6 126.1 63.6 127.3 63.6 127.8 C 63.8 144.8 63.3 161.8 63.9 178.7 C 104.6 178.7 145.3 178.8 186.0 178.7 C 186.2 177.2 186.3 175.6 186.3 174.0 C 186.2 144.7 186.4 115.4 186.2 86.0 C 179.1 85.4 172.0 85.8 165.0 85.8 C 162.9 89.7 161.0 93.6 159.1 97.5 C 152.1 97.5 145.1 97.5 138.0 97.5 C 136.1 93.6 134.2 89.6 132.1 85.8 C 124.7 85.7 117.3 85.8 109.8 85.7 C 109.3 85.7 108.4 85.8 107.9 85.8 C 110.4 84.6 110.5 81.1 111.7 78.9 C 110.3 76.8 108.9 74.9 107.3 73.1 C 108.7 71.7 110.1 70.3 111.4 68.9 C 107.0 63.8 102.0 59.2 97.2 54.4 C 97.0 47.7 97.3 40.9 97.0 34.1 C 90.3 33.8 83.6 34.0 76.8 34.0 C 72.6 30.0 68.6 25.7 64.5 21.6 C 63.7 20.9 62.5 19.3 61.6 20.6 Z" />
<path fill="#ffffff" stroke="#ffffff" stroke-width="0.09375" opacity="1.00" d=" M 61.6 20.6 C 62.5 19.3 63.7 20.9 64.5 21.6 C 68.6 25.7 72.6 30.0 76.8 34.0 C 83.6 34.0 90.3 33.8 97.0 34.1 C 97.3 40.9 97.0 47.7 97.2 54.4 C 102.0 59.2 107.0 63.8 111.4 68.9 C 110.1 70.3 108.7 71.7 107.3 73.1 C 103.9 76.4 100.5 79.9 97.1 83.2 C 97.1 83.9 97.1 85.1 97.1 85.7 C 97.0 88.2 97.0 90.7 97.1 93.3 C 97.2 96.6 97.2 99.8 96.8 103.1 L 96.7 103.1 C 90.1 103.5 83.5 103.3 76.9 103.5 C 74.8 105.5 72.8 107.6 70.8 109.6 C 68.3 111.9 66.0 114.3 63.5 116.7 C 63.2 116.9 62.6 117.3 62.2 117.6 C 58.8 114.3 55.7 110.9 52.3 107.7 C 50.9 106.3 49.5 104.9 48.1 103.5 C 41.4 103.4 34.6 103.8 27.8 103.2 C 27.7 96.6 27.8 89.9 27.8 83.2 C 23.1 78.4 18.2 73.7 13.6 68.9 C 18.0 63.8 23.0 59.3 27.7 54.4 C 27.9 47.7 27.5 40.9 28.0 34.1 C 34.7 33.8 41.4 34.1 48.1 34.0 C 52.6 29.6 57.0 25.0 61.6 20.6 M 55.8 34.0 C 60.2 34.0 64.7 34.0 69.1 34.0 C 66.9 31.7 64.7 29.5 62.5 27.3 C 60.3 29.5 58.0 31.7 55.8 34.0 M 33.1 39.5 C 33.1 42.7 33.1 45.8 33.1 49.0 C 36.3 45.8 39.5 42.7 42.6 39.5 C 39.5 39.5 36.3 39.5 33.1 39.5 M 82.3 39.5 C 85.4 43.0 89.3 45.8 92.0 49.6 C 91.6 46.2 91.8 42.9 91.7 39.5 C 88.6 39.5 85.4 39.5 82.3 39.5 M 33.2 56.5 C 33.1 64.6 33.2 72.8 33.1 80.9 C 38.4 86.2 43.7 91.4 49.0 96.7 C 49.3 97.0 49.9 97.7 50.2 98.0 C 51.9 98.0 53.7 98.0 55.4 98.0 C 61.9 98.0 68.3 97.9 74.8 98.0 C 76.6 96.2 78.4 94.4 80.2 92.6 C 82.5 90.7 84.4 88.5 86.4 86.3 C 88.2 84.5 90.0 82.8 91.8 81.0 C 91.5 72.7 92.3 64.3 91.4 56.1 C 85.7 50.8 80.3 45.1 74.8 39.6 C 66.6 39.4 58.4 39.5 50.2 39.5 C 44.6 45.2 38.9 50.9 33.2 56.5 M 21.1 68.8 C 23.3 71.0 25.5 73.3 27.7 75.5 C 27.7 71.1 27.8 66.7 27.8 62.2 C 25.4 64.3 23.3 66.6 21.1 68.8 M 97.1 62.0 C 97.1 66.5 97.1 71.1 97.1 75.6 C 99.4 73.3 101.7 71.1 103.9 68.8 C 101.7 66.5 99.4 64.3 97.1 62.0 M 33.1 88.5 C 33.1 91.7 33.1 94.8 33.1 98.0 C 36.3 98.0 39.4 98.0 42.6 98.0 C 39.5 94.8 36.3 91.7 33.1 88.5 M 87.8 92.7 C 85.9 94.4 84.1 96.2 82.4 98.0 C 85.5 98.0 88.6 98.1 91.7 97.8 L 91.7 98.4 C 92.1 95.1 91.8 91.8 91.8 88.6 C 90.4 89.9 89.1 91.3 87.8 92.7 M 55.7 103.5 C 58.1 105.8 60.4 108.2 62.8 110.4 L 63.3 109.4 C 65.3 107.5 67.3 105.4 69.3 103.5 C 67.4 103.5 65.5 103.5 63.7 103.5 C 61.0 103.5 58.4 103.5 55.7 103.5 Z" />
<path fill="#0e315b" stroke="#0e315b" stroke-width="0.09375" opacity="0.67" d=" M 55.8 34.0 C 58.0 31.7 60.3 29.5 62.5 27.3 C 64.7 29.5 66.9 31.7 69.1 34.0 C 64.7 34.0 60.2 34.0 55.8 34.0 Z" />
<path fill="#0e315b" stroke="#0e315b" stroke-width="0.09375" opacity="0.67" d=" M 33.1 39.5 C 36.3 39.5 39.5 39.5 42.6 39.5 C 39.5 42.7 36.3 45.8 33.1 49.0 C 33.1 45.8 33.1 42.7 33.1 39.5 Z" />
<path fill="#0e315b" stroke="#0e315b" stroke-width="0.09375" opacity="0.68" d=" M 82.3 39.5 C 85.4 39.5 88.6 39.5 91.7 39.5 C 91.8 42.9 91.6 46.2 92.0 49.6 C 89.3 45.8 85.4 43.0 82.3 39.5 Z" />
<path fill="#0d2f57" stroke="#0d2f57" stroke-width="0.09375" opacity="0.57" d=" M 33.2 56.5 C 38.9 50.9 44.6 45.2 50.2 39.5 C 58.4 39.5 66.6 39.4 74.8 39.6 C 80.3 45.1 85.7 50.8 91.4 56.1 C 91.1 61.6 92.1 67.3 90.8 72.8 C 88.4 76.5 83.8 78.0 79.9 79.9 C 77.0 78.0 74.5 75.6 72.5 72.8 C 73.9 68.8 73.1 64.0 69.9 61.1 C 65.9 56.9 58.5 57.2 54.6 61.5 C 50.3 65.9 51.1 73.6 55.9 77.3 C 55.3 80.7 56.6 84.0 57.4 87.2 C 57.9 88.5 56.9 89.4 56.2 90.2 C 54.0 92.6 51.4 94.6 49.0 96.7 C 43.7 91.4 38.4 86.2 33.1 80.9 C 33.2 72.8 33.1 64.6 33.2 56.5 M 54.8 45.6 C 51.3 46.9 49.3 50.2 46.7 52.7 C 44.3 55.3 41.1 57.4 39.6 60.7 C 39.1 65.6 39.5 70.6 39.5 75.5 C 40.3 79.9 44.8 82.0 48.4 83.9 C 48.6 82.0 48.8 80.0 48.0 78.1 C 46.0 72.8 45.7 66.7 47.2 61.2 C 48.8 55.5 54.7 52.6 60.2 52.4 C 65.0 52.1 70.4 52.6 74.3 55.8 C 79.1 61.0 77.9 68.6 80.4 74.7 C 81.4 74.7 82.4 74.6 83.5 74.6 C 86.5 71.2 85.5 66.4 85.6 62.3 C 85.5 58.4 81.8 56.1 79.3 53.7 C 76.3 51.1 74.1 47.3 70.3 45.6 C 65.1 45.2 59.9 45.2 54.8 45.6 Z" />
<path fill="#081c34" stroke="#081c34" stroke-width="0.09375" opacity="0.38" d=" M 54.8 45.6 C 59.9 45.2 65.1 45.2 70.3 45.6 C 74.1 47.3 76.3 51.1 79.3 53.7 C 81.8 56.1 85.5 58.4 85.6 62.3 C 85.5 66.4 86.5 71.2 83.5 74.6 C 82.4 74.6 81.4 74.7 80.4 74.7 C 77.9 68.6 79.1 61.0 74.3 55.8 C 70.4 52.6 65.0 52.1 60.2 52.4 C 54.7 52.6 48.8 55.5 47.2 61.2 C 45.7 66.7 46.0 72.8 48.0 78.1 C 48.8 80.0 48.6 82.0 48.4 83.9 C 44.8 82.0 40.3 79.9 39.5 75.5 C 39.5 70.6 39.1 65.6 39.6 60.7 C 41.1 57.4 44.3 55.3 46.7 52.7 C 49.3 50.2 51.3 46.9 54.8 45.6 Z" />
<path fill="#134178" stroke="#134178" stroke-width="0.09375" opacity="0.79" d=" M 91.4 56.1 C 92.3 64.3 91.5 72.7 91.8 81.0 C 90.0 82.8 88.2 84.5 86.4 86.3 C 82.6 85.6 78.7 85.7 74.8 85.8 C 71.1 85.8 67.5 85.7 63.8 86.0 L 63.2 86.2 C 61.1 84.4 60.2 81.9 59.8 79.3 C 65.0 80.4 70.3 77.6 72.5 72.8 C 74.5 75.6 77.0 78.0 79.9 79.9 C 83.8 78.0 88.4 76.5 90.8 72.8 C 92.1 67.3 91.1 61.6 91.4 56.1 Z" />
<path fill="#ffffff" stroke="#ffffff" stroke-width="0.09375" opacity="1.00" d=" M 54.6 61.5 C 58.5 57.2 65.9 56.9 69.9 61.1 C 73.1 64.0 73.9 68.8 72.5 72.8 C 70.3 77.6 65.0 80.4 59.8 79.3 C 58.5 78.7 57.2 78.0 55.9 77.3 C 51.1 73.6 50.3 65.9 54.6 61.5 M 60.2 64.0 C 56.4 65.5 56.1 71.3 59.7 73.3 C 62.9 75.7 67.9 72.8 67.8 68.9 C 68.1 65.2 63.6 62.2 60.2 64.0 Z" />
<path fill="#0e315b" stroke="#0e315b" stroke-width="0.09375" opacity="0.67" d=" M 21.1 68.8 C 23.3 66.6 25.4 64.3 27.8 62.2 C 27.8 66.7 27.7 71.1 27.7 75.5 C 25.5 73.3 23.3 71.0 21.1 68.8 Z" />
<path fill="#0e315b" stroke="#0e315b" stroke-width="0.09375" opacity="0.67" d=" M 97.1 62.0 C 99.4 64.3 101.7 66.5 103.9 68.8 C 101.7 71.1 99.4 73.3 97.1 75.6 C 97.1 71.1 97.1 66.5 97.1 62.0 Z" />
<path fill="#0e315b" stroke="#0e315b" stroke-width="0.09375" opacity="0.63" d=" M 60.2 64.0 C 63.6 62.2 68.1 65.2 67.8 68.9 C 67.9 72.8 62.9 75.7 59.7 73.3 C 56.1 71.3 56.4 65.5 60.2 64.0 Z" />
<path fill="#081e37" stroke="#081e37" stroke-width="0.09375" opacity="0.36" d=" M 116.5 66.6 L 117.5 65.7 C 118.1 68.4 118.3 71.3 119.0 74.0 C 120.1 75.7 122.3 75.4 124.0 75.7 C 129.4 76.5 135.5 76.2 139.8 80.2 C 142.6 82.5 144.9 86.5 149.0 86.3 C 154.1 85.2 156.1 79.4 160.9 77.8 C 169.7 75.0 179.3 75.0 188.2 77.6 C 194.4 79.8 196.3 87.1 196.4 93.0 C 196.4 119.3 196.4 145.6 196.4 171.9 C 196.3 177.2 194.9 183.2 190.3 186.3 C 186.0 188.8 180.8 188.9 176.0 189.4 C 142.0 189.5 108.0 189.4 74.0 189.4 C 71.7 189.5 69.4 189.0 67.2 188.3 L 67.9 187.3 C 73.2 186.2 78.7 186.7 84.0 186.7 C 115.4 186.6 146.7 186.7 178.0 186.6 C 182.5 186.6 187.7 186.7 191.0 183.1 C 193.8 180.5 193.6 176.5 193.7 173.0 C 193.6 145.3 193.7 117.7 193.6 90.0 C 194.0 85.7 191.8 81.1 187.6 79.6 C 179.6 77.1 171.0 77.4 162.9 79.3 C 157.1 80.6 154.9 87.7 149.0 88.6 C 142.7 88.8 140.4 81.2 134.8 79.5 C 129.7 77.9 124.3 78.5 119.1 77.0 C 115.8 74.8 116.5 70.1 116.5 66.6 Z" />
<path fill="#13427a" stroke="#13427a" stroke-width="0.09375" opacity="0.79" d=" M 97.1 83.2 C 100.5 79.9 103.9 76.4 107.3 73.1 C 108.9 74.9 110.3 76.8 111.7 78.9 C 110.5 81.1 110.4 84.6 107.9 85.8 C 107.4 85.8 106.3 85.8 105.8 85.8 C 104.0 85.8 102.2 85.8 100.4 85.7 C 99.6 85.7 97.9 85.7 97.1 85.7 C 97.1 85.1 97.1 83.9 97.1 83.2 Z" />
<path fill="#113b6e" stroke="#113b6e" stroke-width="0.09375" opacity="0.73" d=" M 55.9 77.3 C 57.2 78.0 58.5 78.7 59.8 79.3 C 60.2 81.9 61.1 84.4 63.2 86.2 C 63.3 91.5 58.1 94.1 55.4 98.0 C 53.7 98.0 51.9 98.0 50.2 98.0 C 49.9 97.7 49.3 97.0 49.0 96.7 C 51.4 94.6 54.0 92.6 56.2 90.2 C 56.9 89.4 57.9 88.5 57.4 87.2 C 56.6 84.0 55.3 80.7 55.9 77.3 Z" />
<path fill="#12437c" stroke="#12437c" stroke-width="0.09375" opacity="0.85" d=" M 63.2 86.2 L 63.8 86.0 C 63.7 87.9 63.7 89.7 63.6 91.6 C 63.6 93.5 63.7 95.4 63.7 97.3 C 66.0 97.5 68.4 97.6 70.7 97.8 C 70.9 96.3 71.0 94.8 71.1 93.3 C 74.1 93.3 77.2 93.2 80.2 92.6 C 78.4 94.4 76.6 96.2 74.8 98.0 C 68.3 97.9 61.9 98.0 55.4 98.0 C 58.1 94.1 63.3 91.5 63.2 86.2 Z" />
<path fill="#adbfd6" stroke="#adbfd6" stroke-width="0.09375" opacity="1.00" d=" M 63.8 86.0 C 67.5 85.7 71.1 85.8 74.8 85.8 C 73.7 87.3 72.8 89.1 71.2 90.3 C 68.9 91.7 66.2 91.4 63.6 91.6 C 63.7 89.7 63.7 87.9 63.8 86.0 Z" />
<path fill="#83a4cc" stroke="#83a4cc" stroke-width="0.09375" opacity="1.00" d=" M 74.8 85.8 C 78.7 85.7 82.6 85.6 86.4 86.3 C 84.4 88.5 82.5 90.7 80.2 92.6 C 77.2 93.2 74.1 93.3 71.1 93.3 C 71.0 94.8 70.9 96.3 70.7 97.8 C 68.4 97.6 66.0 97.5 63.7 97.3 C 63.7 95.4 63.6 93.5 63.6 91.6 C 66.2 91.4 68.9 91.7 71.2 90.3 C 72.8 89.1 73.7 87.3 74.8 85.8 Z" />
<path fill="#6d90b9" stroke="#6d90b9" stroke-width="0.09375" opacity="1.00" d=" M 97.1 85.7 C 97.9 85.7 99.6 85.7 100.4 85.7 C 100.4 88.2 100.4 90.7 100.3 93.2 C 99.5 93.3 97.9 93.3 97.1 93.3 C 97.0 90.7 97.0 88.2 97.1 85.7 Z" />
<path fill="#8eacd0" stroke="#8eacd0" stroke-width="0.09375" opacity="1.00" d=" M 100.4 85.7 C 102.2 85.8 104.0 85.8 105.8 85.8 C 105.2 88.3 104.6 90.7 104.1 93.2 C 102.9 93.2 101.6 93.2 100.3 93.2 C 100.4 90.7 100.4 88.2 100.4 85.7 Z" />
<path fill="#ced8e5" stroke="#ced8e5" stroke-width="0.09375" opacity="1.00" d=" M 105.8 85.8 C 106.3 85.8 107.4 85.8 107.9 85.8 C 108.4 85.8 109.3 85.7 109.8 85.7 C 109.2 88.2 108.6 90.7 108.0 93.2 C 107.4 93.2 106.3 93.2 105.7 93.2 C 105.3 93.2 104.5 93.2 104.1 93.2 C 104.6 90.7 105.2 88.3 105.8 85.8 Z" />
<path fill="#ffffff" stroke="#ffffff" stroke-width="0.09375" opacity="1.00" d=" M 109.8 85.7 C 117.3 85.8 124.7 85.7 132.1 85.8 C 134.2 89.6 136.1 93.6 138.0 97.5 C 145.1 97.5 152.1 97.5 159.1 97.5 C 161.0 93.6 162.9 89.7 165.0 85.8 C 172.0 85.8 179.1 85.4 186.2 86.0 C 186.4 115.4 186.2 144.7 186.3 174.0 C 186.3 175.6 186.2 177.2 186.0 178.7 C 145.3 178.8 104.6 178.7 63.9 178.7 C 63.3 161.8 63.8 144.8 63.6 127.8 C 66.1 127.6 68.5 127.3 71.0 127.1 C 71.0 141.9 71.0 156.7 71.0 171.5 C 73.5 171.5 75.9 171.5 78.4 171.5 C 78.5 165.8 78.1 160.1 78.6 154.4 C 79.5 153.1 81.6 154.0 83.0 153.7 C 112.3 153.8 141.7 153.7 171.0 153.8 L 171.5 154.2 C 171.5 160.0 171.5 165.7 171.5 171.5 C 173.9 171.5 176.3 171.5 178.7 171.5 C 178.8 145.4 178.7 119.3 178.7 93.3 C 176.1 93.3 173.4 93.3 170.7 93.3 C 168.6 97.0 167.1 101.1 164.7 104.7 C 154.5 105.3 144.2 105.0 134.0 104.9 C 131.0 101.8 129.8 97.0 127.6 93.3 C 121.1 93.2 114.5 93.3 108.0 93.2 C 108.6 90.7 109.2 88.2 109.8 85.7 M 85.7 161.0 C 85.7 164.5 85.7 168.0 85.7 171.5 C 111.8 171.5 137.9 171.5 164.0 171.5 C 164.0 168.0 164.0 164.5 164.0 161.0 C 137.9 161.0 111.8 161.0 85.7 161.0 Z" />
<path fill="#0e315b" stroke="#0e315b" stroke-width="0.09375" opacity="0.67" d=" M 33.1 88.5 C 36.3 91.7 39.5 94.8 42.6 98.0 C 39.4 98.0 36.3 98.0 33.1 98.0 C 33.1 94.8 33.1 91.7 33.1 88.5 Z" />
<path fill="#6281a7" stroke="#6281a7" stroke-width="0.09375" opacity="0.98" d=" M 87.8 92.7 C 89.1 91.3 90.4 89.9 91.8 88.6 C 91.8 91.8 92.1 95.1 91.7 98.4 L 91.7 97.8 C 91.5 96.4 91.4 95.0 91.3 93.6 C 90.1 93.3 88.9 93.0 87.8 92.7 Z" />
<path fill="#104179" stroke="#104179" stroke-width="0.09375" opacity="0.87" d=" M 82.4 98.0 C 84.1 96.2 85.9 94.4 87.8 92.7 C 88.9 93.0 90.1 93.3 91.3 93.6 C 91.4 95.0 91.5 96.4 91.7 97.8 C 88.6 98.1 85.5 98.0 82.4 98.0 Z" />
<path fill="#13447d" stroke="#13447d" stroke-width="0.09375" opacity="0.83" d=" M 97.1 93.3 C 97.9 93.3 99.5 93.3 100.3 93.2 C 101.6 93.2 102.9 93.2 104.1 93.2 C 104.5 93.2 105.3 93.2 105.7 93.2 C 103.6 96.4 103.1 100.3 104.8 103.8 C 104.5 103.8 103.8 103.8 103.5 103.8 C 101.2 103.7 98.9 103.7 96.7 103.1 L 96.8 103.1 C 97.2 99.8 97.2 96.6 97.1 93.3 Z" />
<path fill="#0e315b" stroke="#0e315b" stroke-width="0.09375" opacity="0.64" d=" M 105.7 93.2 C 106.3 93.2 107.4 93.2 108.0 93.2 C 114.5 93.3 121.1 93.2 127.6 93.3 C 129.8 97.0 131.0 101.8 134.0 104.9 C 144.2 105.0 154.5 105.3 164.7 104.7 C 167.1 101.1 168.6 97.0 170.7 93.3 C 173.4 93.3 176.1 93.3 178.7 93.3 C 178.7 119.3 178.8 145.4 178.7 171.5 C 176.3 171.5 173.9 171.5 171.5 171.5 C 171.5 165.7 171.5 160.0 171.5 154.2 C 172.9 154.8 174.2 155.3 175.6 155.8 C 176.2 143.6 175.7 131.3 175.9 119.0 C 175.7 111.7 176.5 104.4 175.5 97.2 C 171.8 96.4 170.3 100.1 168.5 102.6 C 166.4 106.0 162.3 107.1 159.0 108.9 C 162.2 112.9 166.0 116.7 167.3 121.8 C 169.7 130.3 165.1 140.5 156.8 143.8 C 152.3 145.9 147.0 146.6 142.4 144.7 C 134.8 142.2 129.7 134.7 128.7 127.1 C 128.6 119.8 133.5 114.1 138.0 109.0 C 136.0 107.7 133.8 106.5 132.0 105.0 C 129.2 102.7 127.9 99.2 125.2 96.8 C 120.7 95.3 115.8 95.8 111.1 96.4 C 108.9 96.4 107.1 99.3 108.8 101.1 C 111.3 103.4 114.5 104.8 117.2 106.9 C 122.5 110.7 125.6 117.0 126.7 123.3 C 127.9 129.1 125.5 134.8 122.8 139.7 C 120.5 144.0 115.7 146.2 113.7 150.6 C 130.8 151.4 147.9 150.4 165.0 151.0 C 167.4 150.9 169.5 152.0 171.0 153.8 C 141.7 153.7 112.3 153.8 83.0 153.7 C 81.6 154.0 79.5 153.1 78.6 154.4 C 78.1 160.1 78.5 165.8 78.4 171.5 C 75.9 171.5 73.5 171.5 71.0 171.5 C 71.0 156.7 71.0 141.9 71.0 127.1 C 71.0 126.3 71.0 124.8 71.0 124.0 C 73.4 119.9 76.3 114.0 81.9 114.3 C 77.6 121.3 77.4 130.5 81.4 137.7 C 85.4 145.0 93.6 149.8 102.0 149.3 C 113.7 149.3 124.3 138.7 124.2 127.0 C 124.7 116.6 117.2 107.0 107.3 104.3 C 106.7 104.2 105.5 104.0 104.8 103.8 C 103.1 100.3 103.6 96.4 105.7 93.2 M 142.4 110.6 C 135.1 113.3 130.4 121.4 131.8 129.0 C 132.8 137.6 141.2 144.3 149.8 143.4 C 159.3 143.0 167.0 133.4 165.4 124.0 C 164.3 113.5 152.1 106.5 142.4 110.6 Z" />
<path fill="#0e315b" stroke="#0e315b" stroke-width="0.09375" opacity="0.58" d=" M 108.8 101.1 C 107.1 99.3 108.9 96.4 111.1 96.4 C 115.8 95.8 120.7 95.3 125.2 96.8 C 127.9 99.2 129.2 102.7 132.0 105.0 C 133.8 106.5 136.0 107.7 138.0 109.0 C 133.5 114.1 128.6 119.8 128.7 127.1 C 129.7 134.7 134.8 142.2 142.4 144.7 C 147.0 146.6 152.3 145.9 156.8 143.8 C 165.1 140.5 169.7 130.3 167.3 121.8 C 166.0 116.7 162.2 112.9 159.0 108.9 C 162.3 107.1 166.4 106.0 168.5 102.6 C 170.3 100.1 171.8 96.4 175.5 97.2 C 176.5 104.4 175.7 111.7 175.9 119.0 C 175.7 131.3 176.2 143.6 175.6 155.8 C 174.2 155.3 172.9 154.8 171.5 154.2 L 171.0 153.8 C 169.5 152.0 167.4 150.9 165.0 151.0 C 147.9 150.4 130.8 151.4 113.7 150.6 C 115.7 146.2 120.5 144.0 122.8 139.7 C 125.5 134.8 127.9 129.1 126.7 123.3 C 125.6 117.0 122.5 110.7 117.2 106.9 C 114.5 104.8 111.3 103.4 108.8 101.1 Z" />
<path fill="#8aa9ce" stroke="#8aa9ce" stroke-width="0.09375" opacity="1.00" d=" M 76.9 103.5 C 83.5 103.3 90.1 103.5 96.7 103.1 C 98.9 103.7 101.2 103.7 103.5 103.8 C 101.7 105.9 100.0 108.6 97.1 109.2 C 93.4 109.9 89.6 109.6 85.8 109.7 C 88.3 107.1 91.6 105.7 95.0 104.8 C 96.6 104.7 94.6 101.5 93.3 103.6 C 87.8 103.6 82.3 103.7 76.9 103.5 Z" />
<path fill="#103f7a" stroke="#103f7a" stroke-width="0.09375" opacity="0.87" d=" M 55.7 103.5 C 58.4 103.5 61.0 103.5 63.7 103.5 C 63.6 105.5 63.5 107.4 63.3 109.4 L 62.8 110.4 C 60.4 108.2 58.1 105.8 55.7 103.5 Z" />
<path fill="#5578a3" stroke="#5578a3" stroke-width="0.09375" opacity="0.98" d=" M 63.7 103.5 C 65.5 103.5 67.4 103.5 69.3 103.5 C 67.3 105.4 65.3 107.5 63.3 109.4 C 63.5 107.4 63.6 105.5 63.7 103.5 Z" />
<path fill="#13437d" stroke="#13437d" stroke-width="0.09375" opacity="0.81" d=" M 70.8 109.6 C 72.8 107.6 74.8 105.5 76.9 103.5 C 82.3 103.7 87.8 103.6 93.3 103.6 C 94.6 101.5 96.6 104.7 95.0 104.8 C 91.6 105.7 88.3 107.1 85.8 109.7 C 84.7 110.9 83.5 112.2 82.5 113.5 C 82.4 113.7 82.1 114.1 81.9 114.3 C 76.3 114.0 73.4 119.9 71.0 124.0 C 71.0 123.6 71.0 122.8 71.0 122.4 C 71.0 121.5 71.0 119.8 71.0 118.9 C 71.0 115.8 70.9 112.7 70.8 109.6 Z" />
<path fill="#c0cfe1" stroke="#c0cfe1" stroke-width="0.09375" opacity="1.00" d=" M 103.5 103.8 C 103.8 103.8 104.5 103.8 104.8 103.8 C 105.5 104.0 106.7 104.2 107.3 104.3 C 105.4 107.0 103.8 110.3 100.6 111.7 C 95.0 114.5 88.5 113.2 82.5 113.5 C 83.5 112.2 84.7 110.9 85.8 109.7 C 89.6 109.6 93.4 109.9 97.1 109.2 C 100.0 108.6 101.7 105.9 103.5 103.8 Z" />
<path fill="#ffffff" stroke="#ffffff" stroke-width="0.09375" opacity="1.00" d=" M 100.6 111.7 C 103.8 110.3 105.4 107.0 107.3 104.3 C 117.2 107.0 124.7 116.6 124.2 127.0 C 124.3 138.7 113.7 149.3 102.0 149.3 C 93.6 149.8 85.4 145.0 81.4 137.7 C 77.4 130.5 77.6 121.3 81.9 114.3 C 82.1 114.1 82.4 113.7 82.5 113.5 C 88.5 113.2 95.0 114.5 100.6 111.7 M 99.5 121.7 C 96.5 122.9 95.1 127.1 97.4 129.6 C 99.4 132.5 104.3 132.0 105.8 128.8 C 108.2 124.9 103.5 119.8 99.5 121.7 Z" />
<path fill="#13427a" stroke="#13427a" stroke-width="0.09375" opacity="0.79" d=" M 52.3 107.7 C 55.7 110.9 58.8 114.3 62.2 117.6 C 62.6 117.3 63.2 116.9 63.5 116.7 C 63.6 118.5 63.6 120.3 63.7 122.2 C 63.7 122.9 63.6 124.2 63.6 124.9 L 63.6 125.6 C 61.0 124.4 58.1 123.2 56.5 120.6 C 54.1 116.7 53.3 112.1 52.3 107.7 Z" />
<path fill="#7d9fc7" stroke="#7d9fc7" stroke-width="0.09375" opacity="1.00" d=" M 63.5 116.7 C 66.0 114.3 68.3 111.9 70.8 109.6 C 70.9 112.7 71.0 115.8 71.0 118.9 C 68.6 120.0 66.1 121.0 63.7 122.2 C 63.6 120.3 63.6 118.5 63.5 116.7 Z" />
<path fill="#ffffff" stroke="#ffffff" stroke-width="0.09375" opacity="1.00" d=" M 142.4 110.6 C 152.1 106.5 164.3 113.5 165.4 124.0 C 167.0 133.4 159.3 143.0 149.8 143.4 C 141.2 144.3 132.8 137.6 131.8 129.0 C 130.4 121.4 135.1 113.3 142.4 110.6 M 145.4 122.5 C 142.8 124.4 142.8 128.6 145.5 130.5 C 148.4 133.0 153.4 130.7 153.7 127.0 C 154.2 122.9 148.6 119.5 145.4 122.5 Z" />
<path fill="#acc1db" stroke="#acc1db" stroke-width="0.09375" opacity="1.00" d=" M 63.7 122.2 C 66.1 121.0 68.6 120.0 71.0 118.9 C 71.0 119.8 71.0 121.5 71.0 122.4 C 68.6 123.5 66.2 124.3 63.6 124.9 C 63.6 124.2 63.7 122.9 63.7 122.2 Z" />
<path fill="#0e315b" stroke="#0e315b" stroke-width="0.09375" opacity="0.66" d=" M 99.5 121.7 C 103.5 119.8 108.2 124.9 105.8 128.8 C 104.3 132.0 99.4 132.5 97.4 129.6 C 95.1 127.1 96.5 122.9 99.5 121.7 Z" />
<path fill="#e1e7ee" stroke="#e1e7ee" stroke-width="0.09375" opacity="1.00" d=" M 63.6 124.9 C 66.2 124.3 68.6 123.5 71.0 122.4 C 71.0 122.8 71.0 123.6 71.0 124.0 C 71.0 124.8 71.0 126.3 71.0 127.1 C 68.5 127.3 66.1 127.6 63.6 127.8 C 63.6 127.3 63.6 126.1 63.6 125.6 L 63.6 124.9 Z" />
<path fill="#0e315b" stroke="#0e315b" stroke-width="0.09375" opacity="0.65" d=" M 145.4 122.5 C 148.6 119.5 154.2 122.9 153.7 127.0 C 153.4 130.7 148.4 133.0 145.5 130.5 C 142.8 128.6 142.8 124.4 145.4 122.5 Z" />
<path fill="#0e315b" stroke="#0e315b" stroke-width="0.09375" opacity="0.61" d=" M 85.7 161.0 C 111.8 161.0 137.9 161.0 164.0 161.0 C 164.0 164.5 164.0 168.0 164.0 171.5 C 137.9 171.5 111.8 171.5 85.7 171.5 C 85.7 168.0 85.7 164.5 85.7 161.0 Z" />
</svg>
