<?xml version="1.0" encoding="UTF-8" ?>
<!DOCTYPE svg PUBLIC "-//W3C//DTD SVG 1.1//EN" "http://www.w3.org/Graphics/SVG/1.1/DTD/svg11.dtd">
<svg width="198pt" height="198pt" viewBox="0 0 198 198" version="1.1" xmlns="http://www.w3.org/2000/svg">
<path fill="#040f1c" stroke="#040f1c" stroke-width="0.09375" opacity="0.21" d=" M 17.3 37.3 C 22.5 35.0 28.3 34.3 33.9 34.3 C 63.0 34.3 92.0 34.3 121.0 34.3 C 128.6 34.7 137.4 36.5 141.4 43.6 C 146.9 53.2 143.4 64.6 145.4 75.0 C 149.7 74.4 153.6 72.3 157.9 71.5 C 165.6 70.0 173.8 70.3 181.3 72.7 C 188.4 75.1 191.4 83.2 191.4 90.0 C 191.4 117.0 191.4 144.0 191.4 171.0 C 191.2 177.6 188.7 185.5 182.0 188.0 C 177.2 189.8 172.1 190.4 167.0 190.4 C 133.3 190.4 99.6 190.4 66.0 190.4 C 60.8 190.1 55.4 189.7 50.6 187.4 C 44.9 184.3 42.9 177.1 42.6 171.0 C 42.6 154.7 42.6 138.3 42.6 122.0 C 42.6 119.8 42.0 117.6 41.5 115.6 C 33.0 113.4 23.3 116.7 15.7 111.3 C 9.0 107.0 7.0 98.5 7.3 91.0 C 7.4 78.7 7.2 66.4 7.4 54.2 C 7.5 47.4 11.0 40.4 17.3 37.3 M 17.8 41.8 C 12.6 44.9 11.8 51.5 11.5 56.9 C 11.4 67.6 11.6 78.3 11.4 89.0 C 11.4 94.2 11.9 99.7 14.7 104.2 C 16.5 107.1 19.8 108.5 22.9 109.6 C 28.8 111.6 35.2 109.7 41.2 110.8 C 45.9 112.4 46.3 117.8 46.4 122.0 C 46.3 138.4 46.4 154.7 46.3 171.0 C 46.2 175.4 48.0 179.9 51.0 183.1 C 54.9 186.2 60.2 186.6 65.0 186.6 C 99.6 186.7 134.3 186.6 169.0 186.7 C 173.6 186.6 178.5 186.2 182.5 183.5 C 186.2 180.6 187.9 175.7 187.7 171.1 C 187.6 144.0 187.7 117.0 187.7 90.0 C 187.7 86.1 187.0 81.8 184.3 78.8 C 181.7 75.6 177.4 75.1 173.6 74.6 C 167.6 74.2 161.5 74.0 155.6 75.6 C 151.0 76.8 147.7 80.4 143.9 82.9 C 142.4 80.9 140.9 78.7 140.8 76.0 C 140.3 68.5 141.0 60.9 140.5 53.4 C 140.1 49.2 138.6 44.7 135.0 42.1 C 130.6 39.2 125.2 38.3 120.0 38.3 C 90.3 38.4 60.7 38.4 31.0 38.4 C 26.4 38.4 21.8 39.6 17.8 41.8 Z" />
<path fill="#0a2443" stroke="#0a2443" stroke-width="0.09375" opacity="0.43" d=" M 17.8 41.8 C 21.8 39.6 26.4 38.4 31.0 38.4 C 60.7 38.4 90.3 38.4 120.0 38.3 C 125.2 38.3 130.6 39.2 135.0 42.1 C 138.6 44.7 140.1 49.2 140.5 53.4 C 141.0 60.9 140.3 68.5 140.8 76.0 C 140.9 78.7 142.4 80.9 143.9 82.9 C 147.7 80.4 151.0 76.8 155.6 75.6 C 161.5 74.0 167.6 74.2 173.6 74.6 C 177.4 75.1 181.7 75.6 184.3 78.8 C 187.0 81.8 187.7 86.1 187.7 90.0 C 187.7 117.0 187.6 144.0 187.7 171.1 C 187.9 175.7 186.2 180.6 182.5 183.5 C 178.5 186.2 173.6 186.6 169.0 186.7 C 134.3 186.6 99.6 186.7 65.0 186.6 C 60.2 186.6 54.9 186.2 51.0 183.1 C 48.0 179.9 46.2 175.4 46.3 171.0 C 46.4 154.7 46.3 138.4 46.4 122.0 C 46.3 117.8 45.9 112.4 41.2 110.8 C 35.2 109.7 28.8 111.6 22.9 109.6 C 19.8 108.5 16.5 107.1 14.7 104.2 C 11.9 99.7 11.4 94.2 11.4 89.0 C 11.6 78.3 11.4 67.6 11.5 56.9 C 11.8 51.5 12.6 44.9 17.8 41.8 M 20.0 44.9 C 15.7 47.2 15.3 52.7 14.9 57.0 C 14.6 68.0 14.9 79.0 14.8 90.1 C 15.0 95.5 15.6 102.3 21.0 105.1 C 29.0 108.9 38.2 105.7 46.3 109.0 C 46.6 111.1 48.3 112.4 49.7 113.8 C 49.5 132.2 49.8 150.6 49.6 169.0 C 49.5 173.7 50.7 179.3 55.3 181.6 C 60.3 183.6 65.8 183.3 71.1 183.4 C 102.7 183.3 134.4 183.3 166.0 183.4 C 170.3 183.3 174.7 183.2 178.6 181.6 C 182.5 179.6 184.6 175.2 184.4 171.0 C 184.4 144.3 184.4 117.7 184.4 91.0 C 184.3 86.6 183.5 81.0 178.9 79.1 C 171.5 76.7 163.4 77.2 155.9 78.9 C 151.5 79.9 149.8 85.1 145.7 86.6 C 142.5 86.9 139.8 84.0 138.8 81.1 C 135.9 72.0 138.1 62.3 136.7 53.0 C 136.2 50.2 135.1 47.0 132.5 45.4 C 127.6 42.3 121.6 42.1 116.0 41.8 C 89.7 41.8 63.3 41.9 37.0 41.8 C 31.2 42.0 25.2 42.3 20.0 44.9 Z" />
<path fill="#0d2f56" stroke="#0d2f56" stroke-width="0.09375" opacity="0.56" d=" M 20.0 44.9 C 25.2 42.3 31.2 42.0 37.0 41.8 C 63.3 41.9 89.7 41.8 116.0 41.8 C 121.6 42.1 127.6 42.3 132.5 45.4 C 135.1 47.0 136.2 50.2 136.7 53.0 C 138.1 62.3 135.9 72.0 138.8 81.1 C 139.8 84.0 142.5 86.9 145.7 86.6 C 149.8 85.1 151.5 79.9 155.9 78.9 C 163.4 77.2 171.5 76.7 178.9 79.1 C 183.5 81.0 184.3 86.6 184.4 91.0 C 184.4 117.7 184.4 144.3 184.4 171.0 C 184.6 175.2 182.5 179.6 178.6 181.6 C 174.7 183.2 170.3 183.3 166.0 183.4 C 134.4 183.3 102.7 183.3 71.1 183.4 C 65.8 183.3 60.3 183.6 55.3 181.6 C 50.7 179.3 49.5 173.7 49.6 169.0 C 49.8 150.6 49.5 132.2 49.7 113.8 C 50.9 115.0 52.6 116.2 52.7 118.1 C 53.6 123.4 53.0 128.7 53.0 134.0 C 53.0 145.0 53.2 156.0 53.0 167.1 C 52.9 170.5 53.1 174.3 55.9 176.7 C 56.0 176.8 56.3 177.1 56.4 177.2 C 58.1 179.0 60.5 180.0 63.0 179.9 C 97.3 180.1 131.6 179.9 166.0 180.1 C 170.2 179.9 175.2 180.6 178.5 177.2 L 178.5 177.2 C 181.2 174.5 181.2 170.5 181.2 167.0 C 181.0 142.0 181.2 117.0 181.2 92.1 C 181.0 88.8 181.0 84.1 177.4 82.6 C 171.1 80.7 164.4 81.2 158.0 82.1 C 153.5 82.5 152.3 87.7 149.0 90.0 C 144.6 90.8 141.3 86.9 138.0 84.6 C 136.8 82.6 135.6 80.6 134.8 78.4 C 134.0 71.6 133.2 64.9 133.2 58.0 C 133.2 54.2 132.2 49.5 128.3 47.6 C 123.2 45.5 117.5 45.9 112.0 45.8 C 88.7 45.9 65.3 45.8 42.0 45.9 C 36.1 45.9 29.9 45.2 24.3 47.4 C 21.4 48.3 19.9 51.3 19.2 54.1 C 17.4 61.3 18.1 68.7 18.0 76.0 C 18.1 82.9 17.7 89.9 19.4 96.6 C 20.7 101.1 25.5 103.6 30.0 103.2 C 35.4 103.0 41.1 103.3 45.4 106.8 C 45.6 107.0 45.8 107.3 45.9 107.5 L 46.3 109.0 C 38.2 105.7 29.0 108.9 21.0 105.1 C 15.6 102.3 15.0 95.5 14.8 90.1 C 14.9 79.0 14.6 68.0 14.9 57.0 C 15.3 52.7 15.7 47.2 20.0 44.9 Z" />
<path fill="#0e315a" stroke="#0e315a" stroke-width="0.09375" opacity="0.64" d=" M 24.3 47.4 C 29.9 45.2 36.1 45.9 42.0 45.9 C 65.3 45.8 88.7 45.9 112.0 45.8 C 117.5 45.9 123.2 45.5 128.3 47.6 C 132.2 49.5 133.2 54.2 133.2 58.0 C 133.2 64.9 134.0 71.6 134.8 78.4 C 134.2 76.7 133.7 75.1 133.2 73.4 C 132.6 73.5 132.1 73.6 131.6 73.8 C 131.5 74.5 131.3 75.9 131.2 76.6 L 131.2 77.7 C 131.0 70.4 131.3 63.2 131.0 55.9 C 130.7 53.7 130.6 50.8 128.3 49.7 C 125.0 48.6 121.5 48.6 118.1 48.5 C 90.0 48.5 62.0 48.5 33.9 48.5 C 30.5 48.7 26.9 48.6 23.7 49.7 C 20.8 51.4 21.2 55.3 20.8 58.1 C 20.7 69.4 20.6 80.7 20.9 92.0 C 21.1 94.9 21.0 99.2 24.4 100.3 C 29.9 101.6 35.6 100.8 41.2 101.0 C 42.8 102.8 44.2 104.7 45.4 106.8 C 41.1 103.3 35.4 103.0 30.0 103.2 C 25.5 103.6 20.7 101.1 19.4 96.6 C 17.7 89.9 18.1 82.9 18.0 76.0 C 18.1 68.7 17.4 61.3 19.2 54.1 C 19.9 51.3 21.4 48.3 24.3 47.4 Z" />
<path fill="#ffffff" stroke="#ffffff" stroke-width="0.09375" opacity="1.00" d=" M 23.7 49.7 C 26.9 48.6 30.5 48.7 33.9 48.5 C 62.0 48.5 90.0 48.5 118.1 48.5 C 121.5 48.6 125.0 48.6 128.3 49.7 C 130.6 50.8 130.7 53.7 131.0 55.9 C 131.3 63.2 131.0 70.4 131.2 77.7 C 131.0 83.5 131.2 89.3 131.0 95.2 C 130.5 98.7 127.8 101.0 124.3 101.1 C 104.0 100.9 83.7 101.0 63.3 101.0 C 60.8 101.0 58.3 101.0 55.8 101.0 C 50.9 101.0 46.1 101.0 41.2 101.0 C 35.6 100.8 29.9 101.6 24.4 100.3 C 21.0 99.2 21.1 94.9 20.9 92.0 C 20.6 80.7 20.7 69.4 20.8 58.1 C 21.2 55.3 20.8 51.4 23.7 49.7 M 28.4 54.6 C 26.5 55.1 26.6 57.5 26.4 59.1 C 26.3 69.4 26.4 79.7 26.4 90.0 C 26.5 91.9 26.4 95.1 29.0 95.3 C 33.2 95.8 37.5 95.4 41.8 95.5 C 43.9 95.5 46.0 95.5 48.1 95.5 C 72.6 95.4 97.1 95.5 121.6 95.6 C 122.7 95.3 123.8 95.0 125.0 94.7 C 125.3 91.6 126.4 87.9 124.8 85.0 L 124.6 84.6 L 125.1 85.3 C 125.2 83.8 125.5 81.0 125.6 79.6 C 125.5 77.4 125.5 75.3 125.5 73.1 C 125.4 67.8 125.7 62.4 125.3 57.1 C 125.2 53.4 120.5 54.5 118.1 54.1 C 91.7 53.9 65.4 54.1 39.0 54.0 C 35.5 54.0 31.9 53.9 28.4 54.6 Z" />
<path fill="#0e315b" stroke="#0e315b" stroke-width="0.09375" opacity="0.60" d=" M 28.4 54.6 C 31.9 53.9 35.5 54.0 39.0 54.0 C 65.4 54.1 91.7 53.9 118.1 54.1 C 120.5 54.5 125.2 53.4 125.3 57.1 C 125.7 62.4 125.4 67.8 125.5 73.1 C 121.9 73.7 118.2 73.4 114.7 72.4 C 114.8 70.5 114.9 68.6 114.9 66.7 C 96.6 66.2 78.3 66.7 60.0 66.5 C 52.3 66.6 44.7 66.3 37.0 66.7 C 37.0 68.5 37.0 70.3 37.0 72.0 L 37.8 72.2 L 39.0 72.5 C 38.5 74.2 38.0 75.8 37.6 77.5 C 37.1 79.3 37.0 81.1 36.8 82.9 C 38.8 82.9 40.8 83.0 42.8 83.0 C 42.8 83.9 42.8 85.7 42.8 86.6 C 42.2 86.6 41.1 86.6 40.6 86.7 C 40.6 88.4 40.7 90.2 40.8 91.9 C 41.3 91.9 42.3 92.0 42.8 92.0 C 42.5 93.2 42.2 94.3 41.8 95.5 C 37.5 95.4 33.2 95.8 29.0 95.3 C 26.4 95.1 26.5 91.9 26.4 90.0 C 26.4 79.7 26.3 69.4 26.4 59.1 C 26.6 57.5 26.5 55.1 28.4 54.6 Z" />
<path fill="#ffffff" stroke="#ffffff" stroke-width="0.09375" opacity="1.00" d=" M 37.0 66.7 C 44.7 66.3 52.3 66.6 60.0 66.5 C 78.3 66.7 96.6 66.2 114.9 66.7 C 114.9 68.6 114.8 70.5 114.7 72.4 C 89.1 72.0 63.4 72.4 37.8 72.2 L 37.0 72.0 C 37.0 70.3 37.0 68.5 37.0 66.7 Z" />
<path fill="#103a6a" stroke="#103a6a" stroke-width="0.09375" opacity="0.78" d=" M 37.8 72.2 C 63.4 72.4 89.1 72.0 114.7 72.4 C 118.2 73.4 121.9 73.7 125.5 73.1 C 125.5 75.3 125.5 77.4 125.6 79.6 C 122.1 79.1 118.5 78.8 115.0 78.1 C 114.7 78.0 114.2 77.8 113.9 77.7 C 91.8 77.2 69.8 77.6 47.7 77.5 C 49.4 76.0 51.2 74.6 52.9 73.1 C 48.3 72.8 43.6 72.9 39.0 72.5 L 37.8 72.2 Z" />
<path fill="#0e325c" stroke="#0e325c" stroke-width="0.09375" opacity="0.68" d=" M 39.0 72.5 C 43.6 72.9 48.3 72.8 52.9 73.1 C 51.2 74.6 49.4 76.0 47.7 77.5 C 44.3 77.5 40.9 77.4 37.6 77.5 C 38.0 75.8 38.5 74.2 39.0 72.5 Z" />
<path fill="#113b6f" stroke="#113b6f" stroke-width="0.09375" opacity="0.73" d=" M 131.6 73.8 C 132.1 73.6 132.6 73.5 133.2 73.4 C 133.7 75.1 134.2 76.7 134.8 78.4 C 135.6 80.6 136.8 82.6 138.0 84.6 C 140.1 88.0 142.0 91.6 145.0 94.2 C 147.2 96.4 150.1 94.4 152.5 93.7 C 152.3 94.2 151.8 95.4 151.5 95.9 C 149.0 96.0 146.5 96.1 144.0 96.0 C 142.6 96.0 141.2 96.0 139.8 96.0 C 135.7 90.2 132.3 83.7 131.2 76.6 C 131.3 75.9 131.5 74.5 131.6 73.8 Z" />
<path fill="#ffffff" stroke="#ffffff" stroke-width="0.09375" opacity="1.00" d=" M 36.8 82.9 C 37.0 81.1 37.1 79.3 37.6 77.5 C 40.9 77.4 44.3 77.5 47.7 77.5 C 69.8 77.6 91.8 77.2 113.9 77.7 C 114.2 77.8 114.7 78.0 115.0 78.1 C 114.9 79.7 114.8 81.3 114.7 82.9 C 92.8 83.1 70.9 82.9 49.0 83.0 C 46.9 83.0 44.9 83.0 42.8 83.0 C 40.8 83.0 38.8 82.9 36.8 82.9 Z" />
<path fill="#13437c" stroke="#13437c" stroke-width="0.09375" opacity="0.84" d=" M 131.2 77.7 L 131.2 76.6 C 132.3 83.7 135.7 90.2 139.8 96.0 C 138.1 96.0 136.3 96.1 134.6 96.1 C 133.7 96.1 131.9 96.0 131.1 96.0 L 131.0 95.2 C 131.2 89.3 131.0 83.5 131.2 77.7 Z" />
<path fill="#12437d" stroke="#12437d" stroke-width="0.09375" opacity="0.87" d=" M 115.0 78.1 C 118.5 78.8 122.1 79.1 125.6 79.6 C 125.5 81.0 125.2 83.8 125.1 85.3 L 124.6 84.6 C 124.5 84.4 124.1 83.9 124.0 83.7 C 121.0 84.1 118.0 84.4 115.0 84.3 C 95.4 84.4 75.7 84.3 56.1 84.4 C 55.9 88.0 55.9 91.6 56.0 95.1 C 58.3 95.2 60.6 95.1 62.9 95.1 C 63.1 93.9 63.4 92.7 63.6 91.5 C 77.0 91.5 90.5 91.5 104.0 91.5 C 109.5 91.5 115.0 91.2 120.5 91.9 C 120.9 93.1 121.2 94.3 121.6 95.6 C 97.1 95.5 72.6 95.4 48.1 95.5 C 48.1 94.6 48.2 92.8 48.3 91.9 C 48.7 91.9 49.5 91.8 49.9 91.8 C 49.8 90.0 49.7 88.2 49.5 86.4 C 49.4 85.6 49.1 83.9 49.0 83.0 C 70.9 82.9 92.8 83.1 114.7 82.9 C 114.8 81.3 114.9 79.7 115.0 78.1 Z" />
<path fill="#0e315a" stroke="#0e315a" stroke-width="0.09375" opacity="0.62" d=" M 158.0 82.1 C 164.4 81.2 171.1 80.7 177.4 82.6 C 181.0 84.1 181.0 88.8 181.2 92.1 C 181.2 117.0 181.0 142.0 181.2 167.0 C 181.2 170.5 181.2 174.5 178.5 177.2 C 178.4 146.2 178.7 115.2 178.3 84.2 C 171.3 84.3 164.3 84.2 157.2 84.3 C 155.6 87.4 154.0 90.5 152.5 93.7 C 150.1 94.4 147.2 96.4 145.0 94.2 C 142.0 91.6 140.1 88.0 138.0 84.6 C 141.3 86.9 144.6 90.8 149.0 90.0 C 152.3 87.7 153.5 82.5 158.0 82.1 Z" />
<path fill="#0f3767" stroke="#0f3767" stroke-width="0.09375" opacity="0.78" d=" M 42.8 83.0 C 44.9 83.0 46.9 83.0 49.0 83.0 C 49.1 83.9 49.4 85.6 49.5 86.4 C 47.2 86.5 45.0 86.5 42.8 86.6 C 42.8 85.7 42.8 83.9 42.8 83.0 Z" />
<path fill="#779ac4" stroke="#779ac4" stroke-width="0.09375" opacity="1.00" d=" M 56.1 84.4 C 75.7 84.3 95.4 84.4 115.0 84.3 C 118.0 84.4 121.0 84.1 124.0 83.7 C 124.1 83.9 124.5 84.4 124.6 84.6 L 124.8 85.0 C 124.7 85.0 124.4 85.0 124.2 85.0 C 123.2 87.4 122.2 89.8 120.5 91.9 C 115.0 91.2 109.5 91.5 104.0 91.5 C 90.5 91.5 77.0 91.5 63.6 91.5 C 63.4 92.7 63.1 93.9 62.9 95.1 C 60.6 95.1 58.3 95.2 56.0 95.1 C 55.9 91.6 55.9 88.0 56.1 84.4 Z" />
<path fill="#ffffff" stroke="#ffffff" stroke-width="0.09375" opacity="1.00" d=" M 157.2 84.3 C 164.3 84.2 171.3 84.3 178.3 84.2 C 178.7 115.2 178.4 146.2 178.5 177.2 L 178.5 177.2 C 137.8 177.3 97.1 177.3 56.4 177.2 C 56.3 177.1 56.0 176.8 55.9 176.7 C 55.8 155.9 55.9 135.2 55.8 114.4 C 58.3 114.4 60.8 114.4 63.3 114.4 C 63.4 132.9 63.4 151.3 63.4 169.7 C 65.8 169.7 68.3 169.7 70.7 169.7 C 70.8 164.1 70.7 158.4 70.7 152.8 C 71.0 152.6 71.5 152.2 71.7 152.0 C 102.4 152.1 133.0 151.8 163.7 152.2 C 163.8 158.0 163.7 163.9 163.8 169.8 C 166.2 169.8 168.7 169.7 171.1 169.7 C 171.1 143.7 171.1 117.6 171.1 91.5 C 168.4 91.5 165.7 91.5 163.0 91.5 C 161.1 95.4 159.1 99.3 157.1 103.2 C 152.5 103.3 147.8 103.2 143.2 103.3 C 143.5 100.9 143.7 98.4 144.0 96.0 C 146.5 96.1 149.0 96.0 151.5 95.9 C 151.8 95.4 152.3 94.2 152.5 93.7 C 154.0 90.5 155.6 87.4 157.2 84.3 M 78.1 159.5 C 78.1 162.9 78.1 166.3 78.1 169.7 C 104.2 169.7 130.3 169.8 156.4 169.7 C 156.4 166.3 156.4 162.9 156.4 159.5 C 130.3 159.5 104.2 159.5 78.1 159.5 Z" />
<path fill="#6487b1" stroke="#6487b1" stroke-width="0.09375" opacity="1.00" d=" M 124.2 85.0 C 124.4 85.0 124.7 85.0 124.8 85.0 C 126.4 87.9 125.3 91.6 125.0 94.7 C 123.8 95.0 122.7 95.3 121.6 95.6 C 121.2 94.3 120.9 93.1 120.5 91.9 C 122.2 89.8 123.2 87.4 124.2 85.0 Z" />
<path fill="#ffffff" stroke="#ffffff" stroke-width="0.09375" opacity="1.00" d=" M 40.6 86.7 C 41.1 86.6 42.2 86.6 42.8 86.6 C 45.0 86.5 47.2 86.5 49.5 86.4 C 49.7 88.2 49.8 90.0 49.9 91.8 C 49.5 91.8 48.7 91.9 48.3 91.9 C 46.5 92.0 44.7 92.0 42.8 92.0 C 42.3 92.0 41.3 91.9 40.8 91.9 C 40.7 90.2 40.6 88.4 40.6 86.7 Z" />
<path fill="#0f3867" stroke="#0f3867" stroke-width="0.09375" opacity="0.78" d=" M 42.8 92.0 C 44.7 92.0 46.5 92.0 48.3 91.9 C 48.2 92.8 48.1 94.6 48.1 95.5 C 46.0 95.5 43.9 95.5 41.8 95.5 C 42.2 94.3 42.5 93.2 42.8 92.0 Z" />
<path fill="#0e315b" stroke="#0e315b" stroke-width="0.09375" opacity="0.64" d=" M 163.0 91.5 C 165.7 91.5 168.4 91.5 171.1 91.5 C 171.1 117.6 171.1 143.7 171.1 169.7 C 168.7 169.7 166.2 169.8 163.8 169.8 C 163.7 163.9 163.8 158.0 163.7 152.2 C 133.0 151.8 102.4 152.1 71.7 152.0 C 75.6 149.9 80.1 149.9 84.3 149.4 C 79.6 144.2 72.9 140.4 70.7 133.3 C 68.2 127.9 69.3 121.9 69.7 116.2 C 68.1 113.7 65.8 116.4 65.5 118.4 C 65.0 121.2 65.1 124.1 65.1 127.0 C 65.3 137.6 65.1 148.3 65.1 159.0 C 65.1 161.5 65.7 164.0 66.6 166.3 C 67.1 165.9 68.1 165.2 68.6 164.8 C 68.8 160.7 68.3 156.3 70.7 152.8 C 70.7 158.4 70.8 164.1 70.7 169.7 C 68.3 169.7 65.8 169.7 63.4 169.7 C 63.4 151.3 63.4 132.9 63.3 114.4 C 63.3 113.7 63.3 112.4 63.3 111.7 C 66.5 108.1 71.8 108.1 75.6 110.8 C 75.2 111.3 74.6 112.2 74.2 112.7 C 73.5 114.0 72.8 115.3 72.2 116.7 C 70.2 122.8 70.3 129.9 73.5 135.6 C 77.3 143.0 85.5 148.0 94.0 147.6 C 104.2 147.8 113.8 139.9 116.0 130.0 C 116.9 125.7 116.6 121.2 115.3 117.1 C 115.1 116.6 114.6 115.6 114.4 115.1 C 116.5 114.0 118.5 112.5 121.0 112.6 C 123.2 112.5 125.1 113.8 127.1 114.7 L 126.3 115.9 C 120.8 124.6 125.1 137.7 135.1 140.8 C 144.5 144.4 156.1 138.0 157.6 127.9 C 159.6 118.4 152.1 108.5 142.4 107.9 C 140.7 108.0 138.9 108.0 137.2 108.2 C 137.8 106.7 138.4 105.1 139.0 103.6 L 139.1 103.2 C 140.5 103.3 141.8 103.3 143.2 103.3 C 147.8 103.2 152.5 103.3 157.1 103.2 C 159.1 99.3 161.1 95.4 163.0 91.5 M 157.6 104.5 C 155.6 105.6 153.6 106.6 151.6 107.7 C 154.8 111.5 158.9 115.0 159.8 120.1 C 160.5 124.8 160.6 129.8 158.1 134.1 C 153.1 144.6 137.7 147.5 128.8 140.2 C 124.2 137.1 122.3 131.7 120.5 126.8 C 118.3 130.4 117.6 134.8 115.2 138.3 C 112.8 142.0 109.4 144.9 106.6 148.4 C 112.3 149.6 118.2 148.9 124.0 149.0 C 135.0 149.2 146.0 148.9 157.0 149.1 C 161.0 149.1 164.4 151.4 167.9 153.1 C 168.3 140.4 167.9 127.7 168.1 114.9 C 168.0 108.3 168.4 101.7 167.6 95.1 C 162.3 95.8 162.0 102.5 157.6 104.5 Z" />
<path fill="#7999c0" stroke="#7999c0" stroke-width="0.09375" opacity="1.00" d=" M 124.3 101.1 C 127.8 101.0 130.5 98.7 131.0 95.2 L 131.1 96.0 C 131.9 96.0 133.7 96.1 134.6 96.1 C 133.3 98.6 131.8 101.1 130.1 103.4 C 127.9 103.5 125.6 103.1 124.3 101.1 Z" />
<path fill="#0e315b" stroke="#0e315b" stroke-width="0.09375" opacity="0.57" d=" M 157.6 104.5 C 162.0 102.5 162.3 95.8 167.6 95.1 C 168.4 101.7 168.0 108.3 168.1 114.9 C 167.9 127.7 168.3 140.4 167.9 153.1 C 164.4 151.4 161.0 149.1 157.0 149.1 C 146.0 148.9 135.0 149.2 124.0 149.0 C 118.2 148.9 112.3 149.6 106.6 148.4 C 109.4 144.9 112.8 142.0 115.2 138.3 C 117.6 134.8 118.3 130.4 120.5 126.8 C 122.3 131.7 124.2 137.1 128.8 140.2 C 137.7 147.5 153.1 144.6 158.1 134.1 C 160.6 129.8 160.5 124.8 159.8 120.1 C 158.9 115.0 154.8 111.5 151.6 107.7 C 153.6 106.6 155.6 105.6 157.6 104.5 Z" />
<path fill="#8fadd1" stroke="#8fadd1" stroke-width="0.09375" opacity="1.00" d=" M 134.6 96.1 C 136.3 96.1 138.1 96.0 139.8 96.0 C 139.2 98.4 138.6 100.8 138.0 103.2 C 135.3 103.2 132.7 103.3 130.1 103.4 C 131.8 101.1 133.3 98.6 134.6 96.1 Z" />
<path fill="#c6d3e4" stroke="#c6d3e4" stroke-width="0.09375" opacity="1.00" d=" M 139.8 96.0 C 141.2 96.0 142.6 96.0 144.0 96.0 C 143.7 98.4 143.5 100.9 143.2 103.3 C 141.8 103.3 140.5 103.3 139.1 103.2 L 138.0 103.2 C 138.6 100.8 139.2 98.4 139.8 96.0 Z" />
<path fill="#124076" stroke="#124076" stroke-width="0.09375" opacity="0.78" d=" M 41.2 101.0 C 46.1 101.0 50.9 101.0 55.8 101.0 C 55.8 101.8 55.8 103.4 55.8 104.2 C 55.9 105.5 55.9 106.8 55.9 108.2 C 55.9 108.9 55.9 110.4 55.9 111.1 L 55.8 111.8 C 55.5 112.8 55.2 113.8 54.9 114.7 C 51.8 112.4 48.7 110.1 45.9 107.5 C 45.8 107.3 45.6 107.0 45.4 106.8 C 44.2 104.7 42.8 102.8 41.2 101.0 Z" />
<path fill="#6c8fb8" stroke="#6c8fb8" stroke-width="0.09375" opacity="1.00" d=" M 55.8 101.0 C 58.3 101.0 60.8 101.0 63.3 101.0 C 63.4 101.8 63.4 103.4 63.4 104.2 C 60.9 104.2 58.3 104.2 55.8 104.2 C 55.8 103.4 55.8 101.8 55.8 101.0 Z" />
<path fill="#13437d" stroke="#13437d" stroke-width="0.09375" opacity="0.83" d=" M 63.3 101.0 C 83.7 101.0 104.0 100.9 124.3 101.1 C 125.6 103.1 127.9 103.5 130.1 103.4 C 132.7 103.3 135.3 103.2 138.0 103.2 L 139.1 103.2 L 139.0 103.6 C 134.9 105.5 130.8 108.3 126.0 108.1 C 120.9 107.9 115.7 107.7 110.7 109.2 C 109.2 108.0 107.8 106.9 106.3 105.8 C 98.8 100.7 88.2 100.9 80.8 105.8 C 79.3 107.0 77.9 108.3 76.5 109.7 C 76.3 109.9 75.8 110.5 75.6 110.8 C 71.8 108.1 66.5 108.1 63.3 111.7 L 63.3 111.2 C 63.3 110.4 63.3 108.8 63.3 108.0 C 63.3 106.7 63.4 105.5 63.4 104.2 C 63.4 103.4 63.4 101.8 63.3 101.0 Z" />
<path fill="#7b9cc4" stroke="#7b9cc4" stroke-width="0.09375" opacity="1.00" d=" M 80.8 105.8 C 88.2 100.9 98.8 100.7 106.3 105.8 C 97.8 106.7 89.2 106.7 80.8 105.8 Z" />
<path fill="#89a8cd" stroke="#89a8cd" stroke-width="0.09375" opacity="1.00" d=" M 55.8 104.2 C 58.3 104.2 60.9 104.2 63.4 104.2 C 63.4 105.5 63.3 106.7 63.3 108.0 C 60.9 108.0 58.4 108.1 55.9 108.2 C 55.9 106.8 55.9 105.5 55.8 104.2 Z" />
<path fill="#113b6e" stroke="#113b6e" stroke-width="0.09375" opacity="0.73" d=" M 126.0 108.1 C 130.8 108.3 134.9 105.5 139.0 103.6 C 138.4 105.1 137.8 106.7 137.2 108.2 C 133.2 109.3 129.7 111.5 127.1 114.7 C 125.1 113.8 123.2 112.5 121.0 112.6 C 118.5 112.5 116.5 114.0 114.4 115.1 C 114.0 114.4 113.6 113.6 113.2 112.9 C 112.3 111.7 111.3 110.5 110.3 109.2 L 110.7 109.2 C 115.7 107.7 120.9 107.9 126.0 108.1 Z" />
<path fill="#9bb5d5" stroke="#9bb5d5" stroke-width="0.09375" opacity="1.00" d=" M 76.5 109.7 C 77.9 108.3 79.3 107.0 80.8 105.8 C 89.2 106.7 97.8 106.7 106.3 105.8 C 107.8 106.9 109.2 108.0 110.7 109.2 L 110.3 109.2 C 106.9 110.1 103.4 110.4 100.0 110.3 C 92.2 110.1 84.3 110.6 76.5 109.7 Z" />
<path fill="#0e315a" stroke="#0e315a" stroke-width="0.09375" opacity="0.64" d=" M 45.9 107.5 C 48.7 110.1 51.8 112.4 54.9 114.7 C 55.2 113.8 55.5 112.8 55.8 111.8 C 55.8 112.4 55.8 113.8 55.8 114.4 C 55.9 135.2 55.8 155.9 55.9 176.7 C 53.1 174.3 52.9 170.5 53.0 167.1 C 53.2 156.0 53.0 145.0 53.0 134.0 C 53.0 128.7 53.6 123.4 52.7 118.1 C 52.6 116.2 50.9 115.0 49.7 113.8 C 48.3 112.4 46.6 111.1 46.3 109.0 L 45.9 107.5 Z" />
<path fill="#a6bdd8" stroke="#a6bdd8" stroke-width="0.09375" opacity="1.00" d=" M 55.9 108.2 C 58.4 108.1 60.9 108.0 63.3 108.0 C 63.3 108.8 63.3 110.4 63.3 111.2 C 60.8 111.2 58.3 111.1 55.9 111.1 C 55.9 110.4 55.9 108.9 55.9 108.2 Z" />
<path fill="#e2e8ef" stroke="#e2e8ef" stroke-width="0.09375" opacity="1.00" d=" M 127.1 114.7 C 129.7 111.5 133.2 109.3 137.2 108.2 C 138.9 108.0 140.7 108.0 142.4 107.9 C 140.0 110.4 137.7 113.0 134.6 114.5 C 132.0 115.8 129.1 115.7 126.3 115.9 L 127.1 114.7 Z" />
<path fill="#ffffff" stroke="#ffffff" stroke-width="0.09375" opacity="1.00" d=" M 142.4 107.9 C 152.1 108.5 159.6 118.4 157.6 127.9 C 156.1 138.0 144.5 144.4 135.1 140.8 C 125.1 137.7 120.8 124.6 126.3 115.9 C 129.1 115.7 132.0 115.8 134.6 114.5 C 137.7 113.0 140.0 110.4 142.4 107.9 M 138.3 120.5 C 135.2 122.2 134.9 127.3 138.1 129.1 C 140.9 131.1 145.1 129.3 145.8 126.0 C 147.1 122.0 141.8 117.9 138.3 120.5 Z" />
<path fill="#bfcee1" stroke="#bfcee1" stroke-width="0.09375" opacity="1.00" d=" M 75.6 110.8 C 75.8 110.5 76.3 109.9 76.5 109.7 C 84.3 110.6 92.2 110.1 100.0 110.3 C 103.4 110.4 106.9 110.1 110.3 109.2 C 111.3 110.5 112.3 111.7 113.2 112.9 C 104.5 113.7 95.7 113.2 87.0 113.4 C 82.7 113.5 78.5 113.2 74.2 112.7 C 74.6 112.2 75.2 111.3 75.6 110.8 Z" />
<path fill="#cbd7e5" stroke="#cbd7e5" stroke-width="0.09375" opacity="1.00" d=" M 55.9 111.1 C 58.3 111.1 60.8 111.2 63.3 111.2 L 63.3 111.7 C 63.3 112.4 63.3 113.7 63.3 114.4 C 60.8 114.4 58.3 114.4 55.8 114.4 C 55.8 113.8 55.8 112.4 55.8 111.8 L 55.9 111.1 Z" />
<path fill="#eaeef2" stroke="#eaeef2" stroke-width="0.09375" opacity="1.00" d=" M 72.2 116.7 C 72.8 115.3 73.5 114.0 74.2 112.7 C 78.5 113.2 82.7 113.5 87.0 113.4 C 95.7 113.2 104.5 113.7 113.2 112.9 C 113.6 113.6 114.0 114.4 114.4 115.1 C 114.6 115.6 115.1 116.6 115.3 117.1 C 100.9 117.0 86.5 117.7 72.2 116.7 Z" />
<path fill="#0e315b" stroke="#0e315b" stroke-width="0.09375" opacity="0.60" d=" M 65.5 118.4 C 65.8 116.4 68.1 113.7 69.7 116.2 C 69.3 121.9 68.2 127.9 70.7 133.3 C 72.9 140.4 79.6 144.2 84.3 149.4 C 80.1 149.9 75.6 149.9 71.7 152.0 C 71.5 152.2 71.0 152.6 70.7 152.8 C 68.3 156.3 68.8 160.7 68.6 164.8 C 68.1 165.2 67.1 165.9 66.6 166.3 C 65.7 164.0 65.1 161.5 65.1 159.0 C 65.1 148.3 65.3 137.6 65.1 127.0 C 65.1 124.1 65.0 121.2 65.5 118.4 Z" />
<path fill="#ffffff" stroke="#ffffff" stroke-width="0.09375" opacity="1.00" d=" M 73.5 135.6 C 70.3 129.9 70.2 122.8 72.2 116.7 C 86.5 117.7 100.9 117.0 115.3 117.1 C 116.6 121.2 116.9 125.7 116.0 130.0 C 113.8 139.9 104.2 147.8 94.0 147.6 C 85.5 148.0 77.3 143.0 73.5 135.6 M 91.3 120.3 C 88.0 122.0 87.7 127.1 90.9 129.1 C 94.0 131.4 98.7 128.7 98.7 125.0 C 99.0 121.4 94.5 118.3 91.3 120.3 Z" />
<path fill="#0e315b" stroke="#0e315b" stroke-width="0.09375" opacity="0.66" d=" M 91.3 120.3 C 94.5 118.3 99.0 121.4 98.7 125.0 C 98.7 128.7 94.0 131.4 90.9 129.1 C 87.7 127.1 88.0 122.0 91.3 120.3 Z" />
<path fill="#0e315b" stroke="#0e315b" stroke-width="0.09375" opacity="0.66" d=" M 138.3 120.5 C 141.8 117.9 147.1 122.0 145.8 126.0 C 145.1 129.3 140.9 131.1 138.1 129.1 C 134.9 127.3 135.2 122.2 138.3 120.5 Z" />
<path fill="#0e315b" stroke="#0e315b" stroke-width="0.09375" opacity="0.61" d=" M 78.1 159.5 C 104.2 159.5 130.3 159.5 156.4 159.5 C 156.4 162.9 156.4 166.3 156.4 169.7 C 130.3 169.8 104.2 169.7 78.1 169.7 C 78.1 166.3 78.1 162.9 78.1 159.5 Z" />
<path fill="#0e315a" stroke="#0e315a" stroke-width="0.09375" opacity="0.64" d=" M 56.4 177.2 C 97.1 177.3 137.8 177.3 178.5 177.2 C 175.2 180.6 170.2 179.9 166.0 180.1 C 131.6 179.9 97.3 180.1 63.0 179.9 C 60.5 180.0 58.1 179.0 56.4 177.2 Z" />
</svg>
