<?xml version="1.0" encoding="UTF-8" ?>
<!DOCTYPE svg PUBLIC "-//W3C//DTD SVG 1.1//EN" "http://www.w3.org/Graphics/SVG/1.1/DTD/svg11.dtd">
<svg width="198pt" height="198pt" viewBox="0 0 198 198" version="1.1" xmlns="http://www.w3.org/2000/svg">
<path fill="#020a13" stroke="#020a13" stroke-width="0.09375" opacity="0.15" d=" M 25.3 13.5 C 33.5 12.9 41.7 13.4 50.0 13.2 C 56.9 13.3 64.4 12.8 70.5 16.5 C 76.8 20.8 81.8 26.5 87.2 31.8 C 90.9 36.1 95.6 40.2 96.9 46.1 C 98.3 51.3 97.2 56.7 98.2 61.9 C 98.5 63.7 100.5 64.5 102.1 64.6 C 109.4 65.0 117.2 64.6 123.9 68.2 C 127.4 70.1 129.7 74.5 133.9 74.8 C 137.8 73.0 139.9 68.5 144.2 67.2 C 153.4 64.1 163.5 64.2 172.9 66.3 C 177.4 67.3 181.2 70.8 183.1 75.0 C 185.6 80.3 185.3 86.3 185.3 92.1 C 185.2 115.4 185.3 138.7 185.3 162.0 C 185.2 166.8 185.0 171.7 182.9 176.0 C 181.1 180.0 177.6 183.2 173.4 184.4 C 166.8 186.2 159.8 186.4 153.0 186.3 C 122.0 186.2 91.0 186.4 60.0 186.3 C 53.6 185.8 46.5 185.8 40.9 182.1 C 35.3 178.0 33.9 170.5 33.8 164.0 C 33.6 152.3 33.8 140.6 33.8 129.0 C 33.6 126.9 33.8 124.4 32.2 122.8 C 26.9 120.9 20.6 121.8 15.8 118.2 C 11.3 114.6 10.2 108.5 10.2 103.0 C 10.3 78.7 10.2 54.3 10.3 30.0 C 10.4 25.4 11.8 20.5 15.2 17.3 C 18.0 14.9 21.8 14.0 25.3 13.5 M 25.5 16.8 C 22.1 17.3 18.4 18.4 16.4 21.4 C 14.0 24.7 13.5 29.0 13.5 33.0 C 13.5 56.3 13.5 79.7 13.5 103.0 C 13.6 107.6 14.7 112.6 18.3 115.7 C 22.6 118.5 28.1 117.9 32.9 119.0 C 35.6 119.6 37.7 122.2 37.5 125.0 C 37.6 135.3 37.5 145.6 37.5 156.0 C 37.6 162.0 36.9 168.2 39.2 173.9 C 40.5 177.1 43.1 179.6 46.3 180.6 C 53.0 182.7 60.1 182.6 67.0 182.5 C 98.0 182.5 129.0 182.5 160.0 182.5 C 165.2 182.2 170.7 181.9 175.3 179.4 C 180.2 176.1 181.8 169.6 181.5 164.0 C 181.4 137.4 181.5 110.7 181.5 84.0 C 181.6 78.1 178.3 71.4 172.1 70.0 C 163.5 67.8 154.2 68.0 145.6 70.7 C 140.5 72.3 138.2 79.7 132.1 78.7 C 127.3 77.8 125.2 72.2 120.6 70.6 C 114.6 68.6 108.2 68.5 101.9 68.5 C 98.9 68.7 95.6 67.0 94.9 63.9 C 93.8 58.7 95.2 53.3 93.8 48.1 C 93.0 43.9 90.6 40.3 87.6 37.4 C 82.6 32.4 77.6 27.4 72.6 22.4 C 67.8 17.5 60.5 16.3 53.9 16.5 C 44.4 16.7 34.9 16.2 25.5 16.8 Z" />
<path fill="#0a213e" stroke="#0a213e" stroke-width="0.09375" opacity="0.40" d=" M 25.5 16.8 C 34.9 16.2 44.4 16.7 53.9 16.5 C 60.5 16.3 67.8 17.5 72.6 22.4 C 77.6 27.4 82.6 32.4 87.6 37.4 C 90.6 40.3 93.0 43.9 93.8 48.1 C 95.2 53.3 93.8 58.7 94.9 63.9 C 95.6 67.0 98.9 68.7 101.9 68.5 C 108.2 68.5 114.6 68.6 120.6 70.6 C 125.2 72.2 127.3 77.8 132.1 78.7 C 138.2 79.7 140.5 72.3 145.6 70.7 C 154.2 68.0 163.5 67.8 172.1 70.0 C 178.3 71.4 181.6 78.1 181.5 84.0 C 181.5 110.7 181.4 137.4 181.5 164.0 C 181.8 169.6 180.2 176.1 175.3 179.4 C 170.7 181.9 165.2 182.2 160.0 182.5 C 129.0 182.5 98.0 182.5 67.0 182.5 C 60.1 182.6 53.0 182.7 46.3 180.6 C 43.1 179.6 40.5 177.1 39.2 173.9 C 36.9 168.2 37.6 162.0 37.5 156.0 C 37.5 145.6 37.6 135.3 37.5 125.0 C 37.7 122.2 35.6 119.6 32.9 119.0 C 28.1 117.9 22.6 118.5 18.3 115.7 C 14.7 112.6 13.6 107.6 13.5 103.0 C 13.5 79.7 13.5 56.3 13.5 33.0 C 13.5 29.0 14.0 24.7 16.4 21.4 C 18.4 18.4 22.1 17.3 25.5 16.8 M 24.2 21.0 C 19.5 21.8 17.1 26.6 17.4 31.0 C 17.5 55.3 17.5 79.7 17.4 104.1 C 17.3 107.6 18.5 111.7 22.0 113.2 C 26.7 115.1 32.5 113.8 36.5 117.4 C 40.9 120.0 41.0 125.5 41.2 130.0 C 41.4 142.7 41.1 155.3 41.3 168.0 C 41.3 172.6 44.3 177.2 49.0 178.0 C 53.2 179.0 57.6 178.7 62.0 178.8 C 95.0 178.7 128.0 178.8 161.0 178.8 C 165.2 178.6 169.8 178.8 173.5 176.5 C 176.9 174.2 177.9 169.9 177.8 166.0 C 177.8 139.0 177.7 112.0 177.8 85.0 C 177.7 82.0 177.9 78.7 175.7 76.3 C 173.1 72.6 168.1 72.4 163.9 72.3 C 158.9 72.3 153.8 71.9 148.9 73.0 C 142.6 74.3 140.1 83.0 133.0 82.5 C 127.0 82.3 124.5 75.7 119.3 73.8 C 113.6 71.4 107.2 72.8 101.3 71.8 C 96.4 71.4 92.9 67.2 91.1 63.0 C 89.6 57.8 91.6 52.0 89.5 46.8 C 87.3 41.6 82.7 38.0 78.9 34.1 C 75.0 30.4 71.6 26.0 67.0 23.0 C 60.7 19.3 53.0 20.7 46.0 20.4 C 38.7 20.8 31.4 19.8 24.2 21.0 Z" />
<path fill="#0d2e56" stroke="#0d2e56" stroke-width="0.09375" opacity="0.55" d=" M 24.2 21.0 C 31.4 19.8 38.7 20.8 46.0 20.4 C 53.0 20.7 60.7 19.3 67.0 23.0 C 71.6 26.0 75.0 30.4 78.9 34.1 C 82.7 38.0 87.3 41.6 89.5 46.8 C 91.6 52.0 89.6 57.8 91.1 63.0 C 92.9 67.2 96.4 71.4 101.3 71.8 C 107.2 72.8 113.6 71.4 119.3 73.8 C 124.5 75.7 127.0 82.3 133.0 82.5 C 140.1 83.0 142.6 74.3 148.9 73.0 C 153.8 71.9 158.9 72.3 163.9 72.3 C 168.1 72.4 173.1 72.6 175.7 76.3 C 177.9 78.7 177.7 82.0 177.8 85.0 C 177.7 112.0 177.8 139.0 177.8 166.0 C 177.9 169.9 176.9 174.2 173.5 176.5 C 169.8 178.8 165.2 178.6 161.0 178.8 C 128.0 178.8 95.0 178.7 62.0 178.8 C 57.6 178.7 53.2 179.0 49.0 178.0 C 44.3 177.2 41.3 172.6 41.3 168.0 C 41.1 155.3 41.4 142.7 41.2 130.0 C 41.0 125.5 40.9 120.0 36.5 117.4 C 32.5 113.8 26.7 115.1 22.0 113.2 C 18.5 111.7 17.3 107.6 17.4 104.1 C 17.5 79.7 17.5 55.3 17.4 31.0 C 17.1 26.6 19.5 21.8 24.2 21.0 M 23.7 25.9 L 23.3 25.9 C 20.6 28.6 20.8 32.5 20.8 36.0 C 20.8 58.0 20.8 80.0 20.8 102.0 C 20.6 104.7 21.4 107.4 23.2 109.5 C 23.5 109.5 24.2 109.5 24.5 109.5 C 27.7 112.0 32.5 110.7 35.6 113.5 C 38.6 116.1 41.4 119.0 44.6 121.4 C 45.2 128.6 44.8 135.8 45.0 143.0 C 45.2 151.7 44.4 160.4 46.0 169.0 C 46.3 172.0 49.2 173.7 51.9 174.0 C 62.5 175.7 73.3 174.9 84.0 175.0 C 99.0 175.2 114.0 174.9 129.0 175.0 C 141.7 174.5 154.5 176.1 167.0 174.0 C 168.9 173.6 171.5 173.4 172.3 171.4 C 174.6 166.2 174.0 160.4 174.0 155.0 C 174.0 132.3 174.1 109.7 174.1 87.1 C 173.9 84.1 173.5 80.9 171.6 78.4 C 169.3 77.2 166.5 77.6 164.0 77.5 C 159.0 77.6 154.0 77.1 149.1 78.0 C 144.8 80.1 144.2 86.8 139.0 87.6 C 134.4 87.9 129.5 88.3 125.0 86.9 C 122.3 84.4 120.8 80.7 117.6 78.6 L 117.9 80.4 C 117.7 80.0 117.4 79.2 117.2 78.7 C 111.8 74.6 104.5 77.3 98.4 75.5 C 95.9 73.8 94.1 71.3 91.7 69.3 C 89.5 67.3 86.3 65.4 86.4 61.9 C 85.5 55.9 88.4 48.4 83.3 43.7 C 78.3 38.7 73.2 33.8 68.3 28.7 C 66.3 26.5 63.7 24.7 60.7 24.4 C 52.2 23.3 43.5 24.1 35.0 23.8 C 31.2 24.0 26.7 23.0 23.7 25.9 Z" />
<path fill="#0e315b" stroke="#0e315b" stroke-width="0.09375" opacity="0.67" d=" M 23.7 25.9 C 26.7 23.0 31.2 24.0 35.0 23.8 C 43.5 24.1 52.2 23.3 60.7 24.4 C 63.7 24.7 66.3 26.5 68.3 28.7 C 73.2 33.8 78.3 38.7 83.3 43.7 C 88.4 48.4 85.5 55.9 86.4 61.9 C 86.3 65.4 89.5 67.3 91.7 69.3 C 94.1 71.3 95.9 73.8 98.4 75.5 C 104.5 77.3 111.8 74.6 117.2 78.7 C 110.3 78.8 103.4 78.7 96.5 78.8 L 95.1 78.8 C 92.9 74.5 89.7 70.6 85.1 68.7 C 85.1 62.4 85.3 56.2 85.1 49.9 C 85.2 47.5 82.8 46.2 81.5 44.5 C 75.1 38.5 69.2 32.1 62.7 26.3 C 49.8 25.5 36.7 26.3 23.7 25.9 Z" />
<path fill="#0e315a" stroke="#0e315a" stroke-width="0.09375" opacity="0.64" d=" M 20.8 36.0 C 20.8 32.5 20.6 28.6 23.3 25.9 C 23.2 53.8 23.3 81.6 23.2 109.5 C 21.4 107.4 20.6 104.7 20.8 102.0 C 20.8 80.0 20.8 58.0 20.8 36.0 Z" />
<path fill="#ffffff" stroke="#ffffff" stroke-width="0.09375" opacity="1.00" d=" M 23.3 25.9 L 23.7 25.9 C 36.7 26.3 49.8 25.5 62.7 26.3 C 69.2 32.1 75.1 38.5 81.5 44.5 C 82.8 46.2 85.2 47.5 85.1 49.9 C 85.3 56.2 85.1 62.4 85.1 68.7 C 85.1 72.0 85.1 75.4 85.1 78.7 C 85.0 81.1 85.0 83.5 85.1 85.9 C 85.1 89.4 85.1 92.8 85.1 96.3 C 85.0 100.7 85.1 105.0 85.1 109.4 C 78.4 109.5 71.7 109.4 65.1 109.5 C 62.0 109.5 58.9 109.5 55.8 109.5 C 53.2 109.5 50.7 109.5 48.1 109.5 C 43.9 109.5 39.8 109.5 35.6 109.5 C 31.9 109.5 28.2 109.5 24.5 109.5 C 24.2 109.5 23.5 109.5 23.2 109.5 C 23.3 81.6 23.2 53.8 23.3 25.9 M 27.9 30.7 C 27.9 55.5 27.9 80.2 27.9 105.0 C 30.7 105.0 33.6 105.0 36.4 105.0 C 37.8 105.0 39.2 105.0 40.6 105.0 C 49.8 104.8 59.0 105.1 68.2 105.0 C 72.3 105.0 76.4 105.0 80.5 105.0 C 80.4 102.3 80.4 99.6 80.4 96.9 C 80.4 93.3 80.4 89.7 80.4 86.1 C 80.4 83.6 80.4 81.2 80.4 78.7 C 80.4 76.4 80.4 74.0 80.4 71.7 C 80.4 69.9 80.4 68.2 80.4 66.5 C 80.4 61.8 80.4 57.2 80.4 52.5 C 73.2 52.4 65.9 52.6 58.7 52.4 C 58.5 45.2 58.7 38.0 58.6 30.7 C 48.4 30.8 38.1 30.7 27.9 30.7 M 63.4 33.3 C 63.4 38.1 63.4 42.9 63.4 47.7 C 68.3 47.8 73.2 47.7 78.1 47.7 C 73.0 43.1 68.3 38.1 63.4 33.3 Z" />
<path fill="#0e315b" stroke="#0e315b" stroke-width="0.09375" opacity="0.63" d=" M 27.9 30.7 C 38.1 30.7 48.4 30.8 58.6 30.7 C 58.7 38.0 58.5 45.2 58.7 52.4 C 65.9 52.6 73.2 52.4 80.4 52.5 C 80.4 57.2 80.4 61.8 80.4 66.5 C 73.7 68.5 66.8 66.3 60.0 66.7 C 54.3 66.7 48.7 67.6 43.4 69.4 C 40.5 69.5 37.6 69.3 34.7 69.7 C 34.1 71.1 34.1 72.6 33.8 74.1 L 35.0 74.2 C 35.6 74.3 36.8 74.4 37.5 74.5 C 36.9 76.5 36.3 78.5 35.6 80.4 C 35.3 80.6 34.6 80.9 34.3 81.1 C 34.2 82.4 34.1 83.7 34.1 85.0 L 35.0 85.1 C 35.4 85.2 36.2 85.3 36.6 85.4 C 36.2 87.3 35.9 89.2 35.4 91.2 C 35.1 91.4 34.6 91.8 34.3 92.0 C 34.2 93.2 34.1 94.3 34.1 95.5 C 34.6 95.6 35.7 95.9 36.2 96.0 C 36.6 99.0 36.5 102.0 36.4 105.0 C 33.6 105.0 30.7 105.0 27.9 105.0 C 27.9 80.2 27.9 55.5 27.9 30.7 M 34.4 37.1 C 34.2 38.5 34.1 39.9 34.0 41.3 C 40.1 41.7 46.2 41.5 52.4 41.4 C 52.3 39.9 52.3 38.4 52.3 36.9 C 46.3 36.9 40.3 36.3 34.4 37.1 M 34.2 47.9 C 34.2 49.4 34.2 50.8 34.2 52.3 C 40.2 52.6 46.3 52.5 52.3 52.4 C 52.3 50.9 52.3 49.3 52.3 47.8 C 46.3 47.7 40.2 47.7 34.2 47.9 M 34.2 58.8 C 34.2 60.3 34.2 61.7 34.2 63.2 C 47.5 63.3 60.9 63.3 74.2 63.2 C 74.2 61.7 74.2 60.3 74.2 58.8 C 60.9 58.7 47.5 58.7 34.2 58.8 Z" />
<path fill="#0e315b" stroke="#0e315b" stroke-width="0.09375" opacity="0.65" d=" M 63.4 33.3 C 68.3 38.1 73.0 43.1 78.1 47.7 C 73.2 47.7 68.3 47.8 63.4 47.7 C 63.4 42.9 63.4 38.1 63.4 33.3 Z" />
<path fill="#ffffff" stroke="#ffffff" stroke-width="0.09375" opacity="1.00" d=" M 34.4 37.1 C 40.3 36.3 46.3 36.9 52.3 36.9 C 52.3 38.4 52.3 39.9 52.4 41.4 C 46.2 41.5 40.1 41.7 34.0 41.3 C 34.1 39.9 34.2 38.5 34.4 37.1 Z" />
<path fill="#ffffff" stroke="#ffffff" stroke-width="0.09375" opacity="1.00" d=" M 34.2 47.9 C 40.2 47.7 46.3 47.7 52.3 47.8 C 52.3 49.3 52.3 50.9 52.3 52.4 C 46.3 52.5 40.2 52.6 34.2 52.3 C 34.2 50.8 34.2 49.4 34.2 47.9 Z" />
<path fill="#ffffff" stroke="#ffffff" stroke-width="0.09375" opacity="1.00" d=" M 34.2 58.8 C 47.5 58.7 60.9 58.7 74.2 58.8 C 74.2 60.3 74.2 61.7 74.2 63.2 C 60.9 63.3 47.5 63.3 34.2 63.2 C 34.2 61.7 34.2 60.3 34.2 58.8 Z" />
<path fill="#113b6f" stroke="#113b6f" stroke-width="0.09375" opacity="0.75" d=" M 60.0 66.7 C 66.8 66.3 73.7 68.5 80.4 66.5 C 80.4 68.2 80.4 69.9 80.4 71.7 C 78.3 71.1 76.2 70.5 74.2 69.9 C 63.9 68.9 53.6 69.9 43.4 69.4 C 48.7 67.6 54.3 66.7 60.0 66.7 Z" />
<path fill="#ffffff" stroke="#ffffff" stroke-width="0.09375" opacity="1.00" d=" M 34.7 69.7 C 37.6 69.3 40.5 69.5 43.4 69.4 C 53.6 69.9 63.9 68.9 74.2 69.9 C 74.2 71.4 74.2 72.8 74.2 74.2 C 61.1 74.3 48.0 74.3 35.0 74.2 L 33.8 74.1 C 34.1 72.6 34.1 71.1 34.7 69.7 Z" />
<path fill="#13437b" stroke="#13437b" stroke-width="0.09375" opacity="0.82" d=" M 85.1 68.7 C 89.7 70.6 92.9 74.5 95.1 78.8 C 94.5 78.8 93.2 78.8 92.5 78.8 C 91.6 78.8 89.8 78.8 88.9 78.7 C 87.6 78.7 86.3 78.7 85.1 78.7 C 85.1 75.4 85.1 72.0 85.1 68.7 Z" />
<path fill="#13417b" stroke="#13417b" stroke-width="0.09375" opacity="0.85" d=" M 74.2 69.9 C 76.2 70.5 78.3 71.1 80.4 71.7 C 80.4 74.0 80.4 76.4 80.4 78.7 C 71.6 78.7 62.8 78.8 54.0 78.7 C 51.5 78.6 49.1 79.4 47.0 80.5 C 44.7 80.5 42.4 80.5 40.1 80.5 C 40.8 78.7 41.4 76.9 42.1 75.1 C 40.5 74.9 39.0 74.7 37.5 74.5 C 36.8 74.4 35.6 74.3 35.0 74.2 C 48.0 74.3 61.1 74.3 74.2 74.2 C 74.2 72.8 74.2 71.4 74.2 69.9 Z" />
<path fill="#10396a" stroke="#10396a" stroke-width="0.09375" opacity="0.74" d=" M 37.5 74.5 C 39.0 74.7 40.5 74.9 42.1 75.1 C 41.4 76.9 40.8 78.7 40.1 80.5 C 38.6 80.5 37.1 80.4 35.6 80.4 C 36.3 78.5 36.9 76.5 37.5 74.5 Z" />
<path fill="#0e315a" stroke="#0e315a" stroke-width="0.09375" opacity="0.63" d=" M 139.0 87.6 C 144.2 86.8 144.8 80.1 149.1 78.0 C 154.0 77.1 159.0 77.6 164.0 77.5 C 166.5 77.6 169.3 77.2 171.6 78.4 C 173.5 80.9 173.9 84.1 174.1 87.1 C 174.1 109.7 174.0 132.3 174.0 155.0 C 174.0 160.4 174.6 166.2 172.3 171.4 C 171.5 173.4 168.9 173.6 167.0 174.0 C 154.5 176.1 141.7 174.5 129.0 175.0 C 114.0 174.9 99.0 175.2 84.0 175.0 C 73.3 174.9 62.5 175.7 51.9 174.0 C 49.2 173.7 46.3 172.0 46.0 169.0 C 44.4 160.4 45.2 151.7 45.0 143.0 C 44.8 135.8 45.2 128.6 44.6 121.4 C 41.4 119.0 38.6 116.1 35.6 113.5 C 32.5 110.7 27.7 112.0 24.5 109.5 C 28.2 109.5 31.9 109.5 35.6 109.5 C 38.3 114.3 42.4 119.1 48.3 119.4 C 48.1 134.6 48.3 149.8 48.2 165.0 C 48.2 167.1 48.2 169.3 48.5 171.5 C 50.3 171.8 52.2 171.8 54.0 171.8 C 92.9 171.7 131.8 171.9 170.8 171.7 C 171.0 140.7 170.9 109.8 170.8 78.8 C 163.8 78.7 156.7 78.8 149.7 78.7 C 147.6 82.6 145.6 86.6 143.7 90.5 C 136.7 90.5 129.8 90.5 122.8 90.5 C 121.2 87.2 119.4 83.9 117.9 80.4 L 117.6 78.6 C 120.8 80.7 122.3 84.4 125.0 86.9 C 129.5 88.3 134.4 87.9 139.0 87.6 Z" />
<path fill="#6b8eb8" stroke="#6b8eb8" stroke-width="0.09375" opacity="1.00" d=" M 47.0 80.5 C 49.1 79.4 51.5 78.6 54.0 78.7 C 62.8 78.8 71.6 78.7 80.4 78.7 C 80.4 81.2 80.4 83.6 80.4 86.1 C 72.2 86.0 64.0 85.6 55.7 85.9 C 55.7 87.7 55.7 89.5 55.7 91.3 C 53.2 91.3 50.8 91.3 48.3 91.3 C 48.3 89.3 48.3 87.2 48.3 85.2 C 56.9 85.2 65.5 85.5 74.1 85.2 C 74.2 83.6 74.2 82.1 74.3 80.6 C 65.2 80.5 56.1 80.6 47.0 80.5 Z" />
<path fill="#7597c0" stroke="#7597c0" stroke-width="0.09375" opacity="1.00" d=" M 85.1 78.7 C 86.3 78.7 87.6 78.7 88.9 78.7 C 88.9 81.2 88.9 83.6 88.9 86.0 C 87.6 86.0 86.3 86.0 85.1 85.9 C 85.0 83.5 85.0 81.1 85.1 78.7 Z" />
<path fill="#8dacd0" stroke="#8dacd0" stroke-width="0.09375" opacity="1.00" d=" M 88.9 78.7 C 89.8 78.8 91.6 78.8 92.5 78.8 C 92.5 81.2 92.5 83.6 92.4 86.0 C 91.5 86.0 89.8 86.0 88.9 86.0 C 88.9 83.6 88.9 81.2 88.9 78.7 Z" />
<path fill="#c0cfe1" stroke="#c0cfe1" stroke-width="0.09375" opacity="1.00" d=" M 92.5 78.8 C 93.2 78.8 94.5 78.8 95.1 78.8 L 96.5 78.8 C 96.5 81.2 96.5 83.6 96.5 86.0 L 94.7 86.0 C 94.2 86.0 93.0 86.0 92.4 86.0 C 92.5 83.6 92.5 81.2 92.5 78.8 Z" />
<path fill="#ffffff" stroke="#ffffff" stroke-width="0.09375" opacity="1.00" d=" M 96.5 78.8 C 103.4 78.7 110.3 78.8 117.2 78.7 C 117.4 79.2 117.7 80.0 117.9 80.4 C 119.4 83.9 121.2 87.2 122.8 90.5 C 129.8 90.5 136.7 90.5 143.7 90.5 C 145.6 86.6 147.6 82.6 149.7 78.7 C 156.7 78.8 163.8 78.7 170.8 78.8 C 170.9 109.8 171.0 140.7 170.8 171.7 C 131.8 171.9 92.9 171.7 54.0 171.8 C 52.2 171.8 50.3 171.8 48.5 171.5 C 48.2 169.3 48.2 167.1 48.2 165.0 C 48.3 149.8 48.1 134.6 48.3 119.4 C 48.3 119.0 48.4 118.3 48.4 117.9 L 48.5 118.1 C 49.7 120.7 52.7 120.4 55.1 120.9 C 56.0 135.4 55.3 150.0 55.4 164.6 C 57.9 164.5 60.5 164.4 63.0 164.3 C 63.0 158.5 63.1 152.7 62.9 147.0 C 63.3 146.8 64.0 146.6 64.3 146.5 C 91.5 146.5 118.8 146.5 146.0 146.5 C 149.3 146.5 152.6 146.2 155.9 146.9 C 156.4 152.6 156.0 158.5 156.1 164.3 C 158.6 164.3 161.0 164.3 163.5 164.3 C 163.5 138.2 163.5 112.1 163.5 86.0 C 160.8 86.0 158.1 86.0 155.4 86.0 C 153.5 89.9 151.5 93.8 149.5 97.7 C 139.0 97.8 128.5 97.8 118.0 97.7 C 116.1 93.8 114.1 89.9 112.2 86.0 C 106.9 86.0 101.7 86.0 96.5 86.0 C 96.5 83.6 96.5 81.2 96.5 78.8 M 70.5 154.0 C 70.5 157.4 70.5 160.8 70.5 164.3 C 96.5 164.3 122.6 164.2 148.6 164.3 C 148.6 160.8 148.6 157.4 148.6 154.0 C 122.6 154.0 96.5 154.0 70.5 154.0 Z" />
<path fill="#ffffff" stroke="#ffffff" stroke-width="0.09375" opacity="1.00" d=" M 34.3 81.1 C 34.6 80.9 35.3 80.6 35.6 80.4 C 37.1 80.4 38.6 80.5 40.1 80.5 C 42.4 80.5 44.7 80.5 47.0 80.5 C 56.1 80.6 65.2 80.5 74.3 80.6 C 74.2 82.1 74.2 83.6 74.1 85.2 C 65.5 85.5 56.9 85.2 48.3 85.2 C 43.9 85.2 39.4 85.3 35.0 85.1 L 34.1 85.0 C 34.1 83.7 34.2 82.4 34.3 81.1 Z" />
<path fill="#13417a" stroke="#13417a" stroke-width="0.09375" opacity="0.85" d=" M 35.0 85.1 C 39.4 85.3 43.9 85.2 48.3 85.2 C 48.3 87.2 48.3 89.3 48.3 91.3 C 45.7 91.3 43.2 91.3 40.6 91.2 C 40.3 88.6 39.8 85.6 36.6 85.4 C 36.2 85.3 35.4 85.2 35.0 85.1 Z" />
<path fill="#103a6c" stroke="#103a6c" stroke-width="0.09375" opacity="0.76" d=" M 36.6 85.4 C 39.8 85.6 40.3 88.6 40.6 91.2 C 38.9 91.2 37.2 91.2 35.4 91.2 C 35.9 89.2 36.2 87.3 36.6 85.4 Z" />
<path fill="#13437d" stroke="#13437d" stroke-width="0.09375" opacity="0.85" d=" M 55.7 85.9 C 64.0 85.6 72.2 86.0 80.4 86.1 C 80.4 89.7 80.4 93.3 80.4 96.9 C 75.6 98.4 71.3 101.1 68.2 105.0 C 59.0 105.1 49.8 104.8 40.6 105.0 C 40.7 102.0 40.6 99.0 40.5 96.0 C 51.8 96.4 63.1 96.0 74.4 95.9 C 74.2 94.4 74.3 92.8 73.7 91.4 C 67.7 91.0 61.7 91.4 55.7 91.3 C 55.7 89.5 55.7 87.7 55.7 85.9 M 48.3 96.8 C 48.3 99.4 48.3 101.9 48.3 104.5 C 50.8 104.5 53.2 104.5 55.7 104.5 C 55.7 101.9 55.7 99.4 55.7 96.8 C 53.2 96.8 50.8 96.8 48.3 96.8 Z" />
<path fill="#13437c" stroke="#13437c" stroke-width="0.09375" opacity="0.82" d=" M 85.1 85.9 C 86.3 86.0 87.6 86.0 88.9 86.0 C 89.8 86.0 91.5 86.0 92.4 86.0 C 93.0 86.0 94.2 86.0 94.7 86.0 C 94.1 89.9 94.0 93.9 94.6 97.9 C 93.9 97.7 92.5 97.4 91.8 97.2 C 90.5 97.0 89.2 96.8 87.9 96.6 C 87.2 96.5 85.8 96.4 85.1 96.3 C 85.1 92.8 85.1 89.4 85.1 85.9 Z" />
<path fill="#0e315b" stroke="#0e315b" stroke-width="0.09375" opacity="0.64" d=" M 94.7 86.0 L 96.5 86.0 C 101.7 86.0 106.9 86.0 112.2 86.0 C 114.1 89.9 116.1 93.8 118.0 97.7 C 128.5 97.8 139.0 97.8 149.5 97.7 C 151.5 93.8 153.5 89.9 155.4 86.0 C 158.1 86.0 160.8 86.0 163.5 86.0 C 163.5 112.1 163.5 138.2 163.5 164.3 C 161.0 164.3 158.6 164.3 156.1 164.3 C 156.0 158.5 156.4 152.6 155.9 146.9 C 152.6 146.2 149.3 146.5 146.0 146.5 C 118.8 146.5 91.5 146.5 64.3 146.5 C 67.9 145.1 71.6 144.1 75.4 143.3 C 72.7 140.4 69.7 137.8 67.1 134.9 C 63.6 131.1 63.2 125.0 58.4 122.3 C 57.8 131.2 58.2 140.1 58.0 149.0 C 58.0 152.9 58.3 156.9 59.2 160.7 C 61.3 156.3 59.9 150.9 62.9 147.0 C 63.1 152.7 63.0 158.5 63.0 164.3 C 60.6 164.2 58.2 164.2 55.9 164.1 C 55.8 149.1 55.9 134.2 55.8 119.2 C 55.8 118.6 55.8 117.4 55.8 116.7 C 58.3 116.7 60.7 116.7 63.2 116.7 C 63.0 119.5 63.2 122.3 63.8 125.1 C 66.5 136.0 77.9 143.9 89.1 141.9 C 99.8 140.8 108.9 130.9 108.8 120.0 C 109.3 112.3 105.1 104.8 98.8 100.4 C 97.5 99.5 96.0 98.7 94.6 97.9 C 94.0 93.9 94.1 89.9 94.7 86.0 M 98.6 89.7 C 96.0 94.5 100.5 98.4 103.8 101.3 C 108.5 105.3 110.4 111.5 112.5 117.2 C 114.9 111.6 118.1 106.5 122.0 101.8 C 120.2 100.3 118.0 99.3 116.1 97.9 C 113.5 95.7 112.7 92.1 110.0 90.0 C 106.4 88.6 102.3 88.5 98.6 89.7 M 152.7 96.7 C 150.8 99.4 147.6 100.6 144.7 102.0 C 147.1 105.4 150.0 108.5 151.6 112.3 C 154.0 117.8 153.3 124.3 150.4 129.4 C 145.0 139.1 131.2 142.0 122.2 135.8 C 117.4 132.8 115.4 127.3 112.4 122.8 C 110.5 127.0 109.3 131.6 106.2 135.1 C 104.0 137.6 101.7 139.9 99.5 142.4 C 101.7 142.8 103.8 143.2 106.0 143.2 C 119.4 143.1 132.7 143.0 146.0 143.1 C 150.9 143.0 155.6 144.6 159.8 147.0 C 160.5 131.7 159.8 116.3 160.2 101.0 C 160.3 97.2 160.1 93.3 159.0 89.6 C 156.4 91.5 154.6 94.1 152.7 96.7 M 128.1 103.1 C 117.5 105.9 112.8 120.0 119.1 128.9 C 124.5 137.4 137.7 138.7 144.8 131.7 C 151.6 125.9 152.0 114.5 145.9 108.0 C 141.6 103.0 134.4 101.3 128.1 103.1 Z" />
<path fill="#0e315b" stroke="#0e315b" stroke-width="0.09375" opacity="0.57" d=" M 98.6 89.7 C 102.3 88.5 106.4 88.6 110.0 90.0 C 112.7 92.1 113.5 95.7 116.1 97.9 C 118.0 99.3 120.2 100.3 122.0 101.8 C 118.1 106.5 114.9 111.6 112.5 117.2 C 110.4 111.5 108.5 105.3 103.8 101.3 C 100.5 98.4 96.0 94.5 98.6 89.7 Z" />
<path fill="#0e315b" stroke="#0e315b" stroke-width="0.09375" opacity="0.57" d=" M 152.7 96.7 C 154.6 94.1 156.4 91.5 159.0 89.6 C 160.1 93.3 160.3 97.2 160.2 101.0 C 159.8 116.3 160.5 131.7 159.8 147.0 C 155.6 144.6 150.9 143.0 146.0 143.1 C 132.7 143.0 119.4 143.1 106.0 143.2 C 103.8 143.2 101.7 142.8 99.5 142.4 C 101.7 139.9 104.0 137.6 106.2 135.1 C 109.3 131.6 110.5 127.0 112.4 122.8 C 115.4 127.3 117.4 132.8 122.2 135.8 C 131.2 142.0 145.0 139.1 150.4 129.4 C 153.3 124.3 154.0 117.8 151.6 112.3 C 150.0 108.5 147.1 105.4 144.7 102.0 C 147.6 100.6 150.8 99.4 152.7 96.7 Z" />
<path fill="#ffffff" stroke="#ffffff" stroke-width="0.09375" opacity="1.00" d=" M 34.3 92.0 C 34.6 91.8 35.1 91.4 35.4 91.2 C 37.2 91.2 38.9 91.2 40.6 91.2 C 43.2 91.3 45.7 91.3 48.3 91.3 C 50.8 91.3 53.2 91.3 55.7 91.3 C 61.7 91.4 67.7 91.0 73.7 91.4 C 74.3 92.8 74.2 94.4 74.4 95.9 C 63.1 96.0 51.8 96.4 40.5 96.0 C 39.1 96.0 37.7 96.0 36.2 96.0 C 35.7 95.9 34.6 95.6 34.1 95.5 C 34.1 94.3 34.2 93.2 34.3 92.0 Z" />
<path fill="#113c6f" stroke="#113c6f" stroke-width="0.09375" opacity="0.76" d=" M 36.2 96.0 C 37.7 96.0 39.1 96.0 40.5 96.0 C 40.6 99.0 40.7 102.0 40.6 105.0 C 39.2 105.0 37.8 105.0 36.4 105.0 C 36.5 102.0 36.6 99.0 36.2 96.0 Z" />
<path fill="#7699c3" stroke="#7699c3" stroke-width="0.09375" opacity="1.00" d=" M 48.3 96.8 C 50.8 96.8 53.2 96.8 55.7 96.8 C 55.7 99.4 55.7 101.9 55.7 104.5 C 53.2 104.5 50.8 104.5 48.3 104.5 C 48.3 101.9 48.3 99.4 48.3 96.8 Z" />
<path fill="#6d90ba" stroke="#6d90ba" stroke-width="0.09375" opacity="1.00" d=" M 68.2 105.0 C 71.3 101.1 75.6 98.4 80.4 96.9 C 80.4 99.6 80.4 102.3 80.5 105.0 C 76.4 105.0 72.3 105.0 68.2 105.0 Z" />
<path fill="#6d90b9" stroke="#6d90b9" stroke-width="0.09375" opacity="1.00" d=" M 85.1 96.3 C 85.8 96.4 87.2 96.5 87.9 96.6 C 87.4 101.3 89.4 107.6 85.1 111.0 C 78.5 113.9 71.0 111.8 64.1 112.9 C 64.4 111.8 64.7 110.6 65.1 109.5 C 71.7 109.4 78.4 109.5 85.1 109.4 C 85.1 105.0 85.0 100.7 85.1 96.3 Z" />
<path fill="#84a5cc" stroke="#84a5cc" stroke-width="0.09375" opacity="1.00" d=" M 87.9 96.6 C 89.2 96.8 90.5 97.0 91.8 97.2 C 91.1 102.9 91.8 110.4 86.1 113.7 C 85.0 114.3 83.8 114.9 82.7 115.6 C 76.3 115.0 69.9 115.6 63.6 114.5 L 64.1 112.9 C 71.0 111.8 78.5 113.9 85.1 111.0 C 89.4 107.6 87.4 101.3 87.9 96.6 Z" />
<path fill="#a6bdd8" stroke="#a6bdd8" stroke-width="0.09375" opacity="1.00" d=" M 86.1 113.7 C 91.8 110.4 91.1 102.9 91.8 97.2 C 92.5 97.4 93.9 97.7 94.6 97.9 C 95.0 104.2 94.5 111.0 89.8 115.9 C 88.6 115.1 87.3 114.4 86.1 113.7 Z" />
<path fill="#dde4ec" stroke="#dde4ec" stroke-width="0.09375" opacity="1.00" d=" M 94.6 97.9 C 96.0 98.7 97.5 99.5 98.8 100.4 C 98.3 103.6 97.9 106.8 97.1 110.0 C 96.1 113.9 93.5 117.0 91.4 120.3 C 91.0 118.9 90.6 117.5 90.2 116.1 C 90.1 116.0 89.9 115.9 89.8 115.9 C 94.5 111.0 95.0 104.2 94.6 97.9 Z" />
<path fill="#ffffff" stroke="#ffffff" stroke-width="0.09375" opacity="1.00" d=" M 97.1 110.0 C 97.9 106.8 98.3 103.6 98.8 100.4 C 105.1 104.8 109.3 112.3 108.8 120.0 C 108.9 130.9 99.8 140.8 89.1 141.9 C 77.9 143.9 66.5 136.0 63.8 125.1 C 63.7 123.8 63.7 122.6 63.7 121.3 C 69.5 121.5 75.4 121.5 81.2 121.4 C 82.5 122.7 83.8 124.6 85.9 124.4 C 88.6 124.7 90.1 122.2 91.4 120.3 C 93.5 117.0 96.1 113.9 97.1 110.0 Z" />
<path fill="#ffffff" stroke="#ffffff" stroke-width="0.09375" opacity="1.00" d=" M 128.1 103.1 C 134.4 101.3 141.6 103.0 145.9 108.0 C 152.0 114.5 151.6 125.9 144.8 131.7 C 137.7 138.7 124.5 137.4 119.1 128.9 C 112.8 120.0 117.5 105.9 128.1 103.1 M 131.4 114.6 C 128.0 115.8 127.0 120.8 129.9 123.2 C 132.4 125.7 136.9 124.2 138.0 121.0 C 139.6 117.2 135.2 112.8 131.4 114.6 Z" />
<path fill="#124279" stroke="#124279" stroke-width="0.09375" opacity="0.78" d=" M 35.6 109.5 C 39.8 109.5 43.9 109.5 48.1 109.5 C 48.1 112.3 48.0 115.1 48.4 117.9 C 48.4 118.3 48.3 119.0 48.3 119.4 C 42.4 119.1 38.3 114.3 35.6 109.5 Z" />
<path fill="#6d8fb6" stroke="#6d8fb6" stroke-width="0.09375" opacity="0.98" d=" M 48.1 109.5 C 50.7 109.5 53.2 109.5 55.8 109.5 C 55.8 111.9 55.8 114.3 55.8 116.7 C 55.8 117.4 55.8 118.6 55.8 119.2 C 55.7 117.9 55.5 116.7 55.3 115.4 C 55.2 114.5 54.9 112.8 54.7 111.9 C 52.9 112.0 51.1 112.0 49.2 112.1 C 49.1 112.9 48.9 114.6 48.8 115.4 C 48.7 116.1 48.6 117.4 48.5 118.1 L 48.4 117.9 C 48.0 115.1 48.1 112.3 48.1 109.5 Z" />
<path fill="#13437d" stroke="#13437d" stroke-width="0.09375" opacity="0.84" d=" M 55.8 109.5 C 58.9 109.5 62.0 109.5 65.1 109.5 C 64.7 110.6 64.4 111.8 64.1 112.9 L 63.6 114.5 C 63.5 115.2 63.3 116.0 63.2 116.7 C 60.7 116.7 58.3 116.7 55.8 116.7 C 55.8 114.3 55.8 111.9 55.8 109.5 Z" />
<path fill="#83a4cb" stroke="#83a4cb" stroke-width="0.09375" opacity="1.00" d=" M 49.2 112.1 C 51.1 112.0 52.9 112.0 54.7 111.9 C 54.9 112.8 55.2 114.5 55.3 115.4 C 53.1 115.4 51.0 115.4 48.8 115.4 C 48.9 114.6 49.1 112.9 49.2 112.1 Z" />
<path fill="#a2bad7" stroke="#a2bad7" stroke-width="0.09375" opacity="1.00" d=" M 63.2 116.7 C 63.3 116.0 63.5 115.2 63.6 114.5 C 69.9 115.6 76.3 115.0 82.7 115.6 C 82.3 116.1 81.4 117.2 81.0 117.7 C 75.3 118.0 69.5 118.3 63.8 118.3 C 63.8 119.0 63.8 120.6 63.7 121.3 C 63.7 122.6 63.7 123.8 63.8 125.1 C 63.2 122.3 63.0 119.5 63.2 116.7 Z" />
<path fill="#224b7b" stroke="#224b7b" stroke-width="0.09375" opacity="0.82" d=" M 82.7 115.6 C 83.8 114.9 85.0 114.3 86.1 113.7 C 87.3 114.4 88.6 115.1 89.8 115.9 C 89.9 115.9 90.1 116.0 90.2 116.1 C 87.0 116.7 83.9 117.5 80.9 118.6 L 81.0 117.7 C 81.4 117.2 82.3 116.1 82.7 115.6 Z" />
<path fill="#0e315b" stroke="#0e315b" stroke-width="0.09375" opacity="0.66" d=" M 131.4 114.6 C 135.2 112.8 139.6 117.2 138.0 121.0 C 136.9 124.2 132.4 125.7 129.9 123.2 C 127.0 120.8 128.0 115.8 131.4 114.6 Z" />
<path fill="#b0c4db" stroke="#b0c4db" stroke-width="0.09375" opacity="1.00" d=" M 48.8 115.4 C 51.0 115.4 53.1 115.4 55.3 115.4 C 55.5 116.7 55.7 117.9 55.8 119.2 C 55.9 134.2 55.8 149.1 55.9 164.1 C 58.2 164.2 60.6 164.2 63.0 164.3 C 60.5 164.4 57.9 164.5 55.4 164.6 C 55.3 150.0 56.0 135.4 55.1 120.9 C 52.7 120.4 49.7 120.7 48.5 118.1 C 48.6 117.4 48.7 116.1 48.8 115.4 Z" />
<path fill="#0e315d" stroke="#0e315d" stroke-width="0.09375" opacity="0.69" d=" M 80.9 118.6 C 83.9 117.5 87.0 116.7 90.2 116.1 C 90.6 117.5 91.0 118.9 91.4 120.3 C 90.1 122.2 88.6 124.7 85.9 124.4 C 83.8 124.6 82.5 122.7 81.2 121.4 C 81.1 120.7 81.0 119.3 80.9 118.6 Z" />
<path fill="#cfd9e6" stroke="#cfd9e6" stroke-width="0.09375" opacity="1.00" d=" M 63.8 118.3 C 69.5 118.3 75.3 118.0 81.0 117.7 L 80.9 118.6 C 81.0 119.3 81.1 120.7 81.2 121.4 C 75.4 121.5 69.5 121.5 63.7 121.3 C 63.8 120.6 63.8 119.0 63.8 118.3 Z" />
<path fill="#0e315b" stroke="#0e315b" stroke-width="0.09375" opacity="0.59" d=" M 58.4 122.3 C 63.2 125.0 63.6 131.1 67.1 134.9 C 69.7 137.8 72.7 140.4 75.4 143.3 C 71.6 144.1 67.9 145.1 64.3 146.5 C 64.0 146.6 63.3 146.8 62.9 147.0 C 59.9 150.9 61.3 156.3 59.2 160.7 C 58.3 156.9 58.0 152.9 58.0 149.0 C 58.2 140.1 57.8 131.2 58.4 122.3 Z" />
<path fill="#0e315b" stroke="#0e315b" stroke-width="0.09375" opacity="0.61" d=" M 70.5 154.0 C 96.5 154.0 122.6 154.0 148.6 154.0 C 148.6 157.4 148.6 160.8 148.6 164.3 C 122.6 164.2 96.5 164.3 70.5 164.3 C 70.5 160.8 70.5 157.4 70.5 154.0 Z" />
</svg>
