<?xml version="1.0" encoding="UTF-8" ?>
<!DOCTYPE svg PUBLIC "-//W3C//DTD SVG 1.1//EN" "http://www.w3.org/Graphics/SVG/1.1/DTD/svg11.dtd">
<svg width="198pt" height="198pt" viewBox="0 0 198 198" version="1.1" xmlns="http://www.w3.org/2000/svg">
<path fill="#040e1a" stroke="#040e1a" stroke-width="0.09375" opacity="0.21" d=" M 50.4 6.6 C 66.9 6.3 83.5 6.6 100.1 6.5 C 105.9 7.0 112.8 7.3 116.7 12.3 C 120.1 17.1 120.7 23.3 120.5 29.0 C 120.5 41.0 120.5 53.0 120.5 65.0 C 120.5 68.0 120.5 71.7 123.3 73.6 C 126.6 76.0 129.2 79.3 132.6 81.6 C 137.3 82.7 139.5 77.1 143.0 75.1 C 149.6 71.4 157.6 71.3 165.0 71.5 C 170.4 72.0 176.3 72.7 180.6 76.3 C 183.9 80.4 185.7 85.7 185.6 91.0 C 185.6 118.3 185.6 145.7 185.6 173.0 C 185.7 179.3 183.1 186.2 177.3 189.2 C 172.4 191.1 167.1 191.6 161.9 191.6 C 129.6 191.6 97.3 191.6 65.0 191.6 C 57.9 191.6 50.4 191.9 43.7 189.2 C 38.2 186.4 35.5 179.9 35.4 174.0 C 35.3 164.0 35.5 154.0 35.4 143.9 C 35.5 141.8 34.9 139.2 32.7 138.2 C 28.3 136.6 23.3 137.1 19.1 134.9 C 13.5 131.8 11.8 125.0 11.5 119.1 C 11.5 94.7 11.5 70.3 11.5 46.0 C 11.5 41.7 12.8 37.5 15.1 34.0 C 17.2 30.7 21.7 30.1 23.7 26.7 C 25.5 23.9 27.2 20.9 30.4 19.4 C 34.5 17.6 35.9 13.0 38.8 9.9 C 42.2 7.6 46.5 7.2 50.4 6.6 M 42.4 11.8 C 39.5 13.8 38.4 17.1 37.2 20.2 C 35.1 22.4 31.6 22.3 29.6 24.6 C 27.5 26.5 27.4 29.5 25.8 31.7 C 23.0 33.6 18.9 33.9 17.3 37.2 C 16.0 40.7 15.5 44.4 15.5 48.0 C 15.5 71.7 15.5 95.3 15.5 119.0 C 16.0 122.9 16.1 127.3 18.8 130.3 C 21.0 133.1 24.9 132.3 28.0 133.1 C 31.2 133.9 35.2 132.7 37.5 135.5 C 38.9 136.6 39.6 138.3 39.5 140.0 C 39.6 151.0 39.4 162.0 39.5 173.0 C 39.9 177.9 41.2 184.6 46.8 186.0 C 51.8 186.8 56.9 187.7 62.0 187.5 C 95.7 187.5 129.3 187.5 163.0 187.5 C 167.2 186.9 171.7 186.9 175.8 185.5 C 181.1 182.7 181.1 176.2 181.5 171.0 C 181.5 146.3 181.5 121.7 181.5 97.0 C 181.7 91.9 181.1 86.8 179.8 81.8 C 178.3 79.0 175.5 76.5 172.1 76.6 C 167.4 76.6 162.8 74.8 158.1 75.7 C 154.8 76.3 151.5 76.5 148.2 76.8 C 145.0 77.5 142.3 79.9 140.9 82.8 C 139.3 86.8 134.3 85.9 130.9 85.7 C 127.7 85.7 127.3 81.8 125.0 80.3 C 121.3 77.5 116.5 74.3 116.5 69.0 C 116.4 53.7 116.5 38.3 116.5 23.0 C 116.3 18.9 114.9 14.2 111.1 12.1 C 107.1 11.3 103.0 10.8 99.0 10.5 C 84.0 10.5 69.0 10.5 54.0 10.5 C 50.1 10.5 46.3 11.6 42.4 11.8 Z" />
<path fill="#0c294d" stroke="#0c294d" stroke-width="0.09375" opacity="0.48" d=" M 42.4 11.8 C 46.3 11.6 50.1 10.5 54.0 10.5 C 69.0 10.5 84.0 10.5 99.0 10.5 C 103.0 10.8 107.1 11.3 111.1 12.1 C 114.9 14.2 116.3 18.9 116.5 23.0 C 116.5 38.3 116.4 53.7 116.5 69.0 C 116.5 74.3 121.3 77.5 125.0 80.3 C 127.3 81.8 127.7 85.7 130.9 85.7 C 134.3 85.9 139.3 86.8 140.9 82.8 C 142.3 79.9 145.0 77.5 148.2 76.8 C 151.5 76.5 154.8 76.3 158.1 75.7 C 162.8 74.8 167.4 76.6 172.1 76.6 C 175.5 76.5 178.3 79.0 179.8 81.8 C 181.1 86.8 181.7 91.9 181.5 97.0 C 181.5 121.7 181.5 146.3 181.5 171.0 C 181.1 176.2 181.1 182.7 175.8 185.5 C 171.7 186.9 167.2 186.9 163.0 187.5 C 129.3 187.5 95.7 187.5 62.0 187.5 C 56.9 187.7 51.8 186.8 46.8 186.0 C 41.2 184.6 39.9 177.9 39.5 173.0 C 39.4 162.0 39.6 151.0 39.5 140.0 C 39.6 138.3 38.9 136.6 37.5 135.5 C 35.2 132.7 31.2 133.9 28.0 133.1 C 24.9 132.3 21.0 133.1 18.8 130.3 C 16.1 127.3 16.0 122.9 15.5 119.0 C 15.5 95.3 15.5 71.7 15.5 48.0 C 15.5 44.4 16.0 40.7 17.3 37.2 C 18.9 33.9 23.0 33.6 25.8 31.7 C 27.4 29.5 27.5 26.5 29.6 24.6 C 31.6 22.3 35.1 22.4 37.2 20.2 C 38.4 17.1 39.5 13.8 42.4 11.8 M 50.3 15.3 C 48.3 15.8 46.1 16.1 44.3 17.3 C 42.3 19.4 41.6 22.5 39.7 24.7 C 37.6 26.4 35.0 27.1 32.9 28.8 C 31.4 30.8 30.6 33.2 29.1 35.1 C 27.0 37.1 24.0 38.0 21.9 40.0 C 19.9 42.5 19.9 45.9 19.8 49.0 C 19.8 71.3 19.8 93.6 19.8 115.9 C 19.9 119.9 20.1 124.8 23.7 127.2 C 27.8 129.4 32.9 128.4 36.6 131.3 C 39.2 133.3 42.1 135.3 43.7 138.3 C 45.0 140.6 44.7 143.4 44.7 146.0 C 44.6 154.0 44.8 162.0 44.6 169.9 C 44.6 173.5 45.2 177.4 47.7 180.2 C 50.4 182.2 53.9 182.3 57.0 182.4 C 92.7 182.4 128.4 182.4 164.0 182.4 C 167.2 182.3 170.6 182.1 173.2 180.2 C 175.2 177.9 176.3 175.0 176.3 172.0 C 176.3 145.7 176.3 119.3 176.3 93.0 C 176.2 89.4 175.8 84.7 172.0 82.9 C 165.2 79.8 157.3 80.3 150.3 82.3 C 145.9 83.6 144.4 88.4 141.2 91.1 C 137.8 93.2 133.5 92.9 129.7 92.3 C 124.5 91.2 123.1 85.4 120.4 81.5 C 117.6 76.4 111.7 72.4 112.2 66.0 C 112.1 52.7 112.2 39.3 112.2 26.0 C 112.1 22.0 110.6 16.7 106.0 15.9 C 98.5 14.1 90.7 15.0 83.0 14.8 C 72.1 15.2 61.2 14.3 50.3 15.3 Z" />
<path fill="#0e315a" stroke="#0e315a" stroke-width="0.09375" opacity="0.62" d=" M 50.3 15.3 C 61.2 14.3 72.1 15.2 83.0 14.8 C 90.7 15.0 98.5 14.1 106.0 15.9 C 110.6 16.7 112.1 22.0 112.2 26.0 C 112.2 39.3 112.1 52.7 112.2 66.0 C 111.7 72.4 117.6 76.4 120.4 81.5 C 123.1 85.4 124.5 91.2 129.7 92.3 C 133.5 92.9 137.8 93.2 141.2 91.1 C 144.4 88.4 145.9 83.6 150.3 82.3 C 157.3 80.3 165.2 79.8 172.0 82.9 C 175.8 84.7 176.2 89.4 176.3 93.0 C 176.3 119.3 176.3 145.7 176.3 172.0 C 176.3 175.0 175.2 177.9 173.2 180.2 C 170.6 182.1 167.2 182.3 164.0 182.4 C 128.4 182.4 92.7 182.4 57.0 182.4 C 53.9 182.3 50.4 182.2 47.7 180.2 C 45.2 177.4 44.6 173.5 44.6 169.9 C 44.8 162.0 44.6 154.0 44.7 146.0 C 44.7 143.4 45.0 140.6 43.7 138.3 C 42.1 135.3 39.2 133.3 36.6 131.3 C 32.9 128.4 27.8 129.4 23.7 127.2 C 20.1 124.8 19.9 119.9 19.8 115.9 C 19.8 93.6 19.8 71.3 19.8 49.0 C 19.9 45.9 19.9 42.5 21.9 40.0 C 24.0 38.0 27.0 37.1 29.1 35.1 C 30.6 33.2 31.4 30.8 32.9 28.8 C 35.0 27.1 37.6 26.4 39.7 24.7 C 41.6 22.5 42.3 19.4 44.3 17.3 C 46.1 16.1 48.3 15.8 50.3 15.3 M 46.5 19.5 C 45.1 22.7 46.2 26.7 45.9 30.3 C 42.3 30.2 38.7 30.2 35.1 30.3 C 34.9 33.9 35.0 37.4 35.0 41.0 C 31.6 41.0 28.3 40.8 24.9 41.1 C 23.7 42.0 24.3 43.7 24.1 45.0 C 24.2 69.0 24.1 93.0 24.1 117.0 C 24.2 119.5 23.8 122.1 24.5 124.6 C 28.6 125.0 32.7 124.7 36.9 124.7 C 38.7 130.4 43.4 134.5 49.2 135.9 C 49.3 150.1 48.9 164.3 49.4 178.4 C 90.1 178.6 130.9 178.5 171.6 178.5 C 171.9 147.6 171.7 116.7 171.8 85.8 C 164.9 85.2 158.0 85.5 151.1 85.6 C 148.1 88.9 146.9 93.6 144.6 97.5 C 137.6 97.5 130.6 97.5 123.7 97.5 C 122.6 95.5 121.6 93.4 120.6 91.4 C 120.1 89.4 119.0 87.6 117.9 85.9 C 117.3 79.7 112.9 75.0 107.7 72.1 C 107.6 54.5 108.0 37.0 107.5 19.5 C 102.4 18.9 97.2 19.4 92.0 19.3 C 76.8 19.4 61.6 19.0 46.5 19.5 Z" />
<path fill="#ffffff" stroke="#ffffff" stroke-width="0.09375" opacity="1.00" d=" M 46.5 19.5 C 61.6 19.0 76.8 19.4 92.0 19.3 C 97.2 19.4 102.4 18.9 107.5 19.5 C 108.0 37.0 107.6 54.5 107.7 72.1 C 107.7 76.5 107.8 81.0 107.7 85.5 C 107.7 88.0 107.7 90.5 107.7 93.0 C 107.7 96.3 107.7 99.6 107.7 102.9 C 104.1 103.0 100.5 103.0 96.9 103.0 C 96.9 103.7 96.9 105.1 96.9 105.8 C 96.9 108.5 96.9 111.2 96.5 113.9 C 93.0 113.7 89.5 113.7 86.0 113.7 C 86.0 116.1 86.0 118.6 86.0 121.0 C 86.0 122.2 85.9 123.4 85.9 124.7 C 84.5 124.7 83.2 124.7 81.9 124.7 C 75.9 124.7 70.0 124.7 64.1 124.7 C 61.6 124.7 59.1 124.7 56.6 124.7 C 54.1 124.7 51.6 124.7 49.1 124.7 C 45.1 124.7 41.0 124.7 36.9 124.7 C 32.7 124.7 28.6 125.0 24.5 124.6 C 23.8 122.1 24.2 119.5 24.1 117.0 C 24.1 93.0 24.2 69.0 24.1 45.0 C 24.3 43.7 23.7 42.0 24.9 41.1 C 28.3 40.8 31.6 41.0 35.0 41.0 C 35.0 37.4 34.9 33.9 35.1 30.3 C 38.7 30.2 42.3 30.2 45.9 30.3 C 46.2 26.7 45.1 22.7 46.5 19.5 M 50.6 24.0 C 50.6 26.1 50.6 28.2 50.6 30.3 C 66.0 30.3 81.4 30.2 96.7 30.3 C 97.1 44.4 96.8 58.5 96.9 72.5 C 96.9 74.1 96.9 75.7 96.9 77.3 C 96.9 80.1 96.9 82.8 96.9 85.5 C 96.9 88.0 96.9 90.5 96.9 92.9 C 96.9 94.7 96.9 96.5 96.9 98.3 C 99.0 98.3 101.0 98.3 103.1 98.3 C 103.1 96.5 103.1 94.7 103.1 92.9 C 103.1 90.5 103.1 88.0 103.1 85.5 C 103.1 82.8 103.1 80.1 103.1 77.4 C 103.1 75.8 103.1 74.1 103.1 72.5 C 103.1 56.3 103.1 40.2 103.1 24.0 C 85.6 24.0 68.1 24.0 50.6 24.0 M 39.7 34.7 C 39.7 36.8 39.7 38.9 39.7 41.0 C 55.1 41.2 70.4 40.6 85.7 41.3 C 86.4 51.6 85.8 62.1 86.0 72.5 C 86.0 73.8 86.0 75.2 86.0 76.5 C 86.0 79.5 86.0 82.5 86.0 85.5 C 86.0 88.0 86.0 90.5 86.0 92.9 C 86.0 96.4 86.0 100.0 86.0 103.5 C 86.0 105.3 86.0 107.2 86.0 109.0 C 88.1 109.0 90.2 109.0 92.3 109.0 C 92.3 107.3 92.3 105.5 92.3 103.8 C 92.3 100.2 92.3 96.6 92.3 93.0 C 92.3 90.5 92.3 88.0 92.3 85.5 C 92.3 82.5 92.3 79.5 92.3 76.5 C 92.3 75.2 92.3 73.8 92.3 72.5 C 92.2 59.9 92.3 47.3 92.3 34.7 C 74.8 34.7 57.2 34.7 39.7 34.7 M 28.9 45.7 C 28.9 70.5 28.9 95.2 28.9 120.0 C 31.7 120.0 34.5 120.0 37.4 120.0 C 38.7 120.0 40.0 120.0 41.3 120.0 C 44.0 120.0 46.6 120.0 49.3 120.0 C 51.7 120.0 54.1 120.0 56.5 120.0 C 59.3 120.0 62.0 120.0 64.7 120.0 C 70.3 120.0 75.9 120.0 81.4 120.0 C 81.4 114.7 81.4 109.3 81.4 104.0 C 81.4 100.3 81.4 96.6 81.4 93.0 C 81.4 90.6 81.4 88.1 81.4 85.7 C 81.4 81.6 81.4 77.6 81.4 73.5 C 81.3 64.2 81.4 55.0 81.4 45.7 C 63.9 45.7 46.4 45.7 28.9 45.7 Z" />
<path fill="#0e315b" stroke="#0e315b" stroke-width="0.09375" opacity="0.64" d=" M 50.6 24.0 C 68.1 24.0 85.6 24.0 103.1 24.0 C 103.1 40.2 103.1 56.3 103.1 72.5 C 101.0 72.5 99.0 72.5 96.9 72.5 C 96.8 58.5 97.1 44.4 96.7 30.3 C 81.4 30.2 66.0 30.3 50.6 30.3 C 50.6 28.2 50.6 26.1 50.6 24.0 Z" />
<path fill="#0e315b" stroke="#0e315b" stroke-width="0.09375" opacity="0.64" d=" M 39.7 34.7 C 57.2 34.7 74.8 34.7 92.3 34.7 C 92.3 47.3 92.2 59.9 92.3 72.5 C 90.2 72.5 88.1 72.5 86.0 72.5 C 85.8 62.1 86.4 51.6 85.7 41.3 C 70.4 40.6 55.1 41.2 39.7 41.0 C 39.7 38.9 39.7 36.8 39.7 34.7 Z" />
<path fill="#0e315b" stroke="#0e315b" stroke-width="0.09375" opacity="0.64" d=" M 28.9 45.7 C 46.4 45.7 63.9 45.7 81.4 45.7 C 81.4 55.0 81.3 64.2 81.4 73.5 C 79.4 74.0 77.3 74.3 75.2 74.0 C 61.8 73.4 48.4 73.8 35.1 73.9 C 35.0 75.3 35.0 76.8 35.0 78.3 C 36.7 78.4 38.4 78.5 40.2 78.5 C 39.5 80.5 38.8 82.5 38.1 84.5 C 34.9 83.7 34.9 86.8 34.8 89.1 L 35.7 89.2 C 36.1 89.3 36.9 89.5 37.3 89.6 C 37.2 91.6 37.2 93.5 37.1 95.5 C 36.7 95.5 35.8 95.6 35.4 95.6 C 35.1 97.1 35.0 98.6 34.8 100.1 L 35.8 100.2 C 36.1 100.3 36.9 100.4 37.2 100.5 C 37.2 102.5 37.2 104.5 37.2 106.5 C 36.7 106.5 35.7 106.6 35.3 106.6 C 35.1 108.0 35.0 109.4 34.9 110.8 C 35.5 110.8 36.7 110.9 37.2 111.0 C 37.9 113.9 37.7 117.0 37.4 120.0 C 34.5 120.0 31.7 120.0 28.9 120.0 C 28.9 95.2 28.9 70.5 28.9 45.7 M 35.0 52.2 C 35.3 53.6 34.5 55.4 35.6 56.6 C 43.7 57.0 51.8 56.6 60.0 56.7 C 65.0 56.6 70.2 57.1 75.2 56.4 C 75.1 55.0 75.0 53.5 74.9 52.1 C 61.6 52.0 48.3 51.9 35.0 52.2 M 35.1 62.9 C 35.1 64.4 35.0 65.9 35.0 67.3 C 48.4 67.6 61.8 67.6 75.1 67.4 C 75.1 65.9 75.0 64.4 75.0 62.9 C 61.7 62.6 48.4 62.6 35.1 62.9 Z" />
<path fill="#ffffff" stroke="#ffffff" stroke-width="0.09375" opacity="1.00" d=" M 35.0 52.2 C 48.3 51.9 61.6 52.0 74.9 52.1 C 75.0 53.5 75.1 55.0 75.2 56.4 C 70.2 57.1 65.0 56.6 60.0 56.7 C 51.8 56.6 43.7 57.0 35.6 56.6 C 34.5 55.4 35.3 53.6 35.0 52.2 Z" />
<path fill="#ffffff" stroke="#ffffff" stroke-width="0.09375" opacity="1.00" d=" M 35.1 62.9 C 48.4 62.6 61.7 62.6 75.0 62.9 C 75.0 64.4 75.1 65.9 75.1 67.4 C 61.8 67.6 48.4 67.6 35.0 67.3 C 35.0 65.9 35.1 64.4 35.1 62.9 Z" />
<path fill="#103969" stroke="#103969" stroke-width="0.09375" opacity="0.75" d=" M 86.0 72.5 C 88.1 72.5 90.2 72.5 92.3 72.5 C 92.3 73.8 92.3 75.2 92.3 76.5 C 90.2 76.6 88.1 76.6 86.0 76.5 C 86.0 75.2 86.0 73.8 86.0 72.5 Z" />
<path fill="#103b6d" stroke="#103b6d" stroke-width="0.09375" opacity="0.76" d=" M 96.9 72.5 C 99.0 72.5 101.0 72.5 103.1 72.5 C 103.1 74.1 103.1 75.8 103.1 77.4 C 101.0 77.4 99.0 77.4 96.9 77.3 C 96.9 75.7 96.9 74.1 96.9 72.5 Z" />
<path fill="#12427b" stroke="#12427b" stroke-width="0.09375" opacity="0.79" d=" M 107.7 72.1 C 112.9 75.0 117.3 79.7 117.9 85.9 C 117.4 85.8 116.3 85.6 115.8 85.6 C 114.3 85.5 112.7 85.5 111.2 85.5 C 110.3 85.5 108.6 85.5 107.7 85.5 C 107.8 81.0 107.7 76.5 107.7 72.1 Z" />
<path fill="#12427b" stroke="#12427b" stroke-width="0.09375" opacity="0.84" d=" M 75.2 74.0 C 77.3 74.3 79.4 74.0 81.4 73.5 C 81.4 77.6 81.4 81.6 81.4 85.7 C 79.3 85.5 77.2 85.3 75.2 85.0 C 64.5 83.9 53.7 84.8 43.0 84.5 C 44.0 82.5 45.1 80.5 46.2 78.5 C 55.7 78.3 65.2 78.8 74.6 78.3 C 75.3 77.0 75.0 75.4 75.2 74.0 Z" />
<path fill="#ffffff" stroke="#ffffff" stroke-width="0.09375" opacity="1.00" d=" M 35.1 73.9 C 48.4 73.8 61.8 73.4 75.2 74.0 C 75.0 75.4 75.3 77.0 74.6 78.3 C 65.2 78.8 55.7 78.3 46.2 78.5 C 44.2 78.5 42.2 78.5 40.2 78.5 C 38.4 78.5 36.7 78.4 35.0 78.3 C 35.0 76.8 35.0 75.3 35.1 73.9 Z" />
<path fill="#13417a" stroke="#13417a" stroke-width="0.09375" opacity="0.85" d=" M 86.0 76.5 C 88.1 76.6 90.2 76.6 92.3 76.5 C 92.3 79.5 92.3 82.5 92.3 85.5 C 90.2 85.5 88.1 85.5 86.0 85.5 C 86.0 82.5 86.0 79.5 86.0 76.5 Z" />
<path fill="#13427b" stroke="#13427b" stroke-width="0.09375" opacity="0.85" d=" M 96.9 77.3 C 99.0 77.4 101.0 77.4 103.1 77.4 C 103.1 80.1 103.1 82.8 103.1 85.5 C 101.0 85.5 99.0 85.5 96.9 85.5 C 96.9 82.8 96.9 80.1 96.9 77.3 Z" />
<path fill="#103a6c" stroke="#103a6c" stroke-width="0.09375" opacity="0.76" d=" M 40.2 78.5 C 42.2 78.5 44.2 78.5 46.2 78.5 C 45.1 80.5 44.0 82.5 43.0 84.5 C 41.3 84.5 39.7 84.4 38.1 84.5 C 38.8 82.5 39.5 80.5 40.2 78.5 Z" />
<path fill="#ffffff" stroke="#ffffff" stroke-width="0.09375" opacity="1.00" d=" M 34.8 89.1 C 34.9 86.8 34.9 83.7 38.1 84.5 C 39.7 84.4 41.3 84.5 43.0 84.5 C 53.7 84.8 64.5 83.9 75.2 85.0 C 75.1 86.4 75.1 87.8 75.1 89.2 C 66.5 89.2 57.9 89.2 49.3 89.2 C 44.8 89.2 40.2 89.3 35.7 89.2 L 34.8 89.1 Z" />
<path fill="#6b8eb8" stroke="#6b8eb8" stroke-width="0.09375" opacity="1.00" d=" M 75.2 85.0 C 77.2 85.3 79.3 85.5 81.4 85.7 C 81.4 88.1 81.4 90.6 81.4 93.0 C 73.1 93.1 64.8 92.9 56.5 93.1 C 56.5 93.7 56.7 94.9 56.8 95.5 L 56.3 95.5 C 53.9 95.5 51.6 95.5 49.2 95.5 C 49.3 93.4 49.3 91.3 49.3 89.2 C 57.9 89.2 66.5 89.2 75.1 89.2 C 75.1 87.8 75.1 86.4 75.2 85.0 Z" />
<path fill="#6d90ba" stroke="#6d90ba" stroke-width="0.09375" opacity="1.00" d=" M 86.0 85.5 C 88.1 85.5 90.2 85.5 92.3 85.5 C 92.3 88.0 92.3 90.5 92.3 93.0 C 90.2 92.9 88.1 92.9 86.0 92.9 C 86.0 90.5 86.0 88.0 86.0 85.5 Z" />
<path fill="#6d90ba" stroke="#6d90ba" stroke-width="0.09375" opacity="1.00" d=" M 96.9 85.5 C 99.0 85.5 101.0 85.5 103.1 85.5 C 103.1 88.0 103.1 90.5 103.1 92.9 C 101.0 92.9 99.0 92.9 96.9 92.9 C 96.9 90.5 96.9 88.0 96.9 85.5 Z" />
<path fill="#6f92bb" stroke="#6f92bb" stroke-width="0.09375" opacity="1.00" d=" M 107.7 85.5 C 108.6 85.5 110.3 85.5 111.2 85.5 C 111.2 88.0 111.3 90.5 111.3 93.0 C 110.4 93.0 108.6 93.0 107.7 93.0 C 107.7 90.5 107.7 88.0 107.7 85.5 Z" />
<path fill="#8dacd0" stroke="#8dacd0" stroke-width="0.09375" opacity="1.00" d=" M 111.2 85.5 C 112.7 85.5 114.3 85.5 115.8 85.6 C 115.7 89.8 115.5 94.0 115.7 98.2 C 114.9 96.4 113.9 94.7 112.9 93.0 C 112.5 93.0 111.7 93.0 111.3 93.0 C 111.3 90.5 111.2 88.0 111.2 85.5 Z" />
<path fill="#c1d0e2" stroke="#c1d0e2" stroke-width="0.09375" opacity="1.00" d=" M 115.8 85.6 C 116.3 85.6 117.4 85.8 117.9 85.9 C 119.0 87.6 120.1 89.4 120.6 91.4 C 120.0 95.3 119.5 99.3 118.2 103.0 C 117.3 101.4 116.5 99.8 115.7 98.2 C 115.5 94.0 115.7 89.8 115.8 85.6 Z" />
<path fill="#ffffff" stroke="#ffffff" stroke-width="0.09375" opacity="1.00" d=" M 144.6 97.5 C 146.9 93.6 148.1 88.9 151.1 85.6 C 158.0 85.5 164.9 85.2 171.8 85.8 C 171.7 116.7 171.9 147.6 171.6 178.5 C 130.9 178.5 90.1 178.6 49.4 178.4 C 50.1 164.5 48.9 150.6 50.0 136.8 C 52.1 136.5 54.3 136.1 56.4 135.4 L 56.8 135.0 C 56.4 147.1 56.7 159.2 56.6 171.3 C 59.1 171.3 61.5 171.3 64.0 171.3 C 64.0 165.5 64.0 159.7 64.0 153.9 C 64.4 153.8 65.1 153.5 65.5 153.4 C 93.0 153.7 120.5 153.4 148.0 153.5 C 150.9 153.7 154.1 152.9 156.8 154.0 C 157.3 159.8 156.9 165.5 157.0 171.3 C 159.5 171.3 161.9 171.3 164.4 171.3 C 164.4 145.2 164.4 119.1 164.4 93.0 C 161.7 93.0 159.0 93.0 156.3 93.0 C 154.3 96.8 152.7 100.9 150.3 104.5 C 141.6 105.1 132.8 104.6 124.0 104.8 C 122.0 104.5 118.9 105.6 118.2 103.0 C 119.5 99.3 120.0 95.3 120.6 91.4 C 121.6 93.4 122.6 95.5 123.7 97.5 C 130.6 97.5 137.6 97.5 144.6 97.5 M 71.4 161.0 C 71.4 164.4 71.4 167.8 71.4 171.3 C 97.5 171.2 123.5 171.2 149.6 171.3 C 149.6 167.8 149.6 164.4 149.6 161.0 C 123.5 161.0 97.5 161.0 71.4 161.0 Z" />
<path fill="#13417a" stroke="#13417a" stroke-width="0.09375" opacity="0.84" d=" M 35.7 89.2 C 40.2 89.3 44.8 89.2 49.3 89.2 C 49.3 91.3 49.3 93.4 49.2 95.5 C 46.6 95.5 43.9 95.5 41.3 95.5 C 41.2 93.8 41.0 92.1 40.9 90.4 C 39.7 90.1 38.5 89.8 37.3 89.6 C 36.9 89.5 36.1 89.3 35.7 89.2 Z" />
<path fill="#103a6d" stroke="#103a6d" stroke-width="0.09375" opacity="0.75" d=" M 37.3 89.6 C 38.5 89.8 39.7 90.1 40.9 90.4 C 41.0 92.1 41.2 93.8 41.3 95.5 C 39.9 95.5 38.5 95.5 37.1 95.5 C 37.2 93.5 37.2 91.6 37.3 89.6 Z" />
<path fill="#12427d" stroke="#12427d" stroke-width="0.09375" opacity="0.85" d=" M 56.5 93.1 C 64.8 92.9 73.1 93.1 81.4 93.0 C 81.4 96.6 81.4 100.3 81.4 104.0 L 79.9 104.7 C 78.1 105.4 76.3 106.0 74.5 106.5 C 68.5 106.5 62.5 106.6 56.6 106.4 C 56.6 104.4 56.6 102.3 56.6 100.2 C 62.8 100.2 68.9 100.3 75.1 100.1 C 75.1 98.7 75.1 97.2 75.1 95.7 C 69.0 95.3 62.9 95.6 56.8 95.5 C 56.7 94.9 56.5 93.7 56.5 93.1 Z" />
<path fill="#13427b" stroke="#13427b" stroke-width="0.09375" opacity="0.86" d=" M 86.0 92.9 C 88.1 92.9 90.2 92.9 92.3 93.0 C 92.3 96.6 92.3 100.2 92.3 103.8 C 90.2 103.7 88.1 103.6 86.0 103.5 C 86.0 100.0 86.0 96.4 86.0 92.9 Z" />
<path fill="#104179" stroke="#104179" stroke-width="0.09375" opacity="0.87" d=" M 96.9 92.9 C 99.0 92.9 101.0 92.9 103.1 92.9 C 103.1 94.7 103.1 96.5 103.1 98.3 C 101.0 98.3 99.0 98.3 96.9 98.3 C 96.9 96.5 96.9 94.7 96.9 92.9 Z" />
<path fill="#13437d" stroke="#13437d" stroke-width="0.09375" opacity="0.81" d=" M 107.7 93.0 C 108.6 93.0 110.4 93.0 111.3 93.0 C 111.7 93.0 112.5 93.0 112.9 93.0 C 113.9 94.7 114.9 96.4 115.7 98.2 C 116.5 99.8 117.3 101.4 118.2 103.0 C 115.5 104.3 114.0 106.9 112.0 108.9 C 110.2 110.7 108.2 112.4 106.3 114.2 C 106.0 113.7 105.3 112.7 105.0 112.2 C 102.9 109.4 100.0 107.4 96.9 105.8 C 96.9 105.1 96.9 103.7 96.9 103.0 C 100.5 103.0 104.1 103.0 107.7 102.9 C 107.7 99.6 107.7 96.3 107.7 93.0 Z" />
<path fill="#0e315b" stroke="#0e315b" stroke-width="0.09375" opacity="0.63" d=" M 156.3 93.0 C 159.0 93.0 161.7 93.0 164.4 93.0 C 164.4 119.1 164.4 145.2 164.4 171.3 C 161.9 171.3 159.5 171.3 157.0 171.3 C 156.9 165.5 157.3 159.8 156.8 154.0 C 154.1 152.9 150.9 153.7 148.0 153.5 C 120.5 153.4 93.0 153.7 65.5 153.4 C 69.3 151.9 73.3 151.3 77.3 150.4 C 74.5 147.3 70.7 145.2 68.1 141.9 C 66.1 139.7 63.8 136.6 60.4 137.3 C 57.4 139.5 58.1 143.8 58.0 147.0 C 58.5 153.8 59.4 160.5 59.3 167.3 C 64.5 164.8 59.6 157.4 64.0 153.9 C 64.0 159.7 64.0 165.5 64.0 171.3 C 61.5 171.3 59.1 171.3 56.6 171.3 C 56.7 159.2 56.4 147.1 56.8 135.0 C 56.8 134.3 57.0 133.0 57.0 132.3 C 59.4 132.1 61.8 132.0 64.1 131.7 L 64.5 131.7 C 64.7 132.1 65.0 133.0 65.1 133.5 C 65.5 134.5 65.9 135.5 66.3 136.5 C 67.1 138.0 68.1 139.5 69.1 140.9 C 73.7 146.4 80.8 149.7 87.9 149.1 C 96.7 148.9 104.9 143.0 108.1 134.9 C 110.1 130.2 110.1 124.9 109.0 119.9 C 108.5 118.6 108.0 117.4 107.5 116.1 C 107.2 115.6 106.6 114.6 106.3 114.2 C 108.2 112.4 110.2 110.7 112.0 108.9 C 114.0 106.9 115.5 104.3 118.2 103.0 C 118.9 105.6 122.0 104.5 124.0 104.8 C 132.8 104.6 141.6 105.1 150.3 104.5 C 152.7 100.9 154.3 96.8 156.3 93.0 M 158.3 97.4 C 156.1 99.8 154.8 103.0 152.3 105.3 C 150.5 106.9 147.7 107.2 146.0 108.9 C 147.1 112.3 150.3 114.3 151.8 117.3 C 153.9 121.9 154.7 127.2 153.1 132.0 C 151.0 139.3 144.4 144.9 137.0 146.0 C 130.6 146.5 123.6 144.8 119.4 139.6 C 117.1 136.6 115.7 133.1 113.7 129.9 C 111.5 133.5 110.7 137.8 108.1 141.1 C 105.8 144.1 102.4 146.2 100.9 149.8 C 116.9 150.6 133.0 149.6 149.0 150.2 C 153.2 150.3 157.2 152.0 160.8 154.1 C 161.3 136.7 160.8 119.4 161.0 102.0 C 161.0 100.3 161.1 96.3 158.3 97.4 M 130.5 109.7 C 122.2 111.3 116.2 119.7 117.3 128.1 C 117.7 137.2 127.0 144.4 136.0 143.1 C 145.3 142.5 152.5 133.0 150.9 123.9 C 150.0 114.3 139.8 107.4 130.5 109.7 Z" />
<path fill="#ffffff" stroke="#ffffff" stroke-width="0.09375" opacity="1.00" d=" M 35.4 95.6 C 35.8 95.6 36.7 95.5 37.1 95.5 C 38.5 95.5 39.9 95.5 41.3 95.5 C 43.9 95.5 46.6 95.5 49.2 95.5 C 51.6 95.5 53.9 95.5 56.3 95.5 L 56.8 95.5 C 62.9 95.6 69.0 95.3 75.1 95.7 C 75.1 97.2 75.1 98.7 75.1 100.1 C 68.9 100.3 62.8 100.2 56.6 100.2 C 54.2 100.2 51.7 100.2 49.3 100.2 C 44.8 100.2 40.3 100.3 35.8 100.2 L 34.8 100.1 C 35.0 98.6 35.1 97.1 35.4 95.6 Z" />
<path fill="#0e315b" stroke="#0e315b" stroke-width="0.09375" opacity="0.57" d=" M 158.3 97.4 C 161.1 96.3 161.0 100.3 161.0 102.0 C 160.8 119.4 161.3 136.7 160.8 154.1 C 157.2 152.0 153.2 150.3 149.0 150.2 C 133.0 149.6 116.9 150.6 100.9 149.8 C 102.4 146.2 105.8 144.1 108.1 141.1 C 110.7 137.8 111.5 133.5 113.7 129.9 C 115.7 133.1 117.1 136.6 119.4 139.6 C 123.6 144.8 130.6 146.5 137.0 146.0 C 144.4 144.9 151.0 139.3 153.1 132.0 C 154.7 127.2 153.9 121.9 151.8 117.3 C 150.3 114.3 147.1 112.3 146.0 108.9 C 147.7 107.2 150.5 106.9 152.3 105.3 C 154.8 103.0 156.1 99.8 158.3 97.4 Z" />
<path fill="#13417a" stroke="#13417a" stroke-width="0.09375" opacity="0.84" d=" M 35.8 100.2 C 40.3 100.3 44.8 100.2 49.3 100.2 C 49.3 102.3 49.3 104.4 49.2 106.5 C 46.6 106.5 44.0 106.5 41.3 106.5 C 41.2 104.8 41.0 103.0 40.9 101.3 C 39.7 101.0 38.4 100.8 37.2 100.5 C 36.9 100.4 36.1 100.3 35.8 100.2 Z" />
<path fill="#6b8eb8" stroke="#6b8eb8" stroke-width="0.09375" opacity="1.00" d=" M 49.3 100.2 C 51.7 100.2 54.2 100.2 56.6 100.2 C 56.6 102.3 56.6 104.4 56.6 106.4 L 56.6 106.7 C 54.1 106.6 51.7 106.5 49.2 106.5 C 49.3 104.4 49.3 102.3 49.3 100.2 Z" />
<path fill="#103a6d" stroke="#103a6d" stroke-width="0.09375" opacity="0.76" d=" M 37.2 100.5 C 38.4 100.8 39.7 101.0 40.9 101.3 C 41.0 103.0 41.2 104.8 41.3 106.5 C 39.9 106.5 38.6 106.5 37.2 106.5 C 37.2 104.5 37.2 102.5 37.2 100.5 Z" />
<path fill="#6487b1" stroke="#6487b1" stroke-width="0.09375" opacity="1.00" d=" M 86.0 103.5 C 88.1 103.6 90.2 103.7 92.3 103.8 C 92.3 105.5 92.3 107.3 92.3 109.0 C 90.2 109.0 88.1 109.0 86.0 109.0 C 86.0 107.2 86.0 105.3 86.0 103.5 Z" />
<path fill="#7699c3" stroke="#7699c3" stroke-width="0.09375" opacity="1.00" d=" M 74.5 106.5 C 76.3 106.0 78.1 105.4 79.9 104.7 C 79.4 108.0 79.7 111.3 79.4 114.6 C 79.3 115.7 78.9 117.2 77.6 117.5 C 73.7 118.5 69.6 118.0 65.6 118.0 C 66.6 115.4 68.2 113.1 69.9 111.0 C 71.7 111.0 73.5 110.9 75.3 110.9 C 75.0 109.4 74.8 108.0 74.5 106.5 Z" />
<path fill="#6588b2" stroke="#6588b2" stroke-width="0.09375" opacity="1.00" d=" M 79.9 104.7 L 81.4 104.0 C 81.4 109.3 81.4 114.7 81.4 120.0 C 75.9 120.0 70.3 120.0 64.7 120.0 C 64.9 119.5 65.3 118.5 65.6 118.0 C 69.6 118.0 73.7 118.5 77.6 117.5 C 78.9 117.2 79.3 115.7 79.4 114.6 C 79.7 111.3 79.4 108.0 79.9 104.7 Z" />
<path fill="#ffffff" stroke="#ffffff" stroke-width="0.09375" opacity="1.00" d=" M 35.3 106.6 C 35.7 106.6 36.7 106.5 37.2 106.5 C 38.6 106.5 39.9 106.5 41.3 106.5 C 44.0 106.5 46.6 106.5 49.2 106.5 C 51.7 106.5 54.1 106.6 56.6 106.7 L 56.6 106.4 C 62.5 106.6 68.5 106.5 74.5 106.5 C 74.8 108.0 75.0 109.4 75.3 110.9 C 73.5 110.9 71.7 111.0 69.9 111.0 C 65.5 111.0 61.0 111.0 56.6 111.0 C 54.1 111.0 51.7 111.0 49.3 111.0 C 46.7 111.0 44.0 111.0 41.3 111.0 C 40.0 111.0 38.6 111.0 37.2 111.0 C 36.7 110.9 35.5 110.8 34.9 110.8 C 35.0 109.4 35.1 108.0 35.3 106.6 Z" />
<path fill="#80a2ca" stroke="#80a2ca" stroke-width="0.09375" opacity="1.00" d=" M 96.9 105.8 C 100.0 107.4 102.9 109.4 105.0 112.2 C 101.5 117.1 96.5 120.3 92.3 124.5 C 90.7 123.2 89.1 122.0 87.4 120.9 C 88.5 116.5 93.0 115.7 96.5 113.9 C 96.9 111.2 96.9 108.5 96.9 105.8 Z" />
<path fill="#ffffff" stroke="#ffffff" stroke-width="0.09375" opacity="1.00" d=" M 130.5 109.7 C 139.8 107.4 150.0 114.3 150.9 123.9 C 152.5 133.0 145.3 142.5 136.0 143.1 C 127.0 144.4 117.7 137.2 117.3 128.1 C 116.2 119.7 122.2 111.3 130.5 109.7 M 132.4 121.5 C 129.0 122.7 127.9 127.8 130.8 130.1 C 133.3 132.7 137.9 131.2 139.0 127.9 C 140.5 124.2 136.1 119.9 132.4 121.5 Z" />
<path fill="#113c6f" stroke="#113c6f" stroke-width="0.09375" opacity="0.76" d=" M 37.2 111.0 C 38.6 111.0 40.0 111.0 41.3 111.0 C 41.8 114.0 41.8 117.0 41.3 120.0 C 40.0 120.0 38.7 120.0 37.4 120.0 C 37.7 117.0 37.9 113.9 37.2 111.0 Z" />
<path fill="#13447c" stroke="#13447c" stroke-width="0.09375" opacity="0.84" d=" M 41.3 111.0 C 44.0 111.0 46.7 111.0 49.3 111.0 C 49.3 114.0 49.3 117.0 49.3 120.0 C 46.6 120.0 44.0 120.0 41.3 120.0 C 41.8 117.0 41.8 114.0 41.3 111.0 Z" />
<path fill="#7194be" stroke="#7194be" stroke-width="0.09375" opacity="1.00" d=" M 49.3 111.0 C 51.7 111.0 54.1 111.0 56.6 111.0 C 56.6 114.0 56.6 117.0 56.5 120.0 C 54.1 120.0 51.7 120.0 49.3 120.0 C 49.3 117.0 49.3 114.0 49.3 111.0 Z" />
<path fill="#13437e" stroke="#13437e" stroke-width="0.09375" opacity="0.85" d=" M 56.6 111.0 C 61.0 111.0 65.5 111.0 69.9 111.0 C 68.2 113.1 66.6 115.4 65.6 118.0 C 65.3 118.5 64.9 119.5 64.7 120.0 C 62.0 120.0 59.3 120.0 56.5 120.0 C 56.6 117.0 56.6 114.0 56.6 111.0 Z" />
<path fill="#becee0" stroke="#becee0" stroke-width="0.09375" opacity="1.00" d=" M 92.3 124.5 C 96.5 120.3 101.5 117.1 105.0 112.2 C 105.3 112.7 106.0 113.7 106.3 114.2 C 106.6 114.6 107.2 115.6 107.5 116.1 C 105.1 119.2 102.3 122.0 99.0 124.1 C 94.9 126.7 93.9 132.4 89.0 134.0 C 81.8 136.6 73.8 135.7 66.3 136.5 C 65.9 135.5 65.5 134.5 65.1 133.5 C 71.8 131.9 78.7 133.4 85.4 131.8 C 87.4 131.3 89.9 131.1 91.2 129.2 C 91.9 127.7 92.0 126.0 92.3 124.5 Z" />
<path fill="#6487b1" stroke="#6487b1" stroke-width="0.09375" opacity="1.00" d=" M 86.0 113.7 C 89.5 113.7 93.0 113.7 96.5 113.9 C 93.0 115.7 88.5 116.5 87.4 120.9 C 87.1 120.9 86.4 120.9 86.0 121.0 C 86.0 118.6 86.0 116.1 86.0 113.7 Z" />
<path fill="#ecf0f3" stroke="#ecf0f3" stroke-width="0.09375" opacity="1.00" d=" M 99.0 124.1 C 102.3 122.0 105.1 119.2 107.5 116.1 C 108.0 117.4 108.5 118.6 109.0 119.9 C 107.0 122.7 104.4 124.9 101.6 126.7 C 97.6 129.4 96.3 134.7 92.0 136.9 C 84.8 140.1 76.6 138.9 69.1 140.9 C 68.1 139.5 67.1 138.0 66.3 136.5 C 73.8 135.7 81.8 136.6 89.0 134.0 C 93.9 132.4 94.9 126.7 99.0 124.1 Z" />
<path fill="#ffffff" stroke="#ffffff" stroke-width="0.09375" opacity="1.00" d=" M 101.6 126.7 C 104.4 124.9 107.0 122.7 109.0 119.9 C 110.1 124.9 110.1 130.2 108.1 134.9 C 104.9 143.0 96.7 148.9 87.9 149.1 C 80.8 149.7 73.7 146.4 69.1 140.9 C 76.6 138.9 84.8 140.1 92.0 136.9 C 96.3 134.7 97.6 129.4 101.6 126.7 Z" />
<path fill="#13437d" stroke="#13437d" stroke-width="0.09375" opacity="0.84" d=" M 86.0 121.0 C 86.4 120.9 87.1 120.9 87.4 120.9 C 89.1 122.0 90.7 123.2 92.3 124.5 C 92.0 126.0 91.9 127.7 91.2 129.2 C 89.9 131.1 87.4 131.3 85.4 131.8 C 84.1 130.5 82.8 129.1 81.8 127.4 C 81.8 126.7 81.9 125.4 81.9 124.7 C 83.2 124.7 84.5 124.7 85.9 124.7 C 85.9 123.4 86.0 122.2 86.0 121.0 Z" />
<path fill="#0e315b" stroke="#0e315b" stroke-width="0.09375" opacity="0.66" d=" M 132.4 121.5 C 136.1 119.9 140.5 124.2 139.0 127.9 C 137.9 131.2 133.3 132.7 130.8 130.1 C 127.9 127.8 129.0 122.7 132.4 121.5 Z" />
<path fill="#134279" stroke="#134279" stroke-width="0.09375" opacity="0.79" d=" M 36.9 124.7 C 41.0 124.7 45.1 124.7 49.1 124.7 C 49.1 127.9 49.1 131.1 49.2 134.3 C 49.2 134.7 49.2 135.5 49.2 135.9 C 43.4 134.5 38.7 130.4 36.9 124.7 Z" />
<path fill="#6588b2" stroke="#6588b2" stroke-width="0.09375" opacity="0.97" d=" M 49.1 124.7 C 51.6 124.7 54.1 124.7 56.6 124.7 C 56.8 127.3 57.0 129.8 57.0 132.3 C 57.0 133.0 56.8 134.3 56.8 135.0 L 56.4 135.4 C 56.3 134.1 56.2 132.7 56.1 131.4 C 56.0 130.0 55.9 128.6 55.8 127.2 C 53.9 127.2 52.1 127.1 50.2 127.1 C 50.0 128.5 49.8 129.9 49.6 131.3 C 49.4 132.3 49.3 133.3 49.2 134.3 C 49.1 131.1 49.1 127.9 49.1 124.7 Z" />
<path fill="#13437d" stroke="#13437d" stroke-width="0.09375" opacity="0.84" d=" M 56.6 124.7 C 59.1 124.7 61.6 124.7 64.1 124.7 C 64.1 127.1 64.1 129.4 64.1 131.7 C 61.8 132.0 59.4 132.1 57.0 132.3 C 57.0 129.8 56.8 127.3 56.6 124.7 Z" />
<path fill="#688bb5" stroke="#688bb5" stroke-width="0.09375" opacity="1.00" d=" M 64.1 124.7 C 70.0 124.7 75.9 124.7 81.9 124.7 C 81.9 125.4 81.8 126.7 81.8 127.4 C 76.3 127.5 70.9 127.5 65.4 127.5 C 65.1 128.9 64.8 130.3 64.5 131.7 L 64.1 131.7 C 64.1 129.4 64.1 127.1 64.1 124.7 Z" />
<path fill="#85a6cd" stroke="#85a6cd" stroke-width="0.09375" opacity="1.00" d=" M 50.2 127.1 C 52.1 127.1 53.9 127.2 55.8 127.2 C 55.9 128.6 56.0 130.0 56.1 131.4 C 53.9 131.4 51.7 131.4 49.6 131.3 C 49.8 129.9 50.0 128.5 50.2 127.1 Z" />
<path fill="#8dacd0" stroke="#8dacd0" stroke-width="0.09375" opacity="1.00" d=" M 65.4 127.5 C 70.9 127.5 76.3 127.5 81.8 127.4 C 82.8 129.1 84.1 130.5 85.4 131.8 C 78.7 133.4 71.8 131.9 65.1 133.5 C 65.0 133.0 64.7 132.1 64.5 131.7 C 64.8 130.3 65.1 128.9 65.4 127.5 Z" />
<path fill="#b0c4db" stroke="#b0c4db" stroke-width="0.09375" opacity="1.00" d=" M 49.6 131.3 C 51.7 131.4 53.9 131.4 56.1 131.4 C 56.2 132.7 56.3 134.1 56.4 135.4 C 54.3 136.1 52.1 136.5 50.0 136.8 C 48.9 150.6 50.1 164.5 49.4 178.4 C 48.9 164.3 49.3 150.1 49.2 135.9 C 49.2 135.5 49.2 134.7 49.2 134.3 C 49.3 133.3 49.4 132.3 49.6 131.3 Z" />
<path fill="#0e315b" stroke="#0e315b" stroke-width="0.09375" opacity="0.59" d=" M 60.4 137.3 C 63.8 136.6 66.1 139.7 68.1 141.9 C 70.7 145.2 74.5 147.3 77.3 150.4 C 73.3 151.3 69.3 151.9 65.5 153.4 C 65.1 153.5 64.4 153.8 64.0 153.9 C 59.6 157.4 64.5 164.8 59.3 167.3 C 59.4 160.5 58.5 153.8 58.0 147.0 C 58.1 143.8 57.4 139.5 60.4 137.3 Z" />
<path fill="#0e315b" stroke="#0e315b" stroke-width="0.09375" opacity="0.61" d=" M 71.4 161.0 C 97.5 161.0 123.5 161.0 149.6 161.0 C 149.6 164.4 149.6 167.8 149.6 171.3 C 123.5 171.2 97.5 171.2 71.4 171.3 C 71.4 167.8 71.4 164.4 71.4 161.0 Z" />
</svg>
