<?xml version="1.0" encoding="UTF-8" ?>
<!DOCTYPE svg PUBLIC "-//W3C//DTD SVG 1.1//EN" "http://www.w3.org/Graphics/SVG/1.1/DTD/svg11.dtd">
<svg width="112pt" height="112pt" viewBox="0 0 112 112" version="1.1" xmlns="http://www.w3.org/2000/svg">
<path fill="#032752" stroke="#032752" stroke-width="0.09375" opacity="0.33" d=" M 41.7 10.7 C 42.3 10.5 43.3 9.9 43.9 9.7 C 50.6 9.7 57.4 9.7 64.2 9.7 C 65.3 10.2 66.5 10.6 67.4 11.6 C 78.0 22.3 88.8 32.9 99.3 43.7 C 101.6 47.3 105.1 49.9 107.6 53.2 C 109.5 55.5 107.6 58.2 105.9 59.9 C 94.2 71.5 82.5 83.2 70.9 94.9 C 68.8 96.8 67.0 99.4 64.1 100.3 C 57.7 100.3 51.3 100.3 44.9 100.3 C 41.3 99.8 40.6 95.3 43.2 93.1 C 51.3 84.9 59.4 76.8 67.6 68.7 C 68.3 68.1 68.8 67.3 69.0 66.4 C 49.6 66.2 30.2 66.4 10.8 66.3 C 10.3 66.1 9.2 65.6 8.7 65.3 C 8.5 64.8 7.9 63.7 7.7 63.1 C 7.7 58.0 7.7 52.9 7.7 47.8 C 7.9 47.3 8.5 46.2 8.7 45.7 C 9.2 45.5 10.3 44.9 10.9 44.7 C 30.2 44.6 49.6 44.8 69.0 44.6 C 68.8 44.2 68.4 43.3 68.2 42.9 C 59.6 34.5 51.1 25.8 42.6 17.4 C 40.8 15.6 39.9 12.8 41.7 10.7 M 44.0 13.3 C 55.5 24.7 67.0 36.3 78.5 47.7 C 55.9 47.8 33.3 47.7 10.6 47.7 C 10.6 52.7 10.6 57.7 10.6 62.7 C 33.3 62.8 56.0 62.7 78.7 62.8 C 67.2 74.3 55.6 85.9 44.0 97.5 C 50.4 97.5 56.9 97.5 63.3 97.5 C 77.4 83.7 91.2 69.4 105.2 55.4 C 91.4 41.3 77.5 27.3 63.6 13.3 C 57.0 13.2 50.5 13.3 44.0 13.3 Z" />
<path fill="#f4f6f9" stroke="#f4f6f9" stroke-width="0.09375" opacity="1.00" d=" M 44.0 13.3 C 50.5 13.3 57.0 13.2 63.6 13.3 C 77.5 27.3 91.4 41.3 105.2 55.4 C 91.2 69.4 77.4 83.7 63.3 97.5 C 56.9 97.5 50.4 97.5 44.0 97.5 C 55.6 85.9 67.2 74.3 78.7 62.8 C 56.0 62.7 33.3 62.8 10.6 62.7 C 10.6 57.7 10.6 52.7 10.6 47.7 C 33.3 47.7 55.9 47.8 78.5 47.7 C 67.0 36.3 55.5 24.7 44.0 13.3 M 48.9 15.3 C 54.8 21.1 60.6 27.2 66.6 33.0 C 70.5 36.8 74.3 40.8 78.2 44.6 L 78.3 44.5 C 79.9 46.3 81.7 48.0 83.4 49.8 C 59.8 49.8 36.2 49.7 12.7 49.8 C 12.6 53.4 12.6 57.1 12.7 60.8 C 36.3 60.8 59.9 60.8 83.5 60.8 C 81.7 62.8 79.6 64.6 77.7 66.7 C 74.1 70.3 70.4 73.9 66.8 77.7 C 60.8 83.6 54.8 89.5 48.9 95.5 C 53.5 95.4 58.2 95.7 62.8 95.4 C 68.3 89.9 73.6 84.3 79.1 78.9 C 82.8 75.3 86.4 71.5 90.0 67.8 C 94.2 63.8 98.3 59.5 102.5 55.4 C 98.5 51.3 94.3 47.2 90.2 43.2 C 85.0 37.4 79.2 32.2 73.9 26.5 C 70.2 22.7 66.4 19.0 62.6 15.3 C 58.1 15.2 53.5 15.3 48.9 15.3 Z" />
<path fill="#558cdc" stroke="#558cdc" stroke-width="0.09375" opacity="1.00" d=" M 48.9 15.3 C 53.5 15.3 58.1 15.2 62.6 15.3 C 66.4 19.0 70.2 22.7 73.9 26.5 C 71.2 28.4 68.8 30.6 66.6 33.0 C 60.6 27.2 54.8 21.1 48.9 15.3 Z" />
<path fill="#4b82d0" stroke="#4b82d0" stroke-width="0.09375" opacity="1.00" d=" M 66.6 33.0 C 68.8 30.6 71.2 28.4 73.9 26.5 C 79.2 32.2 85.0 37.4 90.2 43.2 C 86.2 43.5 81.9 42.6 78.3 44.5 L 78.2 44.6 C 74.3 40.8 70.5 36.8 66.6 33.0 Z" />
<path fill="#3d74bf" stroke="#3d74bf" stroke-width="0.09375" opacity="1.00" d=" M 78.3 44.5 C 81.9 42.6 86.2 43.5 90.2 43.2 C 94.3 47.2 98.5 51.3 102.5 55.4 C 98.3 59.5 94.2 63.8 90.0 67.8 C 86.0 66.7 81.9 66.4 77.7 66.7 C 79.6 64.6 81.7 62.8 83.5 60.8 C 59.9 60.8 36.3 60.8 12.7 60.8 C 12.6 57.1 12.6 53.4 12.7 49.8 C 36.2 49.7 59.8 49.8 83.4 49.8 C 81.7 48.0 79.9 46.3 78.3 44.5 Z" />
<path fill="#3168b0" stroke="#3168b0" stroke-width="0.09375" opacity="1.00" d=" M 66.8 77.7 C 70.4 73.9 74.1 70.3 77.7 66.7 C 81.9 66.4 86.0 66.7 90.0 67.8 C 86.4 71.5 82.8 75.3 79.1 78.9 C 75.0 78.3 70.9 77.8 66.8 77.7 Z" />
<path fill="#275ea4" stroke="#275ea4" stroke-width="0.09375" opacity="1.00" d=" M 48.9 95.5 C 54.8 89.5 60.8 83.6 66.8 77.7 C 70.9 77.8 75.0 78.3 79.1 78.9 C 73.6 84.3 68.3 89.9 62.8 95.4 C 58.2 95.7 53.5 95.4 48.9 95.5 Z" />
</svg>
