<?xml version="1.0" encoding="UTF-8" ?>
<!DOCTYPE svg PUBLIC "-//W3C//DTD SVG 1.1//EN" "http://www.w3.org/Graphics/SVG/1.1/DTD/svg11.dtd">
<svg width="110pt" height="110pt" viewBox="0 0 110 110" version="1.1" xmlns="http://www.w3.org/2000/svg">
<path fill="#020a14" stroke="#020a14" stroke-width="0.09375" opacity="0.16" d=" M 43.4 5.4 C 55.2 5.2 67.9 5.4 78.2 11.8 C 90.3 19.3 94.3 35.9 89.8 48.9 C 88.4 53.2 85.1 57.5 86.9 62.3 C 89.7 69.5 93.0 76.5 94.9 84.1 C 96.7 90.2 94.1 97.3 89.2 101.3 C 82.4 105.6 73.4 105.4 66.3 101.8 C 63.1 100.1 61.2 96.8 58.5 94.5 C 56.5 93.7 55.5 96.3 54.4 97.4 C 49.4 104.8 39.0 104.9 31.3 102.7 C 24.9 100.3 21.4 93.2 21.4 86.7 C 21.4 66.2 21.5 45.6 21.4 25.1 C 21.4 19.9 22.8 14.3 26.6 10.5 C 31.2 6.6 37.5 5.4 43.4 5.4 M 31.6 10.7 C 26.4 13.3 24.3 19.5 24.4 25.0 C 24.4 45.3 24.4 65.7 24.4 86.0 C 24.3 91.0 26.3 96.6 30.8 99.2 C 35.2 101.5 40.6 100.7 45.4 100.3 C 52.7 98.9 54.2 90.7 56.2 84.8 C 59.7 86.8 60.6 91.1 62.8 94.3 C 66.8 101.3 76.5 102.6 83.7 100.5 C 89.3 99.3 92.3 93.4 92.4 88.1 C 91.3 77.8 85.5 68.8 82.7 59.0 C 84.0 53.8 87.3 49.3 88.0 44.0 C 89.9 33.6 87.0 21.4 78.0 15.2 C 70.4 9.9 60.9 8.6 51.9 8.4 C 45.2 8.5 38.0 7.7 31.6 10.7 Z" />
<path fill="#081c34" stroke="#081c34" stroke-width="0.09375" opacity="0.35" d=" M 31.6 10.7 C 38.0 7.7 45.2 8.5 51.9 8.4 C 60.9 8.6 70.4 9.9 78.0 15.2 C 87.0 21.4 89.9 33.6 88.0 44.0 C 87.3 49.3 84.0 53.8 82.7 59.0 C 85.5 68.8 91.3 77.8 92.4 88.1 C 92.3 93.4 89.3 99.3 83.7 100.5 C 76.5 102.6 66.8 101.3 62.8 94.3 C 60.6 91.1 59.7 86.8 56.2 84.8 C 54.2 90.7 52.7 98.9 45.4 100.3 C 40.6 100.7 35.2 101.5 30.8 99.2 C 26.3 96.6 24.3 91.0 24.4 86.0 C 24.4 65.7 24.4 45.3 24.4 25.0 C 24.3 19.5 26.4 13.3 31.6 10.7 M 33.3 13.3 C 29.3 15.2 27.3 19.8 27.4 24.1 C 27.4 45.0 27.4 66.0 27.4 87.0 C 27.2 91.9 30.7 97.6 36.0 97.6 C 40.1 97.5 45.2 98.7 48.3 95.3 C 53.7 90.1 50.1 81.5 54.7 75.8 C 63.1 79.6 61.2 91.6 68.7 96.3 C 74.0 99.2 81.0 99.5 86.0 96.0 C 88.4 93.8 89.8 90.3 89.4 87.0 C 87.6 77.2 82.2 68.5 79.6 59.0 C 80.1 54.0 83.8 49.9 84.8 44.9 C 87.2 34.9 84.5 22.5 75.2 16.8 C 67.7 12.3 58.6 11.2 50.0 11.4 C 44.4 11.5 38.5 10.7 33.3 13.3 Z" />
<path fill="#0d2e55" stroke="#0d2e55" stroke-width="0.09375" opacity="0.54" d=" M 33.3 13.3 C 38.5 10.7 44.4 11.5 50.0 11.4 C 58.6 11.2 67.7 12.3 75.2 16.8 C 84.5 22.5 87.2 34.9 84.8 44.9 C 83.8 49.9 80.1 54.0 79.6 59.0 C 82.2 68.5 87.6 77.2 89.4 87.0 C 89.8 90.3 88.4 93.8 86.0 96.0 C 81.0 99.5 74.0 99.2 68.7 96.3 C 61.2 91.6 63.1 79.6 54.7 75.8 C 50.1 81.5 53.7 90.1 48.3 95.3 C 45.2 98.7 40.1 97.5 36.0 97.6 C 30.7 97.6 27.2 91.9 27.4 87.0 C 27.4 66.0 27.4 45.0 27.4 24.1 C 27.3 19.8 29.3 15.2 33.3 13.3 M 36.8 16.6 C 33.8 17.6 32.0 20.6 31.5 23.6 C 30.3 36.4 31.9 49.2 31.0 62.0 C 30.6 67.7 31.4 73.3 31.2 79.0 C 31.1 83.1 30.9 87.4 32.9 91.2 L 33.6 89.8 C 35.9 93.2 41.9 92.7 45.1 90.5 C 45.5 90.2 46.4 89.7 46.8 89.4 C 48.1 84.7 47.3 79.7 48.0 75.0 C 48.6 71.3 47.6 67.0 49.7 63.7 C 53.1 62.6 56.5 64.9 58.5 67.5 C 63.2 73.5 64.9 81.2 68.0 88.1 C 70.1 94.1 79.2 96.7 83.7 91.7 C 85.8 89.0 84.6 85.3 83.7 82.4 C 81.1 75.7 78.6 69.0 75.3 62.6 C 74.5 60.9 73.6 59.1 73.4 57.2 C 74.9 53.6 77.8 50.9 79.4 47.4 C 83.1 39.6 81.8 29.5 75.8 23.2 C 69.5 17.3 60.4 15.8 52.0 15.6 C 47.0 15.6 41.7 15.1 36.8 16.6 Z" />
<path fill="#0e315a" stroke="#0e315a" stroke-width="0.09375" opacity="0.65" d=" M 36.8 16.6 C 41.7 15.1 47.0 15.6 52.0 15.6 C 60.4 15.8 69.5 17.3 75.8 23.2 C 81.8 29.5 83.1 39.6 79.4 47.4 C 77.8 50.9 74.9 53.6 73.4 57.2 C 73.6 59.1 74.5 60.9 75.3 62.6 C 78.6 69.0 81.1 75.7 83.7 82.4 C 84.6 85.3 85.8 89.0 83.7 91.7 C 79.2 96.7 70.1 94.1 68.0 88.1 C 64.9 81.2 63.2 73.5 58.5 67.5 C 56.5 64.9 53.1 62.6 49.7 63.7 C 47.6 67.0 48.6 71.3 48.0 75.0 C 47.3 79.7 48.1 84.7 46.8 89.4 C 46.4 89.7 45.5 90.2 45.1 90.5 C 45.2 80.2 45.1 70.0 45.1 59.7 C 48.8 59.8 52.5 59.6 55.9 61.0 C 59.2 62.3 61.1 65.4 62.7 68.3 C 66.1 75.2 68.2 82.7 71.4 89.8 C 72.3 92.0 75.0 92.0 76.9 92.1 C 79.1 92.0 82.1 92.4 83.3 90.0 C 82.9 85.7 80.6 81.9 79.2 77.9 C 75.9 70.2 73.5 61.5 66.7 56.1 C 71.4 54.0 76.0 50.6 77.7 45.6 C 80.2 38.7 79.3 30.3 74.1 24.9 C 69.7 20.4 63.3 18.8 57.2 18.4 C 51.5 18.1 45.7 18.2 40.0 18.3 C 37.8 18.3 34.8 18.6 34.1 21.1 C 33.3 24.7 33.7 28.4 33.6 32.0 C 33.6 51.2 33.7 70.5 33.6 89.8 L 32.9 91.2 C 30.9 87.4 31.1 83.1 31.2 79.0 C 31.4 73.3 30.6 67.7 31.0 62.0 C 31.9 49.2 30.3 36.4 31.5 23.6 C 32.0 20.6 33.8 17.6 36.8 16.6 Z" />
<path fill="#ffffff" stroke="#ffffff" stroke-width="0.09375" opacity="1.00" d=" M 34.1 21.1 C 34.8 18.6 37.8 18.3 40.0 18.3 C 45.7 18.2 51.5 18.1 57.2 18.4 C 63.3 18.8 69.7 20.4 74.1 24.9 C 79.3 30.3 80.2 38.7 77.7 45.6 C 76.0 50.6 71.4 54.0 66.7 56.1 C 73.5 61.5 75.9 70.2 79.2 77.9 C 80.6 81.9 82.9 85.7 83.3 90.0 C 82.1 92.4 79.1 92.0 76.9 92.1 C 75.0 92.0 72.3 92.0 71.4 89.8 C 68.2 82.7 66.1 75.2 62.7 68.3 C 61.1 65.4 59.2 62.3 55.9 61.0 C 52.5 59.6 48.8 59.8 45.1 59.7 C 45.1 70.0 45.2 80.2 45.1 90.5 C 41.9 92.7 35.9 93.2 33.6 89.8 C 33.7 70.5 33.6 51.2 33.6 32.0 C 33.7 28.4 33.3 24.7 34.1 21.1 M 45.1 28.0 C 45.1 35.4 45.1 42.8 45.1 50.3 C 50.8 50.0 57.0 51.1 62.2 48.2 C 68.8 44.4 68.7 32.9 61.6 29.7 C 56.4 27.5 50.6 28.3 45.1 28.0 Z" />
<path fill="#0e315a" stroke="#0e315a" stroke-width="0.09375" opacity="0.62" d=" M 45.1 28.0 C 50.6 28.3 56.4 27.5 61.6 29.7 C 68.7 32.9 68.8 44.4 62.2 48.2 C 57.0 51.1 50.8 50.0 45.1 50.3 C 45.1 42.8 45.1 35.4 45.1 28.0 M 52.3 33.3 C 48.9 35.5 48.8 40.8 51.2 43.8 C 55.0 47.5 62.5 43.1 61.3 38.0 C 60.5 34.2 55.7 31.8 52.3 33.3 Z" />
<path fill="#0d2c52" stroke="#0d2c52" stroke-width="0.09375" opacity="0.53" d=" M 52.3 33.3 C 55.7 31.8 60.5 34.2 61.3 38.0 C 62.5 43.1 55.0 47.5 51.2 43.8 C 48.8 40.8 48.9 35.5 52.3 33.3 Z" />
</svg>
