<?xml version="1.0" encoding="UTF-8" ?>
<!DOCTYPE svg PUBLIC "-//W3C//DTD SVG 1.1//EN" "http://www.w3.org/Graphics/SVG/1.1/DTD/svg11.dtd">
<svg width="110pt" height="110pt" viewBox="0 0 110 110" version="1.1" xmlns="http://www.w3.org/2000/svg">
<path fill="#6f96d2" stroke="#6f96d2" stroke-width="0.09375" opacity="1.00" d=" M 44.8 12.0 C 54.3 11.3 64.2 11.4 73.4 14.2 C 74.5 15.0 75.5 15.8 76.5 16.7 C 75.6 18.0 74.7 19.3 73.8 20.6 C 59.8 16.3 44.3 16.2 30.6 21.3 L 30.9 20.3 C 37.3 18.0 44.1 16.7 50.9 16.8 C 55.7 17.2 60.6 17.5 65.5 16.8 C 58.9 14.6 51.6 14.9 44.7 14.5 C 51.6 13.9 58.5 14.7 65.4 13.7 C 63.0 13.4 60.7 13.1 58.3 12.9 C 53.9 12.1 49.3 12.1 44.8 12.0 Z" />
<path fill="#779fdd" stroke="#779fdd" stroke-width="0.09375" opacity="1.00" d=" M 26.7 16.7 C 32.2 13.6 38.6 12.3 44.8 12.0 C 49.3 12.1 53.9 12.1 58.3 12.9 C 52.2 12.6 46.1 12.6 40.0 13.2 C 35.8 13.8 31.4 14.6 28.2 17.5 C 33.8 16.9 39.1 14.5 44.7 14.5 C 51.6 14.9 58.9 14.6 65.5 16.8 C 60.6 17.5 55.7 17.2 50.9 16.8 C 44.7 13.8 37.7 16.7 31.5 18.4 C 31.4 18.9 31.1 19.8 30.9 20.3 L 30.6 21.3 L 30.3 22.0 C 29.5 21.7 28.7 21.4 27.9 21.0 C 27.5 19.6 27.1 18.1 26.7 16.7 Z" />
<path fill="#98c4f8" stroke="#98c4f8" stroke-width="0.09375" opacity="1.00" d=" M 28.2 17.5 C 31.4 14.6 35.8 13.8 40.0 13.2 C 46.1 12.6 52.2 12.6 58.3 12.9 C 60.7 13.1 63.0 13.4 65.4 13.7 C 58.5 14.7 51.6 13.9 44.7 14.5 C 39.1 14.5 33.8 16.9 28.2 17.5 Z" />
<path fill="#5d84c2" stroke="#5d84c2" stroke-width="0.09375" opacity="1.00" d=" M 73.4 14.2 C 76.7 14.9 80.2 16.7 81.2 20.2 C 81.7 24.0 81.6 27.9 80.9 31.7 C 80.2 32.5 79.5 33.3 78.8 34.1 C 78.4 36.2 78.3 38.2 78.2 40.3 C 77.0 40.0 75.8 39.8 74.5 39.6 C 74.0 38.2 73.6 36.8 73.1 35.4 C 73.7 34.1 74.1 32.7 74.7 31.4 C 66.7 34.8 58.1 35.4 49.5 35.1 C 47.8 34.9 46.0 34.8 44.3 34.7 L 45.5 34.3 C 53.0 34.4 60.6 34.7 67.9 33.0 C 71.3 32.3 74.5 30.5 76.2 27.4 L 74.0 27.9 C 75.5 26.5 76.8 24.8 78.0 23.2 C 71.1 23.6 64.5 26.7 57.5 26.2 C 52.4 26.1 47.3 26.4 42.3 25.8 L 43.6 25.4 C 54.4 25.8 65.6 26.2 75.8 22.0 C 75.3 21.7 74.3 21.0 73.8 20.6 C 74.7 19.3 75.6 18.0 76.5 16.7 C 75.5 15.8 74.5 15.0 73.4 14.2 Z" />
<path fill="#a5d2fd" stroke="#a5d2fd" stroke-width="0.09375" opacity="1.00" d=" M 31.5 18.4 C 37.7 16.7 44.7 13.8 50.9 16.8 C 44.1 16.7 37.3 18.0 30.9 20.3 C 31.1 19.8 31.4 18.9 31.5 18.4 Z" />
<path fill="#547ebe" stroke="#547ebe" stroke-width="0.09375" opacity="1.00" d=" M 24.7 21.1 C 24.9 19.5 25.7 18.0 26.7 16.7 C 27.1 18.1 27.5 19.6 27.9 21.0 C 28.7 21.4 29.5 21.7 30.3 22.0 C 31.9 22.7 33.6 23.3 35.3 23.9 C 33.9 23.9 32.6 24.0 31.2 24.0 C 32.4 25.4 33.4 26.9 33.7 28.7 C 32.4 28.3 31.2 27.9 30.0 27.5 C 31.2 29.3 32.7 30.8 34.4 32.1 C 35.5 36.1 39.9 37.6 43.2 39.2 C 42.4 39.1 40.6 38.9 39.8 38.7 C 38.9 44.8 39.8 50.9 39.0 56.9 C 37.3 56.7 35.6 56.5 33.9 56.3 C 33.8 49.7 34.2 43.1 33.7 36.4 C 32.3 43.2 33.4 50.4 33.0 57.3 C 31.4 57.1 29.7 57.0 28.0 56.8 C 26.9 49.4 28.4 42.0 27.2 34.7 C 23.8 31.0 24.3 25.8 24.7 21.1 Z" />
<path fill="#95c2ff" stroke="#95c2ff" stroke-width="0.09375" opacity="1.00" d=" M 57.5 26.2 C 64.5 26.7 71.1 23.6 78.0 23.2 C 76.8 24.8 75.5 26.5 74.0 27.9 L 73.4 28.1 C 69.4 28.9 65.3 29.9 61.2 30.2 C 60.3 30.1 58.6 29.7 57.7 29.6 C 61.6 28.9 65.4 28.5 69.2 27.4 C 65.3 26.8 61.2 27.9 57.5 26.2 Z" />
<path fill="#6e98d7" stroke="#6e98d7" stroke-width="0.09375" opacity="1.00" d=" M 31.2 24.0 C 32.6 24.0 33.9 23.9 35.3 23.9 C 38.1 24.4 40.8 24.9 43.6 25.4 L 42.3 25.8 C 41.5 26.1 40.8 26.3 40.0 26.5 C 45.3 27.6 50.7 28.3 56.1 28.6 C 51.3 28.9 46.6 28.9 41.8 29.5 C 48.2 30.4 54.7 31.6 61.2 30.2 C 65.3 29.9 69.4 28.9 73.4 28.1 C 69.2 30.2 64.5 30.6 60.0 31.1 C 51.2 31.8 42.1 31.5 33.7 28.7 C 33.4 26.9 32.4 25.4 31.2 24.0 Z" />
<path fill="#80aced" stroke="#80aced" stroke-width="0.09375" opacity="1.00" d=" M 40.0 26.5 C 40.8 26.3 41.5 26.1 42.3 25.8 C 47.3 26.4 52.4 26.1 57.5 26.2 C 61.2 27.9 65.3 26.8 69.2 27.4 C 65.4 28.5 61.6 28.9 57.7 29.6 C 58.6 29.7 60.3 30.1 61.2 30.2 C 54.7 31.6 48.2 30.4 41.8 29.5 C 46.6 28.9 51.3 28.9 56.1 28.6 C 50.7 28.3 45.3 27.6 40.0 26.5 Z" />
<path fill="#92c2f9" stroke="#92c2f9" stroke-width="0.09375" opacity="1.00" d=" M 49.5 35.1 C 58.1 35.4 66.7 34.8 74.7 31.4 C 74.1 32.7 73.7 34.1 73.1 35.4 C 72.9 35.6 72.5 36.1 72.4 36.4 L 71.7 37.4 C 71.1 37.0 69.9 36.1 69.3 35.7 C 66.7 38.1 62.6 40.0 59.3 38.0 C 61.2 37.5 63.1 36.9 65.0 36.3 C 59.8 36.2 54.6 36.6 49.5 35.1 Z" />
<path fill="#6f9bde" stroke="#6f9bde" stroke-width="0.09375" opacity="1.00" d=" M 43.2 39.2 C 39.9 37.6 35.5 36.1 34.4 32.1 C 38.0 33.2 41.8 33.8 45.5 34.3 L 44.3 34.7 C 43.2 34.9 42.1 35.2 41.0 35.5 C 43.2 35.9 45.3 36.2 47.4 36.8 C 46.5 37.7 45.7 38.6 44.8 39.5 C 44.4 39.4 43.6 39.3 43.2 39.2 Z" />
<path fill="#3165a3" stroke="#3165a3" stroke-width="0.09375" opacity="1.00" d=" M 78.2 40.3 C 78.3 38.2 78.4 36.2 78.8 34.1 C 79.0 50.4 78.8 66.7 78.9 83.0 C 78.8 86.8 78.8 91.0 76.0 93.8 L 75.9 93.8 C 74.6 93.2 73.4 92.6 72.2 91.9 C 71.9 91.5 71.3 90.8 71.0 90.5 C 72.1 88.9 73.0 87.1 72.9 85.1 C 73.0 75.8 72.8 66.6 73.0 57.3 C 74.7 57.2 76.4 57.0 78.0 56.8 C 78.7 51.3 78.4 45.8 78.2 40.3 Z" />
<path fill="#3164a2" stroke="#3164a2" stroke-width="0.09375" opacity="1.00" d=" M 27.2 34.7 C 28.4 42.0 26.9 49.4 28.0 56.8 C 29.7 57.0 31.4 57.1 33.0 57.3 C 33.1 66.2 33.0 75.1 33.0 84.0 C 33.2 86.1 33.0 88.8 34.9 90.1 C 37.2 91.5 39.9 92.1 42.4 92.8 C 43.5 93.7 44.3 95.2 45.9 95.2 C 50.4 95.9 54.9 96.2 59.4 96.9 C 58.4 96.9 56.4 97.0 55.5 97.0 C 50.7 96.7 45.1 95.1 41.1 98.4 C 37.2 97.7 33.3 96.5 30.1 94.0 C 27.3 91.5 27.2 87.5 27.1 84.0 C 27.1 67.5 27.1 51.1 27.2 34.7 Z" />
<path fill="#77a4ea" stroke="#77a4ea" stroke-width="0.09375" opacity="1.00" d=" M 41.0 35.5 C 42.1 35.2 43.2 34.9 44.3 34.7 C 46.0 34.8 47.8 34.9 49.5 35.1 C 54.6 36.6 59.8 36.2 65.0 36.3 C 63.1 36.9 61.2 37.5 59.3 38.0 C 59.0 37.9 58.5 37.7 58.3 37.5 C 57.5 38.1 56.7 38.7 56.0 39.3 C 54.0 39.3 52.0 39.2 49.9 39.2 C 49.1 38.4 48.3 37.6 47.4 36.8 C 45.3 36.2 43.2 35.9 41.0 35.5 Z" />
<path fill="#517cbd" stroke="#517cbd" stroke-width="0.09375" opacity="1.00" d=" M 59.3 38.0 C 62.6 40.0 66.7 38.1 69.3 35.7 C 69.9 36.1 71.1 37.0 71.7 37.4 C 71.2 43.7 71.8 50.0 71.2 56.3 C 69.8 56.3 68.3 56.4 66.8 56.4 C 66.3 50.5 67.0 44.5 66.2 38.6 C 64.6 39.0 62.9 39.3 61.2 39.6 C 61.2 45.5 61.2 51.4 61.2 57.3 C 59.6 57.1 57.9 56.9 56.3 56.7 C 56.0 50.9 56.1 45.1 56.0 39.3 C 56.7 38.7 57.5 38.1 58.3 37.5 C 58.5 37.7 59.0 37.9 59.3 38.0 Z" />
<path fill="#507cbd" stroke="#507cbd" stroke-width="0.09375" opacity="1.00" d=" M 72.4 36.4 C 72.5 36.1 72.9 35.6 73.1 35.4 C 73.6 36.8 74.0 38.2 74.5 39.6 C 75.8 39.8 77.0 40.0 78.2 40.3 C 78.4 45.8 78.7 51.3 78.0 56.8 C 76.4 57.0 74.7 57.2 73.0 57.3 C 72.7 50.4 73.8 43.2 72.4 36.4 Z" />
<path fill="#517cbd" stroke="#517cbd" stroke-width="0.09375" opacity="1.00" d=" M 47.4 36.8 C 48.3 37.6 49.1 38.4 49.9 39.2 L 50.5 39.7 C 50.4 45.6 50.5 51.4 50.5 57.2 C 48.6 57.2 46.7 57.2 44.8 57.2 C 44.8 51.3 44.8 45.4 44.8 39.5 C 45.7 38.6 46.5 37.7 47.4 36.8 Z" />
<path fill="#3165a4" stroke="#3165a4" stroke-width="0.09375" opacity="1.00" d=" M 71.7 37.4 L 72.4 36.4 C 71.8 53.7 72.3 71.1 71.9 88.4 C 71.4 87.9 70.2 86.8 69.6 86.2 C 68.4 87.2 67.2 88.3 66.1 89.3 C 66.2 72.4 65.9 55.5 66.2 38.6 C 67.0 44.5 66.3 50.5 66.8 56.4 C 68.3 56.4 69.8 56.3 71.2 56.3 C 71.8 50.0 71.2 43.7 71.7 37.4 Z" />
<path fill="#3165a3" stroke="#3165a3" stroke-width="0.09375" opacity="1.00" d=" M 39.0 56.9 C 39.8 50.9 38.9 44.8 39.8 38.7 C 40.0 55.6 39.8 72.5 39.9 89.4 C 37.9 89.2 35.9 88.8 34.0 88.5 C 33.8 77.8 34.0 67.1 33.9 56.3 C 35.6 56.5 37.3 56.7 39.0 56.9 Z" />
<path fill="#3266a4" stroke="#3266a4" stroke-width="0.09375" opacity="1.00" d=" M 49.9 39.2 C 52.0 39.2 54.0 39.3 56.0 39.3 C 56.1 45.1 56.0 50.9 56.3 56.7 C 57.9 56.9 59.6 57.1 61.2 57.3 C 61.2 68.4 61.3 79.6 61.2 90.8 C 59.3 90.8 57.4 90.8 55.5 90.8 C 55.5 73.8 55.5 56.8 55.5 39.8 C 53.8 39.8 52.2 39.8 50.5 39.7 L 49.9 39.2 Z" />
<path fill="#3165a3" stroke="#3165a3" stroke-width="0.09375" opacity="1.00" d=" M 44.8 57.2 C 46.7 57.2 48.6 57.2 50.5 57.2 C 50.5 68.4 50.6 79.6 50.4 90.7 C 48.5 90.7 46.6 90.7 44.7 90.7 C 44.8 79.5 44.7 68.4 44.8 57.2 Z" />
<path fill="#6f9bde" stroke="#6f9bde" stroke-width="0.09375" opacity="1.00" d=" M 66.1 89.3 C 67.2 88.3 68.4 87.2 69.6 86.2 C 70.2 86.8 71.4 87.9 71.9 88.4 C 70.0 88.8 68.0 89.1 66.1 89.3 Z" />
<path fill="#6f9bde" stroke="#6f9bde" stroke-width="0.09375" opacity="1.00" d=" M 62.1 93.1 C 65.2 92.5 68.1 91.6 71.0 90.5 C 71.3 90.8 71.9 91.5 72.2 91.9 C 66.6 94.9 60.2 95.7 53.9 94.7 C 56.7 94.3 59.4 93.8 62.1 93.1 Z" />
<path fill="#558aca" stroke="#558aca" stroke-width="0.09375" opacity="1.00" d=" M 53.9 94.7 C 60.2 95.7 66.6 94.9 72.2 91.9 C 73.4 92.6 74.6 93.2 75.9 93.8 C 75.3 94.1 74.3 94.8 73.8 95.2 C 68.9 93.5 64.3 97.5 59.4 96.9 C 54.9 96.2 50.4 95.9 45.9 95.2 C 44.3 95.2 43.5 93.7 42.4 92.8 C 48.9 94.0 55.6 93.6 62.1 93.1 C 59.4 93.8 56.7 94.3 53.9 94.7 Z" />
<path fill="#6f9bde" stroke="#6f9bde" stroke-width="0.09375" opacity="1.00" d=" M 59.4 96.9 C 64.3 97.5 68.9 93.5 73.8 95.2 C 71.5 96.6 69.0 97.5 66.4 98.0 C 62.7 98.1 58.8 98.8 55.5 97.0 C 56.4 97.0 58.4 96.9 59.4 96.9 Z" />
<path fill="#507cbd" stroke="#507cbd" stroke-width="0.09375" opacity="1.00" d=" M 41.1 98.4 C 45.1 95.1 50.7 96.7 55.5 97.0 C 58.8 98.8 62.7 98.1 66.4 98.0 C 58.1 100.0 49.4 99.7 41.1 98.4 Z" />
</svg>
