<?xml version="1.0" encoding="UTF-8" ?>
<!DOCTYPE svg PUBLIC "-//W3C//DTD SVG 1.1//EN" "http://www.w3.org/Graphics/SVG/1.1/DTD/svg11.dtd">
<svg width="180pt" height="180pt" viewBox="0 0 180 180" version="1.1" xmlns="http://www.w3.org/2000/svg">
<path fill="#ffffff" stroke="#ffffff" stroke-width="0.09375" opacity="1.00" d=" M 0.0 0.0 L 0.3 0.0 C 0.3 0.1 0.1 0.3 0.0 0.3 L 0.0 0.0 Z" />
<path fill="#040f1c" stroke="#040f1c" stroke-width="0.09375" opacity="0.21" d=" M 80.4 8.3 C 86.4 7.2 92.4 8.7 98.3 9.5 C 114.4 11.9 128.6 22.1 137.5 35.6 C 140.7 40.2 142.4 45.7 143.8 51.1 C 145.8 58.9 147.3 67.0 145.9 75.0 C 144.9 81.4 143.3 87.8 140.9 93.9 C 137.8 101.8 132.1 108.2 125.8 113.8 C 123.7 115.9 120.5 118.2 121.5 121.7 C 124.7 133.0 130.2 143.6 132.8 155.1 C 134.4 160.3 132.3 166.7 127.3 169.3 C 124.1 170.9 120.6 171.8 117.0 172.3 C 111.4 173.1 105.5 169.7 103.7 164.3 C 99.9 154.0 96.0 143.7 92.5 133.4 C 91.6 131.3 90.4 128.7 87.9 128.5 C 76.5 128.1 64.6 126.5 54.7 120.2 C 48.3 116.6 43.3 111.1 38.2 105.9 C 31.4 99.0 28.6 89.3 26.6 80.1 C 25.1 72.5 25.2 64.6 26.8 57.0 C 28.5 48.6 30.9 40.1 36.1 33.2 C 45.1 20.8 58.8 11.4 74.1 9.2 C 76.2 8.9 78.3 8.6 80.4 8.3 M 64.8 14.8 C 51.1 20.2 39.1 30.6 33.6 44.4 C 31.7 49.8 30.1 55.4 29.5 61.1 C 29.3 66.8 29.1 72.6 29.7 78.3 C 31.1 86.5 33.3 94.8 38.6 101.4 C 46.9 111.8 58.0 120.9 71.4 123.5 C 78.9 125.3 87.2 123.4 93.9 127.9 C 98.5 139.2 102.4 150.8 106.7 162.2 C 107.9 165.4 110.5 168.7 114.3 168.6 C 120.0 168.7 127.6 167.3 129.4 161.1 C 130.3 154.1 126.8 147.7 124.7 141.3 C 122.3 133.6 118.2 126.4 117.4 118.3 C 123.6 111.0 131.9 105.2 136.3 96.3 C 144.7 79.4 144.8 58.9 137.3 41.6 C 131.3 29.9 120.9 20.5 108.6 15.5 C 94.6 10.5 78.9 10.0 64.8 14.8 Z" />
<path fill="#0a2240" stroke="#0a2240" stroke-width="0.09375" opacity="0.42" d=" M 64.8 14.8 C 78.9 10.0 94.6 10.5 108.6 15.5 C 120.9 20.5 131.3 29.9 137.3 41.6 C 144.8 58.9 144.7 79.4 136.3 96.3 C 131.9 105.2 123.6 111.0 117.4 118.3 C 117.2 117.5 117.0 115.9 116.8 115.1 C 119.7 109.4 125.3 106.0 129.0 101.0 C 136.8 90.8 139.9 77.6 139.4 65.0 C 138.5 54.4 135.8 43.4 128.9 35.1 C 121.2 25.0 109.6 18.0 97.0 16.1 C 87.0 13.6 76.6 15.0 66.9 17.8 C 54.2 22.5 42.9 31.8 37.4 44.3 C 32.7 56.5 30.7 70.1 34.1 82.8 C 35.7 89.2 38.0 95.6 42.3 100.7 C 50.2 110.0 60.7 118.0 72.9 120.2 C 79.3 121.6 86.1 120.7 92.0 123.7 C 92.7 125.1 93.3 126.5 93.9 127.9 C 87.2 123.4 78.9 125.3 71.4 123.5 C 58.0 120.9 46.9 111.8 38.6 101.4 C 33.3 94.8 31.1 86.5 29.7 78.3 C 29.1 72.6 29.3 66.8 29.5 61.1 C 30.1 55.4 31.7 49.8 33.6 44.4 C 39.1 30.6 51.1 20.2 64.8 14.8 Z" />
<path fill="#0e3058" stroke="#0e3058" stroke-width="0.09375" opacity="0.59" d=" M 66.9 17.8 C 76.6 15.0 87.0 13.6 97.0 16.1 C 109.6 18.0 121.2 25.0 128.9 35.1 C 135.8 43.4 138.5 54.4 139.4 65.0 C 139.9 77.6 136.8 90.8 129.0 101.0 C 125.3 106.0 119.7 109.4 116.8 115.1 C 115.3 118.3 113.7 121.6 110.8 123.7 L 110.3 122.5 C 111.4 120.6 112.9 118.9 113.6 116.8 C 114.1 114.1 112.9 111.5 112.2 109.0 C 122.3 102.3 130.3 91.9 132.9 79.8 C 135.5 67.6 134.2 54.2 127.6 43.4 C 121.1 32.7 110.3 24.4 98.0 21.6 C 82.8 17.9 65.7 21.4 54.0 32.0 C 34.9 48.3 31.9 80.4 48.7 99.4 C 59.5 112.5 77.5 118.8 94.1 115.7 C 94.1 118.7 95.3 123.0 99.2 122.1 C 99.7 123.4 100.2 124.6 100.7 125.9 C 97.7 125.6 94.7 124.9 92.0 123.7 C 86.1 120.7 79.3 121.6 72.9 120.2 C 60.7 118.0 50.2 110.0 42.3 100.7 C 38.0 95.6 35.7 89.2 34.1 82.8 C 30.7 70.1 32.7 56.5 37.4 44.3 C 42.9 31.8 54.2 22.5 66.9 17.8 Z" />
<path fill="#ffffff" stroke="#ffffff" stroke-width="0.09375" opacity="1.00" d=" M 54.0 32.0 C 65.7 21.4 82.8 17.9 98.0 21.6 C 110.3 24.4 121.1 32.7 127.6 43.4 C 134.2 54.2 135.5 67.6 132.9 79.8 C 130.3 91.9 122.3 102.3 112.2 109.0 C 106.6 112.3 100.5 114.5 94.1 115.7 C 77.5 118.8 59.5 112.5 48.7 99.4 C 31.9 80.4 34.9 48.3 54.0 32.0 M 78.5 31.7 C 71.1 33.4 64.0 37.2 58.8 42.9 C 51.3 50.8 47.8 62.3 49.3 73.1 C 50.4 85.3 58.4 96.4 69.3 101.8 C 83.9 109.1 103.4 105.6 114.0 93.0 C 122.6 83.3 124.7 69.2 121.4 56.9 C 116.5 39.2 96.3 27.9 78.5 31.7 Z" />
<path fill="#0e3059" stroke="#0e3059" stroke-width="0.09375" opacity="0.60" d=" M 78.5 31.7 C 96.3 27.9 116.5 39.2 121.4 56.9 C 124.7 69.2 122.6 83.3 114.0 93.0 C 103.4 105.6 83.9 109.1 69.3 101.8 C 58.4 96.4 50.4 85.3 49.3 73.1 C 47.8 62.3 51.3 50.8 58.8 42.9 C 64.0 37.2 71.1 33.4 78.5 31.7 M 80.4 36.4 C 71.3 38.5 62.6 44.0 58.3 52.4 C 52.3 62.2 52.3 75.6 58.8 85.2 C 65.9 96.9 80.9 103.0 94.1 99.3 C 110.4 95.3 121.3 77.0 117.3 60.8 C 113.4 45.1 96.5 33.3 80.4 36.4 Z" />
<path fill="#0b2748" stroke="#0b2748" stroke-width="0.09375" opacity="0.46" d=" M 80.4 36.4 C 96.5 33.3 113.4 45.1 117.3 60.8 C 121.3 77.0 110.4 95.3 94.1 99.3 C 80.9 103.0 65.9 96.9 58.8 85.2 C 52.3 75.6 52.3 62.2 58.3 52.4 C 62.6 44.0 71.3 38.5 80.4 36.4 M 82.3 39.4 C 70.3 41.1 60.1 51.0 57.7 62.9 C 56.8 69.2 57.1 76.0 60.4 81.6 C 65.5 90.2 74.7 97.2 85.0 96.7 C 101.2 98.2 115.6 82.8 114.7 67.0 C 114.7 59.5 110.8 52.5 105.7 47.3 C 99.3 41.9 90.8 38.4 82.3 39.4 Z" />
<path fill="#061527" stroke="#061527" stroke-width="0.09375" opacity="0.27" d=" M 82.3 39.4 C 90.8 38.4 99.3 41.9 105.7 47.3 C 110.8 52.5 114.7 59.5 114.7 67.0 C 115.6 82.8 101.2 98.2 85.0 96.7 C 74.7 97.2 65.5 90.2 60.4 81.6 C 57.1 76.0 56.8 69.2 57.7 62.9 C 60.1 51.0 70.3 41.1 82.3 39.4 M 82.3 42.4 C 77.3 43.1 72.8 45.8 68.8 48.8 C 64.8 52.5 62.2 57.5 60.6 62.6 C 59.9 68.2 59.7 74.3 62.5 79.4 C 66.2 86.2 72.6 91.9 80.3 93.5 C 86.0 93.9 92.3 94.5 97.4 91.4 C 106.2 86.8 112.3 77.0 111.8 67.0 C 111.9 60.7 108.5 55.0 104.7 50.3 C 98.9 44.6 90.5 41.3 82.3 42.4 Z" />
<path fill="#010408" stroke="#010408" stroke-width="0.09375" opacity="0.09" d=" M 82.3 42.4 C 90.5 41.3 98.9 44.6 104.7 50.3 C 108.5 55.0 111.9 60.7 111.8 67.0 C 112.3 77.0 106.2 86.8 97.4 91.4 C 92.3 94.5 86.0 93.9 80.3 93.5 C 72.6 91.9 66.2 86.2 62.5 79.4 C 59.7 74.3 59.9 68.2 60.6 62.6 C 62.2 57.5 64.8 52.5 68.8 48.8 C 72.8 45.8 77.3 43.1 82.3 42.4 M 81.3 46.3 C 79.6 46.8 77.9 47.5 76.3 48.3 C 64.6 53.5 59.7 70.1 67.5 80.5 C 73.4 89.7 86.4 93.1 96.0 88.0 C 102.3 85.0 106.2 78.5 107.9 71.9 C 111.0 57.4 95.8 42.6 81.3 46.3 Z" />
<path fill="#214673" stroke="#214673" stroke-width="0.09375" opacity="0.78" d=" M 94.1 115.7 C 100.5 114.5 106.6 112.3 112.2 109.0 C 112.9 111.5 114.1 114.1 113.6 116.8 C 112.9 118.9 111.4 120.6 110.3 122.5 C 109.9 121.2 109.4 119.9 108.9 118.6 C 105.3 118.7 101.9 119.7 99.2 122.1 C 95.3 123.0 94.1 118.7 94.1 115.7 Z" />
<path fill="#1b314b" stroke="#1b314b" stroke-width="0.09375" opacity="0.52" d=" M 110.8 123.7 C 113.7 121.6 115.3 118.3 116.8 115.1 C 117.0 115.9 117.2 117.5 117.4 118.3 C 118.2 126.4 122.3 133.6 124.7 141.3 C 126.8 147.7 130.3 154.1 129.4 161.1 C 127.6 167.3 120.0 168.7 114.3 168.6 C 110.5 168.7 107.9 165.4 106.7 162.2 C 102.4 150.8 98.5 139.2 93.9 127.9 C 93.3 126.5 92.7 125.1 92.0 123.7 C 94.7 124.9 97.7 125.6 100.7 125.9 C 105.5 138.1 109.9 150.5 114.3 162.9 C 116.4 163.6 118.6 164.0 120.9 164.3 C 121.9 162.6 122.9 160.9 123.8 159.2 C 119.4 147.4 115.1 135.6 110.8 123.7 Z" />
<path fill="#ffffff" stroke="#ffffff" stroke-width="0.09375" opacity="1.00" d=" M 99.2 122.1 C 101.9 119.7 105.3 118.7 108.9 118.6 C 109.4 119.9 109.9 121.2 110.3 122.5 L 110.8 123.7 C 115.1 135.6 119.4 147.4 123.8 159.2 C 122.9 160.9 121.9 162.6 120.9 164.3 C 118.6 164.0 116.4 163.6 114.3 162.9 C 109.9 150.5 105.5 138.1 100.7 125.9 C 100.2 124.6 99.7 123.4 99.2 122.1 Z" />
</svg>
