<?xml version="1.0" encoding="UTF-8" ?>
<!DOCTYPE svg PUBLIC "-//W3C//DTD SVG 1.1//EN" "http://www.w3.org/Graphics/SVG/1.1/DTD/svg11.dtd">
<svg width="263pt" height="263pt" viewBox="0 0 263 263" version="1.1" xmlns="http://www.w3.org/2000/svg">
<path fill="#01050a" stroke="#01050a" stroke-width="0.09375" opacity="0.09" d=" M 114.4 4.8 C 122.8 4.5 131.3 3.9 139.5 5.9 C 152.1 8.8 164.6 13.9 174.4 22.6 C 181.9 29.3 187.8 37.7 192.1 46.8 C 196.7 56.5 198.7 67.1 200.2 77.7 C 201.0 83.8 199.7 89.9 198.6 96.0 C 196.9 105.5 194.0 114.8 189.0 123.2 C 186.7 127.2 183.9 131.0 182.1 135.3 C 180.8 138.1 181.7 141.2 182.6 144.0 C 190.3 164.6 201.0 184.1 206.0 205.7 C 209.4 218.1 210.5 232.4 203.7 243.8 C 199.5 251.4 191.6 256.2 183.3 257.9 C 170.8 261.4 156.1 258.6 147.0 249.0 C 140.8 242.9 137.8 234.6 134.4 226.8 C 126.9 209.4 122.9 190.6 116.4 172.8 C 114.3 166.8 110.8 160.3 104.1 158.7 C 93.6 155.9 83.4 151.8 74.6 145.3 C 60.9 135.5 51.1 120.6 46.9 104.3 C 44.7 95.4 42.6 86.2 44.0 76.9 C 45.9 64.4 48.3 51.7 54.8 40.6 C 61.8 29.1 71.5 18.8 83.8 13.0 C 93.3 8.2 103.9 5.9 114.4 4.8 M 112.6 11.3 C 94.4 13.1 76.3 21.5 65.4 36.4 C 58.5 45.1 54.4 55.6 52.2 66.4 C 49.6 74.8 50.5 83.5 50.6 92.1 C 53.1 108.4 60.3 124.2 72.5 135.5 C 81.1 142.8 91.0 148.6 101.9 151.4 C 106.5 152.8 111.8 153.8 115.2 157.6 C 119.4 162.9 121.9 169.3 124.1 175.6 C 127.0 184.1 129.3 192.9 132.1 201.5 C 135.4 213.7 140.3 225.5 146.0 236.8 C 149.0 242.7 153.7 247.9 159.9 250.5 C 165.8 253.4 172.6 252.6 179.0 252.4 C 185.8 251.4 192.5 248.2 196.7 242.5 C 202.5 235.0 203.6 224.8 202.0 215.6 C 199.6 206.1 197.3 196.6 193.8 187.5 C 188.3 173.5 181.8 159.8 176.6 145.7 C 175.6 142.3 173.7 138.6 175.1 135.0 C 177.4 128.4 182.3 123.2 185.2 116.9 C 189.2 109.5 191.0 101.4 192.9 93.3 C 194.0 88.3 193.4 83.1 193.6 78.0 C 193.8 71.8 191.7 66.0 190.3 60.1 C 187.2 48.3 180.4 37.8 172.0 29.0 C 160.9 18.6 146.0 13.1 131.1 10.7 C 124.9 10.3 118.7 10.4 112.6 11.3 Z" />
<path fill="#061628" stroke="#061628" stroke-width="0.09375" opacity="0.28" d=" M 112.6 11.3 C 118.7 10.4 124.9 10.3 131.1 10.7 C 146.0 13.1 160.9 18.6 172.0 29.0 C 180.4 37.8 187.2 48.3 190.3 60.1 C 191.7 66.0 193.8 71.8 193.6 78.0 C 193.4 83.1 194.0 88.3 192.9 93.3 C 191.0 101.4 189.2 109.5 185.2 116.9 C 182.3 123.2 177.4 128.4 175.1 135.0 C 173.7 138.6 175.6 142.3 176.6 145.7 C 181.8 159.8 188.3 173.5 193.8 187.5 C 197.3 196.6 199.6 206.1 202.0 215.6 C 203.6 224.8 202.5 235.0 196.7 242.5 C 192.5 248.2 185.8 251.4 179.0 252.4 C 172.6 252.6 165.8 253.4 159.9 250.5 C 153.7 247.9 149.0 242.7 146.0 236.8 C 140.3 225.5 135.4 213.7 132.1 201.5 C 129.3 192.9 127.0 184.1 124.1 175.6 C 121.9 169.3 119.4 162.9 115.2 157.6 C 111.8 153.8 106.5 152.8 101.9 151.4 C 91.0 148.6 81.1 142.8 72.5 135.5 C 60.3 124.2 53.1 108.4 50.6 92.1 C 50.5 83.5 49.6 74.8 52.2 66.4 C 54.4 55.6 58.5 45.1 65.4 36.4 C 76.3 21.5 94.4 13.1 112.6 11.3 M 110.5 16.8 C 97.5 19.4 83.9 23.8 75.1 34.1 C 64.7 43.1 59.6 56.4 57.1 69.5 C 53.3 83.0 56.2 97.3 61.2 110.1 C 68.6 127.6 84.4 140.9 102.6 146.0 C 106.4 147.1 110.5 147.7 114.1 149.6 C 119.5 152.8 122.7 158.5 125.3 164.0 C 133.3 181.9 136.4 201.4 144.0 219.4 C 147.2 226.6 149.8 234.2 154.9 240.2 C 160.8 246.8 170.6 248.8 179.0 247.0 C 184.3 245.4 190.2 243.4 193.1 238.3 C 196.4 232.5 198.6 225.5 197.0 218.9 C 194.5 207.5 191.6 196.3 187.2 185.5 C 182.0 173.0 176.5 160.7 171.5 148.1 C 169.5 143.1 168.8 137.6 169.8 132.3 C 172.0 126.8 176.2 122.4 178.9 117.1 C 183.9 108.6 186.2 98.9 188.2 89.3 C 188.8 83.0 188.9 76.5 187.2 70.3 C 185.7 63.9 184.2 57.4 181.3 51.5 C 176.2 41.1 168.6 31.6 158.5 25.6 C 152.4 21.9 145.5 19.8 138.7 17.7 C 133.7 16.0 128.3 16.5 123.0 16.5 C 118.8 16.5 114.6 16.2 110.5 16.8 Z" />
<path fill="#0c294d" stroke="#0c294d" stroke-width="0.09375" opacity="0.48" d=" M 110.5 16.8 C 114.6 16.2 118.8 16.5 123.0 16.5 C 128.3 16.5 133.7 16.0 138.7 17.7 C 145.5 19.8 152.4 21.9 158.5 25.6 C 168.6 31.6 176.2 41.1 181.3 51.5 C 184.2 57.4 185.7 63.9 187.2 70.3 C 188.9 76.5 188.8 83.0 188.2 89.3 C 186.2 98.9 183.9 108.6 178.9 117.1 C 176.2 122.4 172.0 126.8 169.8 132.3 C 168.8 137.6 169.5 143.1 171.5 148.1 C 176.5 160.7 182.0 173.0 187.2 185.5 C 191.6 196.3 194.5 207.5 197.0 218.9 C 198.6 225.5 196.4 232.5 193.1 238.3 C 190.2 243.4 184.3 245.4 179.0 247.0 C 170.6 248.8 160.8 246.8 154.9 240.2 C 149.8 234.2 147.2 226.6 144.0 219.4 C 136.4 201.4 133.3 181.9 125.3 164.0 C 122.7 158.5 119.5 152.8 114.1 149.6 C 110.5 147.7 106.4 147.1 102.6 146.0 C 84.4 140.9 68.6 127.6 61.2 110.1 C 56.2 97.3 53.3 83.0 57.1 69.5 C 59.6 56.4 64.7 43.1 75.1 34.1 C 83.9 23.8 97.5 19.4 110.5 16.8 M 112.2 23.5 C 101.3 25.3 90.4 29.5 82.3 37.2 C 77.9 41.3 73.7 45.7 70.8 51.0 C 66.7 58.1 64.8 66.0 63.1 73.9 C 61.0 84.9 63.0 96.2 67.4 106.3 C 74.2 122.6 89.0 134.9 105.8 139.7 C 110.7 141.2 115.8 141.9 120.4 144.0 C 123.7 145.3 125.5 148.6 127.1 151.6 C 130.1 157.3 133.2 163.1 135.2 169.4 C 142.2 190.9 146.9 213.6 158.6 233.2 C 164.7 243.0 180.4 243.1 187.2 234.0 C 190.4 230.4 189.6 225.2 189.7 220.7 C 189.8 215.0 187.8 209.7 186.4 204.2 C 183.6 193.6 178.7 183.8 174.6 173.8 C 170.0 162.2 163.8 151.2 161.8 138.7 C 161.4 135.1 161.0 131.0 163.0 127.7 C 165.7 122.9 169.6 118.9 172.4 114.2 C 176.9 106.9 179.4 98.6 181.0 90.2 C 183.0 79.3 180.4 68.1 176.5 57.9 C 173.2 50.2 168.3 43.4 162.2 37.8 C 154.5 30.2 144.1 26.1 133.7 23.7 C 126.6 23.1 119.4 23.4 112.2 23.5 Z" />
<path fill="#0e3059" stroke="#0e3059" stroke-width="0.09375" opacity="0.62" d=" M 112.2 23.5 C 119.4 23.4 126.6 23.1 133.7 23.7 C 144.1 26.1 154.5 30.2 162.2 37.8 C 168.3 43.4 173.2 50.2 176.5 57.9 C 180.4 68.1 183.0 79.3 181.0 90.2 C 179.4 98.6 176.9 106.9 172.4 114.2 C 169.6 118.9 165.7 122.9 163.0 127.7 C 161.0 131.0 161.4 135.1 161.8 138.7 C 163.8 151.2 170.0 162.2 174.6 173.8 C 178.7 183.8 183.6 193.6 186.4 204.2 C 187.8 209.7 189.8 215.0 189.7 220.7 C 189.6 225.2 190.4 230.4 187.2 234.0 C 180.4 243.1 164.7 243.0 158.6 233.2 C 146.9 213.6 142.2 190.9 135.2 169.4 C 133.2 163.1 130.1 157.3 127.1 151.6 C 125.5 148.6 123.7 145.3 120.4 144.0 C 115.8 141.9 110.7 141.2 105.8 139.7 C 89.0 134.9 74.2 122.6 67.4 106.3 C 63.0 96.2 61.0 84.9 63.1 73.9 C 64.8 66.0 66.7 58.1 70.8 51.0 C 73.7 45.7 77.9 41.3 82.3 37.2 C 90.4 29.5 101.3 25.3 112.2 23.5 M 82.6 46.6 C 71.8 58.4 67.8 75.2 69.6 90.8 C 73.6 118.6 102.9 140.1 130.6 134.9 C 130.4 138.1 130.4 141.3 130.4 144.6 C 131.6 144.6 132.9 144.7 134.1 144.8 C 133.7 147.1 133.1 149.5 134.2 151.7 C 135.5 153.7 138.3 154.6 138.9 157.1 C 143.5 173.1 148.4 188.9 153.1 204.9 C 154.3 209.3 156.9 213.1 158.5 217.4 C 160.6 222.5 162.4 227.9 165.6 232.4 C 167.4 235.3 171.1 234.9 174.0 234.7 C 177.6 234.4 181.7 233.0 183.4 229.5 C 185.1 224.7 183.8 219.5 182.1 214.9 C 180.1 209.0 179.4 202.7 177.1 196.9 C 171.5 185.7 167.6 173.8 162.2 162.6 C 160.2 157.5 157.0 152.6 155.9 147.1 C 155.2 144.5 157.7 138.9 153.4 139.1 C 153.5 136.9 154.0 134.6 153.1 132.5 C 152.0 131.0 150.2 130.0 148.8 128.9 C 158.9 121.8 167.5 112.2 171.7 100.4 C 176.4 87.4 175.8 72.5 170.1 59.8 C 166.1 51.1 159.2 44.1 151.8 38.2 C 145.0 33.5 136.9 31.5 129.1 29.5 C 123.3 29.4 117.4 29.6 111.7 30.2 C 100.6 32.5 90.0 37.9 82.6 46.6 Z" />
<path fill="#ffffff" stroke="#ffffff" stroke-width="0.09375" opacity="1.00" d=" M 82.6 46.6 C 90.0 37.9 100.6 32.5 111.7 30.2 C 117.4 29.6 123.3 29.4 129.1 29.5 C 136.9 31.5 145.0 33.5 151.8 38.2 C 159.2 44.1 166.1 51.1 170.1 59.8 C 175.8 72.5 176.4 87.4 171.7 100.4 C 167.5 112.2 158.9 121.8 148.8 128.9 C 150.2 130.0 152.0 131.0 153.1 132.5 C 154.0 134.6 153.5 136.9 153.4 139.1 C 157.7 138.9 155.2 144.5 155.9 147.1 C 157.0 152.6 160.2 157.5 162.2 162.6 C 167.6 173.8 171.5 185.7 177.1 196.9 C 179.4 202.7 180.1 209.0 182.1 214.9 C 183.8 219.5 185.1 224.7 183.4 229.5 C 181.7 233.0 177.6 234.4 174.0 234.7 C 171.1 234.9 167.4 235.3 165.6 232.4 C 162.4 227.9 160.6 222.5 158.5 217.4 C 156.9 213.1 154.3 209.3 153.1 204.9 C 148.4 188.9 143.5 173.1 138.9 157.1 C 138.3 154.6 135.5 153.7 134.2 151.7 C 133.1 149.5 133.7 147.1 134.1 144.8 C 132.9 144.7 131.6 144.6 130.4 144.6 C 130.4 141.3 130.4 138.1 130.6 134.9 C 102.9 140.1 73.6 118.6 69.6 90.8 C 67.8 75.2 71.8 58.4 82.6 46.6 M 112.4 44.6 C 99.0 47.3 88.0 57.8 83.5 70.5 C 80.3 76.6 81.4 83.5 81.3 90.1 C 82.3 101.1 88.8 110.8 97.2 117.7 C 98.3 117.8 99.3 117.9 100.4 117.9 C 100.6 119.3 101.3 120.7 102.8 121.2 C 112.8 126.4 125.0 127.5 135.8 123.9 C 145.5 120.2 154.2 113.2 158.9 103.8 C 164.7 93.4 165.1 80.3 160.9 69.2 C 153.4 51.0 131.7 39.5 112.4 44.6 Z" />
<path fill="#0e3059" stroke="#0e3059" stroke-width="0.09375" opacity="0.62" d=" M 112.4 44.6 C 131.7 39.5 153.4 51.0 160.9 69.2 C 165.1 80.3 164.7 93.4 158.9 103.8 C 154.2 113.2 145.5 120.2 135.8 123.9 C 125.0 127.5 112.8 126.4 102.8 121.2 C 101.3 120.7 100.6 119.3 100.4 117.9 C 99.3 117.9 98.3 117.8 97.2 117.7 C 88.8 110.8 82.3 101.1 81.3 90.1 C 81.4 83.5 80.3 76.6 83.5 70.5 C 88.0 57.8 99.0 47.3 112.4 44.6 M 116.3 52.0 C 103.7 54.8 93.3 64.7 89.8 77.1 C 86.7 85.1 89.6 94.0 93.8 101.1 C 99.7 109.7 109.0 116.7 119.5 117.6 C 134.2 119.2 148.5 108.9 153.4 95.3 C 158.9 82.9 153.5 67.9 143.3 59.7 C 135.8 53.8 126.0 49.7 116.3 52.0 Z" />
<path fill="#0c294d" stroke="#0c294d" stroke-width="0.09375" opacity="0.49" d=" M 116.3 52.0 C 126.0 49.7 135.8 53.8 143.3 59.7 C 153.5 67.9 158.9 82.9 153.4 95.3 C 148.5 108.9 134.2 119.2 119.5 117.6 C 109.0 116.7 99.7 109.7 93.8 101.1 C 89.6 94.0 86.7 85.1 89.8 77.1 C 93.3 64.7 103.7 54.8 116.3 52.0 M 118.4 57.5 C 111.9 58.3 106.2 62.2 101.9 67.0 C 96.0 73.1 92.9 82.3 95.1 90.7 C 98.9 102.2 109.9 111.2 122.0 112.5 C 136.4 111.8 150.1 99.0 149.6 84.0 C 150.2 74.7 143.5 66.9 136.3 61.7 C 131.1 58.0 124.6 56.7 118.4 57.5 Z" />
<path fill="#081b32" stroke="#081b32" stroke-width="0.09375" opacity="0.35" d=" M 118.4 57.5 C 124.6 56.7 131.1 58.0 136.3 61.7 C 143.5 66.9 150.2 74.7 149.6 84.0 C 150.1 99.0 136.4 111.8 122.0 112.5 C 109.9 111.2 98.9 102.2 95.1 90.7 C 92.9 82.3 96.0 73.1 101.9 67.0 C 106.2 62.2 111.9 58.3 118.4 57.5 M 117.4 62.6 C 110.3 64.3 104.8 70.0 101.4 76.1 C 98.4 81.9 98.6 89.4 102.4 94.7 C 107.0 101.5 114.4 107.3 122.9 107.5 C 131.2 106.6 138.7 101.1 142.6 93.8 C 145.4 89.5 144.7 84.2 144.3 79.4 C 141.9 71.5 135.2 65.2 127.4 62.7 C 124.1 62.2 120.7 62.3 117.4 62.6 Z" />
<path fill="#020911" stroke="#020911" stroke-width="0.09375" opacity="0.15" d=" M 117.4 62.6 C 120.7 62.3 124.1 62.2 127.4 62.7 C 135.2 65.2 141.9 71.5 144.3 79.4 C 144.7 84.2 145.4 89.5 142.6 93.8 C 138.7 101.1 131.2 106.6 122.9 107.5 C 114.4 107.3 107.0 101.5 102.4 94.7 C 98.6 89.4 98.4 81.9 101.4 76.1 C 104.8 70.0 110.3 64.3 117.4 62.6 M 117.2 68.8 C 110.8 71.4 104.8 77.7 105.4 85.0 C 105.1 91.3 110.1 96.2 115.1 99.2 C 118.6 101.4 123.3 102.6 127.1 100.5 C 133.5 97.6 139.5 91.4 138.7 84.0 C 139.3 78.1 134.6 73.7 130.3 70.5 C 126.6 67.7 121.5 68.1 117.2 68.8 Z" />
</svg>
