<?xml version="1.0" encoding="UTF-8" ?>
<!DOCTYPE svg PUBLIC "-//W3C//DTD SVG 1.1//EN" "http://www.w3.org/Graphics/SVG/1.1/DTD/svg11.dtd">
<svg width="134pt" height="134pt" viewBox="0 0 134 134" version="1.1" xmlns="http://www.w3.org/2000/svg">
<path fill="#030b16" stroke="#030b16" stroke-width="0.09375" opacity="0.17" d=" M 66.4 8.4 C 75.1 8.4 83.9 9.8 92.0 13.0 C 104.7 18.7 115.5 28.8 121.6 41.4 C 128.7 58.0 128.4 77.5 121.2 94.0 C 116.2 103.6 108.2 111.4 99.4 117.4 C 91.0 122.9 81.0 125.8 71.0 125.6 C 64.7 125.6 58.3 125.7 52.2 124.0 C 36.8 120.4 24.0 109.2 16.1 95.9 C 8.9 81.3 7.1 63.9 12.2 48.3 C 16.2 34.5 26.3 22.9 38.7 15.7 C 47.1 10.9 56.8 9.0 66.4 8.4 M 58.4 12.5 C 41.1 14.7 25.6 26.4 18.0 42.0 C 12.6 54.1 10.6 68.0 14.2 80.9 C 15.8 87.8 18.2 94.7 22.7 100.3 C 28.3 107.0 34.7 113.4 42.7 117.2 C 52.2 121.8 63.0 123.0 73.4 122.5 C 84.9 121.9 96.1 117.4 104.5 109.5 C 109.8 104.4 115.4 99.3 118.4 92.5 C 125.4 76.0 125.6 56.5 117.6 40.4 C 110.9 28.7 100.2 19.1 87.4 14.7 C 78.0 12.0 68.1 10.5 58.4 12.5 Z" />
<path fill="#091f3a" stroke="#091f3a" stroke-width="0.09375" opacity="0.38" d=" M 58.4 12.5 C 68.1 10.5 78.0 12.0 87.4 14.7 C 100.2 19.1 110.9 28.7 117.6 40.4 C 125.6 56.5 125.4 76.0 118.4 92.5 C 115.4 99.3 109.8 104.4 104.5 109.5 C 96.1 117.4 84.9 121.9 73.4 122.5 C 63.0 123.0 52.2 121.8 42.7 117.2 C 34.7 113.4 28.3 107.0 22.7 100.3 C 18.2 94.7 15.8 87.8 14.2 80.9 C 10.6 68.0 12.6 54.1 18.0 42.0 C 25.6 26.4 41.1 14.7 58.4 12.5 M 60.3 15.4 C 44.1 17.0 29.6 27.6 21.7 41.7 C 16.5 52.7 13.8 65.4 16.7 77.4 C 18.0 83.5 19.6 89.7 23.0 95.0 C 27.3 101.5 32.9 107.2 39.4 111.6 C 50.6 118.9 64.8 120.7 77.9 118.8 C 86.7 117.5 95.1 113.6 101.7 107.7 C 107.7 102.4 113.6 96.3 116.5 88.6 C 119.6 79.8 121.3 70.3 120.2 61.0 C 119.1 52.6 116.9 44.0 111.7 37.2 C 104.4 27.3 94.0 18.9 81.7 16.5 C 74.7 15.2 67.4 13.9 60.3 15.4 Z" />
<path fill="#0e2f58" stroke="#0e2f58" stroke-width="0.09375" opacity="0.57" d=" M 60.3 15.4 C 67.4 13.9 74.7 15.2 81.7 16.5 C 94.0 18.9 104.4 27.3 111.7 37.2 C 116.9 44.0 119.1 52.6 120.2 61.0 C 121.3 70.3 119.6 79.8 116.5 88.6 C 113.6 96.3 107.7 102.4 101.7 107.7 C 95.1 113.6 86.7 117.5 77.9 118.8 C 64.8 120.7 50.6 118.9 39.4 111.6 C 32.9 107.2 27.3 101.5 23.0 95.0 C 19.6 89.7 18.0 83.5 16.7 77.4 C 13.8 65.4 16.5 52.7 21.7 41.7 C 29.6 27.6 44.1 17.0 60.3 15.4 M 59.5 21.7 C 46.6 23.9 35.3 32.4 28.4 43.4 C 21.6 54.1 20.2 67.7 23.4 79.9 C 26.7 92.1 35.5 102.4 46.5 108.5 C 56.0 113.7 67.3 114.8 77.9 112.8 C 90.0 110.5 100.5 102.5 107.4 92.4 C 114.2 82.4 115.9 69.6 113.7 57.8 C 111.5 46.0 103.9 35.7 94.2 28.9 C 84.3 21.8 71.4 19.6 59.5 21.7 Z" />
<path fill="#ffffff" stroke="#ffffff" stroke-width="0.09375" opacity="1.00" d=" M 59.5 21.7 C 71.4 19.6 84.3 21.8 94.2 28.9 C 103.9 35.7 111.5 46.0 113.7 57.8 C 115.9 69.6 114.2 82.4 107.4 92.4 C 100.5 102.5 90.0 110.5 77.9 112.8 C 67.3 114.8 56.0 113.7 46.5 108.5 C 35.5 102.4 26.7 92.1 23.4 79.9 C 20.2 67.7 21.6 54.1 28.4 43.4 C 35.3 32.4 46.6 23.9 59.5 21.7 M 46.6 39.2 C 63.2 55.8 79.7 72.3 96.3 88.9 C 104.7 77.8 105.7 61.6 98.5 49.6 C 93.2 40.9 84.1 34.2 73.8 32.7 C 64.4 31.2 54.3 33.5 46.6 39.2 M 39.1 47.0 C 32.5 56.9 31.4 70.1 35.9 81.1 C 40.2 90.9 49.0 98.8 59.5 101.3 C 69.3 103.8 80.1 102.1 88.5 96.4 C 72.0 79.9 55.6 63.4 39.1 47.0 Z" />
<path fill="#0e315b" stroke="#0e315b" stroke-width="0.09375" opacity="0.67" d=" M 46.6 39.2 C 54.3 33.5 64.4 31.2 73.8 32.7 C 84.1 34.2 93.2 40.9 98.5 49.6 C 105.7 61.6 104.7 77.8 96.3 88.9 C 79.7 72.3 63.2 55.8 46.6 39.2 M 52.0 38.7 C 52.7 40.9 53.6 43.1 55.2 44.8 C 62.6 53.1 70.7 60.6 78.5 68.6 C 84.0 74.0 89.4 79.6 95.8 84.1 C 98.0 81.1 100.1 77.7 100.4 73.8 C 101.0 66.9 101.3 59.4 97.9 53.0 C 93.7 44.7 86.0 37.9 76.8 35.4 C 68.5 33.2 59.5 34.4 52.0 38.7 Z" />
<path fill="#0d2f57" stroke="#0d2f57" stroke-width="0.09375" opacity="0.55" d=" M 52.0 38.7 C 59.5 34.4 68.5 33.2 76.8 35.4 C 86.0 37.9 93.7 44.7 97.9 53.0 C 101.3 59.4 101.0 66.9 100.4 73.8 C 100.1 77.7 98.0 81.1 95.8 84.1 C 89.4 79.6 84.0 74.0 78.5 68.6 C 70.7 60.6 62.6 53.1 55.2 44.8 C 53.6 43.1 52.7 40.9 52.0 38.7 M 66.5 39.5 C 65.4 40.5 64.3 41.6 63.1 42.7 C 64.2 45.2 65.4 47.7 67.5 49.6 C 74.0 56.0 80.5 62.6 87.0 69.0 C 88.6 70.9 91.0 71.5 93.3 71.8 C 94.0 71.0 94.8 70.3 95.5 69.5 C 95.5 66.1 96.0 62.5 94.6 59.2 C 93.5 56.5 92.1 53.9 90.5 51.4 C 87.3 46.3 81.9 43.2 76.6 40.8 C 73.4 39.3 69.9 39.5 66.5 39.5 Z" />
<path fill="#06172b" stroke="#06172b" stroke-width="0.09375" opacity="0.31" d=" M 66.5 39.5 C 69.9 39.5 73.4 39.3 76.6 40.8 C 81.9 43.2 87.3 46.3 90.5 51.4 C 92.1 53.9 93.5 56.5 94.6 59.2 C 96.0 62.5 95.5 66.1 95.5 69.5 C 94.8 70.3 94.0 71.0 93.3 71.8 C 91.0 71.5 88.6 70.9 87.0 69.0 C 80.5 62.6 74.0 56.0 67.5 49.6 C 65.4 47.7 64.2 45.2 63.1 42.7 C 64.3 41.6 65.4 40.5 66.5 39.5 M 69.7 44.2 C 71.0 49.3 75.5 52.4 79.0 56.0 C 82.6 59.5 85.7 63.9 90.7 65.4 C 90.7 62.3 90.9 58.9 89.2 56.2 C 85.2 49.4 78.1 43.2 69.7 44.2 Z" />
<path fill="#000306" stroke="#000306" stroke-width="0.09375" opacity="0.09" d=" M 69.7 44.2 C 78.1 43.2 85.2 49.4 89.2 56.2 C 90.9 58.9 90.7 62.3 90.7 65.4 C 85.7 63.9 82.6 59.5 79.0 56.0 C 75.5 52.4 71.0 49.3 69.7 44.2 Z" />
<path fill="#0e315a" stroke="#0e315a" stroke-width="0.09375" opacity="0.61" d=" M 39.1 47.0 C 55.6 63.4 72.0 79.9 88.5 96.4 C 80.1 102.1 69.3 103.8 59.5 101.3 C 49.0 98.8 40.2 90.9 35.9 81.1 C 31.4 70.1 32.5 56.9 39.1 47.0 M 38.8 64.6 C 37.7 69.5 38.6 74.8 40.8 79.2 C 44.4 86.9 51.0 93.1 59.0 95.9 C 63.8 97.1 69.2 97.3 73.7 94.8 C 73.4 91.9 73.8 88.6 71.5 86.5 C 65.4 79.9 58.8 73.9 52.6 67.4 C 49.9 64.9 47.3 61.8 43.6 60.6 C 41.1 60.0 39.3 62.5 38.8 64.6 Z" />
<path fill="#0b2645" stroke="#0b2645" stroke-width="0.09375" opacity="0.45" d=" M 38.8 64.6 C 39.3 62.5 41.1 60.0 43.6 60.6 C 47.3 61.8 49.9 64.9 52.6 67.4 C 58.8 73.9 65.4 79.9 71.5 86.5 C 73.8 88.6 73.4 91.9 73.7 94.8 C 69.2 97.3 63.8 97.1 59.0 95.9 C 51.0 93.1 44.4 86.9 40.8 79.2 C 38.6 74.8 37.7 69.5 38.8 64.6 M 42.3 67.1 C 41.9 80.4 53.8 93.9 67.6 92.6 C 67.6 91.0 67.6 89.4 67.6 87.8 C 61.7 81.6 55.6 75.5 49.4 69.5 C 47.6 67.4 44.8 67.4 42.3 67.1 Z" />
<path fill="#040e1c" stroke="#040e1c" stroke-width="0.09375" opacity="0.23" d=" M 42.3 67.1 C 44.8 67.4 47.6 67.4 49.4 69.5 C 55.6 75.5 61.7 81.6 67.6 87.8 C 67.6 89.4 67.6 91.0 67.6 92.6 C 53.8 93.9 41.9 80.4 42.3 67.1 M 46.2 72.5 C 47.5 80.9 54.3 89.0 63.3 89.0 C 59.7 81.8 53.6 75.8 46.2 72.5 Z" />
<path fill="#01050a" stroke="#01050a" stroke-width="0.09375" opacity="0.11" d=" M 46.2 72.5 C 53.6 75.8 59.7 81.8 63.3 89.0 C 54.3 89.0 47.5 80.9 46.2 72.5 Z" />
</svg>
