<?xml version="1.0" encoding="UTF-8" ?>
<!DOCTYPE svg PUBLIC "-//W3C//DTD SVG 1.1//EN" "http://www.w3.org/Graphics/SVG/1.1/DTD/svg11.dtd">
<svg width="112pt" height="112pt" viewBox="0 0 112 112" version="1.1" xmlns="http://www.w3.org/2000/svg">
<path fill="#020911" stroke="#020911" stroke-width="0.09375" opacity="0.15" d=" M 33.3 8.6 C 39.9 8.3 46.5 7.3 53.1 7.7 C 64.8 8.0 76.8 6.6 88.3 9.8 C 98.9 14.2 100.3 29.5 94.0 38.0 C 91.1 42.3 85.7 42.8 81.0 43.9 C 79.2 44.3 76.5 44.9 76.5 47.3 C 75.9 57.2 77.0 67.1 76.0 77.0 C 75.5 84.9 77.4 93.7 72.6 100.6 C 69.6 105.6 63.4 107.2 58.0 107.4 C 52.0 107.4 45.1 105.7 42.0 100.0 C 37.5 93.1 39.5 84.7 38.9 77.0 C 38.8 72.7 39.5 68.3 38.8 64.0 C 37.9 57.8 41.0 51.1 37.7 45.4 C 32.9 42.6 26.5 43.7 22.4 39.5 C 16.2 33.3 15.8 22.7 20.4 15.4 C 23.2 11.0 28.4 8.9 33.3 8.6 M 25.0 14.9 C 18.9 20.9 18.7 32.1 25.3 37.8 C 30.0 41.2 36.3 39.7 41.2 42.6 C 43.1 51.6 42.1 60.9 42.3 70.0 C 42.4 77.0 42.2 84.0 42.4 91.0 C 42.2 96.7 46.3 102.5 52.0 103.6 C 56.8 104.9 62.0 104.4 66.4 102.3 C 69.6 100.3 72.0 96.8 72.5 93.0 C 73.4 76.3 71.5 59.3 73.7 42.6 C 78.9 39.6 85.6 41.3 90.3 37.3 C 96.2 31.4 96.1 20.7 90.3 14.7 C 86.9 11.9 82.3 11.4 78.0 11.3 C 65.0 11.3 52.0 11.3 39.0 11.3 C 34.1 11.3 28.9 11.8 25.0 14.9 Z" />
<path fill="#071b32" stroke="#071b32" stroke-width="0.09375" opacity="0.34" d=" M 25.0 14.9 C 28.9 11.8 34.1 11.3 39.0 11.3 C 52.0 11.3 65.0 11.3 78.0 11.3 C 82.3 11.4 86.9 11.9 90.3 14.7 C 96.1 20.7 96.2 31.4 90.3 37.3 C 85.6 41.3 78.9 39.6 73.7 42.6 C 71.5 59.3 73.4 76.3 72.5 93.0 C 72.0 96.8 69.6 100.3 66.4 102.3 C 62.0 104.4 56.8 104.9 52.0 103.6 C 46.3 102.5 42.2 96.7 42.4 91.0 C 42.2 84.0 42.4 77.0 42.3 70.0 C 42.1 60.9 43.1 51.6 41.2 42.6 C 36.3 39.7 30.0 41.2 25.3 37.8 C 18.7 32.1 18.9 20.9 25.0 14.9 M 35.4 14.6 C 32.5 14.8 29.6 15.6 27.3 17.3 C 22.4 21.7 22.2 30.4 27.0 35.0 C 31.0 37.9 36.2 37.0 40.6 38.3 C 44.2 39.6 45.6 43.5 45.5 47.0 C 45.5 61.3 45.4 75.7 45.4 90.0 C 45.2 94.9 48.8 100.6 54.1 100.6 C 57.4 100.6 60.8 101.0 64.0 100.0 C 67.5 98.0 69.7 94.0 69.6 90.0 C 69.5 76.0 69.6 62.0 69.5 48.0 C 69.6 45.2 69.7 42.0 71.9 39.9 C 75.3 36.5 80.5 38.2 84.6 36.6 C 91.5 34.8 93.1 25.5 90.1 19.9 C 88.1 15.4 82.5 14.5 78.0 14.4 C 63.8 14.6 49.6 14.3 35.4 14.6 Z" />
<path fill="#0d2f57" stroke="#0d2f57" stroke-width="0.09375" opacity="0.57" d=" M 35.4 14.6 C 49.6 14.3 63.8 14.6 78.0 14.4 C 82.5 14.5 88.1 15.4 90.1 19.9 C 93.1 25.5 91.5 34.8 84.6 36.6 C 80.5 38.2 75.3 36.5 71.9 39.9 C 69.7 42.0 69.6 45.2 69.5 48.0 C 69.6 62.0 69.5 76.0 69.6 90.0 C 69.7 94.0 67.5 98.0 64.0 100.0 C 60.8 101.0 57.4 100.6 54.1 100.6 C 48.8 100.6 45.2 94.9 45.4 90.0 C 45.4 75.7 45.5 61.3 45.5 47.0 C 45.6 43.5 44.2 39.6 40.6 38.3 C 36.2 37.0 31.0 37.9 27.0 35.0 C 22.2 30.4 22.4 21.7 27.3 17.3 C 29.6 15.6 32.5 14.8 35.4 14.6 M 30.3 23.5 C 29.8 26.1 29.3 31.0 33.0 31.2 C 39.3 31.4 45.6 31.2 51.8 31.3 C 52.0 51.9 51.6 72.5 52.0 93.1 C 54.7 96.2 60.2 95.4 63.4 93.4 C 63.3 72.7 63.4 52.0 63.4 31.3 C 70.2 31.1 77.0 31.6 83.8 31.0 C 86.5 28.4 86.3 20.5 81.1 21.2 C 65.7 21.2 50.3 21.3 34.9 21.2 C 33.2 21.2 30.5 21.2 30.3 23.5 Z" />
<path fill="#ffffff" stroke="#ffffff" stroke-width="0.09375" opacity="1.00" d=" M 30.3 23.5 C 30.5 21.2 33.2 21.2 34.9 21.2 C 50.3 21.3 65.7 21.2 81.1 21.2 C 86.3 20.5 86.5 28.4 83.8 31.0 C 77.0 31.6 70.2 31.1 63.4 31.3 C 63.4 52.0 63.3 72.7 63.4 93.4 C 60.2 95.4 54.7 96.2 52.0 93.1 C 51.6 72.5 52.0 51.9 51.8 31.3 C 45.6 31.2 39.3 31.4 33.0 31.2 C 29.3 31.0 29.8 26.1 30.3 23.5 Z" />
</svg>
