<?xml version="1.0" encoding="UTF-8" ?>
<!DOCTYPE svg PUBLIC "-//W3C//DTD SVG 1.1//EN" "http://www.w3.org/Graphics/SVG/1.1/DTD/svg11.dtd">
<svg width="283pt" height="283pt" viewBox="0 0 283 283" version="1.1" xmlns="http://www.w3.org/2000/svg">
<path fill="#010408" stroke="#010408" stroke-width="0.09375" opacity="0.08" d=" M 51.4 65.6 C 56.6 65.3 61.8 65.5 67.0 65.5 C 116.0 65.5 165.0 65.5 214.0 65.5 C 223.5 65.2 233.1 65.9 242.4 67.8 C 250.9 69.7 259.2 74.8 263.3 82.7 C 267.9 91.3 269.6 101.3 269.6 111.0 C 269.5 131.0 269.5 151.0 269.5 171.0 C 269.4 181.6 267.4 192.5 261.4 201.4 C 255.7 209.4 245.8 213.3 236.3 214.2 C 225.3 216.0 214.1 215.5 203.0 215.5 C 153.7 215.5 104.4 215.6 55.0 215.5 C 45.3 214.7 35.0 214.5 26.1 209.7 C 20.6 206.8 16.2 202.1 13.7 196.4 C 10.2 188.7 8.4 180.4 8.4 172.0 C 8.5 151.0 8.5 130.0 8.4 109.0 C 8.4 100.4 10.4 91.8 14.0 84.0 C 16.8 77.8 22.0 73.0 28.2 70.2 C 35.4 66.9 43.5 66.4 51.4 65.6 M 48.4 71.5 C 38.7 72.2 27.8 74.5 21.5 82.6 C 15.8 90.5 14.3 100.5 13.6 110.0 C 13.5 130.3 13.6 150.7 13.6 171.0 C 14.2 180.0 15.8 189.5 20.7 197.3 C 25.8 205.0 35.3 208.0 44.0 209.1 C 51.3 209.6 58.6 210.7 66.0 210.5 C 116.7 210.4 167.3 210.5 218.0 210.4 C 228.1 209.5 238.7 209.8 248.1 205.2 C 254.1 202.4 258.3 196.8 260.6 190.7 C 263.8 181.5 264.7 171.6 264.4 162.0 C 264.4 145.6 264.4 129.3 264.5 113.0 C 264.4 106.6 263.4 100.3 261.8 94.1 C 259.9 87.1 256.1 80.1 249.4 76.6 C 239.9 71.2 228.6 71.5 218.0 70.6 C 165.3 70.6 112.7 70.6 60.0 70.5 C 56.1 70.6 52.3 71.2 48.4 71.5 Z" />
<path fill="#05111f" stroke="#05111f" stroke-width="0.09375" opacity="0.23" d=" M 48.4 71.5 C 52.3 71.2 56.1 70.6 60.0 70.5 C 112.7 70.6 165.3 70.6 218.0 70.6 C 228.6 71.5 239.9 71.2 249.4 76.6 C 256.1 80.1 259.9 87.1 261.8 94.1 C 263.4 100.3 264.4 106.6 264.5 113.0 C 264.4 129.3 264.4 145.6 264.4 162.0 C 264.7 171.6 263.8 181.5 260.6 190.7 C 258.3 196.8 254.1 202.4 248.1 205.2 C 238.7 209.8 228.1 209.5 218.0 210.4 C 167.3 210.5 116.7 210.4 66.0 210.5 C 58.6 210.7 51.3 209.6 44.0 209.1 C 35.3 208.0 25.8 205.0 20.7 197.3 C 15.8 189.5 14.2 180.0 13.6 171.0 C 13.6 150.7 13.5 130.3 13.6 110.0 C 14.3 100.5 15.8 90.5 21.5 82.6 C 27.8 74.5 38.7 72.2 48.4 71.5 M 51.4 75.5 C 43.6 76.1 35.2 77.0 28.6 81.7 C 22.5 86.1 20.4 94.0 18.9 101.1 C 18.3 106.7 18.3 112.4 17.9 118.0 C 18.6 128.0 18.8 138.0 17.8 148.0 C 18.6 155.3 17.8 162.6 18.4 169.9 C 18.1 178.9 19.8 188.4 25.0 195.9 C 31.5 203.9 42.8 204.7 52.3 205.5 C 81.6 205.8 110.8 205.4 140.0 205.7 C 147.7 205.2 155.3 207.1 163.0 205.7 C 183.5 205.4 204.1 205.8 224.7 205.5 C 230.0 205.4 235.2 204.7 240.3 203.5 C 246.0 202.1 251.7 198.8 254.5 193.4 C 257.8 187.0 259.7 179.8 259.6 172.6 C 259.6 161.7 259.6 150.9 259.6 140.0 C 259.2 131.7 260.7 123.4 259.6 115.0 C 260.1 104.7 258.9 93.8 252.9 85.1 C 247.3 78.0 237.6 76.6 229.1 75.7 C 221.0 75.6 213.0 74.0 205.0 75.3 C 181.3 75.5 157.7 75.3 134.0 75.4 C 128.3 75.0 122.6 74.5 117.0 75.3 C 95.1 75.6 73.2 75.2 51.4 75.5 Z" />
<path fill="#09203b" stroke="#09203b" stroke-width="0.09375" opacity="0.38" d=" M 51.4 75.5 C 73.2 75.2 95.1 75.6 117.0 75.3 C 122.6 74.5 128.3 75.0 134.0 75.4 C 157.7 75.3 181.3 75.5 205.0 75.3 C 213.0 74.0 221.0 75.6 229.1 75.7 C 237.6 76.6 247.3 78.0 252.9 85.1 C 258.9 93.8 260.1 104.7 259.6 115.0 C 260.7 123.4 259.2 131.7 259.6 140.0 C 259.6 150.9 259.6 161.7 259.6 172.6 C 259.7 179.8 257.8 187.0 254.5 193.4 C 251.7 198.8 246.0 202.1 240.3 203.5 C 235.2 204.7 230.0 205.4 224.7 205.5 C 204.1 205.8 183.5 205.4 163.0 205.7 C 155.3 207.1 147.7 205.2 140.0 205.7 C 110.8 205.4 81.6 205.8 52.3 205.5 C 42.8 204.7 31.5 203.9 25.0 195.9 C 19.8 188.4 18.1 178.9 18.4 169.9 C 17.8 162.6 18.6 155.3 17.8 148.0 C 18.8 138.0 18.6 128.0 17.9 118.0 C 18.3 112.4 18.3 106.7 18.9 101.1 C 20.4 94.0 22.5 86.1 28.6 81.7 C 35.2 77.0 43.6 76.1 51.4 75.5 M 55.5 79.8 C 49.3 80.6 43.0 80.2 37.2 82.4 C 31.7 84.2 27.3 88.7 25.4 94.2 C 23.7 99.6 22.6 105.3 22.5 111.0 C 22.5 129.3 22.6 147.6 22.5 166.0 C 22.3 174.0 23.3 182.2 26.6 189.6 C 30.0 196.7 38.0 199.8 45.4 200.3 C 52.3 200.7 59.1 201.8 66.0 201.5 C 116.3 201.5 166.7 201.5 217.0 201.5 C 221.9 201.4 226.8 200.6 231.8 200.4 C 239.2 200.0 247.4 197.1 251.0 190.1 C 254.6 183.1 255.4 174.9 255.5 167.0 C 255.4 152.0 255.5 137.0 255.5 122.0 C 255.4 115.7 255.9 109.2 254.7 103.0 C 253.7 96.8 252.0 90.2 247.1 86.0 C 241.6 81.2 233.9 80.7 227.0 80.2 C 221.7 79.5 216.4 79.4 211.0 79.5 C 163.4 79.5 115.7 79.5 68.0 79.5 C 63.8 79.5 59.6 79.3 55.5 79.8 Z" />
<path fill="#0d2d54" stroke="#0d2d54" stroke-width="0.09375" opacity="0.53" d=" M 55.5 79.8 C 59.6 79.3 63.8 79.5 68.0 79.5 C 115.7 79.5 163.4 79.5 211.0 79.5 C 216.4 79.4 221.7 79.5 227.0 80.2 C 233.9 80.7 241.6 81.2 247.1 86.0 C 252.0 90.2 253.7 96.8 254.7 103.0 C 255.9 109.2 255.4 115.7 255.5 122.0 C 255.5 137.0 255.4 152.0 255.5 167.0 C 255.4 174.9 254.6 183.1 251.0 190.1 C 247.4 197.1 239.2 200.0 231.8 200.4 C 226.8 200.6 221.9 201.4 217.0 201.5 C 166.7 201.5 116.3 201.5 66.0 201.5 C 59.1 201.8 52.3 200.7 45.4 200.3 C 38.0 199.8 30.0 196.7 26.6 189.6 C 23.3 182.2 22.3 174.0 22.5 166.0 C 22.6 147.6 22.5 129.3 22.5 111.0 C 22.6 105.3 23.7 99.6 25.4 94.2 C 27.3 88.7 31.7 84.2 37.2 82.4 C 43.0 80.2 49.3 80.6 55.5 79.8 M 48.3 86.8 C 42.7 87.8 36.4 89.3 33.2 94.4 C 29.9 100.0 29.3 106.6 29.4 113.0 C 29.4 132.3 29.3 151.7 29.4 171.0 C 29.7 177.9 30.8 186.0 36.7 190.4 C 43.2 194.8 51.4 194.7 59.0 194.6 C 113.3 194.6 167.7 194.6 222.0 194.6 C 229.0 194.6 236.9 194.2 242.5 189.4 C 248.0 183.9 248.7 175.4 248.6 168.0 C 248.5 148.3 248.7 128.6 248.6 108.9 C 248.2 102.2 246.7 94.2 240.6 90.3 C 232.8 85.9 223.6 86.3 215.0 86.4 C 164.6 86.4 114.3 86.4 64.0 86.4 C 58.8 86.4 53.5 86.1 48.3 86.8 Z" />
<path fill="#0e315a" stroke="#0e315a" stroke-width="0.09375" opacity="0.64" d=" M 48.3 86.8 C 53.5 86.1 58.8 86.4 64.0 86.4 C 114.3 86.4 164.6 86.4 215.0 86.4 C 223.6 86.3 232.8 85.9 240.6 90.3 C 246.7 94.2 248.2 102.2 248.6 108.9 C 248.7 128.6 248.5 148.3 248.6 168.0 C 248.7 175.4 248.0 183.9 242.5 189.4 C 236.9 194.2 229.0 194.6 222.0 194.6 C 167.7 194.6 113.3 194.6 59.0 194.6 C 51.4 194.7 43.2 194.8 36.7 190.4 C 30.8 186.0 29.7 177.9 29.4 171.0 C 29.3 151.7 29.4 132.3 29.4 113.0 C 29.3 106.6 29.9 100.0 33.2 94.4 C 36.4 89.3 42.7 87.8 48.3 86.8 M 43.4 91.9 C 40.3 92.2 36.8 93.4 35.7 96.7 C 34.0 101.9 34.1 107.5 33.9 113.0 C 33.8 127.0 33.9 141.0 33.9 155.0 C 33.9 163.8 33.6 172.6 34.9 181.3 C 35.3 184.2 36.5 187.3 39.4 188.3 C 44.4 190.1 49.8 190.0 55.0 190.0 C 112.3 190.0 169.7 190.0 227.1 190.0 C 231.3 189.7 235.8 189.8 239.6 187.7 C 242.2 186.3 242.8 183.1 243.3 180.5 C 244.4 172.4 243.9 164.2 244.0 156.1 C 243.9 139.4 244.2 122.6 243.8 106.0 C 243.3 101.5 243.6 95.3 238.9 93.1 C 234.2 91.2 229.0 91.3 224.0 91.0 C 169.7 91.0 115.4 91.0 61.0 91.0 C 55.2 90.9 49.3 91.1 43.4 91.9 Z" />
<path fill="#ffffff" stroke="#ffffff" stroke-width="0.09375" opacity="1.00" d=" M 43.4 91.9 C 49.3 91.1 55.2 90.9 61.0 91.0 C 115.4 91.0 169.7 91.0 224.0 91.0 C 229.0 91.3 234.2 91.2 238.9 93.1 C 243.6 95.3 243.3 101.5 243.8 106.0 C 244.2 122.6 243.9 139.4 244.0 156.1 C 243.9 164.2 244.4 172.4 243.3 180.5 C 242.8 183.1 242.2 186.3 239.6 187.7 C 235.8 189.8 231.3 189.7 227.1 190.0 C 169.7 190.0 112.3 190.0 55.0 190.0 C 49.8 190.0 44.4 190.1 39.4 188.3 C 36.5 187.3 35.3 184.2 34.9 181.3 C 33.6 172.6 33.9 163.8 33.9 155.0 C 33.9 141.0 33.8 127.0 33.9 113.0 C 34.1 107.5 34.0 101.9 35.7 96.7 C 36.8 93.4 40.3 92.2 43.4 91.9 M 48.4 100.5 C 46.8 101.0 44.9 101.5 44.2 103.2 C 42.7 106.9 42.9 111.0 42.7 115.0 C 42.7 130.7 42.8 146.3 42.7 162.0 C 42.9 167.1 42.4 172.3 43.9 177.2 C 45.1 181.0 49.8 180.8 53.0 181.2 C 108.6 181.3 164.3 181.2 220.0 181.3 C 224.0 181.3 228.2 181.4 231.9 179.9 C 236.2 176.9 234.8 170.5 235.1 166.0 C 235.1 147.7 235.2 129.3 235.1 111.0 C 234.8 107.9 235.2 103.8 232.5 101.6 C 228.3 99.5 223.5 100.1 219.1 99.8 C 165.7 99.7 112.3 99.7 59.0 99.8 C 55.4 99.9 51.9 99.8 48.4 100.5 Z" />
<path fill="#0e315b" stroke="#0e315b" stroke-width="0.09375" opacity="0.64" d=" M 48.4 100.5 C 51.9 99.8 55.4 99.9 59.0 99.8 C 112.3 99.7 165.7 99.7 219.1 99.8 C 223.5 100.1 228.3 99.5 232.5 101.6 C 235.2 103.8 234.8 107.9 235.1 111.0 C 235.2 129.3 235.1 147.7 235.1 166.0 C 234.8 170.5 236.2 176.9 231.9 179.9 C 228.2 181.4 224.0 181.3 220.0 181.3 C 164.3 181.2 108.6 181.3 53.0 181.2 C 49.8 180.8 45.1 181.0 43.9 177.2 C 42.4 172.3 42.9 167.1 42.7 162.0 C 42.8 146.3 42.7 130.7 42.7 115.0 C 42.9 111.0 42.7 106.9 44.2 103.2 C 44.9 101.5 46.8 101.0 48.4 100.5 M 52.9 106.9 C 48.8 108.9 48.6 114.1 48.5 118.0 C 48.5 132.0 48.7 146.0 48.5 160.0 C 48.6 164.3 48.2 169.3 51.1 172.9 C 54.4 176.3 59.7 175.8 63.9 174.9 C 67.7 174.4 67.8 169.9 67.9 166.9 C 68.4 161.2 62.6 158.0 61.4 152.9 C 60.6 148.5 63.8 144.9 65.0 140.9 C 64.3 136.3 60.1 132.3 61.5 127.4 C 63.1 122.1 69.0 120.1 74.0 120.4 C 113.3 120.4 152.7 120.4 192.0 120.4 C 197.2 120.5 202.5 120.0 207.7 120.6 C 212.0 121.2 216.6 124.4 216.7 129.1 C 216.8 133.4 214.1 136.9 212.5 140.7 C 214.4 144.7 217.7 148.9 216.4 153.6 C 215.2 158.1 210.5 160.8 206.0 160.6 C 188.7 160.8 171.3 160.5 153.9 160.8 C 144.6 161.7 135.3 160.4 126.0 160.7 C 118.3 160.8 110.6 160.4 103.0 160.8 C 99.9 161.1 96.6 161.3 93.8 162.8 C 91.2 165.7 91.0 170.6 93.4 173.6 C 95.5 175.3 98.4 175.3 100.9 175.5 C 140.3 175.4 179.6 175.4 219.0 175.5 C 221.7 175.3 225.0 175.2 226.9 172.9 C 229.5 169.9 229.4 165.7 229.5 162.0 C 229.3 147.6 229.4 133.3 229.5 119.0 C 229.4 115.7 229.4 112.2 227.8 109.2 C 226.6 107.2 224.2 106.3 222.0 105.9 C 216.7 105.1 211.3 105.6 206.0 105.6 C 160.3 105.5 114.7 105.6 69.0 105.5 C 63.7 105.6 58.0 104.8 52.9 106.9 M 65.2 125.8 C 65.1 128.7 65.1 131.5 65.2 134.4 C 114.3 134.6 163.5 134.5 212.7 134.4 C 212.8 131.7 212.9 129.0 212.6 126.3 C 211.3 125.3 209.5 125.9 208.0 125.7 C 160.4 125.8 112.8 125.6 65.2 125.8 M 65.2 146.7 C 65.4 149.5 64.5 152.7 65.7 155.3 C 79.8 155.8 93.9 155.4 108.0 155.5 C 142.9 155.4 177.8 155.7 212.7 155.3 C 212.6 152.5 213.3 149.3 212.3 146.7 C 203.9 146.3 195.4 146.6 187.0 146.5 C 146.4 146.6 105.8 146.3 65.2 146.7 M 72.1 164.1 C 72.0 167.0 72.0 169.8 72.1 172.7 C 77.3 172.8 82.6 172.8 87.8 172.7 C 87.9 169.8 87.9 167.0 87.8 164.1 C 82.6 163.9 77.3 163.9 72.1 164.1 Z" />
<path fill="#0e315b" stroke="#0e315b" stroke-width="0.09375" opacity="0.57" d=" M 52.9 106.9 C 58.0 104.8 63.7 105.6 69.0 105.5 C 114.7 105.6 160.3 105.5 206.0 105.6 C 211.3 105.6 216.7 105.1 222.0 105.9 C 224.2 106.3 226.6 107.2 227.8 109.2 C 229.4 112.2 229.4 115.7 229.5 119.0 C 229.4 133.3 229.3 147.6 229.5 162.0 C 229.4 165.7 229.5 169.9 226.9 172.9 C 225.0 175.2 221.7 175.3 219.0 175.5 C 179.6 175.4 140.3 175.4 100.9 175.5 C 98.4 175.3 95.5 175.3 93.4 173.6 C 91.0 170.6 91.2 165.7 93.8 162.8 C 96.6 161.3 99.9 161.1 103.0 160.8 C 110.6 160.4 118.3 160.8 126.0 160.7 C 135.3 160.4 144.6 161.7 153.9 160.8 C 171.3 160.5 188.7 160.8 206.0 160.6 C 210.5 160.8 215.2 158.1 216.4 153.6 C 217.7 148.9 214.4 144.7 212.5 140.7 C 214.1 136.9 216.8 133.4 216.7 129.1 C 216.6 124.4 212.0 121.2 207.7 120.6 C 202.5 120.0 197.2 120.5 192.0 120.4 C 152.7 120.4 113.3 120.4 74.0 120.4 C 69.0 120.1 63.1 122.1 61.5 127.4 C 60.1 132.3 64.3 136.3 65.0 140.9 C 63.8 144.9 60.6 148.5 61.4 152.9 C 62.6 158.0 68.4 161.2 67.9 166.9 C 67.8 169.9 67.7 174.4 63.9 174.9 C 59.7 175.8 54.4 176.3 51.1 172.9 C 48.2 169.3 48.6 164.3 48.5 160.0 C 48.7 146.0 48.5 132.0 48.5 118.0 C 48.6 114.1 48.8 108.9 52.9 106.9 Z" />
<path fill="#ffffff" stroke="#ffffff" stroke-width="0.09375" opacity="1.00" d=" M 65.2 125.8 C 112.8 125.6 160.4 125.8 208.0 125.7 C 209.5 125.9 211.3 125.3 212.6 126.3 C 212.9 129.0 212.8 131.7 212.7 134.4 C 163.5 134.5 114.3 134.6 65.2 134.4 C 65.1 131.5 65.1 128.7 65.2 125.8 Z" />
<path fill="#ffffff" stroke="#ffffff" stroke-width="0.09375" opacity="1.00" d=" M 65.2 146.7 C 105.8 146.3 146.4 146.6 187.0 146.5 C 195.4 146.6 203.9 146.3 212.3 146.7 C 213.3 149.3 212.6 152.5 212.7 155.3 C 177.8 155.7 142.9 155.4 108.0 155.5 C 93.9 155.4 79.8 155.8 65.7 155.3 C 64.5 152.7 65.4 149.5 65.2 146.7 Z" />
<path fill="#ffffff" stroke="#ffffff" stroke-width="0.09375" opacity="1.00" d=" M 72.1 164.1 C 77.3 163.9 82.6 163.9 87.8 164.1 C 87.9 167.0 87.9 169.8 87.8 172.7 C 82.6 172.8 77.3 172.8 72.1 172.7 C 72.0 169.8 72.0 167.0 72.1 164.1 Z" />
</svg>
