<?xml version="1.0" encoding="UTF-8" standalone="no"?>
<!-- Created with Inkscape (http://www.inkscape.org/) -->

<svg
   xmlns:dc="http://purl.org/dc/elements/1.1/"
   xmlns:cc="http://creativecommons.org/ns#"
   xmlns:rdf="http://www.w3.org/1999/02/22-rdf-syntax-ns#"
   xmlns:svg="http://www.w3.org/2000/svg"
   xmlns="http://www.w3.org/2000/svg"
   xmlns:xlink="http://www.w3.org/1999/xlink"
   xmlns:sodipodi="http://sodipodi.sourceforge.net/DTD/sodipodi-0.dtd"
   xmlns:inkscape="http://www.inkscape.org/namespaces/inkscape"
   width="210mm"
   height="297mm"
   viewBox="0 0 210 297"
   version="1.1"
   id="svg8"
   inkscape:version="0.92.2 (5c3e80d, 2017-08-06)"
   sodipodi:docname="clear.svg">
  <defs
     id="defs2">
    <symbol
       id="symbol83301">
      <title
         id="title83297">Clear</title>
      <path
         inkscape:connector-curvature="0"
         d="M 10.054167,3.3946042 9.3053958,2.6458333 6.35,5.6012292 3.3946042,2.6458333 2.6458333,3.3946042 5.6012292,6.35 2.6458333,9.3053958 3.3946042,10.054167 6.35,7.0987708 9.3053958,10.054167 10.054167,9.3053958 7.0987708,6.35 Z"
         style="stroke:none;stroke-width:0.26458332"
         id="path83299" />
    </symbol>
    <symbol
       id="symbol83277">
      <title
         id="title83273">Add Circle Outline</title>
      <path
         inkscape:connector-curvature="0"
         d="M 6.8791667,3.7041667 H 5.8208333 V 5.8208333 H 3.7041667 V 6.8791667 H 5.8208333 V 8.9958333 H 6.8791667 V 6.8791667 H 8.9958333 V 5.8208333 H 6.8791667 Z M 6.35,1.0583333 c -2.9236458,0 -5.2916667,2.3680209 -5.2916667,5.2916667 0,2.9236458 2.3680209,5.291667 5.2916667,5.291667 2.9236458,0 5.291667,-2.3680212 5.291667,-5.291667 0,-2.9236458 -2.3680212,-5.2916667 -5.291667,-5.2916667 z m 0,9.5249997 c -2.333625,0 -4.2333333,-1.899708 -4.2333333,-4.233333 0,-2.333625 1.8997083,-4.2333333 4.2333333,-4.2333333 2.333625,0 4.233333,1.8997083 4.233333,4.2333333 0,2.333625 -1.899708,4.233333 -4.233333,4.233333 z"
         style="stroke:none;stroke-width:0.26458332"
         id="path83275" />
    </symbol>
  </defs>
  <sodipodi:namedview
     id="base"
     pagecolor="#ffffff"
     bordercolor="#666666"
     borderopacity="1.0"
     inkscape:pageopacity="0.0"
     inkscape:pageshadow="2"
     inkscape:zoom="0.63479087"
     inkscape:cx="1.7909554"
     inkscape:cy="550"
     inkscape:document-units="mm"
     inkscape:current-layer="layer1"
     showgrid="false"
     inkscape:window-width="1024"
     inkscape:window-height="683"
     inkscape:window-x="0"
     inkscape:window-y="30"
     inkscape:window-maximized="1" />
  <metadata
     id="metadata5">
    <rdf:RDF>
      <cc:Work
         rdf:about="">
        <dc:format>image/svg+xml</dc:format>
        <dc:type
           rdf:resource="http://purl.org/dc/dcmitype/StillImage" />
        <dc:title></dc:title>
      </cc:Work>
    </rdf:RDF>
  </metadata>
  <g
     inkscape:label="Layer 1"
     inkscape:groupmode="layer"
     id="layer1">
    <use
       id="use93214"
       style="fill:#000000;stroke:#000000"
       xlink:href="#symbol83277"
       x="0"
       y="0"
       width="100%"
       height="100%"
       transform="rotate(-45,177.07269,-1.1926561)" />
  </g>
</svg>
