<?xml version="1.0" encoding="UTF-8" standalone="no"?>
<!-- Created with Inkscape (http://www.inkscape.org/) -->

<svg
   xmlns:dc="http://purl.org/dc/elements/1.1/"
   xmlns:cc="http://creativecommons.org/ns#"
   xmlns:rdf="http://www.w3.org/1999/02/22-rdf-syntax-ns#"
   xmlns:svg="http://www.w3.org/2000/svg"
   xmlns="http://www.w3.org/2000/svg"
   xmlns:sodipodi="http://sodipodi.sourceforge.net/DTD/sodipodi-0.dtd"
   xmlns:inkscape="http://www.inkscape.org/namespaces/inkscape"
   id="svg2"
   style="fill-rule:evenodd"
   version="1.1"
   viewBox="0 0 520.00002 519.99998"
   inkscape:version="0.48.4 r9939"
   width="100%"
   height="100%"
   sodipodi:docname="earth.svg">
  <defs
     id="defs10" />
  <sodipodi:namedview
     pagecolor="#ffffff"
     bordercolor="#666666"
     borderopacity="1"
     objecttolerance="10"
     gridtolerance="10"
     guidetolerance="10"
     inkscape:pageopacity="0"
     inkscape:pageshadow="2"
     inkscape:window-width="1024"
     inkscape:window-height="686"
     id="namedview8"
     showgrid="false"
     inkscape:zoom="1.5889117"
     inkscape:cx="260.00001"
     inkscape:cy="316.83921"
     inkscape:window-x="0"
     inkscape:window-y="30"
     inkscape:window-maximized="1"
     inkscape:current-layer="svg2" />
  <path
     inkscape:connector-curvature="0"
     d="m 516.18015,263.69118 a 257.28789,257.39367 0 0 1 -514.5757772,0 257.28789,257.39367 0 1 1 514.5757772,0 z"
     style="fill:#ffffff;fill-opacity:1;fill-rule:nonzero;stroke:#000000;stroke-width:10.00000038;stroke-miterlimit:4;stroke-opacity:1;stroke-dasharray:none"
     id="path3001"
     inkscape:export-filename="/mnt/5/scratchbox/users/mohammed/home/mohammed/quran/sailfish/quran/icons/translation.png"
     inkscape:export-xdpi="8.3589315"
     inkscape:export-ydpi="8.3589315" />
  <path
     inkscape:connector-curvature="0"
     d="m 185.84263,165.99928 c 21.83051,6.88702 -24.84144,29.69195 -9.86058,14.15054 3.94731,-5.09324 -1.46937,-11.31416 8.28892,-12.39348 l 0.6305,-1.24097 0.94109,-0.51585 z M 145.14354,76.798019 c 15.91764,-4.827912 17.22462,-12.642317 33.25426,-20.17632 3.31212,-7.878031 10.85476,-10.791185 17.24261,-14.895032 -14.43268,2.707507 -2.88143,-10.666765 -17.44061,0.727302 6.22546,-10.866039 -19.73056,-3.488421 -1.40197,-3.777117 -9.04949,10.362289 -28.16837,27.026518 -42.45805,35.406174 -2.48404,-1.761103 18.22359,-19.129368 0.22428,-4.542858 -5.66838,10.432086 -23.31248,14.091864 -11.30675,1.323913 8.62141,-4.637337 5.35968,-15.437222 12.14173,-9.20164 11.19375,-4.877883 8.6428,-6.077881 19.52056,-11.902876 -9.17479,-2.214074 -21.29952,7.848595 -30.87931,10.265181 25.30944,-21.03917 -15.99264,-3.556296 -21.30352,8.947135 -9.313895,9.488413 -31.4733,28.972734 -9.638887,12.129462 5.172684,2.820193 32.128287,-29.056693 29.418347,-12.360095 -5.99367,5.53994 -8.22962,10.304631 -15.17967,13.973513 -11.215745,12.107208 22.31551,-10.670812 1.68227,6.321664 -13.717697,9.227333 -11.715741,27.460475 -25.393436,36.119315 -8.981699,2.80583 -11.486743,26.19806 -13.88369,17.96002 -12.379723,-11.52456 25.322435,-21.47919 3.800915,-20.49496 -1.636263,-4.29735 -2.753338,6.63545 -7.536831,-0.0784 -5.916468,8.15307 1.351169,19.02214 -10.162773,16.87463 -10.77476,0.0862 14.364679,-12.24579 -5.147786,-8.74432 -3.056531,-1.4715 -7.975921,6.53378 -12.881712,13.15315 -14.074686,10.40477 -18.707582,26.21121 -24.16646,43.85663 -15.857646,51.25915 -15.320658,119.30188 4.93649,167.55268 44.571004,106.17199 140.896853,169.93992 251.174393,165.23623 -10.37377,-4.30899 -34.03824,-19.32864 -12.31973,-28.9171 -12.28372,-8.69971 -6.52735,-21.86763 -23.36448,-30.49612 11.13676,-9.69639 2.42855,-23.93422 -11.58974,-20.87631 -12.46772,1.89614 -19.14357,-13.23104 -32.17228,-6.72639 -18.33959,1.22782 -38.31114,-5.34744 -54.97577,-14.13131 -15.73365,-15.25717 -33.03126,-34.2429 -31.86029,-55.60576 4.13891,-11.54176 6.72675,-18.9655 3.97791,-29.98226 13.22371,-11.83106 18.94358,-30.61852 36.93118,-30.49612 -3.27363,-15.13781 39.20812,-32.70029 10.78576,-33.64305 -0.48734,-14.79995 1.43456,-19.36304 7.39563,-33.96169 -1.83086,-25.13391 25.45443,6.55351 31.90629,-7.97412 13.00971,-14.95067 -23.30548,-31.54611 5.32428,-27.44733 11.01775,0.14493 14.77267,-9.67909 0.36071,-5.23556 -11.13475,-0.79897 -21.03753,1.8131 -6.78285,-7.62403 -11.50674,-3.3722 13.09271,-8.10219 0.93855,-15.93086 -0.65691,-4.49157 5.05379,-6.33158 -0.92648,-5.79809 -3.05293,-4.22219 8.82121,-9.81301 -1.44806,-12.2559 5.44537,-15.768 4.78059,-2.85732 8.39811,-4.99603 4.4035,-0.88024 10.00377,4.976 2.86463,11.55389 6.15737,11.28684 14.19469,24.14361 10.52277,32.00029 6.51665,-5.26591 19.04057,-9.53666 22.61049,-14.48535 -9.56158,-18.12086 19.26357,-26.96785 6.43846,-10.62833 -5.16978,12.15475 9.46969,10.24596 -0.0696,3.1185 7.76503,1.8049 12.68872,-6.25146 5.83537,-14.89604 -1.24757,-12.09912 -14.85567,10.41893 -17.7026,-3.83195 -8.87901,-21.58135 23.30348,-24.6868 27.18239,-43.0565 -7.70613,1.71154 18.24759,-24.129447 29.47734,-12.092036 12.40072,0.6018 36.83018,15.769006 11.25675,12.698966 0.74966,-0.85365 3.88151,13.841 12.56572,11.97874 9.81518,2.34365 -6.67345,-7.14294 2.02605,-6.3418 -1.84425,-7.18097 6.48586,-11.8968 -2.39414,-17.763775 14.69867,-2.191315 2.67254,6.049655 12.43472,10.567635 10.11777,6.9293 -5.95827,-23.621651 8.66791,-12.092037 18.48758,-19.806093 -21.83752,-1.279202 -22.5655,-19.32662 -8.18282,-14.058482 4.82989,-24.516869 4.71329,-5.184584 3.52303,14.011952 19.37757,9.962324 30.19633,12.009088 4.83589,0.981414 -25.32943,-13.263406 -15.51365,-17.994412 6.98824,-2.233598 9.70128,0.01062 5.41088,-4.466993 -2.91074,-5.156462 -8.82361,-11.264589 -11.61074,-16.612639 -18.37859,-10.372405 22.72549,-0.194986 8.617,-10.941906 -6.18046,0.194592 5.01139,-11.122972 -10.54376,-8.570738 -11.03176,7.256536 -31.1923,-12.1416 -9.88318,-1.177339 16.51963,1.360328 -17.15662,-14.176834 -25.34543,-15.173208 -26.32642,-3.2014456 -47.19995,-0.5525374 -72.88038,2.783576 -14.09868,1.831608 -11.72074,12.095069 -1.18377,9.939057 -2.84834,8.240671 -17.15462,6.008186 -1.84296,6.714651 -9.61438,4.114973 19.76656,5.323165 6.36486,13.870334 7.90922,3.77206 20.40154,9.966067 11.89673,11.555915 16.98562,-0.409656 -12.13773,13.874381 -12.94071,21.062436 -11.51974,4.633897 -21.39852,17.098181 -26.07342,12.377291 8.58701,6.678942 -8.31461,7.884403 -12.95971,5.263788 -11.50974,-4.19256 -27.91537,7.371549 -39.23412,15.29459 -20.13655,14.11716 -6.46236,-22.514002 8.46471,-29.721276 z M 384.0582,483.15675 c 6.40646,-13.38884 18.3076,-22.41386 30.66332,-32.24307 15.79865,-5.87415 -10.54776,22.62123 -19.37357,26.105 -3.51842,2.45229 -7.00574,5.16132 -11.28975,6.13847 z m 3.01494,-19.06058 c -1.70786,19.10812 -28.86336,19.61794 -37.55416,33.67845 -8.79071,4.44868 -27.58839,17.01119 -5.39398,8.84375 56.78373,-20.89755 86.94805,-50.91623 105.25765,-69.91814 41.85906,-43.43685 68.19347,-109.19652 66.67851,-180.78371 -1.99056,-5.23637 -11.64774,-51.22475 -12.99371,-29.40264 -0.15705,23.06732 -0.68445,46.22872 1.21657,69.17364 -6.51385,30.68326 -15.81265,-35.85328 -17.60361,-18.96246 -6.67465,-1.63132 -7.42983,-5.20067 -15.72465,-9.33931 -6.06016,9.30937 -19.57756,20.96633 -28.05237,13.9553 -5.84197,18.06724 -20.81453,2.58501 -26.44041,-1.74846 -14.22268,12.19724 20.19255,25.95023 23.98947,16.47709 4.58169,-14.09793 1.75216,-11.0815 10.44676,-5.80365 11.04876,2.36864 1.83806,23.72382 -1.51236,33.43366 -9.0281,12.23871 -13.5577,29.58877 -28.54837,39.57375 -8.52841,11.28381 -19.55856,17.40164 -19.44856,-2.86592 -10.13878,-14.84344 -23.23748,-18.1775 -31.4483,-34.99245 -0.88418,-12.54116 -11.32675,-15.94704 -14.24368,-8.30864 -7.06714,-4.69551 10.60576,20.3149 14.83267,23.74606 6.50135,18.71363 18.39759,31.6584 36.88817,37.09041 1.51197,25.12986 40.2271,-38.68157 30.33733,-5.70463 -7.04305,24.58262 -26.08842,42.11881 -39.03113,63.29049 -7.54983,8.73774 -17.9216,19.07778 -11.65674,28.56508 z m -37.68516,-6.09862 c 8.15542,0.2886 18.91258,-13.86629 8.63441,-12.66356 -6.98615,0.16315 -6.77305,7.7703 -8.63441,12.66356 z M 256.68505,63.069301 c 6.66555,-9.886964 12.98971,1.692824 6.59975,2.267079 7.94632,9.180701 -6.79705,-3.076823 -4.81679,11.543777 -2.32235,-0.870103 -12.56172,-23.051137 -1.78296,-13.810654 z m 15.82765,56.418029 c 1.58976,10.04214 -18.0906,16.71885 -1.50797,24.39751 -1.72746,10.2935 -9.72328,28.05223 -18.37159,28.37289 -11.60174,8.43165 14.19668,7.42253 18.33659,0.93434 9.54009,4.0298 7.36084,-4.29948 9.26069,-9.52179 -4.1343,-11.73294 13.94569,1.08781 3.84862,-12.78495 -10.28477,8.98315 6.55335,-9.92833 13.1487,-7.00071 -3.01473,-7.91172 -24.61545,12.58668 -20.94753,-3.81252 -14.02569,-9.37937 22.2665,-26.59864 -3.76791,-20.58499 z m 47.56293,97.16214 c 0.89575,5.60023 -1.53266,14.8485 -5.87347,21.8211 10.48877,12.80619 31.23231,-9.75162 47.28295,0.0161 19.64856,-12.46428 -23.18948,-30.7399 -26.8404,-10.90346 -8.18162,-6.34777 4.73109,-15.3472 -8.54331,-13.57598 -3.26983,-0.56993 -3.30743,-5.9917 -6.02647,2.64297 z m 79.05624,23.29897 c 13.11571,7.23499 27.23539,-6.47916 11.29175,-14.96078 -6.92745,-9.01987 -8.9804,-16.46698 -18.42559,-20.44539 -4.7757,-1.97849 10.36077,-23.39102 -5.89877,-13.55373 -11.31475,5.2296 -5.76007,20.75898 0.40384,25.59012 16.03664,10.05569 14.39568,4.32872 12.62872,23.36978 z m -161.2864,27.44631 c -10.75876,6.90846 -10.00378,-9.96809 -5.60927,-14.90616 -0.80274,-5.56422 8.5944,-20.01751 5.23278,-3.5128 -2.45135,5.07402 4.06221,12.32166 0.37649,18.41926 z m -66.32452,6.09963 c 7.54673,18.40611 42.54805,-2.51451 60.98764,7.43487 8.8769,-3.34913 14.63067,-1.46462 11.51074,8.17816 -12.78071,4.67608 3.90831,11.48814 8.14702,10.30766 12.36072,1.69829 15.41466,13.01963 28.88936,14.43175 10.54976,3.18293 2.85353,-24.2215 21.44252,-15.14995 3.93461,6.30103 12.71471,3.11739 20.04855,4.84319 12.38372,4.24142 18.87858,-10.86098 30.66631,-8.76212 4.05261,-9.3819 2.88424,-37.64675 1.38547,-33.40938 -7.16774,6.58375 -18.92257,7.11876 -28.55136,11.85027 -4.91029,-3.75314 -9.56089,4.65706 -11.15575,-8.60745 -3.36003,-7.31177 -4.01491,-20.36548 -17.50361,-7.89007 -3.95391,0.86388 12.46472,9.94047 9.0668,14.67249 -8.27812,-5.475 -7.46194,-1.07791 -8.9894,6.6755 -7.65763,-4.67648 -13.6737,-25.09851 -24.49245,-34.25807 -11.63974,-5.58121 -12.57472,-16.88474 -20.76254,-18.94425 -6.35416,16.95454 27.83838,28.45684 22.4015,33.37499 -13.6297,-8.44015 6.38046,15.85296 -11.64774,15.15196 0.11982,12.94882 -24.53745,-8.25807 -2.74104,-2.18727 15.50265,-9.25454 -12.44172,-20.20767 -17.51161,-29.14773 -4.85769,-19.90624 -17.7046,9.91559 -27.58238,-6.64404 -1.03188,8.79216 -21.49052,15.53433 -19.48857,28.93126 -7.30033,6.93193 -13.3307,9.34265 -24.11846,9.14944 z m 3.01493,-161.63512 c 0.5922,0.16337 9.0346,-14.479291 7.91383,-5.71828 20.12055,2.59553 -1.07818,21.9445 -11.68174,8.76809 l 3.76791,-3.04981 z"
     style="fill:none;fill-opacity:1;stroke:#000000;stroke-opacity:1;stroke-width:10.00000038;stroke-miterlimit:4;stroke-dasharray:none"
     id="path16"
     inkscape:export-filename="/mnt/5/scratchbox/users/mohammed/home/mohammed/quran/sailfish/quran/icons/translation.png"
     inkscape:export-xdpi="8.3589315"
     inkscape:export-ydpi="8.3589315" />
  <metadata
     id="metadata6">
    <rdf:RDF>
      <cc:Work>
        <dc:format>image/svg+xml</dc:format>
        <dc:type
           rdf:resource="http://purl.org/dc/dcmitype/StillImage" />
        <cc:license
           rdf:resource="http://creativecommons.org/licenses/publicdomain/" />
        <dc:publisher>
          <cc:Agent
             rdf:about="http://openclipart.org/">
            <dc:title>Openclipart</dc:title>
          </cc:Agent>
        </dc:publisher>
        <dc:title>Earth</dc:title>
        <dc:date>2012-12-17T08:31:20</dc:date>
        <dc:description>Simple Earth planet with focus on Europe. </dc:description>
        <dc:source>https://openclipart.org/detail/173813/earth-by-snagator-173813</dc:source>
        <dc:creator>
          <cc:Agent>
            <dc:title>snagator</dc:title>
          </cc:Agent>
        </dc:creator>
        <dc:subject>
          <rdf:Bag>
            <rdf:li>europe in earth</rdf:li>
            <rdf:li>planet earth</rdf:li>
          </rdf:Bag>
        </dc:subject>
      </cc:Work>
      <cc:License
         rdf:about="http://creativecommons.org/licenses/publicdomain/">
        <cc:permits
           rdf:resource="http://creativecommons.org/ns#Reproduction" />
        <cc:permits
           rdf:resource="http://creativecommons.org/ns#Distribution" />
        <cc:permits
           rdf:resource="http://creativecommons.org/ns#DerivativeWorks" />
      </cc:License>
    </rdf:RDF>
  </metadata>
</svg>
