<?xml version="1.0" encoding="UTF-8" standalone="no"?>
<svg
   xmlns:dc="http://purl.org/dc/elements/1.1/"
   xmlns:cc="http://creativecommons.org/ns#"
   xmlns:rdf="http://www.w3.org/1999/02/22-rdf-syntax-ns#"
   xmlns:svg="http://www.w3.org/2000/svg"
   xmlns="http://www.w3.org/2000/svg"
   xmlns:sodipodi="http://sodipodi.sourceforge.net/DTD/sodipodi-0.dtd"
   xmlns:inkscape="http://www.inkscape.org/namespaces/inkscape"
   id="svg1"
   sodipodi:docname="mono-playlist.svg"
   viewBox="0 0 60 60"
   sodipodi:version="0.32"
   _SVGFile__filename="oldscale/actions/player_playlist.svg"
   version="1.0"
   y="0"
   x="0"
   inkscape:version="0.92.2 (5c3e80d, 2017-08-06)"
   inkscape:export-filename="/home/mohammed/scratchbox/quran/quran/icons/playlist.png"
   inkscape:export-xdpi="76.800003"
   inkscape:export-ydpi="76.800003">
  <defs
     id="defs18" />
  <sodipodi:namedview
     id="base"
     bordercolor="#666666"
     inkscape:pageshadow="2"
     inkscape:window-y="30"
     pagecolor="#ffffff"
     inkscape:window-height="683"
     inkscape:zoom="10.360866"
     inkscape:window-x="0"
     borderopacity="1.0"
     inkscape:current-layer="svg1"
     inkscape:cx="22.336846"
     inkscape:cy="34.910373"
     inkscape:window-width="1024"
     inkscape:pageopacity="0.0"
     showgrid="false"
     inkscape:window-maximized="1" />
  <g
     id="g1408"
     transform="matrix(0.60058454,0,0,0.63565178,12.089422,10.930161)">
    <path
       d="M 20.754,19.557 H 45.665"
       transform="matrix(0.83857,0,0,1,9.4655,10.443)"
       style="fill:none;stroke:#ffffff;stroke-width:10.92000008;stroke-linecap:round;stroke-linejoin:round"
       sodipodi:nodetypes="cc"
       id="path1781"
       inkscape:connector-curvature="0" />
    <path
       d="M 20.754,19.557 H 51.127"
       transform="matrix(0.83857,0,0,1,9.4655,-8.9291)"
       style="fill:none;stroke:#ffffff;stroke-width:10.92000008;stroke-linecap:round;stroke-linejoin:round"
       sodipodi:nodetypes="cc"
       id="path1770"
       inkscape:connector-curvature="0" />
    <path
       d="M 20.754,19.557 H 51.127"
       transform="matrix(0.83857,0,0,1,9.4655,-8.9291)"
       style="fill:none;stroke:#000000;stroke-width:5.46010017;stroke-linecap:round;stroke-linejoin:round"
       sodipodi:nodetypes="cc"
       id="path841"
       inkscape:connector-curvature="0" />
    <path
       d="m 2.468,13.617 h 8.768 c 0.862,0 1.556,0.694 1.556,1.556 v 8.767 c 0,0.863 -0.694,1.557 -1.556,1.557 H 2.468 c -0.8621,0 -1.5562,-0.694 -1.5562,-1.557 l 5e-5,-8.767 c 0,-0.862 0.69405,-1.556 1.5562,-1.556 z"
       transform="translate(3.7756,-8.9291)"
       style="color:#000000;fill:#000000;fill-rule:evenodd;stroke:#ffffff;stroke-width:8.125;stroke-linecap:round;stroke-linejoin:round"
       id="rect1719"
       inkscape:connector-curvature="0" />
    <path
       d="m 2.468,13.617 h 8.768 c 0.862,0 1.556,0.694 1.556,1.556 v 8.767 c 0,0.863 -0.694,1.557 -1.556,1.557 H 2.468 c -0.8621,0 -1.5562,-0.694 -1.5562,-1.557 l 5e-5,-8.767 c 0,-0.862 0.69405,-1.556 1.5562,-1.556 z"
       transform="translate(3.7756,-8.9291)"
       style="color:#000000;fill:#000000;fill-rule:evenodd;stroke:#050505;stroke-width:3.125;stroke-linecap:round;stroke-linejoin:round"
       id="rect1717"
       inkscape:connector-curvature="0" />
    <path
       d="M 20.754,19.557 H 45.665"
       transform="matrix(0.83857,0,0,1,9.4655,10.443)"
       style="fill:none;stroke:#000000;stroke-width:5.46010017;stroke-linecap:round;stroke-linejoin:round"
       sodipodi:nodetypes="cc"
       id="path1729"
       inkscape:connector-curvature="0" />
    <path
       d="m 2.468,13.617 h 8.768 c 0.862,0 1.556,0.694 1.556,1.556 v 8.767 c 0,0.863 -0.694,1.557 -1.556,1.557 H 2.468 c -0.8621,0 -1.5562,-0.694 -1.5562,-1.557 l 5e-5,-8.767 c 0,-0.862 0.69405,-1.556 1.5562,-1.556 z"
       transform="translate(3.7756,10.443)"
       style="color:#000000;fill:#000000;fill-rule:evenodd;stroke:#ffffff;stroke-width:8.125;stroke-linecap:round;stroke-linejoin:round"
       id="rect1731"
       inkscape:connector-curvature="0" />
    <path
       d="m 2.468,13.617 h 8.768 c 0.862,0 1.556,0.694 1.556,1.556 v 8.767 c 0,0.863 -0.694,1.557 -1.556,1.557 H 2.468 c -0.8621,0 -1.5562,-0.694 -1.5562,-1.557 l 5e-5,-8.767 c 0,-0.862 0.69405,-1.556 1.5562,-1.556 z"
       transform="translate(3.7756,10.443)"
       style="color:#000000;fill:#000000;fill-rule:evenodd;stroke:#050505;stroke-width:3.125;stroke-linecap:round;stroke-linejoin:round"
       id="rect1732"
       inkscape:connector-curvature="0" />
    <path
       d="M 20.754,19.557 H 53.555"
       transform="matrix(0.83857,0,0,1,9.4655,29.816)"
       style="fill:none;stroke:#ffffff;stroke-width:10.92000008;stroke-linecap:round;stroke-linejoin:round"
       id="path1734"
       inkscape:connector-curvature="0" />
    <path
       d="M 20.754,19.557 H 53.555"
       transform="matrix(0.83857,0,0,1,9.4655,29.816)"
       style="fill:none;stroke:#000000;stroke-width:5.46010017;stroke-linecap:round;stroke-linejoin:round"
       id="path1735"
       inkscape:connector-curvature="0" />
    <path
       d="m 2.468,13.617 h 8.768 c 0.862,0 1.556,0.694 1.556,1.556 v 8.767 c 0,0.863 -0.694,1.557 -1.556,1.557 H 2.468 c -0.8621,0 -1.5562,-0.694 -1.5562,-1.557 l 5e-5,-8.767 c 0,-0.862 0.69405,-1.556 1.5562,-1.556 z"
       transform="translate(3.7756,29.816)"
       style="color:#000000;fill:#000000;fill-rule:evenodd;stroke:#ffffff;stroke-width:8.125;stroke-linecap:round;stroke-linejoin:round"
       id="rect1737"
       inkscape:connector-curvature="0" />
    <path
       d="m 2.468,13.617 h 8.768 c 0.862,0 1.556,0.694 1.556,1.556 v 8.767 c 0,0.863 -0.694,1.557 -1.556,1.557 H 2.468 c -0.8621,0 -1.5562,-0.694 -1.5562,-1.557 l 5e-5,-8.767 c 0,-0.862 0.69405,-1.556 1.5562,-1.556 z"
       transform="translate(3.7756,29.816)"
       style="color:#000000;fill:#000000;fill-rule:evenodd;stroke:#050505;stroke-width:3.125;stroke-linecap:round;stroke-linejoin:round"
       id="rect1738"
       inkscape:connector-curvature="0" />
  </g>
  <metadata
     id="metadata15">
    <rdf:RDF>
      <cc:Work>
        <dc:format>image/svg+xml</dc:format>
        <dc:type
           rdf:resource="http://purl.org/dc/dcmitype/StillImage" />
        <cc:license
           rdf:resource="http://creativecommons.org/publicdomain/zero/1.0/" />
        <dc:publisher>
          <cc:Agent
             rdf:about="http://openclipart.org/">
            <dc:title>Openclipart</dc:title>
          </cc:Agent>
        </dc:publisher>
      </cc:Work>
      <cc:License
         rdf:about="http://creativecommons.org/publicdomain/zero/1.0/">
        <cc:permits
           rdf:resource="http://creativecommons.org/ns#Reproduction" />
        <cc:permits
           rdf:resource="http://creativecommons.org/ns#Distribution" />
        <cc:permits
           rdf:resource="http://creativecommons.org/ns#DerivativeWorks" />
      </cc:License>
    </rdf:RDF>
  </metadata>
  <circle
     cx="30"
     cy="30"
     id="circle13"
     style="fill:none;stroke:#000000;stroke-width:2"
     r="29" />
</svg>
