<?xml version="1.0" encoding="UTF-8" standalone="no"?>
<!-- Created with Inkscape (http://www.inkscape.org/) -->

<svg
   xmlns:dc="http://purl.org/dc/elements/1.1/"
   xmlns:cc="http://creativecommons.org/ns#"
   xmlns:rdf="http://www.w3.org/1999/02/22-rdf-syntax-ns#"
   xmlns:svg="http://www.w3.org/2000/svg"
   xmlns="http://www.w3.org/2000/svg"
   xmlns:sodipodi="http://sodipodi.sourceforge.net/DTD/sodipodi-0.dtd"
   xmlns:inkscape="http://www.inkscape.org/namespaces/inkscape"
   width="210mm"
   height="297mm"
   viewBox="0 0 210 297"
   version="1.1"
   id="svg181726"
   inkscape:version="0.92.2 (5c3e80d, 2017-08-06)"
   sodipodi:docname="recitation-settings.svg"
   inkscape:export-filename="/home/mohammed/scratchbox/quran/quran/icons/recitation-settings.png"
   inkscape:export-xdpi="23.617643"
   inkscape:export-ydpi="23.617643">
  <defs
     id="defs181720" />
  <sodipodi:namedview
     id="base"
     pagecolor="#ffffff"
     bordercolor="#666666"
     borderopacity="1.0"
     inkscape:pageopacity="0.0"
     inkscape:pageshadow="2"
     inkscape:zoom="0.65214844"
     inkscape:cx="190.69182"
     inkscape:cy="560"
     inkscape:document-units="mm"
     inkscape:current-layer="layer1"
     showgrid="false"
     inkscape:window-width="1024"
     inkscape:window-height="683"
     inkscape:window-x="0"
     inkscape:window-y="30"
     inkscape:window-maximized="1" />
  <metadata
     id="metadata181723">
    <rdf:RDF>
      <cc:Work
         rdf:about="">
        <dc:format>image/svg+xml</dc:format>
        <dc:type
           rdf:resource="http://purl.org/dc/dcmitype/StillImage" />
        <dc:title></dc:title>
      </cc:Work>
    </rdf:RDF>
  </metadata>
  <g
     inkscape:label="Layer 1"
     inkscape:groupmode="layer"
     id="layer1">
    <path
       inkscape:connector-curvature="0"
       style="stroke-width:0.87775308"
       d="m 104.99974,122.6888 a 25.811216,25.811216 0 0 0 -5.532481,0.63252 l -0.321427,3.40806 a 22.552141,22.552141 0 0 1 5.853908,-0.78134 22.552141,22.552141 0 0 1 5.85391,0.79995 l -0.32505,-3.44217 a 25.811216,25.811216 0 0 0 -5.52886,-0.61702 z m -13.90303,4.06745 a 25.811216,25.811216 0 0 0 -7.81916,7.85378 l 2.193666,2.64945 a 22.552141,22.552141 0 0 1 8.306469,-8.28837 z m 27.79934,0.0253 -2.65307,2.1916 a 22.552141,22.552141 0 0 1 8.28632,8.30492 l 2.21692,-2.67736 a 25.811216,25.811216 0 0 0 -7.85017,-7.81916 z m -35.644855,15.85278 -3.4432,0.32711 a 25.811216,25.811216 0 0 0 -0.619083,5.53869 25.811216,25.811216 0 0 0 0.637686,5.55625 l 3.408577,0.32246 a 22.552141,22.552141 0 0 1 -0.787548,-5.87871 22.552141,22.552141 0 0 1 0.803568,-5.8658 z m 43.521375,0.0222 a 22.552141,22.552141 0 0 1 0.77928,5.84357 22.552141,22.552141 0 0 1 -0.80667,5.88025 l 3.44269,-0.32555 a 25.811216,25.811216 0 0 0 0.62322,-5.5547 25.811216,25.811216 0 0 0 -0.63046,-5.52163 z m -41.289987,17.08628 -2.214851,2.68098 a 25.811216,25.811216 0 0 0 7.850684,7.80417 l 2.652551,-2.19211 a 22.552141,22.552141 0 0 1 -8.288384,-8.29304 z m 39.040517,0.007 a 22.552141,22.552141 0 0 1 -8.30182,8.2796 l 2.68046,2.21537 a 25.811216,25.811216 0 0 0 7.81296,-7.84242 z m -25.379853,10.50118 0.32453,3.44217 a 25.811216,25.811216 0 0 0 5.531963,0.61805 25.811216,25.811216 0 0 0 5.53351,-0.63304 l 0.32195,-3.40806 a 22.552141,22.552141 0 0 1 -5.85546,0.78186 22.552141,22.552141 0 0 1 -5.856493,-0.80098 z"
       id="path4" />
    <g
       inkscape:export-ydpi="88.879692"
       inkscape:export-xdpi="88.879692"
       id="layer1-5"
       transform="matrix(0.9162672,0,0,0.98821379,-108.20072,-81.269593)">
      <path
         inkscape:export-ydpi="88.935532"
         inkscape:export-xdpi="88.935532"
         id="path10921"
         d="m 232.58,218.9 c -2.2004,0 -3.9888,1.7884 -3.9888,3.9888 -2.9e-4,2.198 1.7884,3.9597 3.9888,3.9597 2.2004,0 3.9597,-1.7616 3.9597,-3.9597 0,-2.2004 -1.7593,-3.9888 -3.9597,-3.9888 z m -4.047,8.9384 c -1.8131,0.0643 -2.5913,1.514 -2.5913,1.514 l -5.8813,8.065 c -0.25436,0.35734 -0.3785,0.7799 -0.3785,1.252 0,1.2536 1.0174,2.271 2.271,2.271 0.30278,0 0.56526,-0.047 0.81524,-0.14557 l 3.5521,-0.98993 v 3.523 h 12.316 v -3.523 l 3.5521,0.98993 c 0.25905,0.0983 0.5151,0.14557 0.81523,0.14557 1.2536,0 2.271,-1.0174 2.271,-2.271 0,-0.47206 -0.1356,-0.89432 -0.3785,-1.252 l -5.8813,-8.065 c 0,0 -0.77139,-1.4497 -2.5913,-1.514 h -7.8903 z m -2.2128,2.7077 6.1724,2.009 6.1433,-2.009 v 4.7458 l -0.43674,-0.14558 c -3.1653,-0.93502 -4.3949,3.2329 -1.2228,4.1635 l 0.0872,0.0292 -4.5711,1.514 -4.6002,-1.514 0.0873,-0.0292 c 3.1724,-0.93062 1.9472,-5.0988 -1.2228,-4.1635 l -0.43674,0.14558 v -4.7458 z m -6.0269,14.441 c -0.30717,0 -0.5823,0.26604 -0.5823,0.58231 0,0.31392 0.27513,0.55319 0.5823,0.55319 h 24.835 c 0.31391,0 0.55319,-0.23898 0.55319,-0.55319 0,-0.31627 -0.23898,-0.58231 -0.55319,-0.58231 z"
         inkscape:connector-curvature="0" />
      <path
         inkscape:export-ydpi="88.935532"
         inkscape:export-xdpi="88.935532"
         inkscape:export-filename="/mnt/5/scratchbox/users/mohammed/home/mohammed/quran/sailfish/quran/icons/path10921.png"
         id="path3201"
         d="m 254.06,232.51 c 0,10.905 -9.5701,19.746 -21.376,19.746 -11.805,0 -21.376,-8.8406 -21.376,-19.746 0,-10.9054 9.5702,-19.746 21.376,-19.746 11.805,0 21.376,8.8406 21.376,19.746 z"
         inkscape:connector-curvature="0"
         style="fill:none;stroke:#000000;stroke-width:2.25" />
    </g>
  </g>
</svg>
