<?xml version="1.0" encoding="UTF-8" standalone="no"?>
<svg
   xmlns:dc="http://purl.org/dc/elements/1.1/"
   xmlns:cc="http://creativecommons.org/ns#"
   xmlns:rdf="http://www.w3.org/1999/02/22-rdf-syntax-ns#"
   xmlns:svg="http://www.w3.org/2000/svg"
   xmlns="http://www.w3.org/2000/svg"
   xmlns:sodipodi="http://sodipodi.sourceforge.net/DTD/sodipodi-0.dtd"
   xmlns:inkscape="http://www.inkscape.org/namespaces/inkscape"
   version="1.1"
   viewBox="0 0 1000 1000"
   id="svg3973"
   inkscape:version="0.91 r13725"
   width="100%"
   height="100%"
   sodipodi:docname="Star3.svg"
   inkscape:export-filename="/home/mohammed/scratchbox/quran/quran/icons/favorites.png"
   inkscape:export-xdpi="4.6065245"
   inkscape:export-ydpi="4.6065245">
  <defs
     id="defs4147" />
  <sodipodi:namedview
     pagecolor="#ffffff"
     bordercolor="#666666"
     borderopacity="1"
     objecttolerance="10"
     gridtolerance="10"
     guidetolerance="10"
     inkscape:pageopacity="0"
     inkscape:pageshadow="2"
     inkscape:window-width="1024"
     inkscape:window-height="683"
     id="namedview4145"
     showgrid="false"
     inkscape:zoom="0.25"
     inkscape:cx="980"
     inkscape:cy="199.3419"
     inkscape:window-x="0"
     inkscape:window-y="30"
     inkscape:window-maximized="1"
     inkscape:current-layer="svg3973" />
  <metadata
     id="metadata4143">
    <rdf:RDF>
      <cc:Work>
        <dc:format>image/svg+xml</dc:format>
        <dc:type
           rdf:resource="http://purl.org/dc/dcmitype/StillImage" />
        <cc:license
           rdf:resource="http://creativecommons.org/publicdomain/zero/1.0/" />
        <dc:publisher>
          <cc:Agent
             rdf:about="http://openclipart.org/">
            <dc:title>Openclipart</dc:title>
          </cc:Agent>
        </dc:publisher>
        <dc:title>Star</dc:title>
        <dc:date>2010-10-30T01:11:49</dc:date>
        <dc:description>5 Pointed Yellow Star with rounded edges</dc:description>
        <dc:source>https://openclipart.org/detail/93169/star-by-candyadams</dc:source>
        <dc:creator>
          <cc:Agent>
            <dc:title>CandyAdams</dc:title>
          </cc:Agent>
        </dc:creator>
        <dc:subject>
          <rdf:Bag>
            <rdf:li>clipart_issue</rdf:li>
            <rdf:li>five points</rdf:li>
            <rdf:li>star</rdf:li>
            <rdf:li>yellow</rdf:li>
          </rdf:Bag>
        </dc:subject>
      </cc:Work>
      <cc:License
         rdf:about="http://creativecommons.org/publicdomain/zero/1.0/">
        <cc:permits
           rdf:resource="http://creativecommons.org/ns#Reproduction" />
        <cc:permits
           rdf:resource="http://creativecommons.org/ns#Distribution" />
        <cc:permits
           rdf:resource="http://creativecommons.org/ns#DerivativeWorks" />
      </cc:License>
    </rdf:RDF>
  </metadata>
  <path
     style="fill:none;stroke:#000000;stroke-width:29.08358192;stroke-linejoin:miter;stroke-miterlimit:4;stroke-dasharray:none;stroke-opacity:1"
     inkscape:connector-curvature="0"
     d="m 493.07002,189.13582 c 8.32419,-2.68726 17.09187,0.12111 23.95478,5.20041 10.62153,8.86417 17.49171,21.46779 23.24959,34.08656 16.20492,34.9495 26.31755,72.43487 36.65554,109.58719 4.63827,14.6853 10.49067,30.22598 22.74069,39.81685 0.69791,0.52231 1.40311,1.02949 2.12284,1.53665 7.78621,6.61597 17.86249,9.22752 27.60434,10.65821 12.66441,0.85537 25.43786,2.11952 38.09501,0.51474 21.51931,-0.46932 43.00955,0.31036 64.48525,1.64264 20.37064,2.08168 41.51192,3.33826 60.5376,11.93748 11.32673,4.60998 21.77378,15.94188 20.42155,29.46145 0.21809,12.41439 -7.82256,22.35346 -14.83088,31.54312 -27.13178,30.70289 -60.63212,54.10097 -93.53632,77.44606 -13.87124,10.13589 -29.46547,21.02875 -35.05614,38.56028 -0.2399,0.99163 -0.46528,1.9757 -0.69065,2.97491 -4.11484,12.09645 -2.66083,25.29052 0.57433,37.43995 5.52523,19.5678 12.94794,38.49973 18.35685,58.12051 8.19334,28.36383 15.67421,57.24998 17.74617,86.90066 1.17775,9.82553 -0.21083,20.11282 -4.35475,29.06783 -3.92582,8.52352 -12.54082,14.51119 -21.57748,15.29092 -10.23621,1.56687 -20.17436,-2.4905 -29.42912,-6.54032 -19.04023,-9.03068 -36.74278,-20.81678 -53.8928,-33.20088 -17.65892,-12.4068 -34.08922,-26.5698 -51.01387,-40.01366 -9.26202,-7.07772 -19.15654,-13.75423 -30.38876,-16.7897 -3.15519,-0.48447 -6.35402,-1.92272 -9.52375,-0.96893 -0.96691,-0.27251 -1.92656,-0.22709 -2.8644,0.0984 -15.23073,-0.3028 -28.78208,8.65221 -40.78492,17.44068 -34.15464,26.75905 -68.61463,53.82845 -107.54569,72.69987 -11.792,5.23824 -24.87807,10.80956 -37.76058,6.843 -8.45506,-2.05897 -14.94721,-9.21238 -18.18237,-17.37255 -2.8644,-6.12393 -2.7408,-13.05781 -3.45327,-19.67376 0.51617,-20.63512 5.71425,-40.71766 10.59245,-60.59581 7.29185,-27.25866 16.77925,-53.77547 25.99039,-80.37555 3.38057,-13.11837 6.90654,-27.46303 2.55905,-40.79336 0.6543,-1.51394 0.11632,-2.05896 -0.69065,-2.99762 -1.71572,-8.41756 -7.27004,-15.41956 -12.99156,-21.3391 -9.073,-10.2343 -20.75597,-17.31201 -31.31932,-25.67658 -30.14159,-22.08094 -59.72337,-45.40333 -84.98676,-73.48708 -8.38964,-10.28728 -16.81561,-22.02795 -16.94646,-36.12282 0.73427,-8.59167 4.7546,-16.96379 11.61751,-21.98254 7.34275,-5.42751 15.96501,-8.6825 24.73994,-10.54465 18.63311,-4.14823 37.73879,-4.9279 56.69904,-6.07851 23.97659,-0.18167 47.96772,0.0151 71.90069,1.29443 14.08207,-0.26494 29.40005,-1.74105 41.03937,-10.90043 0.53798,-0.43147 1.03962,-0.89323 1.5049,-1.40798 5.88146,-3.24742 9.66915,-9.34106 13.33325,-14.89726 8.4914,-14.45063 12.32272,-31.08136 17.33905,-47.00811 6.22315,-21.40723 13.3696,-42.54196 21.45388,-63.2755 5.3144,-13.68608 11.05046,-27.24349 18.31323,-39.94552 6.6012,-11.71798 15.10715,-24.08694 28.19321,-28.17459 z"
     id="path4003"
     inkscape:export-filename="/mnt/5/scratchbox/users/mohammed/home/mohammed/quran/sailfish/quran/icons/favorite.png"
     inkscape:export-xdpi="4.8110251"
     inkscape:export-ydpi="4.8110251" />
  <circle
     style="fill:none;fill-opacity:1;stroke:#000000;stroke-width:37.66323853;stroke-linecap:round;stroke-linejoin:round;stroke-opacity:1"
     id="path9492"
     inkscape:export-filename="/mnt/5/scratchbox/users/mohammed/home/mohammed/quran/sailfish/quran/icons/stop.png"
     inkscape:export-xdpi="86.706749"
     inkscape:export-ydpi="86.706749"
     cx="500"
     cy="500"
     r="450.06854" />
</svg>
