<?xml version="1.0" encoding="UTF-8" standalone="no"?>
<!-- Created with Inkscape (http://www.inkscape.org/) -->

<svg
   xmlns:dc="http://purl.org/dc/elements/1.1/"
   xmlns:cc="http://creativecommons.org/ns#"
   xmlns:rdf="http://www.w3.org/1999/02/22-rdf-syntax-ns#"
   xmlns:svg="http://www.w3.org/2000/svg"
   xmlns="http://www.w3.org/2000/svg"
   xmlns:xlink="http://www.w3.org/1999/xlink"
   xmlns:sodipodi="http://sodipodi.sourceforge.net/DTD/sodipodi-0.dtd"
   xmlns:inkscape="http://www.inkscape.org/namespaces/inkscape"
   width="855.10205"
   height="855.10205"
   id="svg2"
   version="1.1"
   inkscape:version="0.48.1 r9760"
   sodipodi:docname="Bismillah_gold.svg">
  <defs
     id="defs4">
    <linearGradient
       id="linearGradient4581">
      <stop
         style="stop-color:#ffff00;stop-opacity:1"
         offset="0"
         id="stop4583" />
      <stop
         style="stop-color:#fdca01;stop-opacity:1"
         offset="1"
         id="stop4585" />
    </linearGradient>
    <linearGradient
       id="linearGradient4561">
      <stop
         style="stop-color:#ffffff;stop-opacity:1;"
         offset="0"
         id="stop4563" />
      <stop
         style="stop-color:#eeeeee;stop-opacity:0;"
         offset="1"
         id="stop4565" />
    </linearGradient>
    <linearGradient
       id="linearGradient4548">
      <stop
         style="stop-color:#44e920;stop-opacity:1;"
         offset="0"
         id="stop4550" />
      <stop
         style="stop-color:#1f682f;stop-opacity:1;"
         offset="1"
         id="stop4552" />
    </linearGradient>
    <inkscape:perspective
       sodipodi:type="inkscape:persp3d"
       inkscape:vp_x="0 : 526.18109 : 1"
       inkscape:vp_y="0 : 1000 : 0"
       inkscape:vp_z="744.09448 : 526.18109 : 1"
       inkscape:persp3d-origin="372.04724 : 350.78739 : 1"
       id="perspective10" />
    <inkscape:perspective
       id="perspective2824"
       inkscape:persp3d-origin="255.90297 : 153.57434 : 1"
       inkscape:vp_z="511.80594 : 230.36151 : 1"
       inkscape:vp_y="0 : 1000 : 0"
       inkscape:vp_x="0 : 230.36151 : 1"
       sodipodi:type="inkscape:persp3d" />
    <filter
       id="filter2864"
       inkscape:label="Gold splatter"
       x="-0.25"
       y="-0.25"
       height="1.5"
       width="1.5"
       inkscape:menu="Materials"
       inkscape:menu-tooltip="Splattered cast metal, with golden highlights"
       color-interpolation-filters="sRGB">
      <feGaussianBlur
         id="feGaussianBlur2866"
         in="SourceAlpha"
         stdDeviation="1"
         result="result91" />
      <feComposite
         id="feComposite2868"
         in2="result91"
         result="fbSourceGraphic"
         operator="in"
         in="SourceGraphic" />
      <feColorMatrix
         id="feColorMatrix2870"
         values="0"
         in="fbSourceGraphic"
         result="fbSourceGraphicAlpha"
         type="saturate" />
      <feGaussianBlur
         id="feGaussianBlur2872"
         result="result1"
         in="fbSourceGraphic"
         stdDeviation="1" />
      <feTurbulence
         id="feTurbulence2874"
         result="result0"
         numOctaves="7"
         baseFrequency="0.074 0.084"
         type="fractalNoise" />
      <feDisplacementMap
         id="feDisplacementMap2876"
         in2="result0"
         result="result2"
         scale="80"
         yChannelSelector="G"
         xChannelSelector="A"
         in="result1" />
      <feColorMatrix
         id="feColorMatrix2878"
         type="saturate"
         values="1"
         result="result3" />
      <feGaussianBlur
         id="feGaussianBlur2880"
         result="result4"
         in="fbSourceGraphic"
         stdDeviation="1" />
      <feComposite
         id="feComposite2882"
         in2="result3"
         operator="atop"
         result="fbSourceGraphic"
         in="result4" />
      <feColorMatrix
         id="feColorMatrix2884"
         values="0 0 0 -1 0 0 0 0 -1 0 0 0 0 -1 0 0 0 0 1 0"
         in="fbSourceGraphic"
         result="fbSourceGraphicAlpha" />
      <feGaussianBlur
         id="feGaussianBlur2886"
         result="result0"
         in="fbSourceGraphic"
         stdDeviation="1" />
      <feTurbulence
         id="feTurbulence2888"
         baseFrequency="0.062"
         seed="488"
         numOctaves="8"
         result="result1"
         type="fractalNoise" />
      <feComposite
         id="feComposite2890"
         in2="result1"
         result="result2"
         operator="out"
         in="result0" />
      <feSpecularLighting
         id="feSpecularLighting2892"
         lighting-color="#f4c828"
         surfaceScale="2"
         result="result4"
         specularConstant="2"
         specularExponent="40"
         in="result2">
        <feDistantLight
           id="feDistantLight2894"
           elevation="62"
           azimuth="225" />
      </feSpecularLighting>
      <feComposite
         id="feComposite2896"
         in2="result2"
         in="result4"
         operator="atop"
         result="result92" />
      <feBlend
         id="feBlend2898"
         in2="result92"
         mode="multiply" />
    </filter>
    <filter
       id="filter3074"
       inkscape:menu-tooltip="3D warped, iridescent pearly shell texture"
       inkscape:menu="Materials"
       inkscape:label="Drop shadow"
       width="1.5"
       x="-0.25"
       height="1.5"
       y="-0.25"
       color-interpolation-filters="sRGB">
      <feGaussianBlur
         id="feGaussianBlur3076"
         result="result8"
         stdDeviation="3" />
      <feTurbulence
         id="feTurbulence3078"
         baseFrequency="0.03 0.03"
         numOctaves="8"
         type="fractalNoise"
         result="result7"
         seed="77" />
      <feColorMatrix
         id="feColorMatrix3080"
         values="1 0 0 0 0 0 1 0 0 0 0 0 1 0 0 0 0 0 1.6 -0.6 "
         result="result5" />
      <feComposite
         id="feComposite3082"
         in2="result8"
         operator="in"
         in="result7"
         result="result6" />
      <feDisplacementMap
         id="feDisplacementMap3084"
         in2="result6"
         result="result4"
         scale="60"
         yChannelSelector="A"
         xChannelSelector="A"
         in="result5" />
      <feConvolveMatrix
         id="feConvolveMatrix3086"
         order="3 3"
         kernelMatrix="2 0 0 0 4 0 0 0 -2 "
         targetX="2"
         targetY="2"
         divisor="2"
         result="result9" />
      <feComposite
         id="feComposite3088"
         in2="SourceGraphic"
         operator="atop"
         in="result9"
         result="result10" />
      <feBlend
         id="feBlend3090"
         in2="result10"
         mode="darken"
         result="fbSourceGraphic" />
      <feGaussianBlur
         id="feGaussianBlur3092"
         result="result0"
         in="fbSourceGraphic"
         stdDeviation="5" />
      <feSpecularLighting
         id="feSpecularLighting3094"
         specularExponent="25"
         specularConstant="1"
         surfaceScale="5"
         lighting-color="#f2d76c"
         result="result1"
         in="result0">
        <feDistantLight
           id="feDistantLight3096"
           azimuth="235"
           elevation="60" />
      </feSpecularLighting>
      <feComposite
         id="feComposite3098"
         in2="fbSourceGraphic"
         operator="in"
         result="result2"
         in="result1" />
      <feComposite
         id="feComposite3100"
         in2="result2"
         k3="1"
         k2="1"
         operator="arithmetic"
         result="fbSourceGraphic"
         in="fbSourceGraphic"
         k1="0"
         k4="0" />
      <feColorMatrix
         result="fbSourceGraphicAlpha"
         in="fbSourceGraphic"
         values="0 0 0 -1 0 0 0 0 -1 0 0 0 0 -1 0 0 0 0 1 0"
         id="feColorMatrix3116" />
      <feGaussianBlur
         id="feGaussianBlur3118"
         in="fbSourceGraphicAlpha"
         stdDeviation="8,000000"
         result="blur" />
      <feColorMatrix
         id="feColorMatrix3120"
         result="bluralpha"
         type="matrix"
         values="1 0 0 0 0 0 1 0 0 0 0 0 1 0 0 0 0 0 1,000000 0 " />
      <feOffset
         id="feOffset3122"
         in="bluralpha"
         dx="8,000000"
         dy="8,000000"
         result="offsetBlur" />
      <feMerge
         id="feMerge3124">
        <feMergeNode
           id="feMergeNode3126"
           in="offsetBlur" />
        <feMergeNode
           id="feMergeNode3128"
           in="fbSourceGraphic" />
      </feMerge>
    </filter>
    <filter
       id="filter3320"
       inkscape:label="Organic"
       x="0"
       y="0"
       width="1"
       height="1"
       inkscape:menu="Textures"
       inkscape:menu-tooltip="Bulging, knotty, slick 3D surface"
       color-interpolation-filters="sRGB">
      <feTurbulence
         id="feTurbulence3322"
         numOctaves="3"
         baseFrequency="0.037"
         result="result0" />
      <feSpecularLighting
         id="feSpecularLighting3324"
         specularExponent="24.29999924"
         surfaceScale="2"
         specularConstant="1"
         result="result1">
        <feDistantLight
           id="feDistantLight3326"
           elevation="45"
           azimuth="225" />
      </feSpecularLighting>
      <feDiffuseLighting
         id="feDiffuseLighting3328"
         in="result0"
         surfaceScale="3"
         diffuseConstant="1.21000004"
         result="result2">
        <feDistantLight
           id="feDistantLight3330"
           azimuth="225"
           elevation="42" />
      </feDiffuseLighting>
      <feBlend
         id="feBlend3332"
         in2="SourceGraphic"
         mode="multiply"
         result="result91" />
      <feComposite
         id="feComposite3334"
         in2="result91"
         operator="arithmetic"
         in="result1"
         k2="1"
         k3="1"
         result="result92"
         k1="0"
         k4="0" />
      <feComposite
         id="feComposite3336"
         in2="SourceAlpha"
         operator="in"
         result="result2" />
    </filter>
    <radialGradient
       inkscape:collect="always"
       xlink:href="#linearGradient4548"
       id="radialGradient4554"
       cx="368.36734"
       cy="390.06412"
       fx="368.36734"
       fy="390.06412"
       r="427.55103"
       gradientUnits="userSpaceOnUse" />
    <radialGradient
       inkscape:collect="always"
       xlink:href="#linearGradient4561"
       id="radialGradient4567"
       cx="279.77869"
       cy="39.768532"
       fx="279.77869"
       fy="39.768532"
       r="417.34375"
       gradientTransform="matrix(-0.52949747,0.6355932,-0.9649493,-0.80387611,606.98989,227.41576)"
       gradientUnits="userSpaceOnUse" />
    <filter
       inkscape:collect="always"
       id="filter4577"
       x="-0.091093972"
       width="1.1821879"
       y="-0.17577808"
       height="1.3515561"
       color-interpolation-filters="sRGB">
      <feGaussianBlur
         inkscape:collect="always"
         stdDeviation="31.68125"
         id="feGaussianBlur4579" />
    </filter>
    <radialGradient
       inkscape:collect="always"
       xlink:href="#linearGradient4581"
       id="radialGradient4587"
       cx="559.2428"
       cy="581.37848"
       fx="559.2428"
       fy="581.37848"
       r="255.90297"
       gradientTransform="matrix(-0.96981549,0.69382165,-0.52377316,-0.73212378,536.72786,395.63766)"
       gradientUnits="userSpaceOnUse" />
    <radialGradient
       inkscape:collect="always"
       xlink:href="#linearGradient4548"
       id="radialGradient4595"
       gradientUnits="userSpaceOnUse"
       cx="368.36734"
       cy="390.06412"
       fx="368.36734"
       fy="390.06412"
       r="427.55103" />
    <inkscape:perspective
       id="perspective43"
       inkscape:persp3d-origin="123.5 : 80 : 1"
       inkscape:vp_z="247 : 120 : 1"
       inkscape:vp_y="0 : 1000 : 0"
       inkscape:vp_x="0 : 120 : 1"
       sodipodi:type="inkscape:persp3d" />
    <filter
       id="filter2904"
       inkscape:label="Organic"
       x="0"
       y="0"
       width="1"
       height="1"
       inkscape:menu="Textures"
       inkscape:menu-tooltip="Bulging, knotty, slick 3D surface"
       color-interpolation-filters="sRGB">
      <feTurbulence
         id="feTurbulence2906"
         numOctaves="3"
         baseFrequency="0.037"
         result="result0" />
      <feSpecularLighting
         id="feSpecularLighting2908"
         specularExponent="24.3"
         surfaceScale="2"
         specularConstant="1"
         result="result1">
        <feDistantLight
           id="feDistantLight2910"
           elevation="45"
           azimuth="225" />
      </feSpecularLighting>
      <feDiffuseLighting
         id="feDiffuseLighting2912"
         in="result0"
         surfaceScale="3"
         diffuseConstant="1.21"
         result="result2">
        <feDistantLight
           id="feDistantLight2914"
           azimuth="225"
           elevation="42" />
      </feDiffuseLighting>
      <feBlend
         id="feBlend2916"
         in2="SourceGraphic"
         mode="multiply"
         result="result91" />
      <feComposite
         id="feComposite2918"
         in2="result91"
         operator="arithmetic"
         in="result1"
         k2="1"
         k3="1"
         result="result92" />
      <feComposite
         id="feComposite2920"
         in2="SourceAlpha"
         operator="in"
         result="result2" />
    </filter>
    <filter
       inkscape:collect="always"
       id="filter3694">
      <feGaussianBlur
         inkscape:collect="always"
         stdDeviation="6.9563206"
         id="feGaussianBlur3696" />
    </filter>
  </defs>
  <sodipodi:namedview
     id="base"
     pagecolor="#ffffff"
     bordercolor="#666666"
     borderopacity="1.0"
     inkscape:pageopacity="0"
     inkscape:pageshadow="2"
     inkscape:zoom="0.49"
     inkscape:cx="446.23277"
     inkscape:cy="464.47642"
     inkscape:document-units="px"
     inkscape:current-layer="layer1"
     showgrid="false"
     inkscape:window-width="1024"
     inkscape:window-height="686"
     inkscape:window-x="0"
     inkscape:window-y="28"
     inkscape:window-maximized="1"
     inkscape:snap-page="true" />
  <metadata
     id="metadata7">
    <rdf:RDF>
      <cc:Work
         rdf:about="">
        <dc:format>image/svg+xml</dc:format>
        <dc:type
           rdf:resource="http://purl.org/dc/dcmitype/StillImage" />
        <dc:title></dc:title>
      </cc:Work>
    </rdf:RDF>
  </metadata>
  <g
     inkscape:label="Layer 1"
     inkscape:groupmode="layer"
     id="layer1"
     transform="translate(-62.304045,-205.97057)">
    <path
       sodipodi:type="arc"
       style="fill:url(#radialGradient4595);fill-opacity:1.0;fill-rule:nonzero;stroke:none"
       id="path4036"
       sodipodi:cx="368.36734"
       sodipodi:cy="390.06412"
       sodipodi:rx="427.55103"
       sodipodi:ry="427.55103"
       d="m 795.91837,390.06412 c 0,236.12991 -191.42112,427.55102 -427.55103,427.55102 -236.12991,0 -427.551025,-191.42111 -427.551025,-427.55102 0,-236.12991 191.421115,-427.551028 427.551025,-427.551028 236.12991,0 427.55103,191.421118 427.55103,427.551028 z"
       transform="translate(121.48773,243.45748)" />
    <g
       id="g3698"
       transform="translate(854.59638,0.9434545)">
      <path
         style="filter:url(#filter3694)"
         id="path8"
         d="m -491.78573,892.84422 c -25.45866,3.61238 -44.55268,-19.09402 -45.41278,-39.22302 -0.79988,-18.83312 3.29702,-31.10662 7.57164,-44.03666 -12.12725,4.418 -21.50227,11.76031 -33.7184,14.4524 -27.31936,6.0235 -54.01372,-8.66112 -59.86234,-30.27807 -5.9633,-22.04414 1.77752,-42.58025 9.63302,-59.17714 -10.0344,4.01376 -24.97131,8.08486 -37.15594,3.4375 -24.85666,-9.45813 -36.15252,-56.73447 -6.88075,-93.57791 -24.25457,-4.03956 -47.41969,-52.69491 6.88075,-113.53202 -23.36583,36.72589 -33.48624,85.52172 -9.63304,91.51369 23.3945,5.87729 37.78956,-10.83715 49.54127,-21.33026 22.9931,-20.55617 50.40131,-46.07221 77.75223,-56.42197 4.75914,-1.72018 6.73735,-1.97821 10.32107,-2.75229 -2.63762,-13.2454 -6.13532,-30.90594 -2.7523,-47.47703 2.72363,-13.36008 18.00458,-37.55731 26.14677,-39.22015 2.69495,-0.54473 10.34286,3.94269 15.82855,9.63302 2.89905,3.00719 6.06109,6.1389 9.63015,8.94495 -1.97878,-17.13821 -10.14908,-85.03434 -17.20182,-95.64213 3.64392,-8.74426 7.57167,-17.20182 12.38531,-24.77062 8.29334,22.6783 14.55469,40.96006 25.45583,66.74306 -6.10378,0.37271 -6.38555,-4.73411 -11.69724,-5.50458 3.0766,15.79339 4.47247,32.13874 6.19265,44.72474 1.37615,10.10624 2.83959,18.30982 4.51204,28.29668 11.62227,14.8921 29.99221,15.09058 44.34113,12.98769 -5.27522,-36.23851 -10.32396,-76.29008 -15.82854,-113.53202 -1.43348,-9.71903 -4.3836,-20.7282 -8.25687,-27.52292 4.59002,-7.5688 8.37155,-15.94035 12.38244,-24.08255 9.19842,23.00526 13.36195,38.13412 25.46159,66.74307 -4.23345,-2.31866 -5.02428,-4.59492 -11.01206,-5.50458 1.86066,26.89218 8.89048,60.60775 11.69724,88.07332 0.83142,8.1422 -0.45872,13.44609 5.50458,15.82568 14.76203,-2.20757 34.92257,-4.98853 48.168,-11.00917 -2.92721,-16.48508 -4.09203,-24.87939 -7.5717,-46.10088 -10.75114,-3.23968 -23.46377,-4.86608 -34.40364,-7.5688 2.52293,-7.79816 7.76949,-12.8727 10.32396,-20.64219 7.32198,-4.29268 13.29855,-6.47158 20.63932,-6.88072 -0.9252,-13.83133 -2.09002,-27.15021 -4.81651,-39.90823 -0.97764,-4.50114 -5.6508,-9.461 -5.50742,-13.76146 3.66722,-7.61238 6.08732,-16.50013 11.012,-23.39447 11.31321,25.50952 16.40357,37.85372 28.89906,64.67884 -5.07738,-2.40467 -8.18758,-5.19282 -11.69724,-5.50458 0.19295,5.99197 1.28727,13.33141 2.06425,19.26604 23.88183,5.93463 46.27574,17.00113 69.49533,21.33026 -1.10255,-17.29678 -2.09229,-24.53175 -4.81935,-46.10088 -2.52296,-2.29358 -3.06482,-6.56536 -4.81654,-9.63302 4.70183,-7.91284 7.91284,-17.3165 13.76146,-24.08255 7.82396,21.78897 15.24566,42.7262 24.07968,66.05499 -4.13216,-1.64965 -7.99581,-3.61843 -11.00914,-4.81651 0.90964,8.93299 2.39914,16.49285 3.43747,24.77062 26.00342,9.20298 66.20121,10.17775 93.58078,13.76146 -5.53325,8.22821 -8.74426,18.77866 -15.82854,25.4587 -22.13301,-6.65137 -52.20753,-5.64793 -72.24479,2.06422 2.17664,15.77252 4.33389,33.99389 6.18982,47.47702 23.39448,2.98165 47.1301,5.61926 66.74307,12.38531 9.4323,1.34748 18.97931,2.58028 26.14674,6.19266 -3.95929,7.05275 -4.41514,17.6032 -9.63302,23.39448 -9.49254,0 -16.3704,2.95298 -24.07969,6.19265 -17.20182,7.25344 -36.98104,13.93348 -52.29067,22.01833 1.9209,42.69206 11.293,97.30211 3.43753,139.67879 -1.31883,7.10722 -3.64395,17.23336 -9.63018,21.33026 0.42718,-32.51718 -1.31881,-65.36979 -4.12554,-95.64213 -2.62916,-19.40477 -3.85886,-38.97852 -7.8977,-58.14634 -9.97419,4.47248 -22.46642,8.51909 -30.63728,14.79775 3.72706,10.92316 6.47935,25.54471 4.81654,37.84401 -0.28802,1.37233 -0.32618,1.87136 -0.33171,2.68019 3.8828,-4.44229 7.12204,-7.58294 14.096,-7.49957 4.18581,6.07511 2.66629,15.0516 1.37331,22.70928 -1.74888,10.32109 -6.13821,23.16225 -7.5717,32.33369 -1.49366,9.66455 -1.97534,22.33656 0,30.96614 2.34808,10.20928 11.89506,22.0212 18.57514,24.77349 9.14273,3.7844 23.07908,1.17546 29.58423,-2.75229 15.19784,-9.17431 23.50919,-29.87383 24.77352,-52.29067 -1.46944,-20.86234 -4.87858,-43.06103 -11.69727,-62.6175 2.90665,-8.28503 7.61175,-14.88726 13.07628,-23.39447 5.91494,14.53553 8.1422,27.29642 11.00917,43.34859 3.27118,18.29413 3.41169,42.60317 6.19265,61.92655 1.23564,8.57224 17.60604,24.85663 27.52579,27.52865 10.94893,2.95011 20.67082,-1.00917 26.14676,-4.82224 11.95524,-8.30848 0.86007,-24.05102 -4.1256,-37.83828 -6.82975,-19.07762 -13.66334,-38.09776 -16.59603,-58.15196 -0.82646,-4.88735 -2.21077,-8.89667 -6.11324,-12.0286 4.50115,-6.04931 4.98856,-16.11524 9.63305,-22.0212 9.57565,13.36008 21.04354,24.82796 26.83195,41.97245 -2.86697,1.74885 -6.48222,-4.09977 -10.32396,-1.37328 4.93463,28.03065 11.20985,31.27577 15.82857,48.1651 3.211007,11.81191 2.783827,28.35433 0,42.66051 -4.21448,21.53095 -20.24371,36.32451 -46.10091,30.96615 -19.77923,-4.10264 -30.21787,-23.94207 -37.84111,-41.28151 -7.69572,17.07711 -12.81888,34.39109 -29.59287,46.10375 -13.02072,7.30713 -31.06841,5.39753 -37.8469,0 -22.25056,-14.62441 -23.71271,-53.92771 -16.51662,-85.3239 1.33627,-6.57935 2.37262,-10.96066 1.37901,-15.82567 -4.07109,-0.17489 -6.74024,5.42144 -8.25687,9.63015 -4.95696,13.70125 -6.45068,32.39963 -8.94495,49.53838 -2.4627,16.97246 -10.11753,42.74652 -18.5751,48.85604 -18.23106,13.18806 -32.03635,-12.88732 -35.59733,-21.51558 -26.92372,15.39849 -62.34975,28.50376 -87.56771,60.05052 -3.66685,4.03956 -8.25687,7.82396 -10.32396,11.00917 -2.5516,3.92775 -1.37328,7.05274 -2.06421,11.69724 -3.21101,21.96099 -10.00573,52.78092 12.38244,57.11004 7.80103,0.68808 16.11237,-0.74541 20.64218,-2.75229 10.43578,-4.64449 21.84632,-14.15996 30.96328,-22.7064 29.27177,-27.49711 51.40765,-67.60316 89.44947,-83.25682 10.89452,-3.27408 29.98854,-4.4782 40.59343,0 2.52581,-2.29644 2.69209,-6.93806 7.5717,-6.87786 13.7643,18.34574 40.04722,31.99539 72.30064,29.58427 -5.6926,-8.03242 -11.56929,-19.61713 -17.94291,-30.28094 -3.21101,-3.34659 -5.6737,-3.95355 -7.5688,-6.875 2.57743,-7.51146 3.32282,-16.85778 5.50458,-24.77349 11.40077,11.76754 23.53447,24.52054 35.78266,34.40365 -2.86697,2.29644 -7.76946,-1.74599 -9.63302,1.37327 5.86877,9.23641 9.75114,15.84483 13.76432,22.70928 1.88853,3.2303 13.15939,-3.01319 19.26604,-5.50745 15.94322,-6.47936 31.135297,-16.6829 41.284367,-27.52578 52.93118,-55.44319 57.50778,-206.2468 2.06422,-299.99977 -24.194357,-45.72817 -56.049267,-78.58365 -94.265977,-108.02743 -48.60297,-35.00382 -105.1105,-57.06831 -164.45225,-61.92656 -37.1875,-1.86353 -110.78262,8.94495 -114.22299,11.69724 -83.19947,15.02292 -154.01361,85.55039 -170.64204,112.15587 -26.48874,36.14031 -45.63752,75.18372 -57.79814,118.34853 -2.69496,10.6938 -5.93463,20.61352 -7.56881,31.65135 -8.37155,56.50799 0.48739,116.45633 14.44953,157.56869 19.75343,49.59858 49.05103,95.92882 94.26601,129.35769 64.55033,49.64039 145.45912,82.30707 220.18615,69.49536 20.59981,-3.63882 53.83244,-17.94881 77.7551,-30.96615 0,3.89622 0,7.80103 0,11.69724 3.66972,8.17373 15.59348,10.668 24.77352,7.57167 9.02809,-3.06766 21.56246,-14.27751 25.4587,-23.39448 3.61522,-8.42602 0.54183,-27.17887 13.07625,-21.32739 -1.80622,11.6657 4.1026,20.84574 13.07622,21.32739 10.26375,0.54186 17.31421,-5.63064 19.95411,-15.82854 2.48309,-9.91195 -3.19008,-28.60187 4.81941,-29.5814 2.80748,-0.34335 4.3836,8.5149 7.56877,11.69724 2.43979,2.43693 4.61585,1.80619 6.19266,4.81651 9.05962,3.84174 23.91053,4.32913 31.65135,0 10.0946,-5.64793 0.91456,-14.30618 -3.44037,-19.95411 -3.7815,-4.87385 -5.44437,-7.36336 -10.32109,-12.38245 -14.78863,2.67824 -29.20895,0.74599 -42.66338,0 0.51892,10.9805 0.77695,28.29413 -8.94208,33.03037 -25.02579,-7.31651 -39.79642,-24.88817 -44.03667,-52.97874 -7.08141,-4.10264 -23.73564,-4.93406 -33.71557,-3.44324 -26.03484,7.46327 -45.39414,30.5197 -61.92366,50.92313 -11.46791,12.18462 -23.22535,24.59574 -35.08888,35.08598 -6.27866,5.56192 -13.84746,11.66857 -21.33025,14.4524 -26.34459,9.77637 -45.3268,-7.28497 -48.85031,-29.58427 -1.32167,-8.31135 -1.06078,-18.5751 0,-26.14677 0.94324,-6.65137 3.00688,-13.28112 3.4375,-19.2689 -7.69543,9.94609 -13.41742,19.09402 -22.01833,26.1439 -6.50802,5.32683 -15.96902,10.34403 -25.4587,11.6915 z M -13.747083,693.30596 c -6.75671,38.09111 -17.68222,75.94776 -40.59633,108.02457 -17.77235,21.76031 -42.2018,36.92371 -70.180567,48.85031 3.09633,13.84746 10.37844,35.52463 4.12557,52.98161 -5.21501,5.19208 -9.43233,11.32166 -17.88702,12.37958 -12.98738,1.63417 -25.43,-6.76032 -34.40364,-11.00917 -2.58025,18.23393 -10.32396,41.63127 -32.33943,39.90823 -9.40079,-0.74542 -11.95526,-6.98968 -18.5751,-11.69724 -5.16055,4.418 -6.79185,12.87269 -11.69724,19.27177 -6.87786,8.97362 -23.85032,21.90365 -41.2815,15.13187 -8.31135,-3.23681 -11.72591,-11.23852 -15.13474,-20.63645 -71.5447,39.84311 -149.23262,31.67385 -198.85018,12.38244 -22.13588,-8.03038 -43.49478,-17.97877 -63.30268,-29.58426 -51.72476,-30.56254 -95.59141,-72.27609 -123.85314,-125.22926 -14.77301,-27.93361 -26.19562,-58.02404 -33.7127,-88.75853 -10.06593,-49.051 -8.22821,-106.82618 2.75229,-158.94483 6.16112,-14.24884 8.5149,-29.32911 14.44953,-43.34859 16.97246,-39.99424 38.61809,-74.85659 66.74023,-105.96322 17.86119,-19.75342 38.16224,-39.33483 60.55041,-54.35775 43.95831,-30.12257 92.57355,-50.01447 145.18334,-57.79812 76.25561,-10.53285 120.87436,-2.62821 186.46774,17.88989 86.52207,37.54472 151.084857,101.39235 194.036547,186.46774 28.21864,62.35001 33.7530101,126.53852 27.50861,194.03941 z M -199.35476,562.57212 c -11.15842,-4.64392 -18.43537,-4.56267 -27.17756,-6.89744 -0.009,5.36677 0.68331,8.8678 1.03365,15.15432 8.71273,-2.7523 18.34575,-4.58716 26.14391,-8.25688 z m -45.41282,16.51088 c -1.50751,-10.6735 -1.66206,-16.78315 -4.12557,-26.14677 -23.17019,-3.63769 -41.86126,-6.08305 -67.49923,-5.30896 0.56164,9.37533 2.59536,25.9043 2.92732,35.09372 8.27262,6.81986 12.90498,10.31163 18.48511,17.34405 17.64907,-6.41915 32.95038,-14.15865 50.21237,-20.98204 z m -6.87786,-57.10718 c -2.13735,-9.33081 -1.88497,-18.65001 -4.769,-37.50415 -17.83542,5.47591 -48.11539,16.93126 -66.10798,24.0742 0.25803,3.18234 1.1838,7.43799 2.0697,9.98959 21.8148,-0.68807 47.90707,3.26835 68.80728,3.44036 z m -10.32396,-62.26927 c -18.34574,-5.59059 -37.2932,-10.65317 -55.73103,-16.17677 -2.57741,0.8601 -2.40826,4.47248 -4.81938,5.50459 -1.08945,-1.69152 -5.16473,-1.67956 -6.53801,-1.39286 1.83486,8.8016 3.44097,25.30697 5.16476,36.48457 20.33683,-7.08904 42.05175,-15.2446 61.92366,-24.41953 z m -22.70637,234.96982 c 2.33735,-11.76487 8.54681,-23.03212 13.97636,-33.17216 -0.30146,-0.36577 -1.41711,-0.36643 -3.3256,-0.40935 -11.83419,-3.02883 -19.59571,-3.80664 -25.10032,-12.52223 -2.69209,-4.26892 -2.23337,-10.0344 -5.50458,-15.13761 -1.29014,0.086 -2.29645,0.45872 -2.75229,1.37328 3.48027,27.20268 6.34076,54.45423 4.12557,81.88641 -2.47887,14.63121 -6.39773,22.02251 -11.69724,32.33369 -1.8377,3.64391 -9.0465,12.68663 -12.38245,15.82854 1.71032,4.43546 8.42606,10.1204 17.20182,9.63302 15.93328,-10.19222 18.47516,-32.10032 21.33313,-49.54125 1.63133,-10.16914 1.86066,-20.69092 4.1256,-30.27234 z m -30.27234,23.40022 c 0.51889,-8.42603 -1.08948,-20.87155 -2.06709,-31.65422 -1.68239,-14.77224 -2.23403,-29.74083 -5.82774,-44.21625 -0.22936,0 -2.1998,0.87052 -2.42916,0.87052 -80.70234,39.9627 -127.38235,113.90186 -199.54112,162.38806 -5.07741,14.27465 -19.86811,74.54123 30.2752,66.055 16.3704,-2.78383 30.56191,-22.53439 41.28151,-35.09172 11.78324,-13.81593 22.15881,-30.61924 35.09171,-41.2815 11.81192,-9.74483 24.2259,-15.82854 35.77692,-22.70641 11.95527,-7.10721 24.77349,-12.58886 37.84404,-21.32739 -0.2609,-8.14219 -2.06712,-19.12269 -2.06712,-28.89906 0,-9.50489 1.08521,-19.09915 2.95006,-25.78492 0.24742,-0.88662 2.4012,-0.68137 3.2426,-1.04705 -2.03555,17.28496 0.0602,35.49022 3.43752,49.53838 10.61923,-4.51261 21.19551,-12.99598 22.03267,-26.84344 z m -32.34519,-89.45234 c 6.65473,-4.75192 16.72657,-9.81112 21.0081,-12.56605 0.13073,-3.10848 -1.49811,-7.98233 -2.09573,-12.21292 -6.13821,-4.78784 -13.00351,-6.64303 -20.97659,-10.31275 -19.75629,-9.14563 -33.57222,-17.6892 -27.52578,-48.1651 6.56525,-16.03789 22.30001,-22.13269 37.83856,-26.11334 -1.27657,-3.21877 -0.58239,-4.78377 -1.37967,-6.0067 -11.95527,4.08781 -36.68824,11.07648 -48.84133,14.23015 3.95642,34.3463 9.85951,89.16277 1.37328,121.10082 -0.77695,2.89851 -2.21044,8.14506 -6.19266,8.25974 0.17489,-44.01086 -6.82339,-86.75452 -11.69724,-127.98442 -16.08083,-0.22935 -32.02405,-4.18577 -43.34572,-6.88072 2.77299,18.80884 5.54521,38.01602 4.81651,61.92655 -3.01031,7.54013 -6.53382,14.56421 -8.94494,22.70641 -16.3102,31.39332 -53.92771,39.50685 -82.56875,57.79812 -20.35835,12.98737 -36.4965,27.75227 -52.2935,44.72473 -4.93122,5.27809 -12.38531,10.3813 -15.82568,16.51948 -2.32514,4.12557 -7.31364,16.97247 -7.94437,19.63875 -2.66629,11.18118 -4.50115,24.34058 -1.00344,36.09515 7.70925,20.24655 37.32795,18.81306 58.48329,12.38532 60.03436,-21.81478 96.82045,-79.36061 144.4953,-117.66046 20.10606,-16.14678 40.49309,-31.65709 62.62036,-47.48276 z m 15.65446,-52.77958 c -1.19217,-10.53012 -2.48572,-18.86675 -3.95148,-27.03401 -6.33601,1.86354 -27.00686,0.43005 -28.21099,7.56881 -0.65654,3.84174 7.76949,9.26031 11.00916,11.00916 6.84922,3.69266 14.10054,7.33219 21.15331,8.45604 z m -125.74324,15.62364 c 2.66915,-8.80159 -1.14392,-20.85482 -3.4375,-27.52291 -6.82339,3.4977 -5.10321,15.53898 -11.69724,19.26604 -12.55733,-8.91628 -20.72819,-15.85435 -39.90822,-15.82568 -34.37495,0.086 -56.62267,23.48049 -74.99992,40.5963 -17.60606,16.42774 -34.17428,36.37899 -64.68171,36.46786 -21.70013,20.1548 -27.60895,85.35257 17.88989,74.99994 33.06569,-15.71845 51.35254,-49.66421 81.19547,-70.18916 13.9306,-8.56937 28.95637,-14.76203 43.34856,-22.01833 14.87671,-7.51146 31.16396,-13.61811 42.66051,-23.39448 3.03613,-2.60321 9.22878,-11.08657 9.63016,-12.37958 z m -4.12844,-32.33655 c -2.35728,-15.83176 -3.9932,-31.9406 -6.45149,-48.14211 -0.83145,-2.25203 -3.00025,-3.58343 -5.93382,-6.21565 -5.87809,-5.27431 -16.85779,-24.42658 -25.4587,-24.08255 -6.39047,0.25803 -21.30159,16.45641 -19.26604,38.53208 5.53283,24.31179 40.10657,25.83456 57.11005,39.90823 z m 381.189517,63.98791 c 5.59056,47.73505 14.33929,105.56643 -0.68523,143.80722 -5.41465,-86.71994 -19.042357,-172.67529 -31.558637,-258.57918 -1.71943,-10.53084 -4.14836,-20.30687 -8.34959,-28.34433 4.36066,-8.02752 8.05619,-16.71444 13.07338,-24.08255 9.174337,20.32682 14.771577,38.40221 24.773487,64.67885 -2.86697,3.15366 -8.25635,-8.05791 -12.7862,-7.77121 1.97942,29.50359 9.28001,61.66603 12.7862,91.02802 0.62787,6.18979 2.00688,12.75515 2.74659,19.26318 z m -0.68523,236.69706 c -3.15654,8.30848 -7.36812,15.56764 -12.38532,22.01833 -9.432327,-3.38303 -15.736797,-9.94839 -23.391607,-15.13474 3.32282,-8.60091 9.02809,-14.82223 12.38248,-23.39161 9.142737,4.15137 17.058437,9.54128 23.394447,16.50802 z M -400.26917,639.63628 c 2.40825,9.48967 -8.51777,17.51145 -12.38531,24.77062 -8.89048,-4.41226 -16.0579,-10.55045 -24.07969,-15.82854 3.40883,-9.65882 9.25745,-16.88645 14.44953,-24.77062 3.17374,3.12213 20.72533,10.72247 22.01547,15.82854 z m -8.94495,-45.41567 c 1.11812,8.34288 -9.14277,15.96902 -12.38531,23.39447 -9.11697,-4.18577 -16.19552,-10.4071 -24.07968,-15.82567 2.60894,-9.54701 9.00515,-15.30962 12.38244,-24.08255 5.50172,1.60837 23.33427,11.09804 24.08255,16.51375 z m -147.93853,122.47696 c 7.91287,6.07798 18.8647,9.11697 23.39448,18.5751 -3.58371,8.57224 -7.82393,16.48508 -13.07338,23.39448 -7.62614,-6.13532 -17.11865,-10.4071 -24.08252,-17.20182 3.09632,-7.02121 9.1743,-16.9696 13.76142,-24.76776 z"
         sodipodi:nodetypes="cccssccccscccssscccccccccccccsccccccccccccccccccccccccccccscccccccscccscccsssccccccccccccccccccccscccccccccccccsccccccccsccccccccscsscsccccccccccccscccccscccsccccccccccccccccccccccccccccccccccccccsccccccccccccccccccsscccccccccccccccccccssccccccssccccccccccccccssccccccccccccccccccccccccccccccc" />
      <path
         style="fill:#fdca01;filter:url(#filter2904)"
         sodipodi:nodetypes="cccssccccscccssscccccccccccccsccccccccccccccccccccccccccccscccccccscccscccsssccccccccccccccccccccscccccccccccccsccccccccsccccccccscsscsccccccccccccscccccscccsccccccccccccccccccccccccccccccccccccccsccccccccccccccccccsscccccccccccccccccccssccccccssccccccccccccccssccccccccccccccccccccccccccccccc"
         d="m -506.07144,878.5585 c -25.45866,3.61238 -44.55268,-19.09402 -45.41278,-39.22302 -0.79988,-18.83312 3.29702,-31.10662 7.57164,-44.03666 -12.12725,4.418 -21.50227,11.76031 -33.7184,14.4524 -27.31936,6.0235 -54.01372,-8.66112 -59.86234,-30.27807 -5.9633,-22.04414 1.77752,-42.58025 9.63302,-59.17714 -10.0344,4.01376 -24.97131,8.08486 -37.15594,3.4375 -24.85666,-9.45813 -36.15252,-56.73447 -6.88075,-93.57791 -24.25457,-4.03956 -47.41969,-52.69491 6.88075,-113.53202 -23.36583,36.72589 -33.48624,85.52172 -9.63304,91.51369 23.3945,5.87729 37.78956,-10.83715 49.54127,-21.33026 22.9931,-20.55617 50.40131,-46.07221 77.75223,-56.42197 4.75914,-1.72018 6.73735,-1.97821 10.32107,-2.75229 -2.63762,-13.2454 -6.13532,-30.90594 -2.7523,-47.47703 2.72363,-13.36008 18.00458,-37.55731 26.14677,-39.22015 2.69495,-0.54473 10.34286,3.94269 15.82855,9.63302 2.89905,3.00719 6.06109,6.1389 9.63015,8.94495 -1.97878,-17.13821 -10.14908,-85.03434 -17.20182,-95.64213 3.64392,-8.74426 7.57167,-17.20182 12.38531,-24.77062 8.29334,22.6783 14.55469,40.96006 25.45583,66.74306 -6.10378,0.37271 -6.38555,-4.73411 -11.69724,-5.50458 3.0766,15.79339 4.47247,32.13874 6.19265,44.72474 1.37615,10.10624 2.83959,18.30982 4.51204,28.29668 11.62227,14.8921 29.99221,15.09058 44.34113,12.98769 -5.27522,-36.23851 -10.32396,-76.29008 -15.82854,-113.53202 -1.43348,-9.71903 -4.3836,-20.7282 -8.25687,-27.52292 4.59002,-7.5688 8.37155,-15.94035 12.38244,-24.08255 9.19842,23.00526 13.36195,38.13412 25.46159,66.74307 -4.23345,-2.31866 -5.02428,-4.59492 -11.01206,-5.50458 1.86066,26.89218 8.89048,60.60775 11.69724,88.07332 0.83142,8.1422 -0.45872,13.44609 5.50458,15.82568 14.76203,-2.20757 34.92257,-4.98853 48.168,-11.00917 -2.92721,-16.48508 -4.09203,-24.87939 -7.5717,-46.10088 -10.75114,-3.23968 -23.46377,-4.86608 -34.40364,-7.5688 2.52293,-7.79816 7.76949,-12.8727 10.32396,-20.64219 7.32198,-4.29268 13.29855,-6.47158 20.63932,-6.88072 -0.9252,-13.83133 -2.09002,-27.15021 -4.81651,-39.90823 -0.97764,-4.50114 -5.6508,-9.461 -5.50742,-13.76146 3.66722,-7.61238 6.08732,-16.50013 11.012,-23.39447 11.31321,25.50952 16.40357,37.85372 28.89906,64.67884 -5.07738,-2.40467 -8.18758,-5.19282 -11.69724,-5.50458 0.19295,5.99197 1.28727,13.33141 2.06425,19.26604 23.88183,5.93463 46.27574,17.00113 69.49533,21.33026 -1.10255,-17.29678 -2.09229,-24.53175 -4.81935,-46.10088 -2.52296,-2.29358 -3.06482,-6.56536 -4.81654,-9.63302 4.70183,-7.91284 7.91284,-17.3165 13.76146,-24.08255 7.82396,21.78897 15.24566,42.7262 24.07968,66.05499 -4.13216,-1.64965 -7.99581,-3.61843 -11.00914,-4.81651 0.90964,8.93299 2.39914,16.49285 3.43747,24.77062 26.00342,9.20298 66.20121,10.17775 93.58078,13.76146 -5.53325,8.22821 -8.74426,18.77866 -15.82854,25.4587 -22.13301,-6.65137 -52.20753,-5.64793 -72.24479,2.06422 2.17664,15.77252 4.33389,33.99389 6.18982,47.47702 23.39448,2.98165 47.1301,5.61926 66.74307,12.38531 9.4323,1.34748 18.97931,2.58028 26.14674,6.19266 -3.95929,7.05275 -4.41514,17.6032 -9.63302,23.39448 -9.49254,0 -16.3704,2.95298 -24.07969,6.19265 -17.20182,7.25344 -36.98104,13.93348 -52.29067,22.01833 1.9209,42.69206 11.293,97.30211 3.43753,139.67879 -1.31883,7.10722 -3.64395,17.23336 -9.63018,21.33026 0.42718,-32.51718 -1.31881,-65.36979 -4.12554,-95.64213 -2.62916,-19.40477 -3.85886,-38.97852 -7.8977,-58.14634 -9.97419,4.47248 -22.46642,8.51909 -30.63728,14.79775 3.72706,10.92316 6.47935,25.54471 4.81654,37.84401 -0.28802,1.37233 -0.32618,1.87136 -0.33171,2.68019 3.8828,-4.44229 7.12204,-7.58294 14.096,-7.49957 4.18581,6.07511 2.66629,15.0516 1.37331,22.70928 -1.74888,10.32109 -6.13821,23.16225 -7.5717,32.33369 -1.49366,9.66455 -1.97534,22.33656 0,30.96614 2.34808,10.20928 11.89506,22.0212 18.57514,24.77349 9.14273,3.7844 23.07908,1.17546 29.58423,-2.75229 15.19784,-9.17431 23.50919,-29.87383 24.77352,-52.29067 -1.46944,-20.86234 -4.87858,-43.06103 -11.69727,-62.6175 2.90665,-8.28503 7.61175,-14.88726 13.07628,-23.39447 5.91494,14.53553 8.1422,27.29642 11.00917,43.34859 3.27118,18.29413 3.41169,42.60317 6.19265,61.92655 1.23564,8.57224 17.60604,24.85663 27.52579,27.52865 10.94893,2.95011 20.67082,-1.00917 26.14676,-4.82224 11.95524,-8.30848 0.86007,-24.05102 -4.1256,-37.83828 -6.82975,-19.07762 -13.66334,-38.09776 -16.59603,-58.15196 -0.82646,-4.88735 -2.21077,-8.89667 -6.11324,-12.0286 4.50115,-6.04931 4.98856,-16.11524 9.63305,-22.0212 9.57565,13.36008 21.04354,24.82796 26.83195,41.97245 -2.86697,1.74885 -6.48222,-4.09977 -10.32396,-1.37328 4.93463,28.03065 11.20985,31.27577 15.82857,48.1651 3.211,11.81191 2.78382,28.35433 0,42.66051 -4.21448,21.53095 -20.24371,36.32451 -46.10091,30.96615 -19.77923,-4.10264 -30.21787,-23.94207 -37.84111,-41.28151 -7.69572,17.07711 -12.81888,34.39109 -29.59287,46.10375 -13.02072,7.30713 -31.06841,5.39753 -37.8469,0 -22.25056,-14.62441 -23.71271,-53.92771 -16.51662,-85.3239 1.33627,-6.57935 2.37262,-10.96066 1.37901,-15.82567 -4.07109,-0.17489 -6.74024,5.42144 -8.25687,9.63015 -4.95696,13.70125 -6.45068,32.39963 -8.94495,49.53838 -2.4627,16.97246 -10.11753,42.74652 -18.5751,48.85604 -18.23106,13.18806 -32.03635,-12.88732 -35.59733,-21.51558 -26.92372,15.39849 -62.34975,28.50376 -87.56771,60.05052 -3.66685,4.03956 -8.25687,7.82396 -10.32396,11.00917 -2.5516,3.92775 -1.37328,7.05274 -2.06421,11.69724 -3.21101,21.96099 -10.00573,52.78092 12.38244,57.11004 7.80103,0.68808 16.11237,-0.74541 20.64218,-2.75229 10.43578,-4.64449 21.84632,-14.15996 30.96328,-22.7064 29.27177,-27.49711 51.40765,-67.60316 89.44947,-83.25682 10.89452,-3.27408 29.98854,-4.4782 40.59343,0 2.52581,-2.29644 2.69209,-6.93806 7.5717,-6.87786 13.7643,18.34574 40.04722,31.99539 72.30064,29.58427 -5.6926,-8.03242 -11.56929,-19.61713 -17.94291,-30.28094 -3.21101,-3.34659 -5.6737,-3.95355 -7.5688,-6.875 2.57743,-7.51146 3.32282,-16.85778 5.50458,-24.77349 11.40077,11.76754 23.53447,24.52054 35.78266,34.40365 -2.86697,2.29644 -7.76946,-1.74599 -9.63302,1.37327 5.86877,9.23641 9.75114,15.84483 13.76432,22.70928 1.88853,3.2303 13.15939,-3.01319 19.26604,-5.50745 15.94322,-6.47936 31.13529,-16.6829 41.28436,-27.52578 52.93118,-55.44319 57.50778,-206.2468 2.06422,-299.99977 -24.19435,-45.72817 -56.04926,-78.58365 -94.26597,-108.02743 -48.60297,-35.00382 -105.1105,-57.06831 -164.45225,-61.92656 -37.1875,-1.86353 -110.78262,8.94495 -114.22299,11.69724 -83.19947,15.02292 -154.01361,85.55039 -170.64204,112.15587 -26.48874,36.14031 -45.63752,75.18372 -57.79814,118.34853 -2.69496,10.6938 -5.93463,20.61352 -7.56881,31.65135 -8.37155,56.50799 0.48739,116.45633 14.44953,157.56869 19.75343,49.59858 49.05103,95.92882 94.26601,129.35769 64.55033,49.64039 145.45912,82.30707 220.18615,69.49536 20.59981,-3.63882 53.83244,-17.94881 77.7551,-30.96615 0,3.89622 0,7.80103 0,11.69724 3.66972,8.17373 15.59348,10.668 24.77352,7.57167 9.02809,-3.06766 21.56246,-14.27751 25.4587,-23.39448 3.61522,-8.42602 0.54183,-27.17887 13.07625,-21.32739 -1.80622,11.6657 4.1026,20.84574 13.07622,21.32739 10.26375,0.54186 17.31421,-5.63064 19.95411,-15.82854 2.48309,-9.91195 -3.19008,-28.60187 4.81941,-29.5814 2.80748,-0.34335 4.3836,8.5149 7.56877,11.69724 2.43979,2.43693 4.61585,1.80619 6.19266,4.81651 9.05962,3.84174 23.91053,4.32913 31.65135,0 10.0946,-5.64793 0.91456,-14.30618 -3.44037,-19.95411 -3.7815,-4.87385 -5.44437,-7.36336 -10.32109,-12.38245 -14.78863,2.67824 -29.20895,0.74599 -42.66338,0 0.51892,10.9805 0.77695,28.29413 -8.94208,33.03037 -25.02579,-7.31651 -39.79642,-24.88817 -44.03667,-52.97874 -7.08141,-4.10264 -23.73564,-4.93406 -33.71557,-3.44324 -26.03484,7.46327 -45.39414,30.5197 -61.92366,50.92313 -11.46791,12.18462 -23.22535,24.59574 -35.08888,35.08598 -6.27866,5.56192 -13.84746,11.66857 -21.33025,14.4524 -26.34459,9.77637 -45.3268,-7.28497 -48.85031,-29.58427 -1.32167,-8.31135 -1.06078,-18.5751 0,-26.14677 0.94324,-6.65137 3.00688,-13.28112 3.4375,-19.2689 -7.69543,9.94609 -13.41742,19.09402 -22.01833,26.1439 -6.50802,5.32683 -15.96902,10.34403 -25.4587,11.6915 z M -28.0328,679.02024 c -6.75671,38.09111 -17.68222,75.94776 -40.59633,108.02457 -17.77235,21.76031 -42.2018,36.92371 -70.18056,48.85031 3.09633,13.84746 10.37844,35.52463 4.12557,52.98161 -5.21501,5.19208 -9.43233,11.32166 -17.88702,12.37958 -12.98738,1.63417 -25.43,-6.76032 -34.40364,-11.00917 -2.58025,18.23393 -10.32396,41.63127 -32.33943,39.90823 -9.40079,-0.74542 -11.95526,-6.98968 -18.5751,-11.69724 -5.16055,4.418 -6.79185,12.87269 -11.69724,19.27177 -6.87786,8.97362 -23.85032,21.90365 -41.2815,15.13187 -8.31135,-3.23681 -11.72591,-11.23852 -15.13474,-20.63645 -71.5447,39.84311 -149.23262,31.67385 -198.85018,12.38244 -22.13588,-8.03038 -43.49478,-17.97877 -63.30268,-29.58426 -51.72476,-30.56254 -95.59141,-72.27609 -123.85314,-125.22926 -14.77301,-27.93361 -26.19562,-58.02404 -33.7127,-88.75853 -10.06593,-49.051 -8.22821,-106.82618 2.75229,-158.94483 6.16112,-14.24884 8.5149,-29.32911 14.44953,-43.34859 16.97246,-39.99424 38.61809,-74.85659 66.74023,-105.96322 17.86119,-19.75342 38.16224,-39.33483 60.55041,-54.35775 43.95831,-30.12257 92.57355,-50.01447 145.18334,-57.79812 76.25561,-10.53285 120.87436,-2.62821 186.46774,17.88989 86.52207,37.54472 151.08485,101.39235 194.03654,186.46774 28.21864,62.35001 33.753012,126.53852 27.50861,194.03941 z M -213.64047,548.2864 c -11.15842,-4.64392 -18.43537,-4.56267 -27.17756,-6.89744 -0.009,5.36677 0.68331,8.8678 1.03365,15.15432 8.71273,-2.7523 18.34575,-4.58716 26.14391,-8.25688 z m -45.41282,16.51088 c -1.50751,-10.6735 -1.66206,-16.78315 -4.12557,-26.14677 -23.17019,-3.63769 -41.86126,-6.08305 -67.49923,-5.30896 0.56164,9.37533 2.59536,25.9043 2.92732,35.09372 8.27262,6.81986 12.90498,10.31163 18.48511,17.34405 17.64907,-6.41915 32.95038,-14.15865 50.21237,-20.98204 z m -6.87786,-57.10718 c -2.13735,-9.33081 -1.88497,-18.65001 -4.769,-37.50415 -17.83542,5.47591 -48.11539,16.93126 -66.10798,24.0742 0.25803,3.18234 1.1838,7.43799 2.0697,9.98959 21.8148,-0.68807 47.90707,3.26835 68.80728,3.44036 z m -10.32396,-62.26927 c -18.34574,-5.59059 -37.2932,-10.65317 -55.73103,-16.17677 -2.57741,0.8601 -2.40826,4.47248 -4.81938,5.50459 -1.08945,-1.69152 -5.16473,-1.67956 -6.53801,-1.39286 1.83486,8.8016 3.44097,25.30697 5.16476,36.48457 20.33683,-7.08904 42.05175,-15.2446 61.92366,-24.41953 z m -22.70637,234.96982 c 2.33735,-11.76487 8.54681,-23.03212 13.97636,-33.17216 -0.30146,-0.36577 -1.41711,-0.36643 -3.3256,-0.40935 -11.83419,-3.02883 -19.59571,-3.80664 -25.10032,-12.52223 -2.69209,-4.26892 -2.23337,-10.0344 -5.50458,-15.13761 -1.29014,0.086 -2.29645,0.45872 -2.75229,1.37328 3.48027,27.20268 6.34076,54.45423 4.12557,81.88641 -2.47887,14.63121 -6.39773,22.02251 -11.69724,32.33369 -1.8377,3.64391 -9.0465,12.68663 -12.38245,15.82854 1.71032,4.43546 8.42606,10.1204 17.20182,9.63302 15.93328,-10.19222 18.47516,-32.10032 21.33313,-49.54125 1.63133,-10.16914 1.86066,-20.69092 4.1256,-30.27234 z m -30.27234,23.40022 c 0.51889,-8.42603 -1.08948,-20.87155 -2.06709,-31.65422 -1.68239,-14.77224 -2.23403,-29.74083 -5.82774,-44.21625 -0.22936,0 -2.1998,0.87052 -2.42916,0.87052 -80.70234,39.9627 -127.38235,113.90186 -199.54112,162.38806 -5.07741,14.27465 -19.86811,74.54123 30.2752,66.055 16.3704,-2.78383 30.56191,-22.53439 41.28151,-35.09172 11.78324,-13.81593 22.15881,-30.61924 35.09171,-41.2815 11.81192,-9.74483 24.2259,-15.82854 35.77692,-22.70641 11.95527,-7.10721 24.77349,-12.58886 37.84404,-21.32739 -0.2609,-8.14219 -2.06712,-19.12269 -2.06712,-28.89906 0,-9.50489 1.08521,-19.09915 2.95006,-25.78492 0.24742,-0.88662 2.4012,-0.68137 3.2426,-1.04705 -2.03555,17.28496 0.0602,35.49022 3.43752,49.53838 10.61923,-4.51261 21.19551,-12.99598 22.03267,-26.84344 z m -32.34519,-89.45234 c 6.65473,-4.75192 16.72657,-9.81112 21.0081,-12.56605 0.13073,-3.10848 -1.49811,-7.98233 -2.09573,-12.21292 -6.13821,-4.78784 -13.00351,-6.64303 -20.97659,-10.31275 -19.75629,-9.14563 -33.57222,-17.6892 -27.52578,-48.1651 6.56525,-16.03789 22.30001,-22.13269 37.83856,-26.11334 -1.27657,-3.21877 -0.58239,-4.78377 -1.37967,-6.0067 -11.95527,4.08781 -36.68824,11.07648 -48.84133,14.23015 3.95642,34.3463 9.85951,89.16277 1.37328,121.10082 -0.77695,2.89851 -2.21044,8.14506 -6.19266,8.25974 0.17489,-44.01086 -6.82339,-86.75452 -11.69724,-127.98442 -16.08083,-0.22935 -32.02405,-4.18577 -43.34572,-6.88072 2.77299,18.80884 5.54521,38.01602 4.81651,61.92655 -3.01031,7.54013 -6.53382,14.56421 -8.94494,22.70641 -16.3102,31.39332 -53.92771,39.50685 -82.56875,57.79812 -20.35835,12.98737 -36.4965,27.75227 -52.2935,44.72473 -4.93122,5.27809 -12.38531,10.3813 -15.82568,16.51948 -2.32514,4.12557 -7.31364,16.97247 -7.94437,19.63875 -2.66629,11.18118 -4.50115,24.34058 -1.00344,36.09515 7.70925,20.24655 37.32795,18.81306 58.48329,12.38532 60.03436,-21.81478 96.82045,-79.36061 144.4953,-117.66046 20.10606,-16.14678 40.49309,-31.65709 62.62036,-47.48276 z m 15.65446,-52.77958 c -1.19217,-10.53012 -2.48572,-18.86675 -3.95148,-27.03401 -6.33601,1.86354 -27.00686,0.43005 -28.21099,7.56881 -0.65654,3.84174 7.76949,9.26031 11.00916,11.00916 6.84922,3.69266 14.10054,7.33219 21.15331,8.45604 z m -125.74324,15.62364 c 2.66915,-8.80159 -1.14392,-20.85482 -3.4375,-27.52291 -6.82339,3.4977 -5.10321,15.53898 -11.69724,19.26604 -12.55733,-8.91628 -20.72819,-15.85435 -39.90822,-15.82568 -34.37495,0.086 -56.62267,23.48049 -74.99992,40.5963 -17.60606,16.42774 -34.17428,36.37899 -64.68171,36.46786 -21.70013,20.1548 -27.60895,85.35257 17.88989,74.99994 33.06569,-15.71845 51.35254,-49.66421 81.19547,-70.18916 13.9306,-8.56937 28.95637,-14.76203 43.34856,-22.01833 14.87671,-7.51146 31.16396,-13.61811 42.66051,-23.39448 3.03613,-2.60321 9.22878,-11.08657 9.63016,-12.37958 z m -4.12844,-32.33655 c -2.35728,-15.83176 -3.9932,-31.9406 -6.45149,-48.14211 -0.83145,-2.25203 -3.00025,-3.58343 -5.93382,-6.21565 -5.87809,-5.27431 -16.85779,-24.42658 -25.4587,-24.08255 -6.39047,0.25803 -21.30159,16.45641 -19.26604,38.53208 5.53283,24.31179 40.10657,25.83456 57.11005,39.90823 z m 381.18951,63.98791 c 5.59056,47.73505 14.33929,105.56643 -0.68523,143.80722 -5.41465,-86.71994 -19.04235,-172.67529 -31.55863,-258.57918 -1.71943,-10.53084 -4.14836,-20.30687 -8.34959,-28.34433 4.36066,-8.02752 8.05619,-16.71444 13.07338,-24.08255 9.17433,20.32682 14.77157,38.40221 24.77348,64.67885 -2.86697,3.15366 -8.25635,-8.05791 -12.7862,-7.77121 1.97942,29.50359 9.28001,61.66603 12.7862,91.02802 0.62787,6.18979 2.00688,12.75515 2.74659,19.26318 z m -0.68523,236.69706 c -3.15654,8.30848 -7.36812,15.56764 -12.38532,22.01833 -9.43232,-3.38303 -15.73679,-9.94839 -23.3916,-15.13474 3.32282,-8.60091 9.02809,-14.82223 12.38248,-23.39161 9.14273,4.15137 17.05843,9.54128 23.39444,16.50802 z M -414.55488,625.35056 c 2.40825,9.48967 -8.51777,17.51145 -12.38531,24.77062 -8.89048,-4.41226 -16.0579,-10.55045 -24.07969,-15.82854 3.40883,-9.65882 9.25745,-16.88645 14.44953,-24.77062 3.17374,3.12213 20.72533,10.72247 22.01547,15.82854 z m -8.94495,-45.41567 c 1.11812,8.34288 -9.14277,15.96902 -12.38531,23.39447 -9.11697,-4.18577 -16.19552,-10.4071 -24.07968,-15.82567 2.60894,-9.54701 9.00515,-15.30962 12.38244,-24.08255 5.50172,1.60837 23.33427,11.09804 24.08255,16.51375 z m -147.93853,122.47696 c 7.91287,6.07798 18.8647,9.11697 23.39448,18.5751 -3.58371,8.57224 -7.82393,16.48508 -13.07338,23.39448 -7.62614,-6.13532 -17.11865,-10.4071 -24.08252,-17.20182 3.09632,-7.02121 9.1743,-16.9696 13.76142,-24.76776 z"
         id="path2902" />
    </g>
  </g>
</svg>
