<?xml version="1.0" encoding="UTF-8" ?>
<!DOCTYPE svg PUBLIC "-//W3C//DTD SVG 1.1//EN" "http://www.w3.org/Graphics/SVG/1.1/DTD/svg11.dtd">
<svg width="127pt" height="129pt" viewBox="0 0 127 129" version="1.1" xmlns="http://www.w3.org/2000/svg">
<path fill="#030c16" stroke="#030c16" stroke-width="0.09375" opacity="0.18" d=" M 60.3 6.5 C 72.6 5.9 85.4 8.3 95.8 15.2 C 104.8 21.0 112.6 29.0 117.3 38.7 C 121.9 50.3 124.2 63.3 121.6 75.7 C 120.0 82.1 118.6 88.6 115.3 94.4 C 106.8 108.8 91.9 119.9 75.1 122.2 C 68.6 123.5 61.9 124.0 55.4 122.6 C 44.9 121.2 34.6 117.5 26.8 110.3 C 20.6 104.4 14.0 98.4 10.7 90.3 C 6.1 78.7 3.9 65.7 6.5 53.3 C 7.9 47.0 9.3 40.4 12.8 34.8 C 20.4 23.0 31.7 13.3 45.1 9.1 C 50.1 7.6 55.2 6.8 60.3 6.5 M 54.4 10.4 C 44.9 11.5 36.0 15.6 28.6 21.6 C 20.8 28.4 13.6 36.8 11.3 47.1 C 9.1 55.5 7.4 64.4 9.2 73.0 C 10.3 78.3 11.5 83.6 13.5 88.6 C 16.9 97.1 24.0 103.3 30.6 109.3 C 39.6 117.0 51.6 119.1 63.0 120.3 C 68.4 120.3 73.8 119.1 79.1 118.2 C 94.4 114.5 107.5 103.3 114.2 89.3 C 118.3 78.5 121.1 66.6 118.7 55.1 C 117.3 49.4 116.2 43.7 113.5 38.4 C 109.9 31.4 104.3 25.6 98.2 20.7 C 86.0 11.1 69.5 7.9 54.4 10.4 Z" />
<path fill="#091f3a" stroke="#091f3a" stroke-width="0.09375" opacity="0.38" d=" M 54.4 10.4 C 69.5 7.9 86.0 11.1 98.2 20.7 C 104.3 25.6 109.9 31.4 113.5 38.4 C 116.2 43.7 117.3 49.4 118.7 55.1 C 121.1 66.6 118.3 78.5 114.2 89.3 C 107.5 103.3 94.4 114.5 79.1 118.2 C 73.8 119.1 68.4 120.3 63.0 120.3 C 51.6 119.1 39.6 117.0 30.6 109.3 C 24.0 103.3 16.9 97.1 13.5 88.6 C 11.5 83.6 10.3 78.3 9.2 73.0 C 7.4 64.4 9.1 55.5 11.3 47.1 C 13.6 36.8 20.8 28.4 28.6 21.6 C 36.0 15.6 44.9 11.5 54.4 10.4 M 54.4 13.7 C 39.9 15.3 27.6 24.8 19.4 36.5 C 15.8 41.6 14.2 47.8 12.9 53.9 C 12.1 59.2 11.1 64.6 12.0 70.0 C 12.9 76.0 14.3 81.9 16.6 87.6 C 19.4 94.8 25.4 100.0 30.8 105.2 C 36.8 111.1 44.9 114.3 53.0 115.7 C 63.7 117.5 74.9 116.9 85.1 113.0 C 96.1 108.2 105.5 99.6 110.9 88.9 C 114.4 80.4 116.5 71.2 116.4 62.0 C 115.0 52.0 113.1 41.4 106.4 33.5 C 101.2 27.1 94.9 21.2 87.3 17.7 C 77.1 12.9 65.4 12.1 54.4 13.7 Z" />
<path fill="#0e2f58" stroke="#0e2f58" stroke-width="0.09375" opacity="0.57" d=" M 54.4 13.7 C 65.4 12.1 77.1 12.9 87.3 17.7 C 94.9 21.2 101.2 27.1 106.4 33.5 C 113.1 41.4 115.0 52.0 116.4 62.0 C 116.5 71.2 114.4 80.4 110.9 88.9 C 105.5 99.6 96.1 108.2 85.1 113.0 C 74.9 116.9 63.7 117.5 53.0 115.7 C 44.9 114.3 36.8 111.1 30.8 105.2 C 25.4 100.0 19.4 94.8 16.6 87.6 C 14.3 81.9 12.9 76.0 12.0 70.0 C 11.1 64.6 12.1 59.2 12.9 53.9 C 14.2 47.8 15.8 41.6 19.4 36.5 C 27.6 24.8 39.9 15.3 54.4 13.7 M 54.5 19.7 C 42.9 21.9 32.7 29.3 25.9 38.9 C 17.9 50.1 16.0 65.1 19.8 78.3 C 23.0 89.5 31.1 99.0 41.1 105.0 C 50.5 110.6 62.1 112.1 72.8 110.3 C 87.3 107.7 99.9 97.4 106.2 84.2 C 110.7 74.3 111.4 62.7 108.6 52.2 C 105.0 39.2 95.3 28.5 83.3 22.8 C 74.3 18.7 64.1 17.7 54.5 19.7 Z" />
<path fill="#ffffff" stroke="#ffffff" stroke-width="0.09375" opacity="1.00" d=" M 54.5 19.7 C 64.1 17.7 74.3 18.7 83.3 22.8 C 95.3 28.5 105.0 39.2 108.6 52.2 C 111.4 62.7 110.7 74.3 106.2 84.2 C 99.9 97.4 87.3 107.7 72.8 110.3 C 62.1 112.1 50.5 110.6 41.1 105.0 C 31.1 99.0 23.0 89.5 19.8 78.3 C 16.0 65.1 17.9 50.1 25.9 38.9 C 32.7 29.3 42.9 21.9 54.5 19.7 M 56.5 28.9 C 39.0 32.3 25.5 50.0 27.5 67.9 C 28.5 87.0 46.8 103.1 65.9 101.6 C 84.1 101.2 100.2 85.2 100.8 67.1 C 102.0 51.8 92.2 36.8 78.3 30.9 C 71.4 28.1 63.8 27.5 56.5 28.9 Z" />
<path fill="#0e315b" stroke="#0e315b" stroke-width="0.09375" opacity="0.66" d=" M 56.5 28.9 C 63.8 27.5 71.4 28.1 78.3 30.9 C 92.2 36.8 102.0 51.8 100.8 67.1 C 100.2 85.2 84.1 101.2 65.9 101.6 C 46.8 103.1 28.5 87.0 27.5 67.9 C 25.5 50.0 39.0 32.3 56.5 28.9 M 60.4 32.7 C 54.6 34.5 51.9 42.3 55.8 47.2 C 60.4 53.7 72.1 51.8 74.0 44.0 C 76.2 36.4 67.3 29.8 60.4 32.7 M 39.8 40.8 C 26.7 52.9 26.2 75.6 38.9 88.1 C 42.7 91.6 47.0 95.5 52.5 95.8 C 52.6 87.9 53.3 80.0 53.3 72.0 C 53.4 65.9 52.4 59.6 54.9 53.8 C 57.0 49.2 51.1 45.7 51.8 41.1 C 52.1 38.5 53.0 36.0 53.7 33.5 C 48.2 33.6 43.7 37.4 39.8 40.8 M 75.2 33.0 C 75.6 36.0 76.2 39.0 76.3 42.0 C 76.3 46.2 71.4 49.5 73.1 53.8 C 74.4 57.4 75.4 61.1 75.1 65.0 C 74.6 72.3 75.5 79.7 75.3 87.0 C 75.2 90.1 75.4 93.1 76.0 96.2 C 87.9 93.3 96.4 81.8 98.2 70.0 C 100.9 54.3 90.6 37.3 75.2 33.0 M 55.5 59.0 C 55.6 72.5 55.3 86.0 55.7 99.5 C 61.3 99.5 66.9 99.5 72.5 99.5 C 72.8 85.7 72.5 71.8 72.6 58.0 C 72.5 56.8 73.1 54.3 71.1 54.6 C 66.1 54.5 61.0 54.3 56.0 54.7 C 55.2 55.9 55.6 57.6 55.5 59.0 Z" />
<path fill="#ffffff" stroke="#ffffff" stroke-width="0.09375" opacity="1.00" d=" M 60.4 32.7 C 67.3 29.8 76.2 36.4 74.0 44.0 C 72.1 51.8 60.4 53.7 55.8 47.2 C 51.9 42.3 54.6 34.5 60.4 32.7 Z" />
<path fill="#0d2f56" stroke="#0d2f56" stroke-width="0.09375" opacity="0.55" d=" M 39.8 40.8 C 43.7 37.4 48.2 33.6 53.7 33.5 C 53.0 36.0 52.1 38.5 51.8 41.1 C 51.1 45.7 57.0 49.2 54.9 53.8 C 52.4 59.6 53.4 65.9 53.3 72.0 C 53.3 80.0 52.6 87.9 52.5 95.8 C 47.0 95.5 42.7 91.6 38.9 88.1 C 26.2 75.6 26.7 52.9 39.8 40.8 M 40.8 47.8 C 31.5 57.4 32.2 74.7 42.3 83.5 C 43.7 83.5 45.0 83.5 46.4 83.4 C 49.4 75.7 48.2 67.4 48.4 59.3 C 48.4 54.9 49.4 50.1 46.4 46.4 C 44.5 46.6 42.2 46.1 40.8 47.8 Z" />
<path fill="#0d2e56" stroke="#0d2e56" stroke-width="0.09375" opacity="0.55" d=" M 75.2 33.0 C 90.6 37.3 100.9 54.3 98.2 70.0 C 96.4 81.8 87.9 93.3 76.0 96.2 C 75.4 93.1 75.2 90.1 75.3 87.0 C 75.5 79.7 74.6 72.3 75.1 65.0 C 75.4 61.1 74.4 57.4 73.1 53.8 C 71.4 49.5 76.3 46.2 76.3 42.0 C 76.2 39.0 75.6 36.0 75.2 33.0 M 81.3 46.3 C 80.4 48.1 79.3 49.9 79.4 52.0 C 79.4 58.3 79.7 64.7 79.5 71.0 C 79.6 74.7 79.3 78.6 81.0 82.0 C 81.9 84.1 85.1 84.1 86.6 82.7 C 91.4 78.5 93.4 72.1 94.2 66.0 C 94.2 58.8 91.4 51.7 86.5 46.4 C 84.8 46.4 83.0 46.4 81.3 46.3 Z" />
<path fill="#07192f" stroke="#07192f" stroke-width="0.09375" opacity="0.34" d=" M 40.8 47.8 C 42.2 46.1 44.5 46.6 46.4 46.4 C 49.4 50.1 48.4 54.9 48.4 59.3 C 48.2 67.4 49.4 75.7 46.4 83.4 C 45.0 83.5 43.7 83.5 42.3 83.5 C 32.2 74.7 31.5 57.4 40.8 47.8 M 37.7 67.1 C 38.3 70.8 39.5 74.9 43.3 76.5 C 45.3 72.3 44.4 67.6 44.6 63.0 C 44.5 59.2 45.4 55.0 43.2 51.5 C 39.5 55.7 36.7 61.3 37.7 67.1 Z" />
<path fill="#081b33" stroke="#081b33" stroke-width="0.09375" opacity="0.35" d=" M 81.3 46.3 C 83.0 46.4 84.8 46.4 86.5 46.4 C 91.4 51.7 94.2 58.8 94.2 66.0 C 93.4 72.1 91.4 78.5 86.6 82.7 C 85.1 84.1 81.9 84.1 81.0 82.0 C 79.3 78.6 79.6 74.7 79.5 71.0 C 79.7 64.7 79.4 58.3 79.4 52.0 C 79.3 49.9 80.4 48.1 81.3 46.3 M 83.2 51.2 C 81.9 59.9 82.8 68.7 83.6 77.3 C 84.6 77.5 85.5 77.6 86.5 77.6 C 92.3 70.1 92.0 59.0 86.3 51.6 C 85.3 51.5 84.2 51.4 83.2 51.2 Z" />
<path fill="#02080f" stroke="#02080f" stroke-width="0.09375" opacity="0.15" d=" M 83.2 51.2 C 84.2 51.4 85.3 51.5 86.3 51.6 C 92.0 59.0 92.3 70.1 86.5 77.6 C 85.5 77.6 84.6 77.5 83.6 77.3 C 82.8 68.7 81.9 59.9 83.2 51.2 Z" />
<path fill="#01060d" stroke="#01060d" stroke-width="0.09375" opacity="0.13" d=" M 37.7 67.1 C 36.7 61.3 39.5 55.7 43.2 51.5 C 45.4 55.0 44.5 59.2 44.6 63.0 C 44.4 67.6 45.3 72.3 43.3 76.5 C 39.5 74.9 38.3 70.8 37.7 67.1 Z" />
<path fill="#ffffff" stroke="#ffffff" stroke-width="0.09375" opacity="1.00" d=" M 55.5 59.0 C 55.6 57.6 55.2 55.9 56.0 54.7 C 61.0 54.3 66.1 54.5 71.1 54.6 C 73.1 54.3 72.5 56.8 72.6 58.0 C 72.5 71.8 72.8 85.7 72.5 99.5 C 66.9 99.5 61.3 99.5 55.7 99.5 C 55.3 86.0 55.6 72.5 55.5 59.0 Z" />
</svg>
