<?xml version="1.0" encoding="UTF-8" ?>
<!DOCTYPE svg PUBLIC "-//W3C//DTD SVG 1.1//EN" "http://www.w3.org/Graphics/SVG/1.1/DTD/svg11.dtd">
<svg width="149pt" height="149pt" viewBox="0 0 149 149" version="1.1" xmlns="http://www.w3.org/2000/svg">
<path fill="#020a13" stroke="#020a13" stroke-width="0.09375" opacity="0.15" d=" M 74.3 17.5 C 77.9 17.0 81.5 17.1 85.0 17.3 C 89.3 17.4 91.9 21.5 96.0 22.2 C 103.9 23.0 112.0 22.8 119.6 25.5 C 126.0 27.8 129.6 34.1 131.7 40.1 C 133.2 45.6 133.5 51.3 133.6 57.0 C 133.5 63.5 140.0 67.6 140.6 74.0 C 140.8 76.5 140.9 79.1 140.4 81.6 C 139.4 86.4 133.8 88.9 133.7 94.0 C 133.3 102.4 132.3 111.7 126.2 118.1 C 121.2 123.3 113.8 124.4 107.0 124.9 C 99.4 126.0 91.7 125.4 84.0 125.6 C 80.1 125.4 77.2 128.3 74.0 129.9 C 70.0 132.1 65.3 131.9 61.0 131.6 C 57.5 131.4 54.8 128.8 51.9 127.1 C 49.0 125.0 45.2 125.7 41.9 125.2 C 35.6 124.4 28.7 124.4 23.2 120.8 C 18.8 118.2 16.1 113.5 14.2 108.8 C 11.1 101.0 11.4 92.4 11.5 84.1 C 11.6 78.5 6.4 74.9 5.5 69.6 C 5.1 66.6 5.1 63.4 5.6 60.4 C 6.8 56.1 10.7 53.1 11.8 48.7 C 13.5 42.0 15.3 34.6 20.8 29.8 C 26.1 25.3 33.3 24.5 39.9 23.9 C 47.6 22.8 55.3 24.0 63.0 23.2 C 67.1 21.9 70.1 18.5 74.3 17.5 M 76.2 21.2 C 71.3 22.2 68.1 27.3 62.9 27.5 C 56.0 27.7 49.0 27.3 42.0 27.6 C 35.5 28.3 28.4 28.7 23.2 33.2 C 18.4 37.7 16.9 44.5 15.5 50.7 C 14.6 56.0 8.7 59.3 9.3 65.0 C 8.6 71.1 13.9 75.2 15.3 80.7 C 16.2 88.7 14.2 97.0 17.2 104.7 C 19.1 110.1 21.7 116.5 27.6 118.5 C 34.9 121.3 42.8 121.3 50.4 121.7 C 55.8 123.2 59.8 129.1 66.0 128.2 C 71.3 127.7 75.0 123.6 79.7 121.7 C 87.8 121.0 95.9 121.9 104.0 121.3 C 110.5 120.6 117.5 120.1 122.9 115.9 C 127.9 109.8 130.1 101.8 129.5 94.0 C 128.8 87.1 137.5 83.9 136.7 76.9 C 137.3 71.9 133.2 68.2 131.0 64.1 C 128.9 60.8 129.6 56.7 129.5 53.0 C 129.7 45.5 127.4 37.4 122.0 32.0 C 117.4 27.7 110.9 27.6 105.0 26.8 C 100.2 26.0 94.7 27.7 90.5 24.5 C 86.4 21.6 81.3 19.2 76.2 21.2 Z" />
<path fill="#09203c" stroke="#09203c" stroke-width="0.09375" opacity="0.39" d=" M 76.2 21.2 C 81.3 19.2 86.4 21.6 90.5 24.5 C 94.7 27.7 100.2 26.0 105.0 26.8 C 110.9 27.6 117.4 27.7 122.0 32.0 C 127.4 37.4 129.7 45.5 129.5 53.0 C 129.6 56.7 128.9 60.8 131.0 64.1 C 133.2 68.2 137.3 71.9 136.7 76.9 C 137.5 83.9 128.8 87.1 129.5 94.0 C 130.1 101.8 127.9 109.8 122.9 115.9 C 117.5 120.1 110.5 120.6 104.0 121.3 C 95.9 121.9 87.8 121.0 79.7 121.7 C 75.0 123.6 71.3 127.7 66.0 128.2 C 59.8 129.1 55.8 123.2 50.4 121.7 C 42.8 121.3 34.9 121.3 27.6 118.5 C 21.7 116.5 19.1 110.1 17.2 104.7 C 14.2 97.0 16.2 88.7 15.3 80.7 C 13.9 75.2 8.6 71.1 9.3 65.0 C 8.7 59.3 14.6 56.0 15.5 50.7 C 16.9 44.5 18.4 37.7 23.2 33.2 C 28.4 28.7 35.5 28.3 42.0 27.6 C 49.0 27.3 56.0 27.7 62.9 27.5 C 68.1 27.3 71.3 22.2 76.2 21.2 M 77.3 24.5 C 72.5 25.7 69.1 30.3 64.0 30.9 C 53.4 32.3 42.6 30.1 32.1 32.5 C 27.4 33.5 23.3 37.0 21.6 41.6 C 19.3 46.7 19.5 52.6 16.2 57.3 C 14.4 60.1 11.8 63.1 12.5 66.7 C 13.4 71.2 17.1 74.5 18.3 78.9 C 20.5 86.4 18.4 94.4 19.9 102.1 C 21.1 107.0 23.5 112.2 28.1 114.9 C 34.9 118.3 42.6 117.1 49.9 118.1 C 54.5 118.6 57.8 122.1 61.7 124.2 C 66.3 125.8 70.9 123.2 74.6 120.5 C 79.2 116.9 85.5 117.7 91.0 117.7 C 99.0 117.5 107.2 118.3 115.1 116.1 C 119.1 115.0 122.3 111.8 123.9 108.0 C 126.6 102.3 125.1 95.8 126.6 89.8 C 127.5 84.8 133.2 82.2 133.5 77.0 C 133.3 71.0 127.6 67.2 126.5 61.4 C 124.8 54.9 126.9 47.9 124.2 41.7 C 122.8 38.2 120.9 34.4 117.3 32.8 C 110.9 30.0 103.7 30.6 97.0 30.2 C 93.0 29.9 89.4 28.1 86.2 25.9 C 83.7 23.9 80.3 24.1 77.3 24.5 Z" />
<path fill="#0e2f58" stroke="#0e2f58" stroke-width="0.09375" opacity="0.57" d=" M 77.3 24.5 C 80.3 24.1 83.7 23.9 86.2 25.9 C 89.4 28.1 93.0 29.9 97.0 30.2 C 103.7 30.6 110.9 30.0 117.3 32.8 C 120.9 34.4 122.8 38.2 124.2 41.7 C 126.9 47.9 124.8 54.9 126.5 61.4 C 127.6 67.2 133.3 71.0 133.5 77.0 C 133.2 82.2 127.5 84.8 126.6 89.8 C 125.1 95.8 126.6 102.3 123.9 108.0 C 122.3 111.8 119.1 115.0 115.1 116.1 C 107.2 118.3 99.0 117.5 91.0 117.7 C 85.5 117.7 79.2 116.9 74.6 120.5 C 70.9 123.2 66.3 125.8 61.7 124.2 C 57.8 122.1 54.5 118.6 49.9 118.1 C 42.6 117.1 34.9 118.3 28.1 114.9 C 23.5 112.2 21.1 107.0 19.9 102.1 C 18.4 94.4 20.5 86.4 18.3 78.9 C 17.1 74.5 13.4 71.2 12.5 66.7 C 11.8 63.1 14.4 60.1 16.2 57.3 C 19.5 52.6 19.3 46.7 21.6 41.6 C 23.3 37.0 27.4 33.5 32.1 32.5 C 42.6 30.1 53.4 32.3 64.0 30.9 C 69.1 30.3 72.5 25.7 77.3 24.5 M 72.3 38.4 L 72.0 38.3 C 71.3 39.2 70.5 40.1 69.8 41.0 C 69.7 40.2 69.5 38.5 69.4 37.6 C 58.9 37.8 48.4 37.4 37.9 37.8 C 32.3 37.9 27.1 42.4 26.5 48.0 C 26.1 53.3 26.5 58.5 26.4 63.8 C 23.7 64.2 19.8 62.5 18.0 65.0 C 21.6 69.0 25.7 72.5 29.5 76.3 C 28.8 76.3 27.3 76.2 26.6 76.2 C 26.2 81.8 26.5 87.4 26.4 93.0 C 26.5 96.8 26.0 100.8 27.5 104.4 C 29.3 108.6 33.7 111.2 38.1 111.2 C 46.5 111.4 55.0 111.2 63.4 111.3 C 63.6 114.2 62.7 117.4 64.4 119.9 L 65.4 118.9 C 70.5 119.0 72.8 112.5 78.0 113.0 C 87.0 113.0 96.0 113.1 105.0 113.1 C 110.2 113.1 116.1 111.8 119.2 107.2 C 123.0 100.4 121.3 92.3 122.0 84.9 C 122.1 81.8 125.2 80.2 127.0 78.2 C 127.2 77.9 127.6 77.2 127.8 76.9 C 123.9 73.2 119.8 69.7 115.7 66.3 C 116.4 66.1 118.0 65.8 118.8 65.7 C 119.6 59.9 119.1 53.9 119.1 48.1 C 119.1 42.1 113.8 37.1 108.0 36.9 C 99.4 36.5 90.8 36.8 82.2 36.7 C 82.2 34.0 82.2 31.2 81.9 28.4 C 77.8 30.7 75.5 35.0 72.3 38.4 Z" />
<path fill="#ffffff" stroke="#ffffff" stroke-width="0.09375" opacity="1.00" d=" M 72.3 38.4 C 75.5 35.0 77.8 30.7 81.9 28.4 C 82.2 31.2 82.2 34.0 82.2 36.7 C 90.8 36.8 99.4 36.5 108.0 36.9 C 113.8 37.1 119.1 42.1 119.1 48.1 C 119.1 53.9 119.6 59.9 118.8 65.7 C 118.0 65.8 116.4 66.1 115.7 66.3 C 119.8 69.7 123.9 73.2 127.8 76.9 C 127.6 77.2 127.2 77.9 127.0 78.2 C 124.5 78.3 122.0 78.3 119.5 78.3 C 119.4 85.5 119.6 92.8 119.5 100.0 C 119.5 106.0 114.0 111.3 108.1 111.0 C 97.6 111.0 87.2 111.0 76.7 111.0 C 76.7 110.1 76.5 108.4 76.4 107.5 C 72.7 111.3 69.1 115.1 65.4 118.9 L 64.4 119.9 C 62.7 117.4 63.6 114.2 63.4 111.3 C 55.0 111.2 46.5 111.4 38.1 111.2 C 33.7 111.2 29.3 108.6 27.5 104.4 C 26.0 100.8 26.5 96.8 26.4 93.0 C 26.5 87.4 26.2 81.8 26.6 76.2 C 27.3 76.2 28.8 76.3 29.5 76.3 C 25.7 72.5 21.6 69.0 18.0 65.0 C 19.8 62.5 23.7 64.2 26.4 63.8 C 26.5 58.5 26.1 53.3 26.5 48.0 C 27.1 42.4 32.3 37.9 37.9 37.8 C 48.1 38.2 58.4 37.8 68.6 38.7 C 64.2 40.1 59.2 38.6 55.0 41.0 C 52.5 42.2 51.2 44.9 49.7 47.2 C 46.2 47.3 42.7 47.0 39.1 47.5 C 37.7 47.6 36.3 48.5 36.2 50.0 C 35.4 54.6 35.8 59.2 35.8 63.7 C 38.8 63.7 42.0 63.5 45.0 64.6 C 41.1 68.6 36.8 72.1 32.8 75.9 C 33.5 76.1 34.8 76.4 35.5 76.6 C 36.2 83.7 35.3 90.9 36.0 98.0 C 36.1 99.4 36.7 101.1 38.4 101.4 C 42.7 102.1 47.1 101.6 51.5 101.8 C 56.6 108.7 67.0 107.5 73.1 102.5 C 74.1 103.7 75.2 104.8 76.4 105.9 C 81.6 107.8 87.4 109.7 92.9 107.7 C 96.1 106.9 98.2 104.2 100.3 101.8 C 103.3 101.4 107.6 102.6 109.7 99.7 C 110.7 92.7 109.9 85.4 110.1 78.3 C 107.3 78.3 104.4 78.2 101.5 78.1 C 101.6 77.7 101.8 77.0 101.9 76.7 C 105.2 73.2 108.7 69.7 112.2 66.5 C 111.7 66.2 110.6 65.7 110.0 65.5 C 108.6 59.5 111.0 53.0 108.6 47.3 C 103.2 45.3 97.2 46.6 91.6 46.2 C 86.5 40.9 79.0 40.2 72.3 38.4 Z" />
<path fill="#b7c8de" stroke="#b7c8de" stroke-width="0.09375" opacity="1.00" d=" M 37.9 37.8 C 48.4 37.4 58.9 37.8 69.4 37.6 C 69.5 38.5 69.7 40.2 69.8 41.0 C 70.5 40.1 71.3 39.2 72.0 38.3 L 72.3 38.4 C 79.0 40.2 86.5 40.9 91.6 46.2 C 89.5 46.2 87.6 46.2 85.6 46.2 C 78.1 41.8 69.2 42.2 60.9 42.8 C 57.8 42.9 55.5 45.2 53.5 47.2 C 53.0 47.2 52.0 47.2 51.6 47.2 C 51.1 47.2 50.2 47.2 49.7 47.2 C 51.2 44.9 52.5 42.2 55.0 41.0 C 59.2 38.6 64.2 40.1 68.6 38.7 C 58.4 37.8 48.1 38.2 37.9 37.8 Z" />
<path fill="#81a3ca" stroke="#81a3ca" stroke-width="0.09375" opacity="1.00" d=" M 53.5 47.2 C 55.5 45.2 57.8 42.9 60.9 42.8 C 69.2 42.2 78.1 41.8 85.6 46.2 C 84.4 46.3 83.2 46.3 82.0 46.4 C 81.9 47.4 81.8 49.3 81.8 50.2 C 79.4 49.5 77.0 48.9 74.6 48.3 C 72.9 46.9 71.3 45.3 69.7 43.8 C 69.6 44.6 69.3 46.3 69.2 47.1 C 64.0 47.2 58.7 47.2 53.5 47.2 Z" />
<path fill="#13447d" stroke="#13447d" stroke-width="0.09375" opacity="0.82" d=" M 69.7 43.8 C 71.3 45.3 72.9 46.9 74.6 48.3 C 69.9 48.3 65.1 47.9 60.4 48.5 C 58.7 48.7 58.1 50.3 57.9 51.8 C 57.6 53.3 57.3 54.8 57.0 56.4 C 52.8 55.4 52.4 50.8 51.6 47.2 C 52.0 47.2 53.0 47.2 53.5 47.2 C 58.7 47.2 64.0 47.2 69.2 47.1 C 69.3 46.3 69.6 44.6 69.7 43.8 Z" />
<path fill="#0e315b" stroke="#0e315b" stroke-width="0.09375" opacity="0.65" d=" M 82.0 46.4 C 83.2 46.3 84.4 46.3 85.6 46.2 C 87.6 46.2 89.5 46.2 91.6 46.2 C 97.2 46.6 103.2 45.3 108.6 47.3 C 111.0 53.0 108.6 59.5 110.0 65.5 C 110.6 65.7 111.7 66.2 112.2 66.5 C 108.7 69.7 105.2 73.2 101.9 76.7 C 102.2 74.1 103.5 72.0 105.0 70.1 C 108.0 66.7 107.1 62.0 107.2 58.0 C 106.8 55.2 107.5 51.2 104.4 49.7 C 101.8 48.7 98.4 48.2 95.9 49.7 C 92.1 57.8 91.3 67.4 84.9 74.1 C 87.1 79.8 89.6 85.6 94.2 89.7 C 97.1 92.3 99.0 95.7 101.5 98.6 C 103.4 99.4 105.8 98.6 106.6 96.6 C 108.2 93.0 108.1 88.9 107.7 85.1 C 107.2 81.8 103.9 80.0 101.5 78.1 C 104.4 78.2 107.3 78.3 110.1 78.3 C 109.9 85.4 110.7 92.7 109.7 99.7 C 107.6 102.6 103.3 101.4 100.3 101.8 C 99.0 101.8 97.8 101.8 96.6 101.8 C 98.0 99.1 97.6 95.7 95.6 93.4 C 93.8 92.0 91.6 91.1 89.6 90.0 C 87.1 84.5 85.5 78.2 81.0 73.8 C 87.0 71.0 89.9 64.1 88.2 57.7 C 88.6 58.8 89.0 59.9 89.4 60.9 C 91.7 57.0 94.1 52.0 91.5 47.5 C 88.6 46.0 85.1 46.5 82.0 46.4 Z" />
<path fill="#0e315a" stroke="#0e315a" stroke-width="0.09375" opacity="0.60" d=" M 36.2 50.0 C 36.3 48.5 37.7 47.6 39.1 47.5 C 42.7 47.0 46.2 47.3 49.7 47.2 C 50.2 47.2 51.1 47.2 51.6 47.2 C 52.4 50.8 52.8 55.4 57.0 56.4 C 57.3 54.8 57.6 53.3 57.9 51.8 C 57.9 66.5 57.6 81.3 58.1 96.1 C 57.7 92.7 57.3 89.3 56.6 86.0 C 53.8 90.3 51.1 95.1 51.4 100.5 C 51.7 100.8 52.4 101.5 52.8 101.8 L 51.5 101.8 C 47.1 101.6 42.7 102.1 38.4 101.4 C 36.7 101.1 36.1 99.4 36.0 98.0 C 35.3 90.9 36.2 83.7 35.5 76.6 C 34.8 76.4 33.5 76.1 32.8 75.9 C 36.8 72.1 41.1 68.6 45.0 64.6 C 42.0 63.5 38.8 63.7 35.8 63.7 C 35.8 59.2 35.4 54.6 36.2 50.0 M 47.4 68.5 C 44.9 71.1 43.0 74.3 41.8 77.6 C 41.0 81.7 41.2 85.8 41.5 89.9 C 41.8 92.8 44.1 96.6 47.6 95.5 C 51.5 93.1 53.4 88.4 53.7 84.0 C 54.0 79.0 54.1 73.4 50.8 69.3 C 50.0 68.2 48.5 68.0 47.4 68.5 Z" />
<path fill="#13437c" stroke="#13437c" stroke-width="0.09375" opacity="0.80" d=" M 82.0 46.4 C 85.1 46.5 88.6 46.0 91.5 47.5 C 94.1 52.0 91.7 57.0 89.4 60.9 C 89.0 59.9 88.6 58.8 88.2 57.7 C 87.2 54.4 84.7 51.9 81.8 50.2 C 81.8 49.3 81.9 47.4 82.0 46.4 Z" />
<path fill="#ffffff" stroke="#ffffff" stroke-width="0.09375" opacity="1.00" d=" M 60.4 48.5 C 65.1 47.9 69.9 48.3 74.6 48.3 C 77.0 48.9 79.4 49.5 81.8 50.2 C 84.7 51.9 87.2 54.4 88.2 57.7 C 89.9 64.1 87.0 71.0 81.0 73.8 C 85.5 78.2 87.1 84.5 89.6 90.0 C 90.4 92.3 91.7 94.6 91.3 97.1 C 89.0 98.0 86.1 98.2 83.8 97.2 C 82.8 95.8 82.2 94.2 81.5 92.6 C 80.9 91.1 80.4 89.5 79.8 88.0 C 78.4 84.6 77.3 80.9 74.6 78.4 C 72.4 76.4 69.3 76.7 66.6 76.4 L 66.1 76.4 C 65.8 83.2 66.6 90.1 65.9 96.8 C 63.8 98.3 59.1 98.6 58.1 96.1 C 57.6 81.3 57.9 66.5 57.9 51.8 C 58.1 50.3 58.7 48.7 60.4 48.5 M 66.1 69.5 C 70.7 69.4 77.7 70.3 79.4 64.8 L 79.1 64.1 L 79.7 63.9 C 80.7 61.2 79.3 57.6 76.6 56.4 C 73.4 55.0 69.7 55.6 66.3 55.4 C 66.1 60.1 66.1 64.8 66.1 69.5 Z" />
<path fill="#0e2f58" stroke="#0e2f58" stroke-width="0.09375" opacity="0.56" d=" M 95.9 49.7 C 98.4 48.2 101.8 48.7 104.4 49.7 C 107.5 51.2 106.8 55.2 107.2 58.0 C 107.1 62.0 108.0 66.7 105.0 70.1 C 103.5 72.0 102.2 74.1 101.9 76.7 C 101.8 77.0 101.6 77.7 101.5 78.1 C 103.9 80.0 107.2 81.8 107.7 85.1 C 108.1 88.9 108.2 93.0 106.6 96.6 C 105.8 98.6 103.4 99.4 101.5 98.6 C 99.0 95.7 97.1 92.3 94.2 89.7 C 89.6 85.6 87.1 79.8 84.9 74.1 C 91.3 67.4 92.1 57.8 95.9 49.7 M 96.8 53.7 C 93.5 56.8 93.4 61.7 92.7 65.8 C 92.3 69.2 90.8 72.3 90.6 75.7 C 91.6 79.7 93.5 83.3 94.9 87.1 C 96.1 90.3 99.0 93.0 102.6 92.7 C 102.6 90.4 103.2 87.9 102.3 85.7 C 100.7 82.8 97.7 80.6 97.6 77.0 C 97.4 73.2 100.2 70.2 101.8 66.9 C 103.7 63.6 104.5 59.1 102.2 55.8 C 101.2 54.0 98.7 52.2 96.8 53.7 Z" />
<path fill="#0a2343" stroke="#0a2343" stroke-width="0.09375" opacity="0.47" d=" M 96.8 53.7 C 98.7 52.2 101.2 54.0 102.2 55.8 C 104.5 59.1 103.7 63.6 101.8 66.9 C 100.2 70.2 97.4 73.2 97.6 77.0 C 97.7 80.6 100.7 82.8 102.3 85.7 C 103.2 87.9 102.6 90.4 102.6 92.7 C 99.0 93.0 96.1 90.3 94.9 87.1 C 93.5 83.3 91.6 79.7 90.6 75.7 C 90.8 72.3 92.3 69.2 92.7 65.8 C 93.4 61.7 93.5 56.8 96.8 53.7 M 95.7 57.7 C 94.6 61.4 95.3 65.3 95.5 69.1 C 99.6 67.1 102.0 62.1 100.2 57.8 C 99.2 55.9 96.8 56.1 95.7 57.7 Z" />
<path fill="#0f325e" stroke="#0f325e" stroke-width="0.09375" opacity="0.64" d=" M 66.1 69.5 C 66.1 64.8 66.1 60.1 66.3 55.4 C 66.6 56.2 67.2 57.7 67.5 58.5 C 71.6 59.8 75.6 61.7 79.1 64.1 L 79.4 64.8 C 77.7 70.3 70.7 69.4 66.1 69.5 Z" />
<path fill="#123f76" stroke="#123f76" stroke-width="0.09375" opacity="0.77" d=" M 66.3 55.4 C 69.7 55.6 73.4 55.0 76.6 56.4 C 79.3 57.6 80.7 61.2 79.7 63.9 L 79.1 64.1 C 75.6 61.7 71.6 59.8 67.5 58.5 C 67.2 57.7 66.6 56.2 66.3 55.4 Z" />
<path fill="#07172b" stroke="#07172b" stroke-width="0.09375" opacity="0.34" d=" M 95.7 57.7 C 96.8 56.1 99.2 55.9 100.2 57.8 C 102.0 62.1 99.6 67.1 95.5 69.1 C 95.3 65.3 94.6 61.4 95.7 57.7 Z" />
<path fill="#0b2546" stroke="#0b2546" stroke-width="0.09375" opacity="0.46" d=" M 47.4 68.5 C 48.5 68.0 50.0 68.2 50.8 69.3 C 54.1 73.4 54.0 79.0 53.7 84.0 C 53.4 88.4 51.5 93.1 47.6 95.5 C 44.1 96.6 41.8 92.8 41.5 89.9 C 41.2 85.8 41.0 81.7 41.8 77.6 C 43.0 74.3 44.9 71.1 47.4 68.5 M 47.9 90.2 C 51.8 87.0 51.5 80.7 49.1 76.8 C 45.0 80.1 44.2 86.3 47.9 90.2 Z" />
<path fill="#13437c" stroke="#13437c" stroke-width="0.09375" opacity="0.81" d=" M 66.1 76.4 L 66.6 76.4 C 66.6 78.9 66.5 81.3 66.6 83.8 C 66.9 87.2 70.3 88.5 72.0 91.1 C 72.1 94.1 71.4 97.0 70.9 99.9 L 70.6 99.6 C 69.6 98.7 68.8 97.3 67.3 97.2 C 66.0 97.7 64.7 98.1 63.4 98.5 C 63.4 99.3 63.4 100.9 63.4 101.7 C 61.4 101.7 59.4 101.8 57.4 101.9 C 55.9 101.8 54.3 101.8 52.8 101.8 C 52.4 101.5 51.7 100.8 51.4 100.5 C 51.1 95.1 53.8 90.3 56.6 86.0 C 57.3 89.3 57.7 92.7 58.1 96.1 C 59.1 98.6 63.8 98.3 65.9 96.8 C 66.6 90.1 65.8 83.2 66.1 76.4 Z" />
<path fill="#0f325e" stroke="#0f325e" stroke-width="0.09375" opacity="0.63" d=" M 66.6 76.4 C 69.3 76.7 72.4 76.4 74.6 78.4 C 77.3 80.9 78.4 84.6 79.8 88.0 C 79.5 88.4 78.9 89.3 78.6 89.7 C 74.6 87.7 70.8 85.3 66.6 83.8 C 66.5 81.3 66.6 78.9 66.6 76.4 Z" />
<path fill="#051121" stroke="#051121" stroke-width="0.09375" opacity="0.27" d=" M 47.9 90.2 C 44.2 86.3 45.0 80.1 49.1 76.8 C 51.5 80.7 51.8 87.0 47.9 90.2 Z" />
<path fill="#0e315b" stroke="#0e315b" stroke-width="0.09375" opacity="0.67" d=" M 119.5 78.3 C 122.0 78.3 124.5 78.3 127.0 78.2 C 125.2 80.2 122.1 81.8 122.0 84.9 C 121.3 92.3 123.0 100.4 119.2 107.2 C 116.1 111.8 110.2 113.1 105.0 113.1 C 96.0 113.1 87.0 113.0 78.0 113.0 C 72.8 112.5 70.5 119.0 65.4 118.9 C 69.1 115.1 72.7 111.3 76.4 107.5 C 76.5 108.4 76.7 110.1 76.7 111.0 C 87.2 111.0 97.6 111.0 108.1 111.0 C 114.0 111.3 119.5 106.0 119.5 100.0 C 119.6 92.8 119.4 85.5 119.5 78.3 Z" />
<path fill="#113c70" stroke="#113c70" stroke-width="0.09375" opacity="0.73" d=" M 66.6 83.8 C 70.8 85.3 74.6 87.7 78.6 89.7 C 78.9 89.3 79.5 88.4 79.8 88.0 C 80.4 89.5 80.9 91.1 81.5 92.6 C 80.5 93.5 79.5 94.4 78.4 95.3 C 78.3 97.5 78.3 99.8 77.3 101.8 L 76.9 102.9 C 76.7 103.6 76.5 105.2 76.4 105.9 C 75.2 104.8 74.1 103.7 73.1 102.5 C 72.3 101.7 71.6 100.8 70.9 99.9 C 71.4 97.0 72.1 94.1 72.0 91.1 C 70.3 88.5 66.9 87.2 66.6 83.8 Z" />
<path fill="#13437c" stroke="#13437c" stroke-width="0.09375" opacity="0.81" d=" M 89.6 90.0 C 91.6 91.1 93.8 92.0 95.6 93.4 C 97.6 95.7 98.0 99.1 96.6 101.8 L 95.7 101.8 C 89.9 101.8 84.1 101.7 78.3 101.9 C 78.0 101.9 77.5 101.9 77.3 101.8 C 78.3 99.8 78.3 97.5 78.4 95.3 C 79.5 94.4 80.5 93.5 81.5 92.6 C 82.2 94.2 82.8 95.8 83.8 97.2 C 86.1 98.2 89.0 98.0 91.3 97.1 C 91.7 94.6 90.4 92.3 89.6 90.0 Z" />
<path fill="#86a7ce" stroke="#86a7ce" stroke-width="0.09375" opacity="1.00" d=" M 67.3 97.2 C 68.8 97.3 69.6 98.7 70.6 99.6 C 69.0 100.7 67.5 102.0 65.6 102.6 C 62.9 103.3 60.1 102.4 57.4 101.9 C 59.4 101.8 61.4 101.7 63.4 101.7 C 63.4 100.9 63.4 99.3 63.4 98.5 C 64.7 98.1 66.0 97.7 67.3 97.2 Z" />
<path fill="#b8c9df" stroke="#b8c9df" stroke-width="0.09375" opacity="1.00" d=" M 65.6 102.6 C 67.5 102.0 69.0 100.7 70.6 99.6 L 70.9 99.9 C 71.6 100.8 72.3 101.7 73.1 102.5 C 67.0 107.5 56.6 108.7 51.5 101.8 L 52.8 101.8 C 54.3 101.8 55.9 101.8 57.4 101.9 C 60.1 102.4 62.9 103.3 65.6 102.6 Z" />
<path fill="#e1e7ee" stroke="#e1e7ee" stroke-width="0.09375" opacity="1.00" d=" M 77.3 101.8 C 77.5 101.9 78.0 101.9 78.3 101.9 C 83.1 106.4 91.0 106.8 95.7 101.8 L 96.6 101.8 C 97.8 101.8 99.0 101.8 100.3 101.8 C 98.2 104.2 96.1 106.9 92.9 107.7 C 87.4 109.7 81.6 107.8 76.4 105.9 C 76.5 105.2 76.7 103.6 76.9 102.9 L 77.3 101.8 Z" />
<path fill="#a3bbd8" stroke="#a3bbd8" stroke-width="0.09375" opacity="1.00" d=" M 78.3 101.9 C 84.1 101.7 89.9 101.8 95.7 101.8 C 91.0 106.8 83.1 106.4 78.3 101.9 Z" />
</svg>
