<?xml version="1.0" encoding="UTF-8" ?>
<!DOCTYPE svg PUBLIC "-//W3C//DTD SVG 1.1//EN" "http://www.w3.org/Graphics/SVG/1.1/DTD/svg11.dtd">
<svg width="109pt" height="109pt" viewBox="0 0 109 109" version="1.1" xmlns="http://www.w3.org/2000/svg">
<path fill="#032752" stroke="#032752" stroke-width="0.09375" opacity="0.33" d=" M 45.4 9.4 C 51.1 8.3 56.9 8.3 62.6 9.4 C 63.8 14.2 63.2 19.1 63.3 24.0 C 63.3 38.9 63.3 53.8 63.3 68.7 C 68.7 68.9 74.2 68.1 79.5 69.4 C 79.8 71.2 80.9 73.1 79.6 74.7 C 77.6 77.6 74.7 79.7 72.5 82.5 C 68.0 88.4 62.3 93.3 57.2 98.6 C 55.0 98.7 52.9 98.7 50.7 98.7 C 44.1 90.1 35.9 82.9 28.4 75.2 C 28.3 73.3 28.3 71.4 28.3 69.5 C 33.6 68.0 39.2 68.9 44.7 68.7 C 44.7 50.8 44.7 32.9 44.7 15.1 C 44.7 13.2 45.1 11.3 45.4 9.4 M 48.3 11.7 C 48.2 16.7 48.2 21.7 48.3 26.7 C 52.3 26.8 56.4 26.8 60.5 26.7 C 60.5 21.7 60.5 16.7 60.5 11.7 C 56.4 11.7 52.3 11.7 48.3 11.7 M 48.3 42.7 C 52.3 42.8 56.4 42.8 60.5 42.7 C 60.5 37.7 60.5 32.7 60.5 27.7 C 56.4 27.7 52.3 27.7 48.3 27.7 C 48.2 32.7 48.2 37.7 48.3 42.7 M 48.2 43.7 C 48.2 48.7 48.2 53.7 48.3 58.7 C 52.3 58.8 56.4 58.8 60.5 58.7 C 60.5 53.7 60.5 48.7 60.5 43.7 C 56.4 43.7 52.3 43.7 48.2 43.7 M 48.2 59.7 C 48.2 63.8 48.2 67.9 48.3 72.0 C 42.5 72.0 36.7 72.0 30.9 72.0 C 38.7 80.2 46.5 88.4 54.3 96.6 C 62.2 88.5 69.9 80.2 77.7 72.0 C 72.0 72.0 66.2 72.0 60.5 72.0 C 60.5 67.9 60.5 63.8 60.5 59.7 C 56.4 59.7 52.3 59.7 48.2 59.7 Z" />
<path fill="#f4f6f9" stroke="#f4f6f9" stroke-width="0.09375" opacity="1.00" d=" M 48.3 11.7 C 52.3 11.7 56.4 11.7 60.5 11.7 C 60.5 16.7 60.5 21.7 60.5 26.7 C 56.4 26.8 52.3 26.8 48.3 26.7 C 48.2 21.7 48.2 16.7 48.3 11.7 M 50.3 13.8 C 50.3 17.4 50.2 21.1 50.2 24.8 C 53.0 24.8 55.7 24.8 58.5 24.8 C 58.5 21.1 58.5 17.4 58.5 13.8 C 55.7 13.8 53.0 13.8 50.3 13.8 Z" />
<path fill="#578dde" stroke="#578dde" stroke-width="0.09375" opacity="1.00" d=" M 50.3 13.8 C 53.0 13.8 55.7 13.8 58.5 13.8 C 58.5 17.4 58.5 21.1 58.5 24.8 C 55.7 24.8 53.0 24.8 50.2 24.8 C 50.2 21.1 50.3 17.4 50.3 13.8 Z" />
<path fill="#f4f6f9" stroke="#f4f6f9" stroke-width="0.09375" opacity="1.00" d=" M 48.3 42.7 C 48.2 37.7 48.2 32.7 48.3 27.7 C 52.3 27.7 56.4 27.7 60.5 27.7 C 60.5 32.7 60.5 37.7 60.5 42.7 C 56.4 42.8 52.3 42.8 48.3 42.7 M 50.3 29.8 C 50.3 33.4 50.2 37.1 50.2 40.8 C 53.0 40.8 55.7 40.8 58.5 40.8 C 58.5 37.1 58.5 33.4 58.5 29.8 C 55.7 29.8 53.0 29.8 50.3 29.8 Z" />
<path fill="#4b82d0" stroke="#4b82d0" stroke-width="0.09375" opacity="1.00" d=" M 50.3 29.8 C 53.0 29.8 55.7 29.8 58.5 29.8 C 58.5 33.4 58.5 37.1 58.5 40.8 C 55.7 40.8 53.0 40.8 50.2 40.8 C 50.2 37.1 50.3 33.4 50.3 29.8 Z" />
<path fill="#f4f6f9" stroke="#f4f6f9" stroke-width="0.09375" opacity="1.00" d=" M 48.2 43.7 C 52.3 43.7 56.4 43.7 60.5 43.7 C 60.5 48.7 60.5 53.7 60.5 58.7 C 56.4 58.8 52.3 58.8 48.3 58.7 C 48.2 53.7 48.2 48.7 48.2 43.7 M 50.3 45.8 C 50.3 49.4 50.2 53.1 50.2 56.8 C 53.0 56.8 55.7 56.8 58.5 56.8 C 58.5 53.1 58.5 49.4 58.5 45.8 C 55.7 45.8 53.0 45.8 50.3 45.8 Z" />
<path fill="#3f76c2" stroke="#3f76c2" stroke-width="0.09375" opacity="1.00" d=" M 50.3 45.8 C 53.0 45.8 55.7 45.8 58.5 45.8 C 58.5 49.4 58.5 53.1 58.5 56.8 C 55.7 56.8 53.0 56.8 50.2 56.8 C 50.2 53.1 50.3 49.4 50.3 45.8 Z" />
<path fill="#f4f6f9" stroke="#f4f6f9" stroke-width="0.09375" opacity="1.00" d=" M 48.2 59.7 C 52.3 59.7 56.4 59.7 60.5 59.7 C 60.5 63.8 60.5 67.9 60.5 72.0 C 66.2 72.0 72.0 72.0 77.7 72.0 C 69.9 80.2 62.2 88.5 54.3 96.6 C 46.5 88.4 38.7 80.2 30.9 72.0 C 36.7 72.0 42.5 72.0 48.3 72.0 C 48.2 67.9 48.2 63.8 48.2 59.7 M 50.3 61.8 C 50.3 65.8 50.2 69.9 50.2 73.9 C 45.4 74.1 40.5 74.0 35.6 74.0 C 41.9 80.6 48.1 87.2 54.4 93.7 C 60.6 87.1 66.8 80.6 73.1 74.0 C 68.2 74.0 63.3 74.1 58.5 73.9 C 58.5 69.9 58.5 65.8 58.5 61.8 C 55.7 61.8 53.0 61.8 50.3 61.8 Z" />
<path fill="#346bb4" stroke="#346bb4" stroke-width="0.09375" opacity="1.00" d=" M 50.3 61.8 C 53.0 61.8 55.7 61.8 58.5 61.8 C 58.5 65.8 58.5 69.9 58.5 73.9 C 55.7 73.9 53.0 73.9 50.2 73.9 C 50.2 69.9 50.3 65.8 50.3 61.8 Z" />
<path fill="#2b62a8" stroke="#2b62a8" stroke-width="0.09375" opacity="1.00" d=" M 50.2 73.9 C 53.0 73.9 55.7 73.9 58.5 73.9 C 63.3 74.1 68.2 74.0 73.1 74.0 C 66.8 80.6 60.6 87.1 54.4 93.7 C 48.1 87.2 41.9 80.6 35.6 74.0 C 40.5 74.0 45.4 74.1 50.2 73.9 Z" />
</svg>
