<?xml version="1.0" encoding="UTF-8" ?>
<!DOCTYPE svg PUBLIC "-//W3C//DTD SVG 1.1//EN" "http://www.w3.org/Graphics/SVG/1.1/DTD/svg11.dtd">
<svg width="34pt" height="55pt" viewBox="0 0 34 55" version="1.1" xmlns="http://www.w3.org/2000/svg">
<path fill="#356bab" stroke="#356bab" stroke-width="0.09375" opacity="1.00" d=" M 17.1 6.1 L 17.8 6.1 C 20.4 11.4 22.3 16.9 25.1 22.1 C 25.0 22.5 25.0 23.3 24.9 23.8 C 20.8 25.7 20.8 31.6 17.8 34.9 C 16.3 35.6 15.8 33.7 15.2 32.8 C 13.2 29.4 11.3 25.8 9.8 22.2 C 12.1 16.8 13.9 11.1 17.1 6.1 Z" />
<path fill="#21446d" stroke="#21446d" stroke-width="0.09375" opacity="0.95" d=" M 10.3 27.7 C 9.4 26.3 7.8 22.0 9.8 22.2 C 11.3 25.8 13.2 29.4 15.2 32.8 C 15.8 33.7 16.3 35.6 17.8 34.9 C 20.8 31.6 20.8 25.7 24.9 23.8 C 23.6 30.3 20.0 36.3 17.2 42.3 C 14.4 37.7 12.9 32.4 10.3 27.7 Z" />
<path fill="#020305" stroke="#020305" stroke-width="0.09375" opacity="0.20" d=" M 25.1 22.1 C 28.4 21.3 25.4 27.9 25.9 29.9 C 24.6 34.1 22.7 38.0 21.0 42.0 C 20.4 44.4 17.1 45.4 15.3 43.7 C 12.8 38.6 9.8 33.6 9.2 27.9 L 10.3 27.7 C 12.9 32.4 14.4 37.7 17.2 42.3 C 20.0 36.3 23.6 30.3 24.9 23.8 C 25.0 23.3 25.0 22.5 25.1 22.1 Z" />
</svg>
