<?xml version="1.0" encoding="UTF-8" ?>
<!DOCTYPE svg PUBLIC "-//W3C//DTD SVG 1.1//EN" "http://www.w3.org/Graphics/SVG/1.1/DTD/svg11.dtd">
<svg width="55pt" height="43pt" viewBox="0 0 55 43" version="1.1" xmlns="http://www.w3.org/2000/svg">
<path fill="#143c47" stroke="#143c47" stroke-width="0.09375" opacity="0.38" d=" M 9.0 5.0 C 17.3 4.9 25.7 4.9 34.0 5.0 L 34.0 6.0 C 26.0 6.0 18.0 6.0 10.0 6.0 L 9.0 6.0 L 9.0 5.0 Z" />
<path fill="#08171b" stroke="#08171b" stroke-width="0.09375" opacity="0.33" d=" M 8.0 8.9 C 7.6 7.2 7.9 6.2 9.0 6.0 C 9.0 13.4 9.0 20.7 9.0 28.1 C 8.9 28.8 8.8 30.4 8.8 31.2 L 8.0 30.9 C 7.9 23.6 8.0 16.2 8.0 8.9 Z" />
<path fill="#277e95" stroke="#277e95" stroke-width="0.09375" opacity="1.00" d=" M 9.0 6.0 L 10.0 6.0 C 10.0 6.5 10.0 7.5 10.0 8.0 C 10.0 9.7 10.1 13.1 10.2 14.8 C 9.9 18.6 10.1 22.4 11.0 26.0 C 11.3 27.1 11.6 28.1 11.9 29.0 C 10.9 28.8 9.9 28.4 9.0 28.1 C 9.0 20.7 9.0 13.4 9.0 6.0 Z" />
<path fill="#44bfe0" stroke="#44bfe0" stroke-width="0.09375" opacity="1.00" d=" M 10.0 6.0 C 18.0 6.0 26.0 6.0 34.0 6.0 C 36.4 7.0 38.4 9.7 39.9 12.0 C 40.7 14.1 42.3 15.8 43.2 17.8 C 41.7 17.9 38.7 18.2 37.2 18.3 C 31.4 15.9 25.2 16.2 19.1 15.8 C 16.9 15.6 15.3 14.1 14.8 12.0 L 15.5 11.8 C 17.8 16.0 23.4 13.1 27.0 14.1 C 29.7 14.6 33.7 12.7 33.4 9.8 C 33.3 9.4 33.1 8.5 33.0 8.0 L 32.8 7.1 C 25.5 7.4 17.8 5.8 10.8 7.7 L 10.0 8.0 C 10.0 7.5 10.0 6.5 10.0 6.0 Z" />
<path fill="#64f1ff" stroke="#64f1ff" stroke-width="0.09375" opacity="1.00" d=" M 10.8 7.7 C 17.8 5.8 25.5 7.4 32.8 7.1 L 33.0 8.0 C 25.9 7.9 18.9 8.2 11.8 7.9 L 10.8 7.7 Z" />
<path fill="#319db9" stroke="#319db9" stroke-width="0.09375" opacity="1.00" d=" M 10.0 8.0 L 10.8 7.7 C 11.1 12.4 11.9 17.3 15.3 20.9 C 22.7 21.6 30.2 21.3 37.2 18.3 C 38.7 18.2 41.7 17.9 43.2 17.8 C 42.3 15.8 40.7 14.1 39.9 12.0 C 42.1 13.2 43.8 15.2 45.4 17.1 C 44.9 18.0 44.2 18.7 43.3 19.2 C 42.8 19.2 41.7 19.2 41.2 19.2 C 35.5 18.4 32.2 26.0 26.0 24.0 C 21.7 24.0 17.5 24.7 13.2 24.9 C 11.2 21.9 11.5 18.0 10.2 14.8 C 10.1 13.1 10.0 9.7 10.0 8.0 Z" />
<path fill="#38aecd" stroke="#38aecd" stroke-width="0.09375" opacity="1.00" d=" M 10.8 7.7 L 11.8 7.9 C 12.8 9.2 13.9 10.6 14.8 12.0 C 15.3 14.1 16.9 15.6 19.1 15.8 C 25.2 16.2 31.4 15.9 37.2 18.3 C 30.2 21.3 22.7 21.6 15.3 20.9 C 11.9 17.3 11.1 12.4 10.8 7.7 Z" />
<path fill="#7ffcff" stroke="#7ffcff" stroke-width="0.09375" opacity="1.00" d=" M 11.8 7.9 C 18.9 8.2 25.9 7.9 33.0 8.0 C 33.1 8.5 33.3 9.4 33.4 9.8 C 27.7 11.9 21.3 10.1 15.5 11.8 L 14.8 12.0 C 13.9 10.6 12.8 9.2 11.8 7.9 Z" />
<path fill="#000000" stroke="#000000" stroke-width="0.09375" opacity="0.04" d=" M 6.2 10.2 C 6.7 9.9 7.5 9.2 8.0 8.9 C 8.0 16.2 7.9 23.6 8.0 30.9 C 7.0 36.3 14.3 37.1 18.0 37.0 C 24.6 37.0 32.2 38.3 37.8 33.7 C 41.8 29.5 48.3 25.5 47.0 18.7 C 50.8 20.3 48.9 25.5 46.8 27.8 C 41.8 32.5 37.7 39.1 30.0 38.9 C 22.4 38.1 11.8 41.7 6.3 34.7 C 5.1 26.6 4.3 18.3 6.2 10.2 Z" />
<path fill="#5cdef9" stroke="#5cdef9" stroke-width="0.09375" opacity="1.00" d=" M 15.5 11.8 C 21.3 10.1 27.7 11.9 33.4 9.8 C 33.7 12.7 29.7 14.6 27.0 14.1 C 23.4 13.1 17.8 16.0 15.5 11.8 Z" />
<path fill="#2f91ab" stroke="#2f91ab" stroke-width="0.09375" opacity="1.00" d=" M 10.2 14.8 C 11.5 18.0 11.2 21.9 13.2 24.9 C 17.5 24.7 21.7 24.0 26.0 24.0 C 32.2 26.0 35.5 18.4 41.2 19.2 C 39.6 20.9 38.0 22.6 36.1 24.0 C 32.7 25.2 29.9 27.9 26.0 27.0 C 21.1 26.6 15.7 28.1 11.0 26.0 C 10.1 22.4 9.9 18.6 10.2 14.8 Z" />
<path fill="#225c6b" stroke="#225c6b" stroke-width="0.09375" opacity="0.98" d=" M 45.4 17.1 C 46.2 17.4 46.7 18.0 47.0 18.7 C 46.3 19.4 45.6 20.1 45.0 20.9 C 41.4 24.0 38.1 27.4 35.0 31.0 C 26.3 31.2 17.5 30.7 8.8 31.2 C 8.8 30.4 8.9 28.8 9.0 28.1 C 9.9 28.4 10.9 28.8 11.9 29.0 C 18.9 28.9 26.3 29.7 33.1 28.2 C 37.2 26.1 40.0 22.3 43.3 19.2 C 44.2 18.7 44.9 18.0 45.4 17.1 Z" />
<path fill="#267a90" stroke="#267a90" stroke-width="0.09375" opacity="1.00" d=" M 41.2 19.2 C 41.7 19.2 42.8 19.2 43.3 19.2 C 40.0 22.3 37.2 26.1 33.1 28.2 C 34.0 26.8 35.0 25.4 36.1 24.0 C 38.0 22.6 39.6 20.9 41.2 19.2 Z" />
<path fill="#000000" stroke="#000000" stroke-width="0.09375" opacity="0.12" d=" M 45.0 20.9 C 45.6 20.1 46.3 19.4 47.0 18.7 C 48.3 25.5 41.8 29.5 37.8 33.7 C 32.2 38.3 24.6 37.0 18.0 37.0 C 14.3 37.1 7.0 36.3 8.0 30.9 L 8.8 31.2 C 9.1 31.4 9.6 31.9 9.9 32.2 C 12.0 34.9 16.0 34.8 19.0 35.0 C 24.6 34.8 30.9 36.3 35.8 32.7 C 39.1 29.0 44.2 26.2 45.0 20.9 Z" />
<path fill="#000101" stroke="#000101" stroke-width="0.09375" opacity="0.24" d=" M 35.0 31.0 C 38.1 27.4 41.4 24.0 45.0 20.9 C 44.2 26.2 39.1 29.0 35.8 32.7 C 30.9 36.3 24.6 34.8 19.0 35.0 C 16.0 34.8 12.0 34.9 9.9 32.2 C 17.8 31.8 25.9 32.3 33.9 31.9 C 34.1 31.7 34.7 31.2 35.0 31.0 Z" />
<path fill="#33899f" stroke="#33899f" stroke-width="0.09375" opacity="1.00" d=" M 26.0 27.0 C 29.9 27.9 32.7 25.2 36.1 24.0 C 35.0 25.4 34.0 26.8 33.1 28.2 C 26.3 29.7 18.9 28.9 11.9 29.0 C 11.6 28.1 11.3 27.1 11.0 26.0 C 15.7 28.1 21.1 26.6 26.0 27.0 Z" />
<path fill="#051011" stroke="#051011" stroke-width="0.09375" opacity="0.39" d=" M 8.8 31.2 C 17.5 30.7 26.3 31.2 35.0 31.0 C 34.7 31.2 34.1 31.7 33.9 31.9 C 25.9 32.3 17.8 31.8 9.9 32.2 C 9.6 31.9 9.1 31.4 8.8 31.2 Z" />
</svg>
