<?xml version="1.0" encoding="UTF-8" ?>
<!DOCTYPE svg PUBLIC "-//W3C//DTD SVG 1.1//EN" "http://www.w3.org/Graphics/SVG/1.1/DTD/svg11.dtd">
<svg width="368pt" height="20pt" viewBox="0 0 368 20" version="1.1" xmlns="http://www.w3.org/2000/svg">
<path fill="#4bacc6" stroke="#4bacc6" stroke-width="0.09375" opacity="1.00" d=" M 7.0 3.0 C 125.0 3.0 243.1 3.0 361.1 3.0 C 361.1 5.0 361.2 6.9 361.2 8.9 C 360.9 8.9 360.3 9.0 360.1 9.0 C 242.7 9.0 125.3 9.0 7.9 9.0 C 7.7 9.0 7.2 9.0 6.9 8.9 C 7.0 7.0 7.0 5.0 7.0 3.0 Z" />
<path fill="#000000" stroke="#000000" stroke-width="0.09375" opacity="0.14" d=" M 6.1 11.8 C 5.0 10.9 5.3 8.5 6.9 8.9 C 7.2 9.0 7.7 9.0 7.9 9.0 C 9.5 10.8 11.3 12.9 14.0 12.4 C 125.0 12.4 236.0 12.4 347.0 12.4 C 351.5 12.2 357.3 13.8 360.1 9.0 C 360.3 9.0 360.9 8.9 361.2 8.9 C 361.6 8.9 362.5 8.8 362.9 8.7 C 363.1 12.1 360.6 15.3 357.0 14.6 C 242.0 14.7 127.0 14.6 12.0 14.6 C 9.6 14.9 7.1 14.2 6.1 11.8 Z" />
<path fill="#000000" stroke="#000000" stroke-width="0.09375" opacity="0.29" d=" M 7.9 9.0 C 125.3 9.0 242.7 9.0 360.1 9.0 C 357.3 13.8 351.5 12.2 347.0 12.4 C 236.0 12.4 125.0 12.4 14.0 12.4 C 11.3 12.9 9.5 10.8 7.9 9.0 Z" />
</svg>
