<?xml version="1.0" encoding="UTF-8" ?>
<!DOCTYPE svg PUBLIC "-//W3C//DTD SVG 1.1//EN" "http://www.w3.org/Graphics/SVG/1.1/DTD/svg11.dtd">
<svg width="598pt" height="20pt" viewBox="0 0 598 20" version="1.1" xmlns="http://www.w3.org/2000/svg">
<path fill="#4f81bd" stroke="#4f81bd" stroke-width="0.09375" opacity="1.00" d=" M 7.0 3.0 C 201.7 3.0 396.5 3.0 591.2 3.0 C 591.2 5.0 591.3 7.0 591.4 8.9 C 396.6 9.1 201.8 9.0 6.9 9.0 L 6.9 7.8 C 7.0 6.2 7.0 4.6 7.0 3.0 Z" />
<path fill="#000000" stroke="#000000" stroke-width="0.09375" opacity="0.26" d=" M 7.3 12.7 C 5.8 11.5 6.8 9.4 6.9 7.8 L 6.9 9.0 C 201.8 9.0 396.6 9.1 591.4 8.9 C 592.2 11.3 590.7 14.1 588.0 13.5 C 395.7 13.6 203.3 13.5 11.0 13.6 C 9.7 13.4 8.2 13.8 7.3 12.7 Z" />
</svg>
