<?xml version="1.0" encoding="UTF-8" ?>
<!DOCTYPE svg PUBLIC "-//W3C//DTD SVG 1.1//EN" "http://www.w3.org/Graphics/SVG/1.1/DTD/svg11.dtd">
<svg width="113pt" height="113pt" viewBox="0 0 113 113" version="1.1" xmlns="http://www.w3.org/2000/svg">
<path fill="#040e1a" stroke="#040e1a" stroke-width="0.09375" opacity="0.21" d=" M 33.4 1.7 C 48.6 1.4 63.8 1.6 79.0 1.6 C 84.5 2.2 90.8 2.0 95.1 6.0 C 99.0 9.8 100.2 15.7 100.4 21.0 C 100.4 44.3 100.4 67.6 100.5 91.0 C 100.3 96.1 99.6 101.9 95.7 105.7 C 91.9 109.7 85.9 109.9 80.8 110.4 C 66.2 110.5 51.6 110.4 37.1 110.5 C 32.6 110.5 28.2 110.1 23.9 109.0 C 19.7 107.9 16.3 104.3 15.0 100.2 C 13.1 94.7 13.6 88.7 13.6 83.0 C 13.6 62.3 13.6 41.7 13.5 21.0 C 13.8 15.7 15.0 9.8 18.9 6.0 C 22.7 2.3 28.4 2.4 33.4 1.7 M 26.4 5.9 C 22.6 6.4 19.4 9.3 18.3 13.0 C 16.9 17.9 16.7 23.0 16.6 28.0 C 16.9 45.0 16.2 62.0 17.1 79.0 C 16.7 82.3 16.5 85.7 17.0 89.0 C 17.7 93.3 16.6 98.1 19.3 101.8 C 20.7 104.3 23.4 105.8 26.2 106.2 C 39.4 108.1 52.7 107.1 66.0 107.3 C 73.5 107.5 81.0 107.4 88.5 106.1 C 92.9 105.4 96.1 101.3 96.4 97.0 C 96.8 93.0 97.2 89.0 97.4 85.0 C 97.3 66.7 97.3 48.3 97.4 30.0 C 97.4 23.9 97.6 17.4 95.1 11.6 C 93.8 8.5 90.8 6.4 87.5 5.9 C 81.4 4.9 75.2 4.3 69.0 5.0 C 64.7 4.4 60.3 4.9 56.0 5.3 C 46.2 4.3 36.2 4.3 26.4 5.9 Z" />
<path fill="#09213e" stroke="#09213e" stroke-width="0.09375" opacity="0.40" d=" M 26.4 5.9 C 36.2 4.3 46.2 4.3 56.0 5.3 C 60.3 4.9 64.7 4.4 69.0 5.0 C 75.2 4.3 81.4 4.9 87.5 5.9 C 90.8 6.4 93.8 8.5 95.1 11.6 C 97.6 17.4 97.4 23.9 97.4 30.0 C 97.3 48.3 97.3 66.7 97.4 85.0 C 97.2 89.0 96.8 93.0 96.4 97.0 C 96.1 101.3 92.9 105.4 88.5 106.1 C 81.0 107.4 73.5 107.5 66.0 107.3 C 52.7 107.1 39.4 108.1 26.2 106.2 C 23.4 105.8 20.7 104.3 19.3 101.8 C 16.6 98.1 17.7 93.3 17.0 89.0 C 16.5 85.7 16.7 82.3 17.1 79.0 C 16.2 62.0 16.9 45.0 16.6 28.0 C 16.7 23.0 16.9 17.9 18.3 13.0 C 19.4 9.3 22.6 6.4 26.4 5.9 M 29.3 8.6 C 27.1 8.9 24.8 9.6 23.0 11.1 C 21.1 13.2 20.4 16.1 20.4 19.0 C 20.5 44.3 20.4 69.6 20.5 94.9 C 20.3 97.9 21.9 100.8 24.5 102.2 C 27.1 103.8 30.2 103.5 33.1 103.6 C 50.3 103.5 67.6 103.7 84.9 103.5 C 89.5 103.6 93.8 99.7 93.5 95.0 C 93.6 69.6 93.5 44.3 93.6 19.0 C 93.6 16.0 92.8 12.7 90.5 10.7 C 86.9 8.1 82.2 8.4 78.0 8.4 C 61.8 8.6 45.5 8.2 29.3 8.6 Z" />
<path fill="#0e3058" stroke="#0e3058" stroke-width="0.09375" opacity="0.58" d=" M 29.3 8.6 C 45.5 8.2 61.8 8.6 78.0 8.4 C 82.2 8.4 86.9 8.1 90.5 10.7 C 92.8 12.7 93.6 16.0 93.6 19.0 C 93.5 44.3 93.6 69.6 93.5 95.0 C 93.8 99.7 89.5 103.6 84.9 103.5 C 67.6 103.7 50.3 103.5 33.1 103.6 C 30.2 103.5 27.1 103.8 24.5 102.2 C 21.9 100.8 20.3 97.9 20.5 94.9 C 20.4 69.6 20.5 44.3 20.4 19.0 C 20.4 16.1 21.1 13.2 23.0 11.1 C 24.8 9.6 27.1 8.9 29.3 8.6 M 26.1 14.7 C 26.2 42.4 26.0 70.2 26.2 97.9 C 46.8 98.1 67.4 98.0 87.9 97.9 C 88.1 70.2 88.0 42.4 88.0 14.7 C 67.4 14.4 46.7 14.3 26.1 14.7 Z" />
<path fill="#ffffff" stroke="#ffffff" stroke-width="0.09375" opacity="1.00" d=" M 26.1 14.7 C 46.7 14.3 67.4 14.4 88.0 14.7 C 88.0 42.4 88.1 70.2 87.9 97.9 C 67.4 98.0 46.8 98.1 26.2 97.9 C 26.0 70.2 26.2 42.4 26.1 14.7 M 30.7 19.3 C 30.7 44.0 30.7 68.7 30.7 93.5 C 48.3 93.5 65.8 93.5 83.4 93.5 C 83.4 68.8 83.4 44.0 83.4 19.3 C 65.8 19.2 48.3 19.3 30.7 19.3 Z" />
<path fill="#0e315b" stroke="#0e315b" stroke-width="0.09375" opacity="0.63" d=" M 30.7 19.3 C 48.3 19.3 65.8 19.2 83.4 19.3 C 83.4 44.0 83.4 68.8 83.4 93.5 C 65.8 93.5 48.3 93.5 30.7 93.5 C 30.7 68.7 30.7 44.0 30.7 19.3 M 36.9 25.7 C 37.0 27.1 37.1 28.5 37.2 29.9 C 50.5 30.0 63.8 30.1 77.0 29.9 C 77.1 28.5 77.1 27.1 77.2 25.6 C 68.2 24.8 59.1 25.5 50.0 25.3 C 45.6 25.4 41.2 24.8 36.9 25.7 M 36.8 36.5 C 37.3 38.1 36.2 41.4 38.8 41.0 C 51.5 41.0 64.2 41.1 76.9 40.9 C 77.0 39.2 78.0 35.7 75.1 36.3 C 62.3 36.4 49.6 35.9 36.8 36.5 M 38.2 47.3 C 36.0 47.4 37.4 50.3 37.2 51.8 C 50.5 51.7 63.8 51.8 77.0 51.7 C 77.0 50.2 77.0 48.8 77.0 47.3 C 64.1 47.3 51.1 47.2 38.2 47.3 M 37.3 58.3 C 37.0 59.7 36.9 61.0 36.8 62.4 C 50.2 63.2 63.6 62.6 77.0 62.7 C 77.0 61.2 77.1 59.7 77.1 58.2 C 66.0 57.8 55.0 58.1 44.0 58.0 C 41.8 58.0 39.5 57.8 37.3 58.3 M 37.0 69.1 C 37.2 70.7 36.2 74.1 38.8 73.7 C 51.6 73.6 64.4 74.1 77.1 73.4 C 77.1 72.0 77.1 70.6 77.1 69.1 C 63.7 68.9 50.4 68.9 37.0 69.1 M 37.1 79.9 C 37.0 81.4 37.0 82.8 37.0 84.3 C 50.4 84.7 63.8 84.6 77.2 84.3 C 77.1 82.8 77.1 81.4 77.0 79.9 C 63.7 79.7 50.4 79.6 37.1 79.9 Z" />
<path fill="#ffffff" stroke="#ffffff" stroke-width="0.09375" opacity="1.00" d=" M 36.9 25.7 C 41.2 24.8 45.6 25.4 50.0 25.3 C 59.1 25.5 68.2 24.8 77.2 25.6 C 77.1 27.1 77.1 28.5 77.0 29.9 C 63.8 30.1 50.5 30.0 37.2 29.9 C 37.1 28.5 37.0 27.1 36.9 25.7 Z" />
<path fill="#ffffff" stroke="#ffffff" stroke-width="0.09375" opacity="1.00" d=" M 36.8 36.5 C 49.6 35.9 62.3 36.4 75.1 36.3 C 78.0 35.7 77.0 39.2 76.9 40.9 C 64.2 41.1 51.5 41.0 38.8 41.0 C 36.2 41.4 37.3 38.1 36.8 36.5 Z" />
<path fill="#ffffff" stroke="#ffffff" stroke-width="0.09375" opacity="1.00" d=" M 38.2 47.3 C 51.1 47.2 64.1 47.3 77.0 47.3 C 77.0 48.8 77.0 50.2 77.0 51.7 C 63.8 51.8 50.5 51.7 37.2 51.8 C 37.4 50.3 36.0 47.4 38.2 47.3 Z" />
<path fill="#ffffff" stroke="#ffffff" stroke-width="0.09375" opacity="1.00" d=" M 37.3 58.3 C 39.5 57.8 41.8 58.0 44.0 58.0 C 55.0 58.1 66.0 57.8 77.1 58.2 C 77.1 59.7 77.0 61.2 77.0 62.7 C 63.6 62.6 50.2 63.2 36.8 62.4 C 36.9 61.0 37.0 59.7 37.3 58.3 Z" />
<path fill="#ffffff" stroke="#ffffff" stroke-width="0.09375" opacity="1.00" d=" M 37.0 69.1 C 50.4 68.9 63.7 68.9 77.1 69.1 C 77.1 70.6 77.1 72.0 77.1 73.4 C 64.4 74.1 51.6 73.6 38.8 73.7 C 36.2 74.1 37.2 70.7 37.0 69.1 Z" />
<path fill="#ffffff" stroke="#ffffff" stroke-width="0.09375" opacity="1.00" d=" M 37.1 79.9 C 50.4 79.6 63.7 79.7 77.0 79.9 C 77.1 81.4 77.1 82.8 77.2 84.3 C 63.8 84.6 50.4 84.7 37.0 84.3 C 37.0 82.8 37.0 81.4 37.1 79.9 Z" />
</svg>
