<?xml version="1.0" encoding="UTF-8" ?>
<!DOCTYPE svg PUBLIC "-//W3C//DTD SVG 1.1//EN" "http://www.w3.org/Graphics/SVG/1.1/DTD/svg11.dtd">
<svg width="480pt" height="174pt" viewBox="0 0 480 174" version="1.1" xmlns="http://www.w3.org/2000/svg">
<path fill="#ffffff" stroke="#ffffff" stroke-width="0.09375" opacity="1.00" d=" M 0.2 24.0 C 0.0 11.9 10.8 1.1 22.9 1.3 C 167.6 1.2 312.3 1.3 457.0 1.3 C 468.8 0.9 479.4 11.1 480.0 22.8 L 480.0 174.0 L 476.1 174.0 C 476.1 124.3 476.2 74.6 476.1 25.0 C 476.2 18.0 472.5 11.0 466.3 7.7 C 461.1 4.6 454.8 5.0 449.0 5.0 C 308.0 5.0 167.0 5.0 26.0 5.0 C 21.1 5.0 16.0 5.9 12.0 8.9 C 6.6 12.7 3.8 19.4 4.0 25.9 C 4.0 75.3 4.0 124.6 4.0 174.0 L 0.1 174.0 C 0.2 124.0 0.1 74.0 0.2 24.0 Z" />
<path fill="#4f81bd" stroke="#4f81bd" stroke-width="0.09375" opacity="1.00" d=" M 12.0 8.9 C 16.0 5.9 21.1 5.0 26.0 5.0 C 167.0 5.0 308.0 5.0 449.0 5.0 C 454.8 5.0 461.1 4.6 466.3 7.7 C 472.5 11.0 476.2 18.0 476.1 25.0 C 476.2 74.6 476.1 124.3 476.1 174.0 L 4.0 174.0 C 4.0 124.6 4.0 75.3 4.0 25.9 C 3.8 19.4 6.6 12.7 12.0 8.9 Z" />
</svg>
