<?xml version="1.0" encoding="UTF-8" ?>
<!DOCTYPE svg PUBLIC "-//W3C//DTD SVG 1.1//EN" "http://www.w3.org/Graphics/SVG/1.1/DTD/svg11.dtd">
<svg width="117pt" height="117pt" viewBox="0 0 117 117" version="1.1" xmlns="http://www.w3.org/2000/svg">
<path fill="#061527" stroke="#061527" stroke-width="0.09375" opacity="0.27" d=" M 20.4 5.7 C 44.9 5.3 69.5 5.6 94.1 5.5 C 99.3 5.8 105.4 6.9 108.5 11.6 C 110.2 14.4 111.6 17.6 111.5 20.9 C 111.5 46.0 111.5 71.0 111.5 96.0 C 111.7 101.3 109.3 107.0 104.8 109.9 C 101.2 111.7 97.1 112.6 93.0 112.5 C 69.3 112.4 45.7 112.5 22.0 112.5 C 17.3 112.0 12.0 111.1 9.0 107.0 C 6.9 104.1 5.4 100.7 5.5 97.1 C 5.5 72.0 5.5 47.0 5.5 21.9 C 5.3 16.6 7.7 11.0 12.2 8.1 C 14.8 6.8 17.6 6.1 20.4 5.7 M 19.4 9.6 C 13.9 9.8 9.3 14.5 9.5 20.0 C 9.4 45.7 9.4 71.3 9.4 97.0 C 9.3 100.1 10.4 103.2 12.4 105.5 C 15.0 107.9 18.6 108.6 22.0 108.6 C 46.3 108.6 70.7 108.6 95.0 108.6 C 98.4 108.6 102.0 107.9 104.5 105.5 C 106.6 103.2 107.7 100.1 107.6 97.0 C 107.6 71.7 107.6 46.3 107.6 21.0 C 107.7 18.1 106.8 15.3 105.0 13.1 C 102.4 9.9 97.9 9.3 94.0 9.4 C 69.1 9.5 44.2 9.2 19.4 9.6 Z" />
<path fill="#0c2b4f" stroke="#0c2b4f" stroke-width="0.09375" opacity="0.50" d=" M 19.4 9.6 C 44.2 9.2 69.1 9.5 94.0 9.4 C 97.9 9.3 102.4 9.9 105.0 13.1 C 106.8 15.3 107.7 18.1 107.6 21.0 C 107.6 46.3 107.6 71.7 107.6 97.0 C 107.7 100.1 106.6 103.2 104.5 105.5 C 102.0 107.9 98.4 108.6 95.0 108.6 C 70.7 108.6 46.3 108.6 22.0 108.6 C 18.6 108.6 15.0 107.9 12.4 105.5 C 10.4 103.2 9.3 100.1 9.4 97.0 C 9.4 71.3 9.4 45.7 9.5 20.0 C 9.3 14.5 13.9 9.8 19.4 9.6 M 21.3 13.7 C 17.5 14.1 13.3 16.7 13.5 20.9 C 13.3 45.3 13.5 69.6 13.4 94.0 C 13.4 95.9 13.2 98.0 13.9 99.8 C 15.5 103.1 19.3 104.8 22.9 104.6 C 47.0 104.5 71.0 104.6 95.1 104.5 C 99.2 104.7 103.6 101.5 103.5 97.1 C 103.7 72.4 103.5 47.7 103.6 23.0 C 103.7 20.4 103.2 17.6 101.2 15.9 C 98.0 13.5 93.8 13.4 90.0 13.4 C 67.1 13.7 44.2 13.2 21.3 13.7 Z" />
<path fill="#0e315a" stroke="#0e315a" stroke-width="0.09375" opacity="0.63" d=" M 21.3 13.7 C 44.2 13.2 67.1 13.7 90.0 13.4 C 93.8 13.4 98.0 13.5 101.2 15.9 C 103.2 17.6 103.7 20.4 103.6 23.0 C 103.5 47.7 103.7 72.4 103.5 97.1 C 103.6 101.5 99.2 104.7 95.1 104.5 C 71.0 104.6 47.0 104.5 22.9 104.6 C 19.3 104.8 15.5 103.1 13.9 99.8 C 13.2 98.0 13.4 95.9 13.4 94.0 C 13.5 69.6 13.3 45.3 13.5 20.9 C 13.3 16.7 17.5 14.1 21.3 13.7 M 16.6 17.8 C 16.8 45.5 16.4 73.3 16.8 101.0 C 44.6 101.0 72.4 101.0 100.2 101.0 C 100.4 74.6 100.2 48.3 100.3 22.0 C 100.3 20.5 100.2 19.0 100.0 17.5 C 73.3 17.5 46.6 17.5 19.9 17.5 C 18.8 17.5 17.7 17.6 16.6 17.8 Z" />
<path fill="#ffffff" stroke="#ffffff" stroke-width="0.09375" opacity="1.00" d=" M 16.6 17.8 C 17.7 17.6 18.8 17.5 19.9 17.5 C 46.6 17.5 73.3 17.5 100.0 17.5 C 100.2 19.0 100.3 20.5 100.3 22.0 C 100.2 48.3 100.4 74.6 100.2 101.0 C 72.4 101.0 44.6 101.0 16.8 101.0 C 16.4 73.3 16.8 45.5 16.6 17.8 M 26.8 27.8 C 26.7 48.8 26.8 69.9 26.7 91.0 C 47.9 91.0 69.0 91.0 90.1 91.0 C 90.1 69.9 90.1 48.8 90.1 27.8 C 69.0 27.7 47.9 27.7 26.8 27.8 Z" />
<path fill="#0e315b" stroke="#0e315b" stroke-width="0.09375" opacity="0.59" d=" M 26.8 27.8 C 47.9 27.7 69.0 27.7 90.1 27.8 C 90.1 48.8 90.1 69.9 90.1 91.0 C 69.0 91.0 47.9 91.0 26.7 91.0 C 26.8 69.9 26.7 48.8 26.8 27.8 M 31.2 39.1 C 37.6 46.1 44.6 52.5 51.2 59.3 C 44.7 65.9 37.9 72.3 31.6 79.0 C 32.4 82.2 36.1 84.1 38.3 86.6 C 45.2 80.1 51.7 73.2 58.4 66.6 C 65.3 73.2 71.6 80.3 78.8 86.5 C 81.1 84.2 83.5 81.9 85.7 79.6 C 79.3 72.6 72.3 66.1 65.7 59.3 C 72.4 52.5 79.2 46.0 85.7 39.1 C 83.5 36.7 81.2 34.5 79.0 32.2 C 78.0 32.8 77.0 33.4 76.2 34.2 C 70.3 40.2 64.4 46.1 58.4 52.0 C 51.6 45.5 45.3 38.3 38.0 32.1 C 35.7 34.4 33.4 36.7 31.2 39.1 Z" />
<path fill="#ffffff" stroke="#ffffff" stroke-width="0.09375" opacity="1.00" d=" M 31.2 39.1 C 33.4 36.7 35.7 34.4 38.0 32.1 C 45.3 38.3 51.6 45.5 58.4 52.0 C 64.4 46.1 70.3 40.2 76.2 34.2 C 77.0 33.4 78.0 32.8 79.0 32.2 C 81.2 34.5 83.5 36.7 85.7 39.1 C 79.2 46.0 72.4 52.5 65.7 59.3 C 72.3 66.1 79.3 72.6 85.7 79.6 C 83.5 81.9 81.1 84.2 78.8 86.5 C 71.6 80.3 65.3 73.2 58.4 66.6 C 51.7 73.2 45.2 80.1 38.3 86.6 C 36.1 84.1 32.4 82.2 31.6 79.0 C 37.9 72.3 44.7 65.9 51.2 59.3 C 44.6 52.5 37.6 46.1 31.2 39.1 Z" />
</svg>
