<?xml version="1.0" encoding="UTF-8" ?>
<!DOCTYPE svg PUBLIC "-//W3C//DTD SVG 1.1//EN" "http://www.w3.org/Graphics/SVG/1.1/DTD/svg11.dtd">
<svg width="276pt" height="292pt" viewBox="0 0 276 292" version="1.1" xmlns="http://www.w3.org/2000/svg">
<path fill="#030b15" stroke="#030b15" stroke-width="0.09375" opacity="0.16" d=" M 96.4 86.4 C 103.8 81.2 113.4 82.6 122.0 82.4 C 132.6 82.1 144.2 84.2 151.9 92.1 C 160.4 99.8 162.0 112.7 159.6 123.4 C 158.8 128.0 155.4 131.9 155.5 136.7 C 157.9 144.9 162.6 152.5 164.1 161.0 C 165.4 167.1 163.3 174.4 157.9 178.0 C 151.4 181.4 143.3 181.3 136.6 178.4 C 132.2 176.7 130.1 172.2 126.3 169.7 C 124.0 172.8 122.1 176.7 118.4 178.4 C 111.8 181.3 103.7 181.3 97.4 177.7 C 92.2 174.4 90.4 167.8 90.4 162.0 C 90.4 142.0 90.4 122.0 90.4 102.1 C 90.4 96.4 92.0 90.3 96.4 86.4 M 99.2 88.3 C 94.9 91.3 93.5 97.0 93.4 102.0 C 93.4 121.7 93.4 141.4 93.4 161.0 C 93.4 166.1 94.5 172.0 99.0 175.0 C 104.8 178.2 112.2 178.2 118.0 175.0 C 123.0 171.6 123.3 165.0 125.2 159.8 C 129.4 163.6 130.8 169.4 134.5 173.5 C 139.9 177.8 147.8 178.5 154.2 176.2 C 159.2 174.6 161.6 168.9 161.4 164.0 C 160.6 157.2 157.8 150.9 155.2 144.7 C 153.7 141.1 151.5 137.3 152.6 133.2 C 153.9 129.1 156.3 125.4 157.0 121.0 C 158.8 111.3 156.8 99.9 148.7 93.4 C 141.6 86.7 131.4 85.2 122.0 85.4 C 114.4 85.6 106.1 84.3 99.2 88.3 Z" />
<path fill="#081d35" stroke="#081d35" stroke-width="0.09375" opacity="0.36" d=" M 99.2 88.3 C 106.1 84.3 114.4 85.6 122.0 85.4 C 131.4 85.2 141.6 86.7 148.7 93.4 C 156.8 99.9 158.8 111.3 157.0 121.0 C 156.3 125.4 153.9 129.1 152.6 133.2 C 151.5 137.3 153.7 141.1 155.2 144.7 C 157.8 150.9 160.6 157.2 161.4 164.0 C 161.6 168.9 159.2 174.6 154.2 176.2 C 147.8 178.5 139.9 177.8 134.5 173.5 C 130.8 169.4 129.4 163.6 125.2 159.8 C 123.3 165.0 123.0 171.6 118.0 175.0 C 112.2 178.2 104.8 178.2 99.0 175.0 C 94.5 172.0 93.4 166.1 93.4 161.0 C 93.4 141.4 93.4 121.7 93.4 102.0 C 93.5 97.0 94.9 91.3 99.2 88.3 M 102.1 90.3 C 97.8 92.4 96.4 97.6 96.5 102.0 C 96.5 122.0 96.5 142.0 96.5 162.0 C 96.5 166.1 97.7 171.2 101.9 173.0 C 106.5 174.8 112.0 174.6 116.5 172.4 C 121.7 168.3 119.8 161.1 121.3 155.5 C 121.8 153.1 124.0 152.3 126.2 152.0 C 129.4 156.7 131.4 162.1 133.9 167.3 C 137.1 174.1 146.1 175.9 152.6 173.4 C 156.5 172.2 158.6 167.8 158.2 164.0 C 157.2 154.6 152.1 146.5 149.1 137.7 C 147.4 134.1 150.1 130.8 151.5 127.6 C 156.7 117.2 155.6 102.6 146.0 95.1 C 138.9 88.9 128.9 88.4 120.0 88.5 C 114.0 88.7 107.7 87.7 102.1 90.3 Z" />
<path fill="#0e2f58" stroke="#0e2f58" stroke-width="0.09375" opacity="0.57" d=" M 102.1 90.3 C 107.7 87.7 114.0 88.7 120.0 88.5 C 128.9 88.4 138.9 88.9 146.0 95.1 C 155.6 102.6 156.7 117.2 151.5 127.6 C 150.1 130.8 147.4 134.1 149.1 137.7 C 152.1 146.5 157.2 154.6 158.2 164.0 C 158.6 167.8 156.5 172.2 152.6 173.4 C 146.1 175.9 137.1 174.1 133.9 167.3 C 131.4 162.1 129.4 156.7 126.2 152.0 C 124.0 152.3 121.8 153.1 121.3 155.5 C 119.8 161.1 121.7 168.3 116.5 172.4 C 112.0 174.6 106.5 174.8 101.9 173.0 C 97.7 171.2 96.5 166.1 96.5 162.0 C 96.5 142.0 96.5 122.0 96.5 102.0 C 96.4 97.6 97.8 92.4 102.1 90.3 M 102.8 102.0 C 102.9 122.7 102.8 143.3 102.9 164.0 C 103.0 165.4 102.7 167.2 104.3 167.8 C 107.5 169.1 111.2 168.7 114.4 167.3 C 114.4 157.0 114.4 146.6 114.4 136.2 C 118.8 136.4 123.6 135.9 127.3 138.7 C 131.3 141.9 133.0 146.8 134.8 151.3 C 137.2 156.7 138.6 162.4 141.5 167.4 C 144.9 169.4 149.3 168.7 152.8 167.2 C 152.0 161.5 149.1 156.5 147.1 151.1 C 144.3 144.5 142.0 137.1 136.0 132.6 C 140.8 130.6 145.3 127.2 147.1 122.1 C 149.6 114.7 148.4 105.1 141.9 100.1 C 135.2 94.7 126.1 94.7 118.0 94.7 C 114.1 94.9 110.1 94.4 106.2 95.1 C 103.0 95.8 102.9 99.4 102.8 102.0 Z" />
<path fill="#ffffff" stroke="#ffffff" stroke-width="0.09375" opacity="1.00" d=" M 102.8 102.0 C 102.9 99.4 103.0 95.8 106.2 95.1 C 110.1 94.4 114.1 94.9 118.0 94.7 C 126.1 94.7 135.2 94.7 141.9 100.1 C 148.4 105.1 149.6 114.7 147.1 122.1 C 145.3 127.2 140.8 130.6 136.0 132.6 C 142.0 137.1 144.3 144.5 147.1 151.1 C 149.1 156.5 152.0 161.5 152.8 167.2 C 149.3 168.7 144.9 169.4 141.5 167.4 C 138.6 162.4 137.2 156.7 134.8 151.3 C 133.0 146.8 131.3 141.9 127.3 138.7 C 123.6 135.9 118.8 136.4 114.4 136.2 C 114.4 146.6 114.4 157.0 114.4 167.3 C 111.2 168.7 107.5 169.1 104.3 167.8 C 102.7 167.2 103.0 165.4 102.9 164.0 C 102.8 143.3 102.9 122.7 102.8 102.0 M 114.4 126.7 C 119.9 126.6 125.9 127.6 131.0 125.0 C 137.9 121.6 138.2 110.2 131.5 106.5 C 126.2 103.7 120.1 105.1 114.4 104.8 C 114.4 112.1 114.4 119.4 114.4 126.7 Z" />
<path fill="#0e315b" stroke="#0e315b" stroke-width="0.09375" opacity="0.60" d=" M 114.4 126.7 C 114.4 119.4 114.4 112.1 114.4 104.8 C 120.1 105.1 126.2 103.7 131.5 106.5 C 138.2 110.2 137.9 121.6 131.0 125.0 C 125.9 127.6 119.9 126.6 114.4 126.7 M 123.3 111.2 C 119.1 112.4 119.3 118.6 123.0 120.4 C 125.5 120.9 128.3 119.4 129.2 116.9 C 130.6 113.6 126.4 110.0 123.3 111.2 Z" />
<path fill="#0c2a4f" stroke="#0c2a4f" stroke-width="0.09375" opacity="0.51" d=" M 123.3 111.2 C 126.4 110.0 130.6 113.6 129.2 116.9 C 128.3 119.4 125.5 120.9 123.0 120.4 C 119.3 118.6 119.1 112.4 123.3 111.2 Z" />
</svg>
