<?xml version="1.0" encoding="UTF-8" ?>
<!DOCTYPE svg PUBLIC "-//W3C//DTD SVG 1.1//EN" "http://www.w3.org/Graphics/SVG/1.1/DTD/svg11.dtd">
<svg width="138pt" height="138pt" viewBox="0 0 138 138" version="1.1" xmlns="http://www.w3.org/2000/svg">
<path fill="#051323" stroke="#051323" stroke-width="0.09375" opacity="0.25" d=" M 46.5 26.6 C 50.0 24.2 53.7 21.6 58.1 21.6 C 63.4 21.5 68.8 21.1 74.1 21.9 C 78.3 22.4 81.3 25.6 84.9 27.4 C 88.2 28.8 91.8 28.6 95.3 28.6 C 97.7 26.1 100.2 23.0 103.9 22.7 C 109.0 22.4 114.1 22.4 119.1 22.7 C 124.5 23.2 128.1 28.9 127.4 34.0 C 126.7 38.7 126.1 43.3 126.4 48.1 C 126.3 51.7 127.0 55.7 125.3 59.2 C 124.0 61.8 121.0 62.8 118.6 64.1 C 118.3 69.7 118.7 75.4 118.5 81.0 C 118.4 85.6 115.5 89.5 113.3 93.4 C 111.1 96.8 111.8 101.2 109.6 104.6 C 107.8 108.0 104.9 110.5 102.2 113.2 C 99.9 115.5 97.6 118.0 94.6 119.5 C 91.7 120.8 88.3 120.2 85.3 121.3 C 82.1 122.9 79.5 125.7 75.9 126.7 C 72.4 127.7 68.6 127.5 65.0 127.6 C 61.4 127.6 57.7 127.7 54.1 126.6 C 50.6 125.7 48.0 122.9 44.8 121.3 C 41.5 120.1 37.8 120.9 34.7 119.1 C 30.8 116.8 28.0 113.3 24.8 110.3 C 21.6 107.2 19.0 103.3 18.5 98.9 C 18.0 93.8 14.2 90.1 12.4 85.6 C 11.1 82.2 11.5 78.6 11.4 75.0 C 11.6 71.1 11.0 67.1 12.5 63.4 C 13.7 60.2 15.9 57.5 17.4 54.4 C 18.6 51.4 18.6 48.0 20.0 45.1 C 21.7 41.6 24.6 39.0 27.3 36.3 C 29.6 34.0 31.9 31.5 34.8 29.9 C 38.4 27.9 43.1 29.1 46.5 26.6 M 54.5 26.3 C 51.9 27.4 49.9 29.6 47.4 31.0 C 44.4 31.9 41.2 31.9 38.2 32.9 C 33.3 34.7 30.0 38.9 26.5 42.5 C 23.8 45.2 22.4 48.8 22.1 52.6 C 21.8 57.2 18.0 60.4 16.3 64.5 C 14.1 70.7 14.1 77.5 16.0 83.8 C 17.2 87.9 21.2 90.6 21.8 94.9 C 22.5 98.3 22.7 102.0 25.1 104.7 C 28.1 108.5 31.5 112.0 35.4 114.8 C 39.0 117.3 43.7 116.3 47.5 118.0 C 50.9 119.9 53.7 123.3 57.9 123.5 C 63.0 123.9 68.0 124.0 73.1 123.4 C 78.0 122.7 80.7 117.4 85.8 117.1 C 88.8 116.5 92.1 116.7 94.6 114.8 C 98.7 111.8 102.3 108.2 105.3 104.2 C 108.0 100.8 107.4 96.3 108.9 92.6 C 110.1 90.0 112.1 87.8 113.4 85.3 C 116.4 78.2 114.6 70.5 114.6 63.1 C 118.3 61.9 123.5 60.6 124.1 56.0 C 124.9 50.1 123.8 44.1 124.7 38.1 C 125.0 35.3 126.0 32.2 124.7 29.5 C 123.7 26.3 120.3 24.6 117.1 24.7 C 112.7 24.5 108.3 24.4 104.0 24.9 C 100.0 25.5 97.0 29.2 97.3 33.3 C 93.1 33.6 89.1 32.3 85.0 31.6 C 81.1 31.3 79.0 27.6 75.5 26.3 C 68.7 24.2 61.3 24.3 54.5 26.3 Z" />
<path fill="#0b2748" stroke="#0b2748" stroke-width="0.09375" opacity="0.45" d=" M 54.5 26.3 C 61.3 24.3 68.7 24.2 75.5 26.3 C 79.0 27.6 81.1 31.3 85.0 31.6 C 89.1 32.3 93.1 33.6 97.3 33.3 C 96.8 34.6 96.2 35.9 95.6 37.2 C 91.6 35.8 87.4 35.2 83.3 34.4 C 79.0 33.4 76.4 28.9 72.0 28.3 C 67.4 27.5 62.6 27.6 58.0 28.3 C 54.0 28.9 51.5 32.5 48.0 34.0 C 43.9 35.5 39.0 34.7 35.4 37.5 C 32.4 39.8 29.8 42.6 27.5 45.6 C 24.6 49.5 25.6 54.9 22.9 58.9 C 21.1 61.8 18.7 64.5 18.2 68.0 C 17.6 72.6 17.5 77.3 18.4 81.9 C 19.3 85.7 22.4 88.5 24.0 92.0 C 25.4 95.8 25.0 100.2 27.6 103.4 C 30.0 106.6 32.7 109.6 36.0 111.9 C 38.9 113.9 42.6 113.8 45.9 114.5 C 50.4 115.0 53.0 119.5 57.3 120.5 C 62.1 121.5 67.1 121.5 71.9 120.7 C 75.8 120.0 78.5 116.7 82.0 115.0 C 86.1 113.6 90.9 114.3 94.5 111.6 C 97.5 109.3 100.1 106.5 102.4 103.4 C 105.4 99.5 104.3 94.1 107.1 90.0 C 109.1 86.9 111.7 83.9 112.0 80.0 C 112.5 74.3 111.3 68.5 112.5 62.8 C 113.0 62.9 114.0 63.1 114.6 63.1 C 114.6 70.5 116.4 78.2 113.4 85.3 C 112.1 87.8 110.1 90.0 108.9 92.6 C 107.4 96.3 108.0 100.8 105.3 104.2 C 102.3 108.2 98.7 111.8 94.6 114.8 C 92.1 116.7 88.8 116.5 85.8 117.1 C 80.7 117.4 78.0 122.7 73.1 123.4 C 68.0 124.0 63.0 123.9 57.9 123.5 C 53.7 123.3 50.9 119.9 47.5 118.0 C 43.7 116.3 39.0 117.3 35.4 114.8 C 31.5 112.0 28.1 108.5 25.1 104.7 C 22.7 102.0 22.5 98.3 21.8 94.9 C 21.2 90.6 17.2 87.9 16.0 83.8 C 14.1 77.5 14.1 70.7 16.3 64.5 C 18.0 60.4 21.8 57.2 22.1 52.6 C 22.4 48.8 23.8 45.2 26.5 42.5 C 30.0 38.9 33.3 34.7 38.2 32.9 C 41.2 31.9 44.4 31.9 47.4 31.0 C 49.9 29.6 51.9 27.4 54.5 26.3 Z" />
<path fill="#0e3059" stroke="#0e3059" stroke-width="0.09375" opacity="0.58" d=" M 97.3 33.3 C 97.0 29.2 100.0 25.5 104.0 24.9 C 108.3 24.4 112.7 24.5 117.1 24.7 C 120.3 24.6 123.7 26.3 124.7 29.5 C 126.0 32.2 125.0 35.3 124.7 38.1 C 123.8 44.1 124.9 50.1 124.1 56.0 C 123.5 60.6 118.3 61.9 114.6 63.1 C 114.0 63.1 113.0 62.9 112.5 62.8 C 115.0 61.3 117.2 59.4 119.2 57.3 C 119.8 56.6 120.4 55.8 120.5 54.9 C 121.1 48.4 119.9 41.8 121.2 35.3 C 121.6 33.3 122.3 30.3 119.9 29.4 C 114.8 27.4 109.0 27.6 103.8 29.1 C 101.5 29.6 101.3 32.1 101.3 34.1 C 99.7 38.4 97.8 42.6 96.4 46.9 C 93.7 44.2 91.1 41.5 88.3 38.8 C 88.1 38.9 87.7 39.0 87.4 39.1 C 83.7 39.9 80.7 42.4 77.8 44.6 C 76.8 40.8 75.9 36.8 74.2 33.2 C 68.2 32.2 62.1 32.9 56.0 32.8 L 55.8 33.4 C 54.1 36.9 53.3 40.7 52.8 44.4 C 49.4 42.4 46.2 40.1 42.4 39.1 C 42.2 39.0 41.8 38.8 41.6 38.7 C 37.5 43.2 32.8 47.1 29.0 51.8 C 30.1 55.7 32.9 58.7 35.0 62.1 C 31.3 62.9 27.8 64.0 24.3 65.5 C 24.0 65.6 23.4 65.8 23.1 65.8 C 23.2 71.8 22.9 77.9 23.4 83.8 C 26.8 86.2 31.1 86.2 35.1 86.7 C 33.0 90.3 30.0 93.3 29.0 97.4 C 32.5 101.7 36.6 105.5 40.5 109.4 C 41.4 110.1 42.3 111.4 43.5 110.5 C 46.6 109.0 49.5 107.3 52.5 105.7 C 53.0 109.4 53.5 113.2 55.6 116.3 C 61.8 116.2 68.0 116.3 74.1 116.2 L 74.1 115.3 C 74.5 110.9 75.2 106.6 75.3 102.2 C 76.9 102.3 78.5 102.5 80.0 102.6 C 82.6 105.3 85.3 108.0 88.0 110.5 C 92.4 106.3 96.8 102.0 100.9 97.5 C 100.7 93.6 97.6 90.7 95.5 87.6 C 99.1 86.4 103.3 86.4 106.3 83.7 C 106.4 83.6 106.6 83.3 106.7 83.1 C 111.1 77.9 108.4 70.8 108.2 64.7 C 109.6 64.1 111.1 63.5 112.5 62.8 C 111.3 68.5 112.5 74.3 112.0 80.0 C 111.7 83.9 109.1 86.9 107.1 90.0 C 104.3 94.1 105.4 99.5 102.4 103.4 C 100.1 106.5 97.5 109.3 94.5 111.6 C 90.9 114.3 86.1 113.6 82.0 115.0 C 78.5 116.7 75.8 120.0 71.9 120.7 C 67.1 121.5 62.1 121.5 57.3 120.5 C 53.0 119.5 50.4 115.0 45.9 114.5 C 42.6 113.8 38.9 113.9 36.0 111.9 C 32.7 109.6 30.0 106.6 27.6 103.4 C 25.0 100.2 25.4 95.8 24.0 92.0 C 22.4 88.5 19.3 85.7 18.4 81.9 C 17.5 77.3 17.6 72.6 18.2 68.0 C 18.7 64.5 21.1 61.8 22.9 58.9 C 25.6 54.9 24.6 49.5 27.5 45.6 C 29.8 42.6 32.4 39.8 35.4 37.5 C 39.0 34.7 43.9 35.5 48.0 34.0 C 51.5 32.5 54.0 28.9 58.0 28.3 C 62.6 27.6 67.4 27.5 72.0 28.3 C 76.4 28.9 79.0 33.4 83.3 34.4 C 87.4 35.2 91.6 35.8 95.6 37.2 C 96.2 35.9 96.8 34.6 97.3 33.3 Z" />
<path fill="#ffffff" stroke="#ffffff" stroke-width="0.09375" opacity="1.00" d=" M 103.8 29.1 C 109.0 27.6 114.8 27.4 119.9 29.4 C 122.3 30.3 121.6 33.3 121.2 35.3 C 119.9 41.8 121.1 48.4 120.5 54.9 C 120.4 55.8 119.8 56.6 119.2 57.3 C 117.6 57.8 116.0 58.3 114.4 58.7 C 110.5 58.7 105.8 59.2 102.9 56.2 C 100.9 49.0 103.4 41.3 101.3 34.1 C 101.3 32.1 101.5 29.6 103.8 29.1 M 104.9 31.9 C 109.2 33.2 113.8 33.1 118.1 32.0 C 113.8 30.8 109.2 30.8 104.9 31.9 M 109.2 35.1 C 109.3 38.4 112.1 33.5 109.2 35.1 M 112.4 35.1 C 112.6 38.5 115.3 33.5 112.4 35.1 M 107.1 39.1 C 106.9 44.4 106.9 49.7 107.1 55.0 C 107.4 55.4 108.0 56.2 108.3 56.6 C 108.1 50.2 108.4 43.9 108.0 37.5 C 107.8 37.9 107.4 38.7 107.1 39.1 M 111.2 37.8 C 110.6 43.9 111.5 50.0 110.6 56.1 C 111.0 56.0 111.9 56.0 112.3 56.0 C 111.3 50.0 113.1 43.7 111.2 37.8 M 114.7 38.8 C 114.1 44.5 114.8 50.3 114.3 56.0 C 114.7 56.0 115.6 56.0 116.0 56.0 C 116.0 49.9 116.1 43.8 115.9 37.7 L 114.7 38.8 Z" />
<path fill="#0e315b" stroke="#0e315b" stroke-width="0.09375" opacity="0.66" d=" M 104.9 31.9 C 109.2 30.8 113.8 30.8 118.1 32.0 C 113.8 33.1 109.2 33.2 104.9 31.9 Z" />
<path fill="#ffffff" stroke="#ffffff" stroke-width="0.09375" opacity="1.00" d=" M 56.0 32.8 C 62.1 32.9 68.2 32.2 74.2 33.2 C 74.1 39.6 74.1 46.0 74.1 52.4 C 78.6 48.0 82.9 43.5 87.4 39.1 C 87.7 39.0 88.1 38.9 88.3 38.8 C 91.1 41.5 93.7 44.2 96.4 46.9 C 96.6 47.2 97.1 47.7 97.4 48.0 C 97.4 50.3 97.4 52.7 97.4 55.0 C 97.1 55.4 96.4 56.0 96.1 56.3 C 93.1 59.4 90.0 62.5 87.0 65.5 C 93.5 65.5 100.1 65.4 106.6 65.6 C 106.8 71.4 106.8 77.3 106.7 83.1 C 106.6 83.3 106.4 83.6 106.3 83.7 C 99.8 83.8 93.4 83.7 87.0 83.7 C 91.6 88.4 96.2 93.0 100.9 97.5 C 96.8 102.0 92.4 106.3 88.0 110.5 C 85.3 108.0 82.6 105.3 80.0 102.6 C 78.1 100.6 76.1 98.6 74.1 96.7 C 73.9 102.9 74.1 109.1 74.1 115.3 L 74.1 116.2 C 68.0 116.3 61.8 116.2 55.6 116.3 C 55.9 109.8 55.7 103.3 55.7 96.8 C 51.1 101.3 46.7 106.1 41.9 110.4 C 41.5 110.2 40.9 109.7 40.5 109.4 C 36.6 105.5 32.5 101.7 29.0 97.4 C 33.7 93.0 38.1 88.3 42.7 83.7 C 36.3 83.8 29.8 83.7 23.4 83.8 C 22.9 77.9 23.2 71.8 23.1 65.8 C 23.4 65.8 24.0 65.6 24.3 65.5 C 30.5 65.5 36.7 65.5 42.9 65.5 C 38.2 60.9 33.8 56.2 29.0 51.8 C 32.8 47.1 37.5 43.2 41.6 38.7 C 41.8 38.8 42.2 39.0 42.4 39.1 C 46.9 43.4 51.3 48.0 55.7 52.4 C 55.8 46.0 55.7 39.7 55.8 33.4 L 56.0 32.8 M 61.5 55.6 C 52.1 57.4 44.8 66.4 45.2 76.0 C 45.1 84.7 51.4 92.9 59.8 95.3 C 65.0 96.7 70.9 96.2 75.6 93.5 C 81.6 90.3 85.6 83.9 85.9 77.1 C 86.5 70.7 83.8 64.2 78.9 60.1 C 74.2 56.0 67.6 54.4 61.5 55.6 Z" />
<path fill="#0e315b" stroke="#0e315b" stroke-width="0.09375" opacity="0.66" d=" M 52.8 44.4 C 53.3 40.7 54.1 36.9 55.8 33.4 C 55.7 39.7 55.8 46.0 55.7 52.4 C 51.3 48.0 46.9 43.4 42.4 39.1 C 46.2 40.1 49.4 42.4 52.8 44.4 Z" />
<path fill="#0e315b" stroke="#0e315b" stroke-width="0.09375" opacity="0.66" d=" M 74.2 33.2 C 75.9 36.8 76.8 40.8 77.8 44.6 C 80.7 42.4 83.7 39.9 87.4 39.1 C 82.9 43.5 78.6 48.0 74.1 52.4 C 74.1 46.0 74.1 39.6 74.2 33.2 Z" />
<path fill="#13437b" stroke="#13437b" stroke-width="0.09375" opacity="0.78" d=" M 101.3 34.1 C 103.4 41.3 100.9 49.0 102.9 56.2 C 105.8 59.2 110.5 58.7 114.4 58.7 C 112.4 60.7 110.2 63.2 107.0 62.7 C 102.4 63.0 99.0 59.4 96.1 56.3 C 96.4 56.0 97.1 55.4 97.4 55.0 C 98.5 53.8 99.6 52.6 100.8 51.4 C 99.7 50.2 98.5 49.1 97.4 48.0 C 97.1 47.7 96.6 47.2 96.4 46.9 C 97.8 42.6 99.7 38.4 101.3 34.1 Z" />
<path fill="#d1d8df" stroke="#d1d8df" stroke-width="0.09375" opacity="0.96" d=" M 109.2 35.1 C 112.1 33.5 109.3 38.4 109.2 35.1 Z" />
<path fill="#d1d8df" stroke="#d1d8df" stroke-width="0.09375" opacity="0.96" d=" M 112.4 35.1 C 115.3 33.5 112.6 38.5 112.4 35.1 Z" />
<path fill="#6b839f" stroke="#6b839f" stroke-width="0.09375" opacity="0.89" d=" M 107.1 39.1 C 107.4 38.7 107.8 37.9 108.0 37.5 C 108.4 43.9 108.1 50.2 108.3 56.6 C 108.0 56.2 107.4 55.4 107.1 55.0 C 106.9 49.7 106.9 44.4 107.1 39.1 Z" />
<path fill="#4c6686" stroke="#4c6686" stroke-width="0.09375" opacity="0.84" d=" M 111.2 37.8 C 113.1 43.7 111.3 50.0 112.3 56.0 C 111.9 56.0 111.0 56.0 110.6 56.1 C 111.5 50.0 110.6 43.9 111.2 37.8 Z" />
<path fill="#8697ac" stroke="#8697ac" stroke-width="0.09375" opacity="0.89" d=" M 114.7 38.8 L 115.9 37.7 C 116.1 43.8 116.0 49.9 116.0 56.0 C 115.6 56.0 114.7 56.0 114.3 56.0 C 114.8 50.3 114.1 44.5 114.7 38.8 Z" />
<path fill="#a4b9d2" stroke="#a4b9d2" stroke-width="0.09375" opacity="1.00" d=" M 97.4 48.0 C 98.5 49.1 99.7 50.2 100.8 51.4 C 99.6 52.6 98.5 53.8 97.4 55.0 C 97.4 52.7 97.4 50.3 97.4 48.0 Z" />
<path fill="#0e315b" stroke="#0e315b" stroke-width="0.09375" opacity="0.66" d=" M 29.0 51.8 C 33.8 56.2 38.2 60.9 42.9 65.5 C 36.7 65.5 30.5 65.5 24.3 65.5 C 27.8 64.0 31.3 62.9 35.0 62.1 C 32.9 58.7 30.1 55.7 29.0 51.8 Z" />
<path fill="#385d8a" stroke="#385d8a" stroke-width="0.09375" opacity="1.00" d=" M 61.5 55.6 C 67.6 54.4 74.2 56.0 78.9 60.1 C 83.8 64.2 86.5 70.7 85.9 77.1 C 85.6 83.9 81.6 90.3 75.6 93.5 C 70.9 96.2 65.0 96.7 59.8 95.3 C 51.4 92.9 45.1 84.7 45.2 76.0 C 44.8 66.4 52.1 57.4 61.5 55.6 M 63.2 59.4 C 54.9 60.4 48.2 68.7 49.2 77.1 C 49.8 85.9 58.3 93.1 67.1 92.0 C 75.6 91.5 82.6 83.5 82.0 75.0 C 81.9 65.6 72.5 57.8 63.2 59.4 Z" />
<path fill="#0e315b" stroke="#0e315b" stroke-width="0.09375" opacity="0.63" d=" M 87.0 65.5 C 90.0 62.5 93.1 59.4 96.1 56.3 C 99.0 59.4 102.4 63.0 107.0 62.7 C 110.2 63.2 112.4 60.7 114.4 58.7 C 116.0 58.3 117.6 57.8 119.2 57.3 C 117.2 59.4 115.0 61.3 112.5 62.8 C 111.1 63.5 109.6 64.1 108.2 64.7 C 108.4 70.8 111.1 77.9 106.7 83.1 C 106.8 77.3 106.8 71.4 106.6 65.6 C 100.1 65.4 93.5 65.5 87.0 65.5 Z" />
<path fill="#4f81bd" stroke="#4f81bd" stroke-width="0.09375" opacity="1.00" d=" M 63.2 59.4 C 72.5 57.8 81.9 65.6 82.0 75.0 C 82.6 83.5 75.6 91.5 67.1 92.0 C 58.3 93.1 49.8 85.9 49.2 77.1 C 48.2 68.7 54.9 60.4 63.2 59.4 Z" />
<path fill="#0e315b" stroke="#0e315b" stroke-width="0.09375" opacity="0.66" d=" M 23.4 83.8 C 29.8 83.7 36.3 83.8 42.7 83.7 C 38.1 88.3 33.7 93.0 29.0 97.4 C 30.0 93.3 33.0 90.3 35.1 86.7 C 31.1 86.2 26.8 86.2 23.4 83.8 Z" />
<path fill="#0e315b" stroke="#0e315b" stroke-width="0.09375" opacity="0.65" d=" M 87.0 83.7 C 93.4 83.7 99.8 83.8 106.3 83.7 C 103.3 86.4 99.1 86.4 95.5 87.6 C 97.6 90.7 100.7 93.6 100.9 97.5 C 96.2 93.0 91.6 88.4 87.0 83.7 Z" />
<path fill="#0e315b" stroke="#0e315b" stroke-width="0.09375" opacity="0.65" d=" M 55.7 96.8 C 55.7 103.3 55.9 109.8 55.6 116.3 C 53.5 113.2 53.0 109.4 52.5 105.7 C 49.5 107.3 46.6 109.0 43.5 110.5 C 42.3 111.4 41.4 110.1 40.5 109.4 C 40.9 109.7 41.5 110.2 41.9 110.4 C 46.7 106.1 51.1 101.3 55.7 96.8 Z" />
<path fill="#27476c" stroke="#27476c" stroke-width="0.09375" opacity="0.73" d=" M 74.1 96.7 C 76.1 98.6 78.1 100.6 80.0 102.6 C 78.5 102.5 76.9 102.3 75.3 102.2 C 75.2 106.6 74.5 110.9 74.1 115.3 C 74.1 109.1 73.9 102.9 74.1 96.7 Z" />
</svg>
