<?xml version="1.0" encoding="UTF-8" ?>
<!DOCTYPE svg PUBLIC "-//W3C//DTD SVG 1.1//EN" "http://www.w3.org/Graphics/SVG/1.1/DTD/svg11.dtd">
<svg width="124pt" height="124pt" viewBox="0 0 124 124" version="1.1" xmlns="http://www.w3.org/2000/svg">
<path fill="#020912" stroke="#020912" stroke-width="0.09375" opacity="0.15" d=" M 54.4 6.5 C 63.0 6.3 73.0 4.9 80.2 10.9 C 84.3 14.7 90.4 13.9 94.7 17.2 C 98.8 20.2 102.2 23.8 105.3 27.8 C 108.6 31.8 108.3 37.5 111.3 41.7 C 113.7 45.2 116.2 49.0 116.5 53.3 C 116.9 58.8 116.9 64.2 116.5 69.7 C 116.2 74.0 113.7 77.8 111.3 81.3 C 108.4 85.3 108.6 90.7 105.7 94.7 C 102.6 98.9 98.9 102.7 94.7 105.8 C 91.6 108.3 87.4 108.4 83.7 109.9 C 80.5 111.4 77.9 114.3 74.3 115.3 C 66.2 117.8 57.5 117.5 49.3 115.6 C 44.9 114.6 42.1 110.6 37.8 109.4 C 34.6 108.4 31.1 107.9 28.3 105.8 C 24.3 102.8 20.8 99.2 17.7 95.2 C 14.6 91.4 14.8 86.0 12.1 81.9 C 10.4 79.2 8.4 76.7 7.4 73.6 C 6.1 69.9 6.3 65.9 6.2 62.0 C 6.3 57.8 6.0 53.4 7.4 49.4 C 8.4 46.3 10.4 43.8 12.1 41.1 C 14.8 37.0 14.5 31.6 17.7 27.7 C 20.8 23.8 24.3 20.2 28.3 17.2 C 32.4 14.0 38.3 14.7 42.3 11.3 C 45.7 8.5 49.9 6.6 54.4 6.5 M 56.3 9.4 C 54.0 9.6 51.7 9.8 49.6 10.6 C 46.4 11.8 44.2 14.4 41.3 16.0 C 37.6 17.5 33.2 17.3 29.9 19.9 C 26.3 22.6 23.1 25.8 20.4 29.4 C 17.8 32.7 17.6 37.2 15.9 40.9 C 13.9 45.0 10.2 48.2 9.6 53.0 C 9.1 58.3 9.2 63.8 9.5 69.1 C 9.7 73.4 12.6 76.8 14.8 80.2 C 17.7 84.2 17.3 89.7 20.3 93.6 C 23.1 97.1 26.4 100.3 29.9 103.1 C 33.2 105.7 37.5 105.5 41.2 107.0 C 44.8 109.0 47.7 112.5 52.0 113.1 C 58.3 114.0 64.8 114.0 71.0 113.0 C 75.3 112.5 78.2 109.0 81.8 107.0 C 85.4 105.5 89.8 105.7 93.0 103.2 C 96.6 100.4 99.9 97.2 102.6 93.6 C 104.8 90.9 105.3 87.4 106.3 84.2 C 107.8 79.0 112.8 75.5 113.4 70.0 C 113.9 64.6 113.8 59.2 113.5 53.8 C 113.2 49.3 110.1 45.9 107.8 42.3 C 105.4 38.3 105.6 33.1 102.6 29.4 C 99.9 25.8 96.6 22.6 93.1 19.9 C 89.8 17.3 85.5 17.5 81.8 16.0 C 78.6 14.3 76.2 11.3 72.6 10.4 C 67.3 8.9 61.8 9.3 56.3 9.4 Z" />
<path fill="#081b33" stroke="#081b33" stroke-width="0.09375" opacity="0.34" d=" M 56.3 9.4 C 61.8 9.3 67.3 8.9 72.6 10.4 C 76.2 11.3 78.6 14.3 81.8 16.0 C 85.5 17.5 89.8 17.3 93.1 19.9 C 96.6 22.6 99.9 25.8 102.6 29.4 C 105.6 33.1 105.4 38.3 107.8 42.3 C 110.1 45.9 113.2 49.3 113.5 53.8 C 113.8 59.2 113.9 64.6 113.4 70.0 C 112.8 75.5 107.8 79.0 106.3 84.2 C 105.3 87.4 104.8 90.9 102.6 93.6 C 99.9 97.2 96.6 100.4 93.0 103.2 C 89.8 105.7 85.4 105.5 81.8 107.0 C 78.2 109.0 75.3 112.5 71.0 113.0 C 64.8 114.0 58.3 114.0 52.0 113.1 C 47.7 112.5 44.8 109.0 41.2 107.0 C 37.5 105.5 33.2 105.7 29.9 103.1 C 26.4 100.3 23.1 97.1 20.3 93.6 C 17.3 89.7 17.7 84.2 14.8 80.2 C 12.6 76.8 9.7 73.4 9.5 69.1 C 9.2 63.8 9.1 58.3 9.6 53.0 C 10.2 48.2 13.9 45.0 15.9 40.9 C 17.6 37.2 17.8 32.7 20.4 29.4 C 23.1 25.8 26.3 22.6 29.9 19.9 C 33.2 17.3 37.6 17.5 41.3 16.0 C 44.2 14.4 46.4 11.8 49.6 10.6 C 51.7 9.8 54.0 9.6 56.3 9.4 M 55.3 12.6 C 51.4 12.6 48.0 14.7 45.2 17.2 C 41.3 21.1 35.0 19.5 31.0 22.9 C 28.1 25.4 25.4 28.0 23.0 30.9 C 19.9 34.7 20.8 40.1 18.0 43.9 C 15.8 47.2 12.7 50.2 12.6 54.3 C 12.3 59.3 12.2 64.4 12.7 69.4 C 13.1 74.8 18.7 77.9 19.7 83.1 C 20.7 86.3 21.0 89.9 23.4 92.6 C 25.8 95.4 28.5 98.1 31.5 100.4 C 34.8 102.9 39.2 102.4 42.8 104.1 C 46.2 106.0 48.8 109.6 52.9 110.1 C 58.6 110.9 64.4 110.8 70.0 110.1 C 74.2 109.7 76.7 106.1 80.1 104.1 C 83.7 102.4 88.2 102.9 91.5 100.5 C 94.7 98.0 97.5 95.1 100.0 92.0 C 103.1 88.3 102.2 82.9 105.0 79.0 C 107.1 76.0 110.0 73.2 110.3 69.4 C 110.8 64.4 110.7 59.4 110.4 54.4 C 110.3 50.2 107.2 47.2 105.0 43.9 C 102.2 40.1 103.0 34.7 100.0 31.0 C 97.5 27.9 94.7 25.0 91.5 22.6 C 88.2 20.1 83.8 20.6 80.2 18.9 C 76.8 17.0 74.2 13.3 70.0 12.9 C 65.2 12.1 60.2 12.3 55.3 12.6 Z" />
<path fill="#0d2f57" stroke="#0d2f57" stroke-width="0.09375" opacity="0.56" d=" M 55.3 12.6 C 60.2 12.3 65.2 12.1 70.0 12.9 C 74.2 13.3 76.8 17.0 80.2 18.9 C 83.8 20.6 88.2 20.1 91.5 22.6 C 94.7 25.0 97.5 27.9 100.0 31.0 C 103.0 34.7 102.2 40.1 105.0 43.9 C 107.2 47.2 110.3 50.2 110.4 54.4 C 110.7 59.4 110.8 64.4 110.3 69.4 C 110.0 73.2 107.1 76.0 105.0 79.0 C 102.2 82.9 103.1 88.3 100.0 92.0 C 97.5 95.1 94.7 98.0 91.5 100.5 C 88.2 102.9 83.7 102.4 80.1 104.1 C 76.7 106.1 74.2 109.7 70.0 110.1 C 64.4 110.8 58.6 110.9 52.9 110.1 C 48.8 109.6 46.2 106.0 42.8 104.1 C 39.2 102.4 34.8 102.9 31.5 100.4 C 28.5 98.1 25.8 95.4 23.4 92.6 C 21.0 89.9 20.7 86.3 19.7 83.1 C 18.7 77.9 13.1 74.8 12.7 69.4 C 12.2 64.4 12.3 59.3 12.6 54.3 C 12.7 50.2 15.8 47.2 18.0 43.9 C 20.8 40.1 19.9 34.7 23.0 30.9 C 25.4 28.0 28.1 25.4 31.0 22.9 C 35.0 19.5 41.3 21.1 45.2 17.2 C 48.0 14.7 51.4 12.6 55.3 12.6 M 48.4 29.2 C 45.4 27.6 42.5 25.9 39.1 25.3 C 34.1 29.6 29.7 34.5 25.1 39.1 C 26.0 42.3 27.4 45.3 29.0 48.2 C 25.8 48.8 22.0 48.7 19.7 51.5 L 19.6 51.5 C 19.4 58.2 19.4 65.0 19.6 71.7 L 19.7 71.7 C 22.0 74.5 25.8 74.7 29.0 75.7 C 27.1 78.2 25.2 80.9 25.1 84.2 C 29.7 88.9 34.2 93.5 39.0 98.0 C 39.0 97.9 39.2 97.7 39.3 97.6 C 42.7 98.0 45.1 94.2 48.1 94.6 C 49.1 97.7 49.1 101.3 51.5 103.7 C 58.2 103.7 65.0 103.9 71.8 103.6 C 74.2 101.0 74.5 97.3 75.2 93.9 C 77.8 95.7 80.6 97.5 83.8 97.7 C 83.9 97.7 84.1 97.9 84.1 98.0 C 88.6 93.3 94.1 89.3 97.7 83.9 C 97.6 80.6 95.7 77.9 93.9 75.2 C 97.3 74.4 101.0 74.3 103.6 71.8 C 103.9 65.0 103.8 58.2 103.6 51.5 L 102.4 51.4 L 104.2 51.1 C 101.2 49.5 97.8 49.1 94.6 48.1 C 94.4 45.0 98.0 42.6 97.8 39.2 C 93.8 34.1 88.8 29.7 84.1 25.2 L 83.9 25.5 C 80.6 25.2 78.0 27.4 75.4 29.1 C 74.4 25.7 74.6 21.5 72.0 19.0 C 65.4 18.0 58.6 18.1 52.0 18.9 C 48.4 20.9 49.1 25.7 48.4 29.2 Z" />
<path fill="#0e315b" stroke="#0e315b" stroke-width="0.09375" opacity="0.65" d=" M 48.4 29.2 C 49.1 25.7 48.4 20.9 52.0 18.9 C 58.6 18.1 65.4 18.0 72.0 19.0 C 74.6 21.5 74.4 25.7 75.4 29.1 C 78.0 27.4 80.6 25.2 83.9 25.5 C 79.8 29.9 75.8 34.2 71.7 38.6 C 71.7 32.3 71.8 25.9 71.7 19.6 C 65.0 19.4 58.3 19.5 51.6 19.6 C 51.4 25.9 51.5 32.3 51.5 38.6 C 47.3 34.2 43.3 29.7 39.1 25.3 C 42.5 25.9 45.4 27.6 48.4 29.2 Z" />
<path fill="#ffffff" stroke="#ffffff" stroke-width="0.09375" opacity="1.00" d=" M 51.6 19.6 C 58.3 19.5 65.0 19.4 71.7 19.6 C 71.8 25.9 71.7 32.3 71.7 38.6 C 75.8 34.2 79.8 29.9 83.9 25.5 L 84.1 25.2 C 88.8 29.7 93.8 34.1 97.8 39.2 C 93.5 43.4 89.0 47.4 84.6 51.5 C 90.5 51.4 96.5 51.6 102.4 51.4 L 103.6 51.5 C 103.8 58.2 103.9 65.0 103.6 71.8 C 97.3 71.7 90.9 71.7 84.6 71.8 C 89.0 75.8 93.4 79.8 97.7 83.9 C 94.1 89.3 88.6 93.3 84.1 98.0 C 84.1 97.9 83.9 97.7 83.8 97.7 C 79.8 93.3 75.8 89.0 71.8 84.6 C 71.8 90.9 71.7 97.3 71.8 103.6 C 65.0 103.9 58.2 103.7 51.5 103.7 C 51.5 97.3 51.5 90.9 51.5 84.5 C 47.4 88.9 43.4 93.3 39.3 97.6 C 39.2 97.7 39.0 97.9 39.0 98.0 C 34.2 93.5 29.7 88.9 25.1 84.2 C 29.6 80.1 34.1 75.9 38.5 71.8 C 32.3 71.7 26.0 71.8 19.7 71.7 L 19.6 71.7 C 19.4 65.0 19.4 58.2 19.6 51.5 L 19.7 51.5 C 26.0 51.5 32.3 51.5 38.5 51.5 C 34.1 47.4 29.6 43.2 25.1 39.1 C 29.7 34.5 34.1 29.6 39.1 25.3 C 43.3 29.7 47.3 34.2 51.5 38.6 C 51.5 32.3 51.4 25.9 51.6 19.6 M 57.5 43.6 C 48.8 45.3 41.8 53.2 41.2 62.0 C 40.6 68.5 43.4 75.2 48.5 79.4 C 55.4 85.3 66.2 85.6 73.5 80.3 C 79.3 76.3 82.6 69.0 81.9 61.9 C 81.4 50.1 69.0 40.9 57.5 43.6 Z" />
<path fill="#0e315b" stroke="#0e315b" stroke-width="0.09375" opacity="0.65" d=" M 25.1 39.1 C 29.6 43.2 34.1 47.4 38.5 51.5 C 32.3 51.5 26.0 51.5 19.7 51.5 C 22.0 48.7 25.8 48.8 29.0 48.2 C 27.4 45.3 26.0 42.3 25.1 39.1 Z" />
<path fill="#0e315b" stroke="#0e315b" stroke-width="0.09375" opacity="0.66" d=" M 84.6 51.5 C 89.0 47.4 93.5 43.4 97.8 39.2 C 98.0 42.6 94.4 45.0 94.6 48.1 C 97.8 49.1 101.2 49.5 104.2 51.1 L 102.4 51.4 C 96.5 51.6 90.5 51.4 84.6 51.5 Z" />
<path fill="#385d8a" stroke="#385d8a" stroke-width="0.09375" opacity="1.00" d=" M 57.5 43.6 C 69.0 40.9 81.4 50.1 81.9 61.9 C 82.6 69.0 79.3 76.3 73.5 80.3 C 66.2 85.6 55.4 85.3 48.5 79.4 C 43.4 75.2 40.6 68.5 41.2 62.0 C 41.8 53.2 48.8 45.3 57.5 43.6 M 59.3 47.4 C 51.0 48.4 44.2 56.6 45.2 65.1 C 45.8 73.8 54.3 81.1 63.0 80.0 C 71.6 79.5 78.6 71.5 78.0 63.0 C 77.9 53.6 68.6 45.8 59.3 47.4 Z" />
<path fill="#4f81bd" stroke="#4f81bd" stroke-width="0.09375" opacity="1.00" d=" M 59.3 47.4 C 68.6 45.8 77.9 53.6 78.0 63.0 C 78.6 71.5 71.6 79.5 63.0 80.0 C 54.3 81.1 45.8 73.8 45.2 65.1 C 44.2 56.6 51.0 48.4 59.3 47.4 Z" />
<path fill="#0e315b" stroke="#0e315b" stroke-width="0.09375" opacity="0.65" d=" M 19.7 71.7 C 26.0 71.8 32.3 71.7 38.5 71.8 C 34.1 75.9 29.6 80.1 25.1 84.2 C 25.2 80.9 27.1 78.2 29.0 75.7 C 25.8 74.7 22.0 74.5 19.7 71.7 Z" />
<path fill="#0e315b" stroke="#0e315b" stroke-width="0.09375" opacity="0.65" d=" M 84.6 71.8 C 90.9 71.7 97.3 71.7 103.6 71.8 C 101.0 74.3 97.3 74.4 93.9 75.2 C 95.7 77.9 97.6 80.6 97.7 83.9 C 93.4 79.8 89.0 75.8 84.6 71.8 Z" />
<path fill="#0e315b" stroke="#0e315b" stroke-width="0.09375" opacity="0.66" d=" M 39.3 97.6 C 43.4 93.3 47.4 88.9 51.5 84.5 C 51.5 90.9 51.5 97.3 51.5 103.7 C 49.1 101.3 49.1 97.7 48.1 94.6 C 45.1 94.2 42.7 98.0 39.3 97.6 Z" />
<path fill="#0e315b" stroke="#0e315b" stroke-width="0.09375" opacity="0.65" d=" M 71.8 84.6 C 75.8 89.0 79.8 93.3 83.8 97.7 C 80.6 97.5 77.8 95.7 75.2 93.9 C 74.5 97.3 74.2 101.0 71.8 103.6 C 71.7 97.3 71.8 90.9 71.8 84.6 Z" />
</svg>
