<?xml version="1.0" encoding="UTF-8" ?>
<!DOCTYPE svg PUBLIC "-//W3C//DTD SVG 1.1//EN" "http://www.w3.org/Graphics/SVG/1.1/DTD/svg11.dtd">
<svg width="124pt" height="114pt" viewBox="0 0 124 114" version="1.1" xmlns="http://www.w3.org/2000/svg">
<path fill="#1e2122" stroke="#1e2122" stroke-width="0.09375" opacity="0.15" d=" M 10.7 10.1 C 9.3 7.6 12.9 6.0 14.9 6.5 C 47.4 6.5 79.8 6.3 112.3 6.6 C 112.6 7.7 113.8 8.9 113.3 10.0 L 112.8 11.1 C 112.4 10.5 111.6 9.1 111.2 8.5 C 78.4 8.2 45.6 8.2 12.8 8.5 C 12.4 9.2 11.6 10.5 11.2 11.2 L 10.7 10.1 Z" />
<path fill="#717b80" stroke="#717b80" stroke-width="0.09375" opacity="0.53" d=" M 12.8 8.5 C 45.6 8.2 78.4 8.2 111.2 8.5 C 111.6 9.1 112.4 10.5 112.8 11.1 C 112.3 12.1 111.9 13.2 111.5 14.2 C 111.1 12.6 111.2 10.1 109.0 9.9 C 105.4 9.4 101.7 9.7 98.0 9.7 C 73.3 9.7 48.7 9.7 24.0 9.7 C 20.7 9.7 17.4 9.3 14.2 10.1 C 12.7 10.8 13.0 12.8 12.5 14.2 C 12.1 13.2 11.7 12.2 11.2 11.2 C 11.6 10.5 12.4 9.2 12.8 8.5 Z" />
<path fill="#bdd2d9" stroke="#bdd2d9" stroke-width="0.09375" opacity="0.88" d=" M 14.2 10.1 C 17.4 9.3 20.7 9.7 24.0 9.7 C 48.7 9.7 73.3 9.7 98.0 9.7 C 101.7 9.7 105.4 9.4 109.0 9.9 C 111.2 10.1 111.1 12.6 111.5 14.2 C 111.2 22.7 111.5 31.1 111.2 39.6 C 108.9 30.4 110.9 20.9 109.6 11.6 C 88.0 11.3 66.5 11.6 45.0 11.5 C 34.8 11.6 24.7 11.3 14.5 11.6 C 13.2 20.9 14.9 30.4 12.8 39.5 C 12.5 31.1 12.8 22.6 12.5 14.2 C 13.0 12.8 12.7 10.8 14.2 10.1 Z" />
<path fill="#5f767c" stroke="#5f767c" stroke-width="0.09375" opacity="0.58" d=" M 10.7 10.1 L 11.2 11.2 C 11.7 12.2 12.1 13.2 12.5 14.2 C 12.8 22.6 12.5 31.1 12.8 39.5 C 12.6 53.4 12.6 67.3 12.8 81.2 C 12.6 87.1 11.7 93.2 13.7 98.9 C 13.5 99.0 13.1 99.2 13.0 99.3 L 11.7 99.8 C 11.0 97.6 10.4 95.3 10.6 93.0 C 10.7 65.4 10.4 37.8 10.7 10.1 Z" />
<path fill="#5f767d" stroke="#5f767d" stroke-width="0.09375" opacity="0.58" d=" M 112.8 11.1 L 113.3 10.0 C 113.6 39.6 113.4 69.3 113.3 98.9 C 113.0 98.7 112.4 98.3 112.1 98.1 C 112.0 97.9 111.9 97.5 111.8 97.3 C 111.3 92.0 111.6 86.6 111.2 81.3 C 111.3 67.4 111.4 53.5 111.2 39.6 C 111.5 31.1 111.2 22.7 111.5 14.2 C 111.9 13.2 112.3 12.1 112.8 11.1 Z" />
<path fill="#acd5e2" stroke="#acd5e2" stroke-width="0.09375" opacity="0.92" d=" M 12.8 39.5 C 14.9 30.4 13.2 20.9 14.5 11.6 C 14.5 19.6 14.2 27.5 14.9 35.5 C 14.4 42.5 14.4 49.6 15.0 56.7 C 14.2 70.0 15.4 83.4 14.3 96.7 C 13.3 91.6 13.8 86.3 12.8 81.2 C 12.6 67.3 12.6 53.4 12.8 39.5 Z" />
<path fill="#d9f6ff" stroke="#d9f6ff" stroke-width="0.09375" opacity="1.00" d=" M 14.5 11.6 C 24.7 11.3 34.8 11.6 45.0 11.5 C 66.5 11.6 88.0 11.3 109.6 11.6 C 109.5 15.6 109.5 19.6 109.4 23.6 C 108.4 25.8 107.6 28.2 105.8 29.9 C 103.0 30.8 100.1 29.7 97.3 29.1 C 98.1 28.0 98.8 26.9 99.4 25.7 C 96.8 26.9 94.5 28.5 92.2 30.3 C 85.6 30.1 78.9 30.1 72.2 30.1 C 72.3 25.3 72.6 20.6 71.7 15.9 C 63.5 23.4 55.9 31.5 48.0 39.2 C 40.1 39.3 32.2 39.1 24.4 39.4 C 24.3 41.9 24.2 44.4 24.2 46.9 C 22.0 46.8 19.7 46.6 17.5 46.5 C 16.8 42.8 15.9 39.1 14.9 35.5 C 14.2 27.5 14.5 19.6 14.5 11.6 Z" />
<path fill="#acd5e2" stroke="#acd5e2" stroke-width="0.09375" opacity="0.92" d=" M 109.6 11.6 C 110.9 20.9 108.9 30.4 111.2 39.6 C 111.4 53.5 111.3 67.4 111.2 81.3 C 110.2 86.4 110.7 91.6 109.8 96.7 C 108.7 86.4 109.7 76.0 109.0 65.7 C 109.5 59.3 109.4 52.9 109.1 46.6 C 109.6 38.9 109.4 31.2 109.4 23.6 C 109.5 19.6 109.5 15.6 109.6 11.6 Z" />
<path fill="#46aac5" stroke="#46aac5" stroke-width="0.09375" opacity="1.00" d=" M 48.0 39.2 C 55.9 31.5 63.5 23.4 71.7 15.9 C 72.6 20.6 72.3 25.3 72.2 30.1 C 72.2 39.0 72.3 48.0 72.3 56.9 C 72.2 62.0 72.3 67.1 72.2 72.3 C 72.1 79.0 72.5 85.7 72.0 92.4 C 63.4 85.2 56.1 76.7 48.0 69.0 C 40.4 69.0 32.7 69.0 25.1 69.0 C 24.9 68.6 24.4 67.9 24.2 67.5 C 24.3 60.6 24.3 53.8 24.2 46.9 C 24.2 44.4 24.3 41.9 24.4 39.4 C 32.2 39.1 40.1 39.3 48.0 39.2 M 49.0 41.1 C 41.4 41.3 33.8 41.1 26.3 41.2 C 26.2 49.8 26.3 58.4 26.3 66.9 C 33.2 67.1 40.1 66.8 47.0 67.0 C 48.7 66.8 49.8 68.0 50.9 69.0 C 57.3 75.4 63.5 81.9 70.1 88.1 C 70.4 65.5 70.3 42.8 70.2 20.2 C 62.8 26.9 56.1 34.2 49.0 41.1 Z" />
<path fill="#769099" stroke="#769099" stroke-width="0.09375" opacity="1.00" d=" M 49.0 41.1 C 56.1 34.2 62.8 26.9 70.2 20.2 C 70.3 42.8 70.4 65.5 70.1 88.1 C 63.5 81.9 57.3 75.4 50.9 69.0 C 49.8 68.0 48.7 66.8 47.0 67.0 C 40.1 66.8 33.2 67.1 26.3 66.9 C 26.3 58.4 26.2 49.8 26.3 41.2 C 33.8 41.1 41.4 41.3 49.0 41.1 Z" />
<path fill="#cbf3ff" stroke="#cbf3ff" stroke-width="0.09375" opacity="1.00" d=" M 105.8 29.9 C 107.6 28.2 108.4 25.8 109.4 23.6 C 109.4 31.2 109.6 38.9 109.1 46.6 C 108.2 49.9 107.3 53.3 106.5 56.7 C 95.1 57.1 83.7 56.7 72.3 56.9 C 72.3 48.0 72.2 39.0 72.2 30.1 C 78.9 30.1 85.6 30.1 92.2 30.3 C 88.4 33.5 83.9 36.0 80.3 39.5 C 80.3 39.9 80.3 40.6 80.4 41.0 C 86.6 38.0 91.5 32.8 97.3 29.1 C 100.1 29.7 103.0 30.8 105.8 29.9 M 79.8 54.8 C 86.0 55.1 92.3 55.3 98.5 54.8 C 98.7 54.4 99.0 53.5 99.2 53.1 C 93.4 52.9 87.7 52.8 81.9 53.0 C 80.8 53.0 80.1 53.6 79.8 54.8 Z" />
<path fill="#46aac5" stroke="#46aac5" stroke-width="0.09375" opacity="1.00" d=" M 92.2 30.3 C 94.5 28.5 96.8 26.9 99.4 25.7 C 98.8 26.9 98.1 28.0 97.3 29.1 C 91.5 32.8 86.6 38.0 80.4 41.0 C 80.3 40.6 80.3 39.9 80.3 39.5 C 83.9 36.0 88.4 33.5 92.2 30.3 Z" />
<path fill="#c3f0ff" stroke="#c3f0ff" stroke-width="0.09375" opacity="1.00" d=" M 14.9 35.5 C 15.9 39.1 16.8 42.8 17.5 46.5 C 19.7 46.6 22.0 46.8 24.2 46.9 C 24.3 53.8 24.3 60.6 24.2 67.5 C 21.9 67.3 19.5 67.1 17.2 66.9 C 16.4 63.5 15.6 60.1 15.0 56.7 C 14.4 49.6 14.4 42.5 14.9 35.5 Z" />
<path fill="#beefff" stroke="#beefff" stroke-width="0.09375" opacity="1.00" d=" M 106.5 56.7 C 107.3 53.3 108.2 49.9 109.1 46.6 C 109.4 52.9 109.5 59.3 109.0 65.7 C 108.3 67.8 107.4 69.8 106.5 71.9 C 100.3 72.4 94.1 72.2 87.9 72.2 C 85.6 70.5 83.3 68.8 81.1 67.1 C 80.8 67.5 80.2 68.3 79.9 68.7 C 81.1 69.7 82.4 70.6 83.6 71.6 C 79.8 72.0 76.0 72.2 72.2 72.3 C 72.3 67.1 72.2 62.0 72.3 56.9 C 83.7 56.7 95.1 57.1 106.5 56.7 Z" />
<path fill="#4aacc7" stroke="#4aacc7" stroke-width="0.09375" opacity="1.00" d=" M 79.8 54.8 C 80.1 53.6 80.8 53.0 81.9 53.0 C 87.7 52.8 93.4 52.9 99.2 53.1 C 99.0 53.5 98.7 54.4 98.5 54.8 C 92.3 55.3 86.0 55.1 79.8 54.8 Z" />
<path fill="#adedff" stroke="#adedff" stroke-width="0.09375" opacity="1.00" d=" M 15.0 56.7 C 15.6 60.1 16.4 63.5 17.2 66.9 C 19.5 67.1 21.9 67.3 24.2 67.5 C 24.4 67.9 24.9 68.6 25.1 69.0 C 32.7 69.0 40.4 69.0 48.0 69.0 C 56.1 76.7 63.4 85.2 72.0 92.4 C 72.5 85.7 72.1 79.0 72.2 72.3 C 76.0 72.2 79.8 72.0 83.6 71.6 C 89.0 75.2 93.6 79.9 99.6 82.6 C 97.1 77.8 91.7 75.7 87.9 72.2 C 94.1 72.2 100.3 72.4 106.5 71.9 C 107.4 69.8 108.3 67.8 109.0 65.7 C 109.7 76.0 108.7 86.4 109.8 96.7 C 101.5 96.4 93.2 97.4 85.0 96.8 C 74.3 96.3 63.7 97.8 53.0 96.8 C 48.0 96.3 43.0 97.4 38.0 97.0 C 30.1 96.4 22.2 96.8 14.3 96.7 C 15.4 83.4 14.2 70.0 15.0 56.7 Z" />
<path fill="#46aac5" stroke="#46aac5" stroke-width="0.09375" opacity="1.00" d=" M 81.1 67.1 C 83.3 68.8 85.6 70.5 87.9 72.2 C 91.7 75.7 97.1 77.8 99.6 82.6 C 93.6 79.9 89.0 75.2 83.6 71.6 C 82.4 70.6 81.1 69.7 79.9 68.7 C 80.2 68.3 80.8 67.5 81.1 67.1 Z" />
<path fill="#76aab8" stroke="#76aab8" stroke-width="0.09375" opacity="0.82" d=" M 12.8 81.2 C 13.8 86.3 13.3 91.6 14.3 96.7 C 22.2 96.8 30.1 96.4 38.0 97.0 C 43.0 97.4 48.0 96.3 53.0 96.8 C 63.7 97.8 74.3 96.3 85.0 96.8 C 93.2 97.4 101.5 96.4 109.8 96.7 C 110.7 91.6 110.2 86.4 111.2 81.3 C 111.6 86.6 111.3 92.0 111.8 97.3 C 110.4 98.2 108.8 99.1 107.0 99.0 C 91.7 98.6 76.3 98.6 61.0 99.1 C 50.6 98.4 40.3 98.9 29.9 99.0 C 24.5 99.0 19.1 98.4 13.7 98.9 C 11.7 93.2 12.6 87.1 12.8 81.2 Z" />
<path fill="#2d4248" stroke="#2d4248" stroke-width="0.09375" opacity="0.49" d=" M 111.8 97.3 C 111.9 97.5 112.0 97.9 112.1 98.1 L 112.9 100.4 L 111.8 100.4 C 84.2 101.0 56.6 100.5 29.0 100.7 C 23.2 100.7 17.4 100.9 11.6 100.3 L 13.0 99.3 C 13.1 99.2 13.5 99.0 13.7 98.9 C 19.1 98.4 24.5 99.0 29.9 99.0 C 40.3 98.9 50.6 98.4 61.0 99.1 C 76.3 98.6 91.7 98.6 107.0 99.0 C 108.8 99.1 110.4 98.2 111.8 97.3 Z" />
<path fill="#000203" stroke="#000203" stroke-width="0.09375" opacity="0.18" d=" M 11.6 100.3 C 17.4 100.9 23.2 100.7 29.0 100.7 C 56.6 100.5 84.2 101.0 111.8 100.4 C 111.7 101.2 111.6 102.7 111.5 103.5 C 104.7 103.8 97.8 104.6 91.0 104.0 C 83.3 104.3 75.6 104.4 68.0 104.3 C 49.5 102.8 31.0 105.6 12.6 103.4 C 12.3 102.7 11.8 101.1 11.6 100.3 Z" />
</svg>
